solid OpenSCAD_Model
  facet normal -1 0 0
    outer loop
      vertex -10 -10 0
      vertex -10 -10 7
      vertex -10 30 0
    endloop
  endfacet
  facet normal -1 0 0
    outer loop
      vertex -10 30 0
      vertex -10 -10 7
      vertex -10 20 7
    endloop
  endfacet
  facet normal -1 0 0
    outer loop
      vertex -10 23.4 8.5
      vertex -10 20 7
      vertex -10 20 13.5
    endloop
  endfacet
  facet normal -1 0 0
    outer loop
      vertex -10 25.9405 9.79443
      vertex -10 20 13.5
      vertex -10 30 13.5
    endloop
  endfacet
  facet normal -1 0 0
    outer loop
      vertex -10 23.4783 8.00557
      vertex -10 20 7
      vertex -10 23.4 8.5
    endloop
  endfacet
  facet normal -1 0 0
    outer loop
      vertex -10 24.5056 6.97831
      vertex -10 30 0
      vertex -10 24.0595 7.20557
    endloop
  endfacet
  facet normal -1 0 0
    outer loop
      vertex -10 23.7056 7.55954
      vertex -10 20 7
      vertex -10 23.4783 8.00557
    endloop
  endfacet
  facet normal -1 0 0
    outer loop
      vertex -10 30 0
      vertex -10 20 7
      vertex -10 23.7056 7.55954
    endloop
  endfacet
  facet normal -1 0 0
    outer loop
      vertex -10 30 0
      vertex -10 23.7056 7.55954
      vertex -10 24.0595 7.20557
    endloop
  endfacet
  facet normal -1 0 0
    outer loop
      vertex -10 25 6.9
      vertex -10 30 0
      vertex -10 24.5056 6.97831
    endloop
  endfacet
  facet normal -1 0 0
    outer loop
      vertex -10 30 0
      vertex -10 25 6.9
      vertex -10 25.4944 6.97831
    endloop
  endfacet
  facet normal -1 0 0
    outer loop
      vertex -10 30 0
      vertex -10 25.4944 6.97831
      vertex -10 25.9405 7.20557
    endloop
  endfacet
  facet normal -1 0 0
    outer loop
      vertex -10 30 0
      vertex -10 25.9405 7.20557
      vertex -10 26.2944 7.55954
    endloop
  endfacet
  facet normal -1 0 0
    outer loop
      vertex -10 30 0
      vertex -10 26.2944 7.55954
      vertex -10 30 13.5
    endloop
  endfacet
  facet normal -1 0 0
    outer loop
      vertex -10 26.2944 7.55954
      vertex -10 26.5217 8.00557
      vertex -10 30 13.5
    endloop
  endfacet
  facet normal -1 0 0
    outer loop
      vertex -10 26.5217 8.99443
      vertex -10 30 13.5
      vertex -10 26.6 8.5
    endloop
  endfacet
  facet normal -1 0 0
    outer loop
      vertex -10 25 10.1
      vertex -10 20 13.5
      vertex -10 25.4944 10.0217
    endloop
  endfacet
  facet normal -1 0 0
    outer loop
      vertex -10 24.5056 10.0217
      vertex -10 20 13.5
      vertex -10 25 10.1
    endloop
  endfacet
  facet normal -1 0 0
    outer loop
      vertex -10 26.5217 8.99443
      vertex -10 26.2944 9.44046
      vertex -10 30 13.5
    endloop
  endfacet
  facet normal -1 0 0
    outer loop
      vertex -10 25.4944 10.0217
      vertex -10 20 13.5
      vertex -10 25.9405 9.79443
    endloop
  endfacet
  facet normal -1 0 0
    outer loop
      vertex -10 26.2944 9.44046
      vertex -10 25.9405 9.79443
      vertex -10 30 13.5
    endloop
  endfacet
  facet normal -1 0 0
    outer loop
      vertex -10 24.0595 9.79443
      vertex -10 20 13.5
      vertex -10 24.5056 10.0217
    endloop
  endfacet
  facet normal -1 0 0
    outer loop
      vertex -10 23.7056 9.44046
      vertex -10 20 13.5
      vertex -10 24.0595 9.79443
    endloop
  endfacet
  facet normal -1 0 0
    outer loop
      vertex -10 23.4783 8.99443
      vertex -10 20 13.5
      vertex -10 23.7056 9.44046
    endloop
  endfacet
  facet normal -1 0 0
    outer loop
      vertex -10 23.4 8.5
      vertex -10 20 13.5
      vertex -10 23.4783 8.99443
    endloop
  endfacet
  facet normal -1 0 0
    outer loop
      vertex -10 26.6 8.5
      vertex -10 30 13.5
      vertex -10 26.5217 8.00557
    endloop
  endfacet
  facet normal 0 -1 0
    outer loop
      vertex -10 -10 7
      vertex -10 -10 0
      vertex 10 -10 0
    endloop
  endfacet
  facet normal 0 -1 0
    outer loop
      vertex 10 -10 7
      vertex -10 -10 7
      vertex 10 -10 0
    endloop
  endfacet
  facet normal 0 0 -1
    outer loop
      vertex -10 -10 0
      vertex -10 30 0
      vertex -4 16 0
    endloop
  endfacet
  facet normal 0 0 -1
    outer loop
      vertex 10 -1 0
      vertex 10 -10 0
      vertex -1 -1 0
    endloop
  endfacet
  facet normal 0 0 -1
    outer loop
      vertex -1 1 0
      vertex -4 16 0
      vertex 4 16 0
    endloop
  endfacet
  facet normal 0 0 -1
    outer loop
      vertex 10 1 0
      vertex 4 30 0
      vertex 10 30 0
    endloop
  endfacet
  facet normal 0 0 -1
    outer loop
      vertex -10 -10 0
      vertex -4 16 0
      vertex -1 1 0
    endloop
  endfacet
  facet normal 0 0 -1
    outer loop
      vertex -10 -10 0
      vertex -1 1 0
      vertex -1 -1 0
    endloop
  endfacet
  facet normal 0 0 -1
    outer loop
      vertex -10 -10 0
      vertex -1 -1 0
      vertex 10 -10 0
    endloop
  endfacet
  facet normal 0 0 -1
    outer loop
      vertex -4 16 0
      vertex -10 30 0
      vertex -4 30 0
    endloop
  endfacet
  facet normal 0 0 -1
    outer loop
      vertex 4 16 0
      vertex 4 30 0
      vertex 10 1 0
    endloop
  endfacet
  facet normal 0 0 -1
    outer loop
      vertex -1 1 0
      vertex 4 16 0
      vertex 10 1 0
    endloop
  endfacet
  facet normal 0 1 0
    outer loop
      vertex -10 30 0
      vertex -10 30 13.5
      vertex -4 30 0
    endloop
  endfacet
  facet normal 0 1 0
    outer loop
      vertex -4 30 0
      vertex -10 30 13.5
      vertex -4 30 13.5
    endloop
  endfacet
  facet normal 0 0 1
    outer loop
      vertex -10 30 13.5
      vertex -10 20 13.5
      vertex -4 20 13.5
    endloop
  endfacet
  facet normal 0 0 1
    outer loop
      vertex -4 30 13.5
      vertex -10 30 13.5
      vertex -4 20 13.5
    endloop
  endfacet
  facet normal 0 -1 0
    outer loop
      vertex -10 20 13.5
      vertex -10 20 7
      vertex -4 20 7
    endloop
  endfacet
  facet normal 0 -1 0
    outer loop
      vertex -4 20 13.5
      vertex -10 20 13.5
      vertex -4 20 7
    endloop
  endfacet
  facet normal 0 0 1
    outer loop
      vertex 2.08587 -6.41963 7
      vertex -10 -10 7
      vertex 10 -10 7
    endloop
  endfacet
  facet normal 0 0 1
    outer loop
      vertex 10 -1 7
      vertex 6.6449 -1 7
      vertex 10 -10 7
    endloop
  endfacet
  facet normal 0 0 1
    outer loop
      vertex 6.6449 -1 7
      vertex 6.6025 -1.4034 7
      vertex 10 -10 7
    endloop
  endfacet
  facet normal 0 0 1
    outer loop
      vertex 6.6025 -1.4034 7
      vertex 6.16643 -2.74547 7
      vertex 10 -10 7
    endloop
  endfacet
  facet normal 0 0 1
    outer loop
      vertex 3.375 5.84567 7
      vertex 4.51663 5.01623 7
      vertex -10 20 7
    endloop
  endfacet
  facet normal 0 0 1
    outer loop
      vertex 5.46087 -3.96755 7
      vertex 4.51663 -5.01623 7
      vertex 10 -10 7
    endloop
  endfacet
  facet normal 0 0 1
    outer loop
      vertex 4.51663 -5.01623 7
      vertex 3.375 -5.84567 7
      vertex 10 -10 7
    endloop
  endfacet
  facet normal 0 0 1
    outer loop
      vertex -0.705567 -6.71302 7
      vertex -2.08587 -6.41963 7
      vertex -10 -10 7
    endloop
  endfacet
  facet normal 0 0 1
    outer loop
      vertex 3.375 -5.84567 7
      vertex 2.08587 -6.41963 7
      vertex 10 -10 7
    endloop
  endfacet
  facet normal 0 0 1
    outer loop
      vertex 0.705567 -6.71302 7
      vertex -10 -10 7
      vertex 2.08587 -6.41963 7
    endloop
  endfacet
  facet normal 0 0 1
    outer loop
      vertex -6.6025 1.4034 7
      vertex -6.16643 2.74547 7
      vertex -10 20 7
    endloop
  endfacet
  facet normal 0 0 1
    outer loop
      vertex -6.75 0 7
      vertex -6.6025 1.4034 7
      vertex -10 20 7
    endloop
  endfacet
  facet normal 0 0 1
    outer loop
      vertex -3.375 -5.84567 7
      vertex -10 -10 7
      vertex -2.08587 -6.41963 7
    endloop
  endfacet
  facet normal 0 0 1
    outer loop
      vertex -4.51663 -5.01623 7
      vertex -10 -10 7
      vertex -3.375 -5.84567 7
    endloop
  endfacet
  facet normal 0 0 1
    outer loop
      vertex -5.46087 -3.96755 7
      vertex -10 -10 7
      vertex -4.51663 -5.01623 7
    endloop
  endfacet
  facet normal 0 0 1
    outer loop
      vertex -6.16643 2.74547 7
      vertex -5.46087 3.96755 7
      vertex -10 20 7
    endloop
  endfacet
  facet normal 0 0 1
    outer loop
      vertex -6.16643 -2.74547 7
      vertex -10 -10 7
      vertex -5.46087 -3.96755 7
    endloop
  endfacet
  facet normal 0 0 1
    outer loop
      vertex -6.6025 -1.4034 7
      vertex -10 -10 7
      vertex -6.16643 -2.74547 7
    endloop
  endfacet
  facet normal 0 0 1
    outer loop
      vertex -10 20 7
      vertex -10 -10 7
      vertex -6.6025 -1.4034 7
    endloop
  endfacet
  facet normal 0 0 1
    outer loop
      vertex -10 20 7
      vertex -6.6025 -1.4034 7
      vertex -6.75 0 7
    endloop
  endfacet
  facet normal 0 0 1
    outer loop
      vertex -5.46087 3.96755 7
      vertex -4.51663 5.01623 7
      vertex -10 20 7
    endloop
  endfacet
  facet normal 0 0 1
    outer loop
      vertex -2.08587 6.41963 7
      vertex -0.705567 6.71302 7
      vertex -10 20 7
    endloop
  endfacet
  facet normal 0 0 1
    outer loop
      vertex -10 20 7
      vertex -4.51663 5.01623 7
      vertex -3.375 5.84567 7
    endloop
  endfacet
  facet normal 0 0 1
    outer loop
      vertex -10 20 7
      vertex -3.375 5.84567 7
      vertex -2.08587 6.41963 7
    endloop
  endfacet
  facet normal 0 0 1
    outer loop
      vertex 0.705567 -6.71302 7
      vertex -0.705567 -6.71302 7
      vertex -10 -10 7
    endloop
  endfacet
  facet normal 0 0 1
    outer loop
      vertex 6.6025 1.4034 7
      vertex 10 1 7
      vertex 6.16643 2.74547 7
    endloop
  endfacet
  facet normal 0 0 1
    outer loop
      vertex 2.08587 6.41963 7
      vertex -10 20 7
      vertex 0.705567 6.71302 7
    endloop
  endfacet
  facet normal 0 0 1
    outer loop
      vertex 5.46087 3.96755 7
      vertex 10 1 7
      vertex 4.51663 5.01623 7
    endloop
  endfacet
  facet normal 0 0 1
    outer loop
      vertex 3.375 5.84567 7
      vertex -10 20 7
      vertex 2.08587 6.41963 7
    endloop
  endfacet
  facet normal 0 0 1
    outer loop
      vertex 10 1 7
      vertex -10 20 7
      vertex 4.51663 5.01623 7
    endloop
  endfacet
  facet normal 0 0 1
    outer loop
      vertex -4 16 7
      vertex -4 20 7
      vertex -10 20 7
    endloop
  endfacet
  facet normal 0 0 1
    outer loop
      vertex 6.16643 2.74547 7
      vertex 10 1 7
      vertex 5.46087 3.96755 7
    endloop
  endfacet
  facet normal 0 0 1
    outer loop
      vertex -4 16 7
      vertex -10 20 7
      vertex 10 1 7
    endloop
  endfacet
  facet normal 0 0 1
    outer loop
      vertex 10 20 7
      vertex 4 20 7
      vertex 10 1 7
    endloop
  endfacet
  facet normal 0 0 1
    outer loop
      vertex 4 20 7
      vertex 4 16 7
      vertex 10 1 7
    endloop
  endfacet
  facet normal 0 0 1
    outer loop
      vertex 4 16 7
      vertex -4 16 7
      vertex 10 1 7
    endloop
  endfacet
  facet normal 0 0 1
    outer loop
      vertex 6.16643 -2.74547 7
      vertex 5.46087 -3.96755 7
      vertex 10 -10 7
    endloop
  endfacet
  facet normal 0 0 1
    outer loop
      vertex -0.705567 6.71302 7
      vertex 0.705567 6.71302 7
      vertex -10 20 7
    endloop
  endfacet
  facet normal 0 0 1
    outer loop
      vertex 6.6449 1 7
      vertex 10 1 7
      vertex 6.6025 1.4034 7
    endloop
  endfacet
  facet normal 3.47356e-17 0.987688 -0.156435
    outer loop
      vertex -4 23.4783 8.99443
      vertex -4 23.4 8.5
      vertex -10 23.4783 8.99443
    endloop
  endfacet
  facet normal 3.47356e-17 0.987688 -0.156435
    outer loop
      vertex -10 23.4783 8.99443
      vertex -4 23.4 8.5
      vertex -10 23.4 8.5
    endloop
  endfacet
  facet normal -3.47356e-17 0.987688 0.156435
    outer loop
      vertex -4 23.4783 8.00557
      vertex -10 23.4783 8.00557
      vertex -4 23.4 8.5
    endloop
  endfacet
  facet normal -3.47356e-17 0.987688 0.156435
    outer loop
      vertex -4 23.4 8.5
      vertex -10 23.4783 8.00557
      vertex -10 23.4 8.5
    endloop
  endfacet
  facet normal 1.00806e-16 0.891007 -0.45399
    outer loop
      vertex -4 23.7056 9.44046
      vertex -4 23.4783 8.99443
      vertex -10 23.7056 9.44046
    endloop
  endfacet
  facet normal 1.00806e-16 0.891007 -0.45399
    outer loop
      vertex -10 23.7056 9.44046
      vertex -4 23.4783 8.99443
      vertex -10 23.4783 8.99443
    endloop
  endfacet
  facet normal 1.57009e-16 0.707107 -0.707107
    outer loop
      vertex -4 24.0595 9.79443
      vertex -4 23.7056 9.44046
      vertex -10 24.0595 9.79443
    endloop
  endfacet
  facet normal 1.57009e-16 0.707107 -0.707107
    outer loop
      vertex -10 24.0595 9.79443
      vertex -4 23.7056 9.44046
      vertex -10 23.7056 9.44046
    endloop
  endfacet
  facet normal 1.97843e-16 0.45399 -0.891007
    outer loop
      vertex -4 24.5056 10.0217
      vertex -4 24.0595 9.79443
      vertex -10 24.5056 10.0217
    endloop
  endfacet
  facet normal 1.97843e-16 0.45399 -0.891007
    outer loop
      vertex -10 24.5056 10.0217
      vertex -4 24.0595 9.79443
      vertex -10 24.0595 9.79443
    endloop
  endfacet
  facet normal 2.19311e-16 0.156435 -0.987688
    outer loop
      vertex -4 25 10.1
      vertex -4 24.5056 10.0217
      vertex -10 25 10.1
    endloop
  endfacet
  facet normal 2.19311e-16 0.156435 -0.987688
    outer loop
      vertex -10 25 10.1
      vertex -4 24.5056 10.0217
      vertex -10 24.5056 10.0217
    endloop
  endfacet
  facet normal 2.19311e-16 -0.156435 -0.987688
    outer loop
      vertex -4 25.4944 10.0217
      vertex -4 25 10.1
      vertex -10 25.4944 10.0217
    endloop
  endfacet
  facet normal 2.19311e-16 -0.156435 -0.987688
    outer loop
      vertex -10 25.4944 10.0217
      vertex -4 25 10.1
      vertex -10 25 10.1
    endloop
  endfacet
  facet normal 1.97843e-16 -0.45399 -0.891007
    outer loop
      vertex -4 25.9405 9.79443
      vertex -4 25.4944 10.0217
      vertex -10 25.9405 9.79443
    endloop
  endfacet
  facet normal 1.97843e-16 -0.45399 -0.891007
    outer loop
      vertex -10 25.9405 9.79443
      vertex -4 25.4944 10.0217
      vertex -10 25.4944 10.0217
    endloop
  endfacet
  facet normal 1.57009e-16 -0.707107 -0.707107
    outer loop
      vertex -10 26.2944 9.44046
      vertex -4 26.2944 9.44046
      vertex -4 25.9405 9.79443
    endloop
  endfacet
  facet normal 1.57009e-16 -0.707107 -0.707107
    outer loop
      vertex -10 25.9405 9.79443
      vertex -10 26.2944 9.44046
      vertex -4 25.9405 9.79443
    endloop
  endfacet
  facet normal 1.00806e-16 -0.891007 -0.45399
    outer loop
      vertex -10 26.5217 8.99443
      vertex -4 26.5217 8.99443
      vertex -4 26.2944 9.44046
    endloop
  endfacet
  facet normal 1.00806e-16 -0.891007 -0.45399
    outer loop
      vertex -10 26.2944 9.44046
      vertex -10 26.5217 8.99443
      vertex -4 26.2944 9.44046
    endloop
  endfacet
  facet normal 3.47356e-17 -0.987688 -0.156435
    outer loop
      vertex -10 26.6 8.5
      vertex -4 26.6 8.5
      vertex -4 26.5217 8.99443
    endloop
  endfacet
  facet normal 3.47356e-17 -0.987688 -0.156435
    outer loop
      vertex -10 26.5217 8.99443
      vertex -10 26.6 8.5
      vertex -4 26.5217 8.99443
    endloop
  endfacet
  facet normal -3.47356e-17 -0.987688 0.156435
    outer loop
      vertex -4 26.5217 8.00557
      vertex -4 26.6 8.5
      vertex -10 26.6 8.5
    endloop
  endfacet
  facet normal -3.47356e-17 -0.987688 0.156435
    outer loop
      vertex -10 26.5217 8.00557
      vertex -4 26.5217 8.00557
      vertex -10 26.6 8.5
    endloop
  endfacet
  facet normal -1.00806e-16 -0.891007 0.45399
    outer loop
      vertex -4 26.2944 7.55954
      vertex -4 26.5217 8.00557
      vertex -10 26.5217 8.00557
    endloop
  endfacet
  facet normal -1.00806e-16 -0.891007 0.45399
    outer loop
      vertex -10 26.2944 7.55954
      vertex -4 26.2944 7.55954
      vertex -10 26.5217 8.00557
    endloop
  endfacet
  facet normal -1.57009e-16 -0.707107 0.707107
    outer loop
      vertex -4 25.9405 7.20557
      vertex -4 26.2944 7.55954
      vertex -10 26.2944 7.55954
    endloop
  endfacet
  facet normal -1.57009e-16 -0.707107 0.707107
    outer loop
      vertex -10 25.9405 7.20557
      vertex -4 25.9405 7.20557
      vertex -10 26.2944 7.55954
    endloop
  endfacet
  facet normal -1.97843e-16 -0.45399 0.891007
    outer loop
      vertex -4 25.4944 6.97831
      vertex -4 25.9405 7.20557
      vertex -10 25.9405 7.20557
    endloop
  endfacet
  facet normal -1.97843e-16 -0.45399 0.891007
    outer loop
      vertex -10 25.4944 6.97831
      vertex -4 25.4944 6.97831
      vertex -10 25.9405 7.20557
    endloop
  endfacet
  facet normal -2.19311e-16 -0.156435 0.987688
    outer loop
      vertex -4 25 6.9
      vertex -4 25.4944 6.97831
      vertex -10 25.4944 6.97831
    endloop
  endfacet
  facet normal -2.19311e-16 -0.156435 0.987688
    outer loop
      vertex -10 25 6.9
      vertex -4 25 6.9
      vertex -10 25.4944 6.97831
    endloop
  endfacet
  facet normal -2.19311e-16 0.156435 0.987688
    outer loop
      vertex -4 24.5056 6.97831
      vertex -4 25 6.9
      vertex -10 25 6.9
    endloop
  endfacet
  facet normal -2.19311e-16 0.156435 0.987688
    outer loop
      vertex -10 24.5056 6.97831
      vertex -4 24.5056 6.97831
      vertex -10 25 6.9
    endloop
  endfacet
  facet normal -1.97843e-16 0.45399 0.891007
    outer loop
      vertex -4 24.0595 7.20557
      vertex -4 24.5056 6.97831
      vertex -10 24.5056 6.97831
    endloop
  endfacet
  facet normal -1.97843e-16 0.45399 0.891007
    outer loop
      vertex -10 24.0595 7.20557
      vertex -4 24.0595 7.20557
      vertex -10 24.5056 6.97831
    endloop
  endfacet
  facet normal -1.57009e-16 0.707107 0.707107
    outer loop
      vertex -4 24.0595 7.20557
      vertex -10 24.0595 7.20557
      vertex -4 23.7056 7.55954
    endloop
  endfacet
  facet normal -1.57009e-16 0.707107 0.707107
    outer loop
      vertex -4 23.7056 7.55954
      vertex -10 24.0595 7.20557
      vertex -10 23.7056 7.55954
    endloop
  endfacet
  facet normal -1.00806e-16 0.891007 0.45399
    outer loop
      vertex -4 23.7056 7.55954
      vertex -10 23.7056 7.55954
      vertex -4 23.4783 8.00557
    endloop
  endfacet
  facet normal -1.00806e-16 0.891007 0.45399
    outer loop
      vertex -4 23.4783 8.00557
      vertex -10 23.7056 7.55954
      vertex -10 23.4783 8.00557
    endloop
  endfacet
  facet normal 1 0 0
    outer loop
      vertex 10 -10 7
      vertex 10 -10 0
      vertex 10 -1 0
    endloop
  endfacet
  facet normal 1 0 0
    outer loop
      vertex 10 -1 7
      vertex 10 -10 7
      vertex 10 -1 0
    endloop
  endfacet
  facet normal 0 1 0
    outer loop
      vertex 3.09162 -1 18
      vertex 3.09162 -1 25.5
      vertex 6.6449 -1 25.5
    endloop
  endfacet
  facet normal 0 1 0
    outer loop
      vertex 3.09162 -1 18
      vertex 6.6449 -1 25.5
      vertex 6.6449 -1 7
    endloop
  endfacet
  facet normal 0 1 0
    outer loop
      vertex 3.09162 -1 18
      vertex 6.6449 -1 7
      vertex -1 -1 18
    endloop
  endfacet
  facet normal 0 1 0
    outer loop
      vertex 6.6449 -1 7
      vertex 10 -1 7
      vertex 10 -1 0
    endloop
  endfacet
  facet normal 0 1 0
    outer loop
      vertex 6.6449 -1 7
      vertex 10 -1 0
      vertex -1 -1 18
    endloop
  endfacet
  facet normal 0 1 0
    outer loop
      vertex 10 -1 0
      vertex -1 -1 0
      vertex -1 -1 18
    endloop
  endfacet
  facet normal 1 0 0
    outer loop
      vertex -1 1 0
      vertex -1 1 18
      vertex -1 -1 18
    endloop
  endfacet
  facet normal 1 0 0
    outer loop
      vertex -1 -1 0
      vertex -1 1 0
      vertex -1 -1 18
    endloop
  endfacet
  facet normal 0 -1 0
    outer loop
      vertex 3.09162 1 18
      vertex -1 1 18
      vertex 6.6449 1 7
    endloop
  endfacet
  facet normal 0 -1 0
    outer loop
      vertex 10 1 0
      vertex 10 1 7
      vertex 6.6449 1 7
    endloop
  endfacet
  facet normal 0 -1 0
    outer loop
      vertex -1 1 18
      vertex 10 1 0
      vertex 6.6449 1 7
    endloop
  endfacet
  facet normal 0 -1 0
    outer loop
      vertex 6.6449 1 25.5
      vertex 3.09162 1 25.5
      vertex 6.6449 1 7
    endloop
  endfacet
  facet normal 0 -1 0
    outer loop
      vertex 3.09162 1 25.5
      vertex 3.09162 1 18
      vertex 6.6449 1 7
    endloop
  endfacet
  facet normal 0 -1 0
    outer loop
      vertex -1 1 18
      vertex -1 1 0
      vertex 10 1 0
    endloop
  endfacet
  facet normal 1 0 0
    outer loop
      vertex 10 1 7
      vertex 10 1 0
      vertex 10 30 0
    endloop
  endfacet
  facet normal 1 0 0
    outer loop
      vertex 10 20 7
      vertex 10 1 7
      vertex 10 30 0
    endloop
  endfacet
  facet normal 1 0 0
    outer loop
      vertex 10 24.0595 7.20557
      vertex 10 20 7
      vertex 10 30 0
    endloop
  endfacet
  facet normal 1 0 0
    outer loop
      vertex 10 23.4 8.5
      vertex 10 20 7
      vertex 10 23.4783 8.00557
    endloop
  endfacet
  facet normal 1 0 0
    outer loop
      vertex 10 23.4783 8.99443
      vertex 10 20 7
      vertex 10 23.4 8.5
    endloop
  endfacet
  facet normal 1 0 0
    outer loop
      vertex 10 25.4944 10.0217
      vertex 10 25.9405 9.79443
      vertex 10 30 13.5
    endloop
  endfacet
  facet normal 1 0 0
    outer loop
      vertex 10 25 10.1
      vertex 10 25.4944 10.0217
      vertex 10 30 13.5
    endloop
  endfacet
  facet normal 1 0 0
    outer loop
      vertex 10 23.4783 8.99443
      vertex 10 23.7056 9.44046
      vertex 10 20 7
    endloop
  endfacet
  facet normal 1 0 0
    outer loop
      vertex 10 30 13.5
      vertex 10 24.0595 9.79443
      vertex 10 24.5056 10.0217
    endloop
  endfacet
  facet normal 1 0 0
    outer loop
      vertex 10 24.5056 10.0217
      vertex 10 25 10.1
      vertex 10 30 13.5
    endloop
  endfacet
  facet normal 1 0 0
    outer loop
      vertex 10 26.5217 8.99443
      vertex 10 26.6 8.5
      vertex 10 30 0
    endloop
  endfacet
  facet normal 1 0 0
    outer loop
      vertex 10 24.5056 6.97831
      vertex 10 24.0595 7.20557
      vertex 10 30 0
    endloop
  endfacet
  facet normal 1 0 0
    outer loop
      vertex 10 26.6 8.5
      vertex 10 26.5217 8.00557
      vertex 10 30 0
    endloop
  endfacet
  facet normal 1 0 0
    outer loop
      vertex 10 30 13.5
      vertex 10 25.9405 9.79443
      vertex 10 26.2944 9.44046
    endloop
  endfacet
  facet normal 1 0 0
    outer loop
      vertex 10 30 13.5
      vertex 10 26.5217 8.99443
      vertex 10 30 0
    endloop
  endfacet
  facet normal 1 0 0
    outer loop
      vertex 10 30 13.5
      vertex 10 26.2944 9.44046
      vertex 10 26.5217 8.99443
    endloop
  endfacet
  facet normal 1 0 0
    outer loop
      vertex 10 26.5217 8.00557
      vertex 10 26.2944 7.55954
      vertex 10 30 0
    endloop
  endfacet
  facet normal 1 0 0
    outer loop
      vertex 10 26.2944 7.55954
      vertex 10 25.9405 7.20557
      vertex 10 30 0
    endloop
  endfacet
  facet normal 1 0 0
    outer loop
      vertex 10 25.9405 7.20557
      vertex 10 25.4944 6.97831
      vertex 10 30 0
    endloop
  endfacet
  facet normal 1 0 0
    outer loop
      vertex 10 25.4944 6.97831
      vertex 10 25 6.9
      vertex 10 30 0
    endloop
  endfacet
  facet normal 1 0 0
    outer loop
      vertex 10 25 6.9
      vertex 10 24.5056 6.97831
      vertex 10 30 0
    endloop
  endfacet
  facet normal 1 0 0
    outer loop
      vertex 10 23.7056 7.55954
      vertex 10 20 7
      vertex 10 24.0595 7.20557
    endloop
  endfacet
  facet normal 1 0 0
    outer loop
      vertex 10 23.4783 8.00557
      vertex 10 20 7
      vertex 10 23.7056 7.55954
    endloop
  endfacet
  facet normal 1 0 0
    outer loop
      vertex 10 20 13.5
      vertex 10 24.0595 9.79443
      vertex 10 30 13.5
    endloop
  endfacet
  facet normal 1 0 0
    outer loop
      vertex 10 20 13.5
      vertex 10 23.7056 9.44046
      vertex 10 24.0595 9.79443
    endloop
  endfacet
  facet normal 1 0 0
    outer loop
      vertex 10 20 13.5
      vertex 10 20 7
      vertex 10 23.7056 9.44046
    endloop
  endfacet
  facet normal 0 1 0
    outer loop
      vertex 4 30 0
      vertex 4 30 13.5
      vertex 10 30 0
    endloop
  endfacet
  facet normal 0 1 0
    outer loop
      vertex 10 30 0
      vertex 4 30 13.5
      vertex 10 30 13.5
    endloop
  endfacet
  facet normal -1 0 0
    outer loop
      vertex 4 24.5056 10.0217
      vertex 4 20 13.5
      vertex 4 30 13.5
    endloop
  endfacet
  facet normal -1 0 0
    outer loop
      vertex 4 26.2944 7.55954
      vertex 4 30 13.5
      vertex 4 30 0
    endloop
  endfacet
  facet normal -1 0 0
    outer loop
      vertex 4 20 7
      vertex 4 30 0
      vertex 4 16 7
    endloop
  endfacet
  facet normal -1 0 0
    outer loop
      vertex 4 30 0
      vertex 4 16 0
      vertex 4 16 7
    endloop
  endfacet
  facet normal -1 0 0
    outer loop
      vertex 4 24.5056 10.0217
      vertex 4 30 13.5
      vertex 4 25 10.1
    endloop
  endfacet
  facet normal -1 0 0
    outer loop
      vertex 4 20 7
      vertex 4 23.4783 8.00557
      vertex 4 23.7056 7.55954
    endloop
  endfacet
  facet normal -1 0 0
    outer loop
      vertex 4 20 7
      vertex 4 23.7056 7.55954
      vertex 4 30 0
    endloop
  endfacet
  facet normal -1 0 0
    outer loop
      vertex 4 23.7056 7.55954
      vertex 4 24.0595 7.20557
      vertex 4 30 0
    endloop
  endfacet
  facet normal -1 0 0
    outer loop
      vertex 4 25.4944 10.0217
      vertex 4 30 13.5
      vertex 4 25.9405 9.79443
    endloop
  endfacet
  facet normal -1 0 0
    outer loop
      vertex 4 26.6 8.5
      vertex 4 30 13.5
      vertex 4 26.5217 8.00557
    endloop
  endfacet
  facet normal -1 0 0
    outer loop
      vertex 4 26.2944 9.44046
      vertex 4 30 13.5
      vertex 4 26.5217 8.99443
    endloop
  endfacet
  facet normal -1 0 0
    outer loop
      vertex 4 24.5056 6.97831
      vertex 4 25 6.9
      vertex 4 30 0
    endloop
  endfacet
  facet normal -1 0 0
    outer loop
      vertex 4 25 6.9
      vertex 4 25.4944 6.97831
      vertex 4 30 0
    endloop
  endfacet
  facet normal -1 0 0
    outer loop
      vertex 4 26.5217 8.99443
      vertex 4 30 13.5
      vertex 4 26.6 8.5
    endloop
  endfacet
  facet normal -1 0 0
    outer loop
      vertex 4 25.4944 6.97831
      vertex 4 25.9405 7.20557
      vertex 4 30 0
    endloop
  endfacet
  facet normal -1 0 0
    outer loop
      vertex 4 26.5217 8.00557
      vertex 4 30 13.5
      vertex 4 26.2944 7.55954
    endloop
  endfacet
  facet normal -1 0 0
    outer loop
      vertex 4 25.9405 7.20557
      vertex 4 26.2944 7.55954
      vertex 4 30 0
    endloop
  endfacet
  facet normal -1 0 0
    outer loop
      vertex 4 25.9405 9.79443
      vertex 4 30 13.5
      vertex 4 26.2944 9.44046
    endloop
  endfacet
  facet normal -1 0 0
    outer loop
      vertex 4 25 10.1
      vertex 4 30 13.5
      vertex 4 25.4944 10.0217
    endloop
  endfacet
  facet normal -1 0 0
    outer loop
      vertex 4 24.0595 9.79443
      vertex 4 20 13.5
      vertex 4 24.5056 10.0217
    endloop
  endfacet
  facet normal -1 0 0
    outer loop
      vertex 4 23.7056 9.44046
      vertex 4 20 7
      vertex 4 24.0595 9.79443
    endloop
  endfacet
  facet normal -1 0 0
    outer loop
      vertex 4 20 7
      vertex 4 20 13.5
      vertex 4 24.0595 9.79443
    endloop
  endfacet
  facet normal -1 0 0
    outer loop
      vertex 4 23.4783 8.99443
      vertex 4 20 7
      vertex 4 23.7056 9.44046
    endloop
  endfacet
  facet normal -1 0 0
    outer loop
      vertex 4 23.4 8.5
      vertex 4 20 7
      vertex 4 23.4783 8.99443
    endloop
  endfacet
  facet normal -1 0 0
    outer loop
      vertex 4 20 7
      vertex 4 23.4 8.5
      vertex 4 23.4783 8.00557
    endloop
  endfacet
  facet normal -1 0 0
    outer loop
      vertex 4 24.5056 6.97831
      vertex 4 30 0
      vertex 4 24.0595 7.20557
    endloop
  endfacet
  facet normal 0 1 0
    outer loop
      vertex 4 16 7
      vertex 4 16 0
      vertex -4 16 7
    endloop
  endfacet
  facet normal 0 1 0
    outer loop
      vertex -4 16 7
      vertex 4 16 0
      vertex -4 16 0
    endloop
  endfacet
  facet normal 1 0 0
    outer loop
      vertex -4 24.0595 9.79443
      vertex -4 30 13.5
      vertex -4 20 13.5
    endloop
  endfacet
  facet normal 1 0 0
    outer loop
      vertex -4 16 7
      vertex -4 30 0
      vertex -4 20 7
    endloop
  endfacet
  facet normal 1 0 0
    outer loop
      vertex -4 24.5056 10.0217
      vertex -4 25 10.1
      vertex -4 30 13.5
    endloop
  endfacet
  facet normal 1 0 0
    outer loop
      vertex -4 16 0
      vertex -4 30 0
      vertex -4 16 7
    endloop
  endfacet
  facet normal 1 0 0
    outer loop
      vertex -4 20 7
      vertex -4 23.4 8.5
      vertex -4 20 13.5
    endloop
  endfacet
  facet normal 1 0 0
    outer loop
      vertex -4 23.4783 8.99443
      vertex -4 23.7056 9.44046
      vertex -4 20 13.5
    endloop
  endfacet
  facet normal 1 0 0
    outer loop
      vertex -4 23.7056 9.44046
      vertex -4 24.0595 9.79443
      vertex -4 20 13.5
    endloop
  endfacet
  facet normal 1 0 0
    outer loop
      vertex -4 24.5056 10.0217
      vertex -4 30 13.5
      vertex -4 24.0595 9.79443
    endloop
  endfacet
  facet normal 1 0 0
    outer loop
      vertex -4 25 10.1
      vertex -4 25.4944 10.0217
      vertex -4 30 13.5
    endloop
  endfacet
  facet normal 1 0 0
    outer loop
      vertex -4 26.5217 8.99443
      vertex -4 26.6 8.5
      vertex -4 30 0
    endloop
  endfacet
  facet normal 1 0 0
    outer loop
      vertex -4 25.9405 9.79443
      vertex -4 30 13.5
      vertex -4 25.4944 10.0217
    endloop
  endfacet
  facet normal 1 0 0
    outer loop
      vertex -4 26.2944 9.44046
      vertex -4 30 13.5
      vertex -4 25.9405 9.79443
    endloop
  endfacet
  facet normal 1 0 0
    outer loop
      vertex -4 26.5217 8.99443
      vertex -4 30 13.5
      vertex -4 26.2944 9.44046
    endloop
  endfacet
  facet normal 1 0 0
    outer loop
      vertex -4 26.6 8.5
      vertex -4 26.5217 8.00557
      vertex -4 30 0
    endloop
  endfacet
  facet normal 1 0 0
    outer loop
      vertex -4 30 0
      vertex -4 30 13.5
      vertex -4 26.5217 8.99443
    endloop
  endfacet
  facet normal 1 0 0
    outer loop
      vertex -4 26.5217 8.00557
      vertex -4 26.2944 7.55954
      vertex -4 30 0
    endloop
  endfacet
  facet normal 1 0 0
    outer loop
      vertex -4 30 0
      vertex -4 26.2944 7.55954
      vertex -4 25.9405 7.20557
    endloop
  endfacet
  facet normal 1 0 0
    outer loop
      vertex -4 30 0
      vertex -4 25.9405 7.20557
      vertex -4 25.4944 6.97831
    endloop
  endfacet
  facet normal 1 0 0
    outer loop
      vertex -4 30 0
      vertex -4 25.4944 6.97831
      vertex -4 25 6.9
    endloop
  endfacet
  facet normal 1 0 0
    outer loop
      vertex -4 20 7
      vertex -4 30 0
      vertex -4 24.5056 6.97831
    endloop
  endfacet
  facet normal 1 0 0
    outer loop
      vertex -4 20 7
      vertex -4 24.5056 6.97831
      vertex -4 24.0595 7.20557
    endloop
  endfacet
  facet normal 1 0 0
    outer loop
      vertex -4 20 7
      vertex -4 24.0595 7.20557
      vertex -4 23.7056 7.55954
    endloop
  endfacet
  facet normal 1 0 0
    outer loop
      vertex -4 20 7
      vertex -4 23.4783 8.00557
      vertex -4 23.4 8.5
    endloop
  endfacet
  facet normal 1 0 0
    outer loop
      vertex -4 20 7
      vertex -4 23.7056 7.55954
      vertex -4 23.4783 8.00557
    endloop
  endfacet
  facet normal 1 0 0
    outer loop
      vertex -4 23.4 8.5
      vertex -4 23.4783 8.99443
      vertex -4 20 13.5
    endloop
  endfacet
  facet normal 1 0 0
    outer loop
      vertex -4 25 6.9
      vertex -4 24.5056 6.97831
      vertex -4 30 0
    endloop
  endfacet
  facet normal 0 -1 0
    outer loop
      vertex 4 20 13.5
      vertex 4 20 7
      vertex 10 20 7
    endloop
  endfacet
  facet normal 0 -1 0
    outer loop
      vertex 10 20 13.5
      vertex 4 20 13.5
      vertex 10 20 7
    endloop
  endfacet
  facet normal 0.994522 0.104529 0
    outer loop
      vertex 6.6449 1 7
      vertex 6.6025 1.4034 7
      vertex 6.6025 1.4034 25.5
    endloop
  endfacet
  facet normal 0.994522 0.104529 0
    outer loop
      vertex 6.6449 1 25.5
      vertex 6.6449 1 7
      vertex 6.6025 1.4034 25.5
    endloop
  endfacet
  facet normal 0.951057 0.309017 0
    outer loop
      vertex 6.6025 1.4034 7
      vertex 6.16643 2.74547 7
      vertex 6.16643 2.74547 25.5
    endloop
  endfacet
  facet normal 0.951057 0.309017 0
    outer loop
      vertex 6.6025 1.4034 25.5
      vertex 6.6025 1.4034 7
      vertex 6.16643 2.74547 25.5
    endloop
  endfacet
  facet normal 0.866025 0.5 0
    outer loop
      vertex 6.16643 2.74547 7
      vertex 5.46087 3.96755 7
      vertex 5.46087 3.96755 25.5
    endloop
  endfacet
  facet normal 0.866025 0.5 0
    outer loop
      vertex 6.16643 2.74547 25.5
      vertex 6.16643 2.74547 7
      vertex 5.46087 3.96755 25.5
    endloop
  endfacet
  facet normal 0.743145 0.66913 0
    outer loop
      vertex 5.46087 3.96755 7
      vertex 4.51663 5.01623 7
      vertex 4.51663 5.01623 25.5
    endloop
  endfacet
  facet normal 0.743145 0.66913 0
    outer loop
      vertex 5.46087 3.96755 25.5
      vertex 5.46087 3.96755 7
      vertex 4.51663 5.01623 25.5
    endloop
  endfacet
  facet normal 0.587785 0.809017 0
    outer loop
      vertex 3.375 5.84567 7
      vertex 3.375 5.84567 25.5
      vertex 4.51663 5.01623 7
    endloop
  endfacet
  facet normal 0.587785 0.809017 0
    outer loop
      vertex 4.51663 5.01623 7
      vertex 3.375 5.84567 25.5
      vertex 4.51663 5.01623 25.5
    endloop
  endfacet
  facet normal 0.406737 0.913545 0
    outer loop
      vertex 2.08587 6.41963 7
      vertex 2.08587 6.41963 25.5
      vertex 3.375 5.84567 7
    endloop
  endfacet
  facet normal 0.406737 0.913545 0
    outer loop
      vertex 3.375 5.84567 7
      vertex 2.08587 6.41963 25.5
      vertex 3.375 5.84567 25.5
    endloop
  endfacet
  facet normal 0.207912 0.978148 0
    outer loop
      vertex 0.705567 6.71302 7
      vertex 0.705567 6.71302 25.5
      vertex 2.08587 6.41963 7
    endloop
  endfacet
  facet normal 0.207912 0.978148 0
    outer loop
      vertex 2.08587 6.41963 7
      vertex 0.705567 6.71302 25.5
      vertex 2.08587 6.41963 25.5
    endloop
  endfacet
  facet normal 0 1 0
    outer loop
      vertex -0.705567 6.71302 7
      vertex -0.705567 6.71302 25.5
      vertex 0.705567 6.71302 7
    endloop
  endfacet
  facet normal 0 1 0
    outer loop
      vertex 0.705567 6.71302 7
      vertex -0.705567 6.71302 25.5
      vertex 0.705567 6.71302 25.5
    endloop
  endfacet
  facet normal -0.207912 0.978148 0
    outer loop
      vertex -2.08587 6.41963 7
      vertex -2.08587 6.41963 25.5
      vertex -0.705567 6.71302 7
    endloop
  endfacet
  facet normal -0.207912 0.978148 0
    outer loop
      vertex -0.705567 6.71302 7
      vertex -2.08587 6.41963 25.5
      vertex -0.705567 6.71302 25.5
    endloop
  endfacet
  facet normal -0.406737 0.913545 0
    outer loop
      vertex -3.375 5.84567 7
      vertex -3.375 5.84567 25.5
      vertex -2.08587 6.41963 7
    endloop
  endfacet
  facet normal -0.406737 0.913545 0
    outer loop
      vertex -2.08587 6.41963 7
      vertex -3.375 5.84567 25.5
      vertex -2.08587 6.41963 25.5
    endloop
  endfacet
  facet normal -0.587785 0.809017 0
    outer loop
      vertex -4.51663 5.01623 7
      vertex -4.51663 5.01623 25.5
      vertex -3.375 5.84567 7
    endloop
  endfacet
  facet normal -0.587785 0.809017 0
    outer loop
      vertex -3.375 5.84567 7
      vertex -4.51663 5.01623 25.5
      vertex -3.375 5.84567 25.5
    endloop
  endfacet
  facet normal -0.743145 0.66913 0
    outer loop
      vertex -5.46087 3.96755 7
      vertex -5.46087 3.96755 25.5
      vertex -4.51663 5.01623 7
    endloop
  endfacet
  facet normal -0.743145 0.66913 0
    outer loop
      vertex -4.51663 5.01623 7
      vertex -5.46087 3.96755 25.5
      vertex -4.51663 5.01623 25.5
    endloop
  endfacet
  facet normal -0.866025 0.5 0
    outer loop
      vertex -6.16643 2.74547 7
      vertex -6.16643 2.74547 25.5
      vertex -5.46087 3.96755 7
    endloop
  endfacet
  facet normal -0.866025 0.5 0
    outer loop
      vertex -5.46087 3.96755 7
      vertex -6.16643 2.74547 25.5
      vertex -5.46087 3.96755 25.5
    endloop
  endfacet
  facet normal -0.951057 0.309017 0
    outer loop
      vertex -6.6025 1.4034 7
      vertex -6.6025 1.4034 25.5
      vertex -6.16643 2.74547 7
    endloop
  endfacet
  facet normal -0.951057 0.309017 0
    outer loop
      vertex -6.16643 2.74547 7
      vertex -6.6025 1.4034 25.5
      vertex -6.16643 2.74547 25.5
    endloop
  endfacet
  facet normal -0.994522 0.104529 0
    outer loop
      vertex -6.75 0 7
      vertex -6.75 0 25.5
      vertex -6.6025 1.4034 7
    endloop
  endfacet
  facet normal -0.994522 0.104529 0
    outer loop
      vertex -6.6025 1.4034 7
      vertex -6.75 0 25.5
      vertex -6.6025 1.4034 25.5
    endloop
  endfacet
  facet normal -0.994522 -0.104529 0
    outer loop
      vertex -6.75 0 7
      vertex -6.6025 -1.4034 7
      vertex -6.75 0 25.5
    endloop
  endfacet
  facet normal -0.994522 -0.104529 0
    outer loop
      vertex -6.75 0 25.5
      vertex -6.6025 -1.4034 7
      vertex -6.6025 -1.4034 25.5
    endloop
  endfacet
  facet normal -0.951057 -0.309017 0
    outer loop
      vertex -6.6025 -1.4034 7
      vertex -6.16643 -2.74547 7
      vertex -6.6025 -1.4034 25.5
    endloop
  endfacet
  facet normal -0.951057 -0.309017 0
    outer loop
      vertex -6.6025 -1.4034 25.5
      vertex -6.16643 -2.74547 7
      vertex -6.16643 -2.74547 25.5
    endloop
  endfacet
  facet normal -0.866025 -0.5 0
    outer loop
      vertex -6.16643 -2.74547 7
      vertex -5.46087 -3.96755 7
      vertex -6.16643 -2.74547 25.5
    endloop
  endfacet
  facet normal -0.866025 -0.5 0
    outer loop
      vertex -6.16643 -2.74547 25.5
      vertex -5.46087 -3.96755 7
      vertex -5.46087 -3.96755 25.5
    endloop
  endfacet
  facet normal -0.743145 -0.66913 0
    outer loop
      vertex -5.46087 -3.96755 7
      vertex -4.51663 -5.01623 7
      vertex -5.46087 -3.96755 25.5
    endloop
  endfacet
  facet normal -0.743145 -0.66913 0
    outer loop
      vertex -5.46087 -3.96755 25.5
      vertex -4.51663 -5.01623 7
      vertex -4.51663 -5.01623 25.5
    endloop
  endfacet
  facet normal -0.587785 -0.809017 0
    outer loop
      vertex -4.51663 -5.01623 25.5
      vertex -4.51663 -5.01623 7
      vertex -3.375 -5.84567 7
    endloop
  endfacet
  facet normal -0.587785 -0.809017 0
    outer loop
      vertex -3.375 -5.84567 25.5
      vertex -4.51663 -5.01623 25.5
      vertex -3.375 -5.84567 7
    endloop
  endfacet
  facet normal -0.406737 -0.913545 0
    outer loop
      vertex -3.375 -5.84567 25.5
      vertex -3.375 -5.84567 7
      vertex -2.08587 -6.41963 7
    endloop
  endfacet
  facet normal -0.406737 -0.913545 0
    outer loop
      vertex -2.08587 -6.41963 25.5
      vertex -3.375 -5.84567 25.5
      vertex -2.08587 -6.41963 7
    endloop
  endfacet
  facet normal -0.207912 -0.978148 0
    outer loop
      vertex -2.08587 -6.41963 25.5
      vertex -2.08587 -6.41963 7
      vertex -0.705567 -6.71302 7
    endloop
  endfacet
  facet normal -0.207912 -0.978148 0
    outer loop
      vertex -0.705567 -6.71302 25.5
      vertex -2.08587 -6.41963 25.5
      vertex -0.705567 -6.71302 7
    endloop
  endfacet
  facet normal 0 -1 0
    outer loop
      vertex -0.705567 -6.71302 25.5
      vertex -0.705567 -6.71302 7
      vertex 0.705567 -6.71302 7
    endloop
  endfacet
  facet normal 0 -1 0
    outer loop
      vertex 0.705567 -6.71302 25.5
      vertex -0.705567 -6.71302 25.5
      vertex 0.705567 -6.71302 7
    endloop
  endfacet
  facet normal 0.207912 -0.978148 0
    outer loop
      vertex 0.705567 -6.71302 25.5
      vertex 0.705567 -6.71302 7
      vertex 2.08587 -6.41963 7
    endloop
  endfacet
  facet normal 0.207912 -0.978148 0
    outer loop
      vertex 2.08587 -6.41963 25.5
      vertex 0.705567 -6.71302 25.5
      vertex 2.08587 -6.41963 7
    endloop
  endfacet
  facet normal 0.406737 -0.913545 0
    outer loop
      vertex 2.08587 -6.41963 25.5
      vertex 2.08587 -6.41963 7
      vertex 3.375 -5.84567 7
    endloop
  endfacet
  facet normal 0.406737 -0.913545 0
    outer loop
      vertex 3.375 -5.84567 25.5
      vertex 2.08587 -6.41963 25.5
      vertex 3.375 -5.84567 7
    endloop
  endfacet
  facet normal 0.587785 -0.809017 0
    outer loop
      vertex 3.375 -5.84567 25.5
      vertex 3.375 -5.84567 7
      vertex 4.51663 -5.01623 7
    endloop
  endfacet
  facet normal 0.587785 -0.809017 0
    outer loop
      vertex 4.51663 -5.01623 25.5
      vertex 3.375 -5.84567 25.5
      vertex 4.51663 -5.01623 7
    endloop
  endfacet
  facet normal 0.743145 -0.66913 0
    outer loop
      vertex 4.51663 -5.01623 25.5
      vertex 4.51663 -5.01623 7
      vertex 5.46087 -3.96755 7
    endloop
  endfacet
  facet normal 0.743145 -0.66913 0
    outer loop
      vertex 5.46087 -3.96755 25.5
      vertex 4.51663 -5.01623 25.5
      vertex 5.46087 -3.96755 7
    endloop
  endfacet
  facet normal 0.866025 -0.5 0
    outer loop
      vertex 5.46087 -3.96755 25.5
      vertex 5.46087 -3.96755 7
      vertex 6.16643 -2.74547 7
    endloop
  endfacet
  facet normal 0.866025 -0.5 0
    outer loop
      vertex 6.16643 -2.74547 25.5
      vertex 5.46087 -3.96755 25.5
      vertex 6.16643 -2.74547 7
    endloop
  endfacet
  facet normal 0.951057 -0.309017 0
    outer loop
      vertex 6.16643 -2.74547 25.5
      vertex 6.16643 -2.74547 7
      vertex 6.6025 -1.4034 7
    endloop
  endfacet
  facet normal 0.951057 -0.309017 0
    outer loop
      vertex 6.6025 -1.4034 25.5
      vertex 6.16643 -2.74547 25.5
      vertex 6.6025 -1.4034 7
    endloop
  endfacet
  facet normal 0.994522 -0.104529 0
    outer loop
      vertex 6.6025 -1.4034 25.5
      vertex 6.6025 -1.4034 7
      vertex 6.6449 -1 7
    endloop
  endfacet
  facet normal 0.994522 -0.104529 0
    outer loop
      vertex 6.6449 -1 25.5
      vertex 6.6025 -1.4034 25.5
      vertex 6.6449 -1 7
    endloop
  endfacet
  facet normal 0 0 1
    outer loop
      vertex -3.09093 -1.00431 18
      vertex -2.62931 -1.9103 18
      vertex -1.9103 -2.62931 18
    endloop
  endfacet
  facet normal 0 0 1
    outer loop
      vertex 0 -3.25 18
      vertex -3.09093 -1.00431 18
      vertex -1.00431 -3.09093 18
    endloop
  endfacet
  facet normal 0 0 1
    outer loop
      vertex -1.00431 -3.09093 18
      vertex -3.09093 -1.00431 18
      vertex -1.9103 -2.62931 18
    endloop
  endfacet
  facet normal 0 0 1
    outer loop
      vertex 1.00431 -3.09093 18
      vertex -3.09093 -1.00431 18
      vertex 0 -3.25 18
    endloop
  endfacet
  facet normal 0 0 1
    outer loop
      vertex 1.9103 -2.62931 18
      vertex -3.09093 -1.00431 18
      vertex 1.00431 -3.09093 18
    endloop
  endfacet
  facet normal 0 0 1
    outer loop
      vertex 2.62931 -1.9103 18
      vertex -3.09093 -1.00431 18
      vertex 1.9103 -2.62931 18
    endloop
  endfacet
  facet normal 0 0 1
    outer loop
      vertex 3.09093 -1.00431 18
      vertex -3.09093 -1.00431 18
      vertex 2.62931 -1.9103 18
    endloop
  endfacet
  facet normal 0 0 1
    outer loop
      vertex 3.09162 -1 18
      vertex -3.09093 -1.00431 18
      vertex 3.09093 -1.00431 18
    endloop
  endfacet
  facet normal 0 0 1
    outer loop
      vertex -1 -1 18
      vertex -3.09093 -1.00431 18
      vertex 3.09162 -1 18
    endloop
  endfacet
  facet normal 0 0 1
    outer loop
      vertex -1 1 18
      vertex -3.09093 -1.00431 18
      vertex -1 -1 18
    endloop
  endfacet
  facet normal 0 0 1
    outer loop
      vertex 1.00431 3.09093 18
      vertex -3.09093 -1.00431 18
      vertex -1 1 18
    endloop
  endfacet
  facet normal 0 0 1
    outer loop
      vertex 3.09093 1.00431 18
      vertex -1 1 18
      vertex 3.09162 1 18
    endloop
  endfacet
  facet normal 0 0 1
    outer loop
      vertex 2.62931 1.9103 18
      vertex -1 1 18
      vertex 3.09093 1.00431 18
    endloop
  endfacet
  facet normal 0 0 1
    outer loop
      vertex 1.9103 2.62931 18
      vertex -1 1 18
      vertex 2.62931 1.9103 18
    endloop
  endfacet
  facet normal 0 0 1
    outer loop
      vertex 1.00431 3.09093 18
      vertex -1 1 18
      vertex 1.9103 2.62931 18
    endloop
  endfacet
  facet normal 0 0 1
    outer loop
      vertex 0 3.25 18
      vertex -3.09093 -1.00431 18
      vertex 1.00431 3.09093 18
    endloop
  endfacet
  facet normal 0 0 1
    outer loop
      vertex -1.00431 3.09093 18
      vertex -3.09093 -1.00431 18
      vertex 0 3.25 18
    endloop
  endfacet
  facet normal 0 0 1
    outer loop
      vertex -1.9103 2.62931 18
      vertex -3.09093 -1.00431 18
      vertex -1.00431 3.09093 18
    endloop
  endfacet
  facet normal 0 0 1
    outer loop
      vertex -2.62931 1.9103 18
      vertex -3.09093 -1.00431 18
      vertex -1.9103 2.62931 18
    endloop
  endfacet
  facet normal 0 0 1
    outer loop
      vertex -3.09093 1.00431 18
      vertex -3.09093 -1.00431 18
      vertex -2.62931 1.9103 18
    endloop
  endfacet
  facet normal 0 0 1
    outer loop
      vertex -3.25 0 18
      vertex -3.09093 -1.00431 18
      vertex -3.09093 1.00431 18
    endloop
  endfacet
  facet normal 0 0 1
    outer loop
      vertex -6.6025 1.4034 25.5
      vertex -6.75 0 25.5
      vertex -6.6025 -1.4034 25.5
    endloop
  endfacet
  facet normal 0 0 1
    outer loop
      vertex -5.46087 -3.96755 25.5
      vertex -6.6025 1.4034 25.5
      vertex -6.16643 -2.74547 25.5
    endloop
  endfacet
  facet normal 0 0 1
    outer loop
      vertex -6.16643 -2.74547 25.5
      vertex -6.6025 1.4034 25.5
      vertex -6.6025 -1.4034 25.5
    endloop
  endfacet
  facet normal 0 0 1
    outer loop
      vertex -4.51663 -5.01623 25.5
      vertex -6.6025 1.4034 25.5
      vertex -5.46087 -3.96755 25.5
    endloop
  endfacet
  facet normal 0 0 1
    outer loop
      vertex -3.375 -5.84567 25.5
      vertex -6.6025 1.4034 25.5
      vertex -4.51663 -5.01623 25.5
    endloop
  endfacet
  facet normal 0 0 1
    outer loop
      vertex -2.08587 -6.41963 25.5
      vertex -6.6025 1.4034 25.5
      vertex -3.375 -5.84567 25.5
    endloop
  endfacet
  facet normal 0 0 1
    outer loop
      vertex -0.705567 -6.71302 25.5
      vertex -6.6025 1.4034 25.5
      vertex -2.08587 -6.41963 25.5
    endloop
  endfacet
  facet normal 0 0 1
    outer loop
      vertex 0.705567 -6.71302 25.5
      vertex -6.6025 1.4034 25.5
      vertex -0.705567 -6.71302 25.5
    endloop
  endfacet
  facet normal 0 0 1
    outer loop
      vertex 2.08587 -6.41963 25.5
      vertex -6.6025 1.4034 25.5
      vertex 0.705567 -6.71302 25.5
    endloop
  endfacet
  facet normal 0 0 1
    outer loop
      vertex -1.9103 -2.62931 25.5
      vertex -6.6025 1.4034 25.5
      vertex 2.08587 -6.41963 25.5
    endloop
  endfacet
  facet normal 0 0 1
    outer loop
      vertex 0 -3.25 25.5
      vertex -1.00431 -3.09093 25.5
      vertex 3.375 -5.84567 25.5
    endloop
  endfacet
  facet normal 0 0 1
    outer loop
      vertex 1.9103 -2.62931 25.5
      vertex 1.00431 -3.09093 25.5
      vertex 4.51663 -5.01623 25.5
    endloop
  endfacet
  facet normal 0 0 1
    outer loop
      vertex 3.09093 -1.00431 25.5
      vertex 2.62931 -1.9103 25.5
      vertex 6.16643 -2.74547 25.5
    endloop
  endfacet
  facet normal 0 0 1
    outer loop
      vertex 6.6025 -1.4034 25.5
      vertex 3.09162 -1 25.5
      vertex 6.16643 -2.74547 25.5
    endloop
  endfacet
  facet normal 0 0 1
    outer loop
      vertex 3.09162 1 25.5
      vertex 6.6449 1 25.5
      vertex 3.09093 1.00431 25.5
    endloop
  endfacet
  facet normal 0 0 1
    outer loop
      vertex 3.09162 -1 25.5
      vertex 3.09093 -1.00431 25.5
      vertex 6.16643 -2.74547 25.5
    endloop
  endfacet
  facet normal 0 0 1
    outer loop
      vertex 3.09093 1.00431 25.5
      vertex 6.6449 1 25.5
      vertex 2.62931 1.9103 25.5
    endloop
  endfacet
  facet normal 0 0 1
    outer loop
      vertex 6.16643 -2.74547 25.5
      vertex 2.62931 -1.9103 25.5
      vertex 5.46087 -3.96755 25.5
    endloop
  endfacet
  facet normal 0 0 1
    outer loop
      vertex 5.46087 -3.96755 25.5
      vertex 1.9103 -2.62931 25.5
      vertex 4.51663 -5.01623 25.5
    endloop
  endfacet
  facet normal 0 0 1
    outer loop
      vertex 4.51663 -5.01623 25.5
      vertex 1.00431 -3.09093 25.5
      vertex 3.375 -5.84567 25.5
    endloop
  endfacet
  facet normal 0 0 1
    outer loop
      vertex 1.00431 -3.09093 25.5
      vertex 0 -3.25 25.5
      vertex 3.375 -5.84567 25.5
    endloop
  endfacet
  facet normal 0 0 1
    outer loop
      vertex 3.375 -5.84567 25.5
      vertex -1.00431 -3.09093 25.5
      vertex 2.08587 -6.41963 25.5
    endloop
  endfacet
  facet normal 0 0 1
    outer loop
      vertex -1.00431 -3.09093 25.5
      vertex -1.9103 -2.62931 25.5
      vertex 2.08587 -6.41963 25.5
    endloop
  endfacet
  facet normal 0 0 1
    outer loop
      vertex -2.62931 -1.9103 25.5
      vertex -6.6025 1.4034 25.5
      vertex -1.9103 -2.62931 25.5
    endloop
  endfacet
  facet normal 0 0 1
    outer loop
      vertex -3.09093 -1.00431 25.5
      vertex -3.25 0 25.5
      vertex -6.6025 1.4034 25.5
    endloop
  endfacet
  facet normal 0 0 1
    outer loop
      vertex -2.62931 -1.9103 25.5
      vertex -3.09093 -1.00431 25.5
      vertex -6.6025 1.4034 25.5
    endloop
  endfacet
  facet normal 0 0 1
    outer loop
      vertex -2.62931 1.9103 25.5
      vertex -6.6025 1.4034 25.5
      vertex -3.09093 1.00431 25.5
    endloop
  endfacet
  facet normal 0 0 1
    outer loop
      vertex -1.9103 2.62931 25.5
      vertex -6.6025 1.4034 25.5
      vertex -2.62931 1.9103 25.5
    endloop
  endfacet
  facet normal 0 0 1
    outer loop
      vertex -1.00431 3.09093 25.5
      vertex -6.6025 1.4034 25.5
      vertex -1.9103 2.62931 25.5
    endloop
  endfacet
  facet normal 0 0 1
    outer loop
      vertex 4.51663 5.01623 25.5
      vertex -6.6025 1.4034 25.5
      vertex -1.00431 3.09093 25.5
    endloop
  endfacet
  facet normal 0 0 1
    outer loop
      vertex 2.62931 1.9103 25.5
      vertex 6.6449 1 25.5
      vertex 1.9103 2.62931 25.5
    endloop
  endfacet
  facet normal 0 0 1
    outer loop
      vertex 4.51663 5.01623 25.5
      vertex -1.00431 3.09093 25.5
      vertex 0 3.25 25.5
    endloop
  endfacet
  facet normal 0 0 1
    outer loop
      vertex 6.16643 2.74547 25.5
      vertex 0 3.25 25.5
      vertex 1.00431 3.09093 25.5
    endloop
  endfacet
  facet normal 0 0 1
    outer loop
      vertex 6.6449 1 25.5
      vertex 1.00431 3.09093 25.5
      vertex 1.9103 2.62931 25.5
    endloop
  endfacet
  facet normal 0 0 1
    outer loop
      vertex 6.6025 1.4034 25.5
      vertex 1.00431 3.09093 25.5
      vertex 6.6449 1 25.5
    endloop
  endfacet
  facet normal 0 0 1
    outer loop
      vertex 6.16643 2.74547 25.5
      vertex 1.00431 3.09093 25.5
      vertex 6.6025 1.4034 25.5
    endloop
  endfacet
  facet normal 0 0 1
    outer loop
      vertex 5.46087 3.96755 25.5
      vertex 0 3.25 25.5
      vertex 6.16643 2.74547 25.5
    endloop
  endfacet
  facet normal 0 0 1
    outer loop
      vertex 4.51663 5.01623 25.5
      vertex 0 3.25 25.5
      vertex 5.46087 3.96755 25.5
    endloop
  endfacet
  facet normal 0 0 1
    outer loop
      vertex 3.375 5.84567 25.5
      vertex -6.6025 1.4034 25.5
      vertex 4.51663 5.01623 25.5
    endloop
  endfacet
  facet normal 0 0 1
    outer loop
      vertex 2.08587 6.41963 25.5
      vertex -6.6025 1.4034 25.5
      vertex 3.375 5.84567 25.5
    endloop
  endfacet
  facet normal 0 0 1
    outer loop
      vertex 0.705567 6.71302 25.5
      vertex -6.6025 1.4034 25.5
      vertex 2.08587 6.41963 25.5
    endloop
  endfacet
  facet normal 0 0 1
    outer loop
      vertex -0.705567 6.71302 25.5
      vertex -6.6025 1.4034 25.5
      vertex 0.705567 6.71302 25.5
    endloop
  endfacet
  facet normal 0 0 1
    outer loop
      vertex -2.08587 6.41963 25.5
      vertex -6.6025 1.4034 25.5
      vertex -0.705567 6.71302 25.5
    endloop
  endfacet
  facet normal 0 0 1
    outer loop
      vertex -3.375 5.84567 25.5
      vertex -6.6025 1.4034 25.5
      vertex -2.08587 6.41963 25.5
    endloop
  endfacet
  facet normal 0 0 1
    outer loop
      vertex -4.51663 5.01623 25.5
      vertex -6.6025 1.4034 25.5
      vertex -3.375 5.84567 25.5
    endloop
  endfacet
  facet normal 0 0 1
    outer loop
      vertex -5.46087 3.96755 25.5
      vertex -6.6025 1.4034 25.5
      vertex -4.51663 5.01623 25.5
    endloop
  endfacet
  facet normal 0 0 1
    outer loop
      vertex -6.16643 2.74547 25.5
      vertex -6.6025 1.4034 25.5
      vertex -5.46087 3.96755 25.5
    endloop
  endfacet
  facet normal 0 0 1
    outer loop
      vertex 6.6449 -1 25.5
      vertex 3.09162 -1 25.5
      vertex 6.6025 -1.4034 25.5
    endloop
  endfacet
  facet normal 0 0 1
    outer loop
      vertex 2.62931 -1.9103 25.5
      vertex 1.9103 -2.62931 25.5
      vertex 5.46087 -3.96755 25.5
    endloop
  endfacet
  facet normal 0 0 1
    outer loop
      vertex -3.25 0 25.5
      vertex -3.09093 1.00431 25.5
      vertex -6.6025 1.4034 25.5
    endloop
  endfacet
  facet normal -0.987688 0.156434 0
    outer loop
      vertex 3.09162 -1 25.5
      vertex 3.09162 -1 18
      vertex 3.09093 -1.00431 25.5
    endloop
  endfacet
  facet normal -0.987688 0.156434 0
    outer loop
      vertex 3.09093 -1.00431 25.5
      vertex 3.09162 -1 18
      vertex 3.09093 -1.00431 18
    endloop
  endfacet
  facet normal -0.987688 -0.156434 0
    outer loop
      vertex 3.09162 1 25.5
      vertex 3.09093 1.00431 25.5
      vertex 3.09162 1 18
    endloop
  endfacet
  facet normal -0.987688 -0.156434 0
    outer loop
      vertex 3.09162 1 18
      vertex 3.09093 1.00431 25.5
      vertex 3.09093 1.00431 18
    endloop
  endfacet
  facet normal 0 0 1
    outer loop
      vertex 4 30 13.5
      vertex 4 20 13.5
      vertex 10 20 13.5
    endloop
  endfacet
  facet normal 0 0 1
    outer loop
      vertex 10 30 13.5
      vertex 4 30 13.5
      vertex 10 20 13.5
    endloop
  endfacet
  facet normal -3.47356e-17 0.987688 0.156435
    outer loop
      vertex 10 23.4783 8.00557
      vertex 4 23.4783 8.00557
      vertex 10 23.4 8.5
    endloop
  endfacet
  facet normal -3.47356e-17 0.987688 0.156435
    outer loop
      vertex 10 23.4 8.5
      vertex 4 23.4783 8.00557
      vertex 4 23.4 8.5
    endloop
  endfacet
  facet normal -1.00806e-16 0.891007 0.45399
    outer loop
      vertex 10 23.7056 7.55954
      vertex 4 23.7056 7.55954
      vertex 10 23.4783 8.00557
    endloop
  endfacet
  facet normal -1.00806e-16 0.891007 0.45399
    outer loop
      vertex 10 23.4783 8.00557
      vertex 4 23.7056 7.55954
      vertex 4 23.4783 8.00557
    endloop
  endfacet
  facet normal -1.57009e-16 0.707107 0.707107
    outer loop
      vertex 10 24.0595 7.20557
      vertex 4 24.0595 7.20557
      vertex 10 23.7056 7.55954
    endloop
  endfacet
  facet normal -1.57009e-16 0.707107 0.707107
    outer loop
      vertex 10 23.7056 7.55954
      vertex 4 24.0595 7.20557
      vertex 4 23.7056 7.55954
    endloop
  endfacet
  facet normal -1.97843e-16 0.45399 0.891007
    outer loop
      vertex 10 24.0595 7.20557
      vertex 10 24.5056 6.97831
      vertex 4 24.5056 6.97831
    endloop
  endfacet
  facet normal -1.97843e-16 0.45399 0.891007
    outer loop
      vertex 4 24.0595 7.20557
      vertex 10 24.0595 7.20557
      vertex 4 24.5056 6.97831
    endloop
  endfacet
  facet normal -2.19311e-16 0.156435 0.987688
    outer loop
      vertex 10 24.5056 6.97831
      vertex 10 25 6.9
      vertex 4 25 6.9
    endloop
  endfacet
  facet normal -2.19311e-16 0.156435 0.987688
    outer loop
      vertex 4 24.5056 6.97831
      vertex 10 24.5056 6.97831
      vertex 4 25 6.9
    endloop
  endfacet
  facet normal -2.19311e-16 -0.156435 0.987688
    outer loop
      vertex 10 25 6.9
      vertex 10 25.4944 6.97831
      vertex 4 25.4944 6.97831
    endloop
  endfacet
  facet normal -2.19311e-16 -0.156435 0.987688
    outer loop
      vertex 4 25 6.9
      vertex 10 25 6.9
      vertex 4 25.4944 6.97831
    endloop
  endfacet
  facet normal -1.97843e-16 -0.45399 0.891007
    outer loop
      vertex 10 25.4944 6.97831
      vertex 10 25.9405 7.20557
      vertex 4 25.9405 7.20557
    endloop
  endfacet
  facet normal -1.97843e-16 -0.45399 0.891007
    outer loop
      vertex 4 25.4944 6.97831
      vertex 10 25.4944 6.97831
      vertex 4 25.9405 7.20557
    endloop
  endfacet
  facet normal -1.57009e-16 -0.707107 0.707107
    outer loop
      vertex 10 25.9405 7.20557
      vertex 10 26.2944 7.55954
      vertex 4 26.2944 7.55954
    endloop
  endfacet
  facet normal -1.57009e-16 -0.707107 0.707107
    outer loop
      vertex 4 25.9405 7.20557
      vertex 10 25.9405 7.20557
      vertex 4 26.2944 7.55954
    endloop
  endfacet
  facet normal -1.00806e-16 -0.891007 0.45399
    outer loop
      vertex 10 26.2944 7.55954
      vertex 10 26.5217 8.00557
      vertex 4 26.5217 8.00557
    endloop
  endfacet
  facet normal -1.00806e-16 -0.891007 0.45399
    outer loop
      vertex 4 26.2944 7.55954
      vertex 10 26.2944 7.55954
      vertex 4 26.5217 8.00557
    endloop
  endfacet
  facet normal -3.47356e-17 -0.987688 0.156435
    outer loop
      vertex 10 26.5217 8.00557
      vertex 10 26.6 8.5
      vertex 4 26.6 8.5
    endloop
  endfacet
  facet normal -3.47356e-17 -0.987688 0.156435
    outer loop
      vertex 4 26.5217 8.00557
      vertex 10 26.5217 8.00557
      vertex 4 26.6 8.5
    endloop
  endfacet
  facet normal 3.47356e-17 -0.987688 -0.156435
    outer loop
      vertex 4 26.6 8.5
      vertex 10 26.6 8.5
      vertex 10 26.5217 8.99443
    endloop
  endfacet
  facet normal 3.47356e-17 -0.987688 -0.156435
    outer loop
      vertex 4 26.5217 8.99443
      vertex 4 26.6 8.5
      vertex 10 26.5217 8.99443
    endloop
  endfacet
  facet normal 1.00806e-16 -0.891007 -0.45399
    outer loop
      vertex 4 26.5217 8.99443
      vertex 10 26.5217 8.99443
      vertex 10 26.2944 9.44046
    endloop
  endfacet
  facet normal 1.00806e-16 -0.891007 -0.45399
    outer loop
      vertex 4 26.2944 9.44046
      vertex 4 26.5217 8.99443
      vertex 10 26.2944 9.44046
    endloop
  endfacet
  facet normal 1.57009e-16 -0.707107 -0.707107
    outer loop
      vertex 4 26.2944 9.44046
      vertex 10 26.2944 9.44046
      vertex 10 25.9405 9.79443
    endloop
  endfacet
  facet normal 1.57009e-16 -0.707107 -0.707107
    outer loop
      vertex 4 25.9405 9.79443
      vertex 4 26.2944 9.44046
      vertex 10 25.9405 9.79443
    endloop
  endfacet
  facet normal 1.97843e-16 -0.45399 -0.891007
    outer loop
      vertex 10 25.9405 9.79443
      vertex 10 25.4944 10.0217
      vertex 4 25.9405 9.79443
    endloop
  endfacet
  facet normal 1.97843e-16 -0.45399 -0.891007
    outer loop
      vertex 4 25.9405 9.79443
      vertex 10 25.4944 10.0217
      vertex 4 25.4944 10.0217
    endloop
  endfacet
  facet normal 2.19311e-16 -0.156435 -0.987688
    outer loop
      vertex 10 25.4944 10.0217
      vertex 10 25 10.1
      vertex 4 25.4944 10.0217
    endloop
  endfacet
  facet normal 2.19311e-16 -0.156435 -0.987688
    outer loop
      vertex 4 25.4944 10.0217
      vertex 10 25 10.1
      vertex 4 25 10.1
    endloop
  endfacet
  facet normal 2.19311e-16 0.156435 -0.987688
    outer loop
      vertex 10 25 10.1
      vertex 10 24.5056 10.0217
      vertex 4 25 10.1
    endloop
  endfacet
  facet normal 2.19311e-16 0.156435 -0.987688
    outer loop
      vertex 4 25 10.1
      vertex 10 24.5056 10.0217
      vertex 4 24.5056 10.0217
    endloop
  endfacet
  facet normal 1.97843e-16 0.45399 -0.891007
    outer loop
      vertex 10 24.5056 10.0217
      vertex 10 24.0595 9.79443
      vertex 4 24.5056 10.0217
    endloop
  endfacet
  facet normal 1.97843e-16 0.45399 -0.891007
    outer loop
      vertex 4 24.5056 10.0217
      vertex 10 24.0595 9.79443
      vertex 4 24.0595 9.79443
    endloop
  endfacet
  facet normal 1.57009e-16 0.707107 -0.707107
    outer loop
      vertex 10 24.0595 9.79443
      vertex 10 23.7056 9.44046
      vertex 4 24.0595 9.79443
    endloop
  endfacet
  facet normal 1.57009e-16 0.707107 -0.707107
    outer loop
      vertex 4 24.0595 9.79443
      vertex 10 23.7056 9.44046
      vertex 4 23.7056 9.44046
    endloop
  endfacet
  facet normal 1.00806e-16 0.891007 -0.45399
    outer loop
      vertex 10 23.7056 9.44046
      vertex 10 23.4783 8.99443
      vertex 4 23.7056 9.44046
    endloop
  endfacet
  facet normal 1.00806e-16 0.891007 -0.45399
    outer loop
      vertex 4 23.7056 9.44046
      vertex 10 23.4783 8.99443
      vertex 4 23.4783 8.99443
    endloop
  endfacet
  facet normal 3.47356e-17 0.987688 -0.156435
    outer loop
      vertex 10 23.4783 8.99443
      vertex 10 23.4 8.5
      vertex 4 23.4783 8.99443
    endloop
  endfacet
  facet normal 3.47356e-17 0.987688 -0.156435
    outer loop
      vertex 4 23.4783 8.99443
      vertex 10 23.4 8.5
      vertex 4 23.4 8.5
    endloop
  endfacet
  facet normal 0.891006 0.453991 0
    outer loop
      vertex -3.09093 -1.00431 25.5
      vertex -2.62931 -1.9103 25.5
      vertex -2.62931 -1.9103 18
    endloop
  endfacet
  facet normal 0.891006 0.453991 0
    outer loop
      vertex -3.09093 -1.00431 18
      vertex -3.09093 -1.00431 25.5
      vertex -2.62931 -1.9103 18
    endloop
  endfacet
  facet normal 0.987688 0.156434 0
    outer loop
      vertex -3.25 0 25.5
      vertex -3.09093 -1.00431 25.5
      vertex -3.09093 -1.00431 18
    endloop
  endfacet
  facet normal 0.987688 0.156434 0
    outer loop
      vertex -3.25 0 18
      vertex -3.25 0 25.5
      vertex -3.09093 -1.00431 18
    endloop
  endfacet
  facet normal 0.987688 -0.156434 0
    outer loop
      vertex -3.09093 1.00431 18
      vertex -3.09093 1.00431 25.5
      vertex -3.25 0 25.5
    endloop
  endfacet
  facet normal 0.987688 -0.156434 0
    outer loop
      vertex -3.25 0 18
      vertex -3.09093 1.00431 18
      vertex -3.25 0 25.5
    endloop
  endfacet
  facet normal 0.891006 -0.453991 0
    outer loop
      vertex -2.62931 1.9103 18
      vertex -2.62931 1.9103 25.5
      vertex -3.09093 1.00431 25.5
    endloop
  endfacet
  facet normal 0.891006 -0.453991 0
    outer loop
      vertex -3.09093 1.00431 18
      vertex -2.62931 1.9103 18
      vertex -3.09093 1.00431 25.5
    endloop
  endfacet
  facet normal 0.707107 -0.707107 0
    outer loop
      vertex -1.9103 2.62931 18
      vertex -1.9103 2.62931 25.5
      vertex -2.62931 1.9103 25.5
    endloop
  endfacet
  facet normal 0.707107 -0.707107 0
    outer loop
      vertex -2.62931 1.9103 18
      vertex -1.9103 2.62931 18
      vertex -2.62931 1.9103 25.5
    endloop
  endfacet
  facet normal 0.453991 -0.891006 0
    outer loop
      vertex -1.00431 3.09093 18
      vertex -1.00431 3.09093 25.5
      vertex -1.9103 2.62931 25.5
    endloop
  endfacet
  facet normal 0.453991 -0.891006 0
    outer loop
      vertex -1.9103 2.62931 18
      vertex -1.00431 3.09093 18
      vertex -1.9103 2.62931 25.5
    endloop
  endfacet
  facet normal 0.156434 -0.987688 0
    outer loop
      vertex 0 3.25 18
      vertex 0 3.25 25.5
      vertex -1.00431 3.09093 25.5
    endloop
  endfacet
  facet normal 0.156434 -0.987688 0
    outer loop
      vertex -1.00431 3.09093 18
      vertex 0 3.25 18
      vertex -1.00431 3.09093 25.5
    endloop
  endfacet
  facet normal -0.156434 -0.987688 0
    outer loop
      vertex 1.00431 3.09093 18
      vertex 1.00431 3.09093 25.5
      vertex 0 3.25 25.5
    endloop
  endfacet
  facet normal -0.156434 -0.987688 0
    outer loop
      vertex 0 3.25 18
      vertex 1.00431 3.09093 18
      vertex 0 3.25 25.5
    endloop
  endfacet
  facet normal -0.453991 -0.891006 0
    outer loop
      vertex 1.9103 2.62931 18
      vertex 1.9103 2.62931 25.5
      vertex 1.00431 3.09093 25.5
    endloop
  endfacet
  facet normal -0.453991 -0.891006 0
    outer loop
      vertex 1.00431 3.09093 18
      vertex 1.9103 2.62931 18
      vertex 1.00431 3.09093 25.5
    endloop
  endfacet
  facet normal -0.707107 -0.707107 0
    outer loop
      vertex 2.62931 1.9103 18
      vertex 2.62931 1.9103 25.5
      vertex 1.9103 2.62931 25.5
    endloop
  endfacet
  facet normal -0.707107 -0.707107 0
    outer loop
      vertex 1.9103 2.62931 18
      vertex 2.62931 1.9103 18
      vertex 1.9103 2.62931 25.5
    endloop
  endfacet
  facet normal -0.891006 -0.453991 0
    outer loop
      vertex 3.09093 1.00431 25.5
      vertex 2.62931 1.9103 25.5
      vertex 3.09093 1.00431 18
    endloop
  endfacet
  facet normal -0.891006 -0.453991 0
    outer loop
      vertex 3.09093 1.00431 18
      vertex 2.62931 1.9103 25.5
      vertex 2.62931 1.9103 18
    endloop
  endfacet
  facet normal -0.891006 0.453991 0
    outer loop
      vertex 3.09093 -1.00431 25.5
      vertex 3.09093 -1.00431 18
      vertex 2.62931 -1.9103 25.5
    endloop
  endfacet
  facet normal -0.891006 0.453991 0
    outer loop
      vertex 2.62931 -1.9103 25.5
      vertex 3.09093 -1.00431 18
      vertex 2.62931 -1.9103 18
    endloop
  endfacet
  facet normal -0.707107 0.707107 0
    outer loop
      vertex 2.62931 -1.9103 25.5
      vertex 2.62931 -1.9103 18
      vertex 1.9103 -2.62931 25.5
    endloop
  endfacet
  facet normal -0.707107 0.707107 0
    outer loop
      vertex 1.9103 -2.62931 25.5
      vertex 2.62931 -1.9103 18
      vertex 1.9103 -2.62931 18
    endloop
  endfacet
  facet normal -0.453991 0.891006 0
    outer loop
      vertex 1.9103 -2.62931 25.5
      vertex 1.9103 -2.62931 18
      vertex 1.00431 -3.09093 25.5
    endloop
  endfacet
  facet normal -0.453991 0.891006 0
    outer loop
      vertex 1.00431 -3.09093 25.5
      vertex 1.9103 -2.62931 18
      vertex 1.00431 -3.09093 18
    endloop
  endfacet
  facet normal -0.156434 0.987688 0
    outer loop
      vertex 1.00431 -3.09093 25.5
      vertex 1.00431 -3.09093 18
      vertex 0 -3.25 25.5
    endloop
  endfacet
  facet normal -0.156434 0.987688 0
    outer loop
      vertex 0 -3.25 25.5
      vertex 1.00431 -3.09093 18
      vertex 0 -3.25 18
    endloop
  endfacet
  facet normal 0.156434 0.987688 0
    outer loop
      vertex 0 -3.25 25.5
      vertex 0 -3.25 18
      vertex -1.00431 -3.09093 25.5
    endloop
  endfacet
  facet normal 0.156434 0.987688 0
    outer loop
      vertex -1.00431 -3.09093 25.5
      vertex 0 -3.25 18
      vertex -1.00431 -3.09093 18
    endloop
  endfacet
  facet normal 0.453991 0.891006 0
    outer loop
      vertex -1.00431 -3.09093 25.5
      vertex -1.00431 -3.09093 18
      vertex -1.9103 -2.62931 25.5
    endloop
  endfacet
  facet normal 0.453991 0.891006 0
    outer loop
      vertex -1.9103 -2.62931 25.5
      vertex -1.00431 -3.09093 18
      vertex -1.9103 -2.62931 18
    endloop
  endfacet
  facet normal 0.707107 0.707107 0
    outer loop
      vertex -1.9103 -2.62931 25.5
      vertex -1.9103 -2.62931 18
      vertex -2.62931 -1.9103 25.5
    endloop
  endfacet
  facet normal 0.707107 0.707107 0
    outer loop
      vertex -2.62931 -1.9103 25.5
      vertex -1.9103 -2.62931 18
      vertex -2.62931 -1.9103 18
    endloop
  endfacet
endsolid OpenSCAD_Model
