solid OpenSCAD_Model
  facet normal -2.83763e-16 1 0
    outer loop
      vertex 30.3942 4 -3.12
      vertex 30.3942 4 6.48
      vertex 33.5242 4 -3.12
    endloop
  endfacet
  facet normal -3.44204e-16 1 6.5878e-18
    outer loop
      vertex 32.8942 4 2.28
      vertex 30.3942 4 6.48
      vertex 32.9746 4 6.48
    endloop
  endfacet
  facet normal -4.4188e-16 1 -5.15526e-17
    outer loop
      vertex 33.5242 4 -3.12
      vertex 30.3942 4 6.48
      vertex 32.8942 4 2.28
    endloop
  endfacet
  facet normal -0 1 0
    outer loop
      vertex 33.5242 4 -0.071192
      vertex 33.5242 4 -3.12
      vertex 32.8942 4 2.28
    endloop
  endfacet
  facet normal 0 1 0
    outer loop
      vertex 32.8942 4 2.28
      vertex 32.9746 4 6.48
      vertex 33.4971 4 4.53
    endloop
  endfacet
  facet normal -1 -4.44089e-16 -0
    outer loop
      vertex 30.3942 4 -3.12
      vertex 30.3942 -4 -3.12
      vertex 30.3942 4 6.48
    endloop
  endfacet
  facet normal -1 -4.44089e-16 0
    outer loop
      vertex 30.3942 4 6.48
      vertex 30.3942 -4 -3.12
      vertex 30.3942 -4 6.48
    endloop
  endfacet
  facet normal -0 0 -1
    outer loop
      vertex 30.3942 4 -3.12
      vertex 33.5242 4 -3.12
      vertex 30.3942 -4 -3.12
    endloop
  endfacet
  facet normal 0 0 -1
    outer loop
      vertex 30.3942 -4 -3.12
      vertex 33.5242 4 -3.12
      vertex 33.5242 -4 -3.12
    endloop
  endfacet
  facet normal 1 0 0
    outer loop
      vertex 33.5242 4 -0.071192
      vertex 33.5242 -4 -0.071192
      vertex 33.5242 -4 -3.12
    endloop
  endfacet
  facet normal 1 -0 0
    outer loop
      vertex 33.5242 4 -3.12
      vertex 33.5242 4 -0.071192
      vertex 33.5242 -4 -3.12
    endloop
  endfacet
  facet normal 0.965926 0 0.258819
    outer loop
      vertex 32.8942 -4 2.28
      vertex 33.5242 -4 -0.071192
      vertex 33.5242 4 -0.071192
    endloop
  endfacet
  facet normal 0.965926 8.57914e-16 0.258819
    outer loop
      vertex 32.8942 4 2.28
      vertex 32.8942 -4 2.28
      vertex 33.5242 4 -0.071192
    endloop
  endfacet
  facet normal 0.965926 8.57914e-16 -0.258819
    outer loop
      vertex 33.4971 4 4.53
      vertex 33.4971 -4 4.53
      vertex 32.8942 -4 2.28
    endloop
  endfacet
  facet normal 0.965926 8.57914e-16 -0.258819
    outer loop
      vertex 32.8942 4 2.28
      vertex 33.4971 4 4.53
      vertex 32.8942 -4 2.28
    endloop
  endfacet
  facet normal 0.965926 8.52415e-16 0.258819
    outer loop
      vertex 32.9746 -4 6.48
      vertex 33.4971 -4 4.53
      vertex 33.4971 4 4.53
    endloop
  endfacet
  facet normal 0.965926 -0 0.258819
    outer loop
      vertex 32.9746 4 6.48
      vertex 32.9746 -4 6.48
      vertex 33.4971 4 4.53
    endloop
  endfacet
  facet normal 0 0 1
    outer loop
      vertex 32.9746 4 6.48
      vertex 30.3942 4 6.48
      vertex 30.3942 -4 6.48
    endloop
  endfacet
  facet normal -0 0 1
    outer loop
      vertex 32.9746 -4 6.48
      vertex 32.9746 4 6.48
      vertex 30.3942 -4 6.48
    endloop
  endfacet
  facet normal 1.41882e-16 -1 0
    outer loop
      vertex 30.3942 -4 6.48
      vertex 30.3942 -4 -3.12
      vertex 33.5242 -4 -3.12
    endloop
  endfacet
  facet normal -5.771e-16 -1 -3.43512e-16
    outer loop
      vertex 32.8942 -4 2.28
      vertex 30.3942 -4 6.48
      vertex 33.5242 -4 -0.071192
    endloop
  endfacet
  facet normal 1.41882e-16 -1 0
    outer loop
      vertex 33.5242 -4 -0.071192
      vertex 30.3942 -4 6.48
      vertex 33.5242 -4 -3.12
    endloop
  endfacet
  facet normal 2.28656e-16 -1 1.36105e-16
    outer loop
      vertex 33.4971 -4 4.53
      vertex 30.3942 -4 6.48
      vertex 32.8942 -4 2.28
    endloop
  endfacet
  facet normal 1.72102e-16 -1 4.61146e-17
    outer loop
      vertex 32.9746 -4 6.48
      vertex 30.3942 -4 6.48
      vertex 33.4971 -4 4.53
    endloop
  endfacet
endsolid OpenSCAD_Model
