solid OpenSCAD_Model
  facet normal 0 -1 0
    outer loop
      vertex -153 0.027391 2.02264
      vertex -153 0.027391 0.977358
      vertex -143 0.027391 0.977358
    endloop
  endfacet
  facet normal 0 -1 0
    outer loop
      vertex -143 0.027391 2.02264
      vertex -153 0.027391 2.02264
      vertex -143 0.027391 0.977358
    endloop
  endfacet
  facet normal -4.61655e-17 -0.978148 -0.207911
    outer loop
      vertex -143 0.027391 0.977358
      vertex -153 0.027391 0.977358
      vertex -153 0.244717 -0.045085
    endloop
  endfacet
  facet normal -4.61655e-17 -0.978148 -0.207911
    outer loop
      vertex -143 0.244717 -0.045085
      vertex -143 0.027391 0.977358
      vertex -153 0.244717 -0.045085
    endloop
  endfacet
  facet normal -1 0 0
    outer loop
      vertex -153 0.027391 0.977358
      vertex -153 0.027391 2.02264
      vertex -153 0.244717 -0.045085
    endloop
  endfacet
  facet normal -1 0 0
    outer loop
      vertex -153 0.244717 -0.045085
      vertex -153 0.027391 2.02264
      vertex -153 0.244717 3.04509
    endloop
  endfacet
  facet normal -1 0 0
    outer loop
      vertex -153 0.244717 -0.045085
      vertex -153 0.244717 3.04509
      vertex -153 0.669873 4
    endloop
  endfacet
  facet normal -1 0 0
    outer loop
      vertex -153 0.244717 -0.045085
      vertex -153 0.669873 4
      vertex -153 1.28428 4.84565
    endloop
  endfacet
  facet normal -1 0 0
    outer loop
      vertex -153 0.244717 -0.045085
      vertex -153 1.28428 4.84565
      vertex -153 2.06107 5.54509
    endloop
  endfacet
  facet normal -1 0 0
    outer loop
      vertex -153 0.244717 -0.045085
      vertex -153 2.06107 5.54509
      vertex -153 2.96632 6.06773
    endloop
  endfacet
  facet normal -1 0 0
    outer loop
      vertex -153 0.244717 -0.045085
      vertex -153 2.96632 6.06773
      vertex -153 3.96044 6.39074
    endloop
  endfacet
  facet normal -1 0 0
    outer loop
      vertex -153 0.244717 -0.045085
      vertex -153 3.96044 6.39074
      vertex -153 5 6.5
    endloop
  endfacet
  facet normal -1 0 0
    outer loop
      vertex -153 5.69145 4.05303
      vertex -153 5 6.5
      vertex -153 10 6.5
    endloop
  endfacet
  facet normal -1 0 0
    outer loop
      vertex -153 6.26335 1.36248
      vertex -153 10 6.5
      vertex -153 10 -2.5
    endloop
  endfacet
  facet normal -1 0 0
    outer loop
      vertex -153 10 -2.5
      vertex -153 66.2 -2.5
      vertex -153 66.2 -3.5
    endloop
  endfacet
  facet normal -1 0 0
    outer loop
      vertex -153 10 -2.5
      vertex -153 66.2 -3.5
      vertex -153 5 -3.5
    endloop
  endfacet
  facet normal -1 0 0
    outer loop
      vertex -153 5.69145 4.05303
      vertex -153 10 6.5
      vertex -153 5.99923 3.87533
    endloop
  endfacet
  facet normal -1 0 0
    outer loop
      vertex -153 10 -2.5
      vertex -153 5 -3.5
      vertex -153 0.244717 -0.045085
    endloop
  endfacet
  facet normal -1 0 0
    outer loop
      vertex -153 3.3832 1.97467
      vertex -153 0.244717 -0.045085
      vertex -153 3.30931 2.3223
    endloop
  endfacet
  facet normal -1 0 0
    outer loop
      vertex -153 0.244717 -0.045085
      vertex -153 3.96044 -3.39074
      vertex -153 2.96632 -3.06773
    endloop
  endfacet
  facet normal -1 0 0
    outer loop
      vertex -153 0.244717 -0.045085
      vertex -153 2.96632 -3.06773
      vertex -153 2.06107 -2.54508
    endloop
  endfacet
  facet normal -1 0 0
    outer loop
      vertex -153 0.244717 -0.045085
      vertex -153 2.06107 -2.54508
      vertex -153 1.28428 -1.84565
    endloop
  endfacet
  facet normal -1 0 0
    outer loop
      vertex -153 0.244717 -0.045085
      vertex -153 1.28428 -1.84565
      vertex -153 0.669873 -1
    endloop
  endfacet
  facet normal -1 0 0
    outer loop
      vertex -153 0.244717 -0.045085
      vertex -153 3.30931 2.6777
      vertex -153 3.30931 2.3223
    endloop
  endfacet
  facet normal -1 0 0
    outer loop
      vertex -153 4.64655 0.837149
      vertex -153 10 -2.5
      vertex -153 4.30855 0.946973
    endloop
  endfacet
  facet normal -1 0 0
    outer loop
      vertex -153 0.244717 -0.045085
      vertex -153 3.3832 1.97467
      vertex -153 3.52776 1.65
    endloop
  endfacet
  facet normal -1 0 0
    outer loop
      vertex -153 0.244717 -0.045085
      vertex -153 3.52776 1.65
      vertex -153 3.73665 1.36248
    endloop
  endfacet
  facet normal -1 0 0
    outer loop
      vertex -153 0.244717 -0.045085
      vertex -153 3.73665 1.36248
      vertex -153 4.00076 1.12467
    endloop
  endfacet
  facet normal -1 0 0
    outer loop
      vertex -153 0.244717 -0.045085
      vertex -153 4.00076 1.12467
      vertex -153 10 -2.5
    endloop
  endfacet
  facet normal -1 0 0
    outer loop
      vertex -153 4.00076 1.12467
      vertex -153 4.30855 0.946973
      vertex -153 10 -2.5
    endloop
  endfacet
  facet normal -1 0 0
    outer loop
      vertex -153 5 0.8
      vertex -153 10 -2.5
      vertex -153 4.64655 0.837149
    endloop
  endfacet
  facet normal -1 0 0
    outer loop
      vertex -153 5.35345 0.837149
      vertex -153 10 -2.5
      vertex -153 5 0.8
    endloop
  endfacet
  facet normal -1 0 0
    outer loop
      vertex -153 5.99923 3.87533
      vertex -153 10 6.5
      vertex -153 6.26335 3.63752
    endloop
  endfacet
  facet normal -1 0 0
    outer loop
      vertex -153 6.6168 1.97467
      vertex -153 10 6.5
      vertex -153 6.47224 1.65
    endloop
  endfacet
  facet normal -1 0 0
    outer loop
      vertex -153 6.69069 2.6777
      vertex -153 10 6.5
      vertex -153 6.69069 2.3223
    endloop
  endfacet
  facet normal -1 0 0
    outer loop
      vertex -153 5.35345 0.837149
      vertex -153 5.69145 0.946973
      vertex -153 10 -2.5
    endloop
  endfacet
  facet normal -1 0 0
    outer loop
      vertex -153 6.69069 2.3223
      vertex -153 10 6.5
      vertex -153 6.6168 1.97467
    endloop
  endfacet
  facet normal -1 0 0
    outer loop
      vertex -153 5.69145 0.946973
      vertex -153 5.99923 1.12467
      vertex -153 10 -2.5
    endloop
  endfacet
  facet normal -1 0 0
    outer loop
      vertex -153 6.47224 1.65
      vertex -153 10 6.5
      vertex -153 6.26335 1.36248
    endloop
  endfacet
  facet normal -1 0 0
    outer loop
      vertex -153 5.99923 1.12467
      vertex -153 6.26335 1.36248
      vertex -153 10 -2.5
    endloop
  endfacet
  facet normal -1 0 0
    outer loop
      vertex -153 6.6168 3.02533
      vertex -153 10 6.5
      vertex -153 6.69069 2.6777
    endloop
  endfacet
  facet normal -1 0 0
    outer loop
      vertex -153 6.47224 3.35
      vertex -153 10 6.5
      vertex -153 6.6168 3.02533
    endloop
  endfacet
  facet normal -1 0 0
    outer loop
      vertex -153 6.26335 3.63752
      vertex -153 10 6.5
      vertex -153 6.47224 3.35
    endloop
  endfacet
  facet normal -1 0 0
    outer loop
      vertex -153 5.35345 4.16285
      vertex -153 5 6.5
      vertex -153 5.69145 4.05303
    endloop
  endfacet
  facet normal -1 0 0
    outer loop
      vertex -153 3.52776 3.35
      vertex -153 5 6.5
      vertex -153 3.73665 3.63752
    endloop
  endfacet
  facet normal -1 0 0
    outer loop
      vertex -153 5 4.2
      vertex -153 5 6.5
      vertex -153 5.35345 4.16285
    endloop
  endfacet
  facet normal -1 0 0
    outer loop
      vertex -153 4.64655 4.16285
      vertex -153 5 6.5
      vertex -153 5 4.2
    endloop
  endfacet
  facet normal -1 0 0
    outer loop
      vertex -153 4.30855 4.05303
      vertex -153 5 6.5
      vertex -153 4.64655 4.16285
    endloop
  endfacet
  facet normal -1 0 0
    outer loop
      vertex -153 4.00076 3.87533
      vertex -153 5 6.5
      vertex -153 4.30855 4.05303
    endloop
  endfacet
  facet normal -1 0 0
    outer loop
      vertex -153 3.73665 3.63752
      vertex -153 5 6.5
      vertex -153 4.00076 3.87533
    endloop
  endfacet
  facet normal -1 0 0
    outer loop
      vertex -153 0.244717 -0.045085
      vertex -153 5 6.5
      vertex -153 3.52776 3.35
    endloop
  endfacet
  facet normal -1 0 0
    outer loop
      vertex -153 0.244717 -0.045085
      vertex -153 3.52776 3.35
      vertex -153 3.3832 3.02533
    endloop
  endfacet
  facet normal -1 0 0
    outer loop
      vertex -153 0.244717 -0.045085
      vertex -153 3.3832 3.02533
      vertex -153 3.30931 2.6777
    endloop
  endfacet
  facet normal -1 0 0
    outer loop
      vertex -153 3.96044 -3.39074
      vertex -153 0.244717 -0.045085
      vertex -153 5 -3.5
    endloop
  endfacet
  facet normal 4.61655e-17 -0.978148 0.207911
    outer loop
      vertex -153 0.244717 3.04509
      vertex -153 0.027391 2.02264
      vertex -143 0.027391 2.02264
    endloop
  endfacet
  facet normal 4.61655e-17 -0.978148 0.207911
    outer loop
      vertex -143 0.244717 3.04509
      vertex -153 0.244717 3.04509
      vertex -143 0.027391 2.02264
    endloop
  endfacet
  facet normal 1 0 0
    outer loop
      vertex -143 0.244717 -0.045085
      vertex -143 0.669873 -1
      vertex -143 1.28428 -1.84565
    endloop
  endfacet
  facet normal 1 0 0
    outer loop
      vertex -143 10 -2.5
      vertex -143 0.244717 -0.045085
      vertex -143 2.011 -2.5
    endloop
  endfacet
  facet normal 1 0 0
    outer loop
      vertex -143 2.011 -2.5
      vertex -143 0.244717 -0.045085
      vertex -143 1.28428 -1.84565
    endloop
  endfacet
  facet normal 1 0 0
    outer loop
      vertex -143 5.35345 0.837149
      vertex -143 0.244717 -0.045085
      vertex -143 10 -2.5
    endloop
  endfacet
  facet normal 1 0 0
    outer loop
      vertex -143 4.64655 0.837149
      vertex -143 4.30855 0.946973
      vertex -143 0.244717 -0.045085
    endloop
  endfacet
  facet normal 1 0 0
    outer loop
      vertex -143 3.96044 6.39074
      vertex -143 0.244717 -0.045085
      vertex -143 5 6.5
    endloop
  endfacet
  facet normal 1 0 0
    outer loop
      vertex -143 2.96632 6.06773
      vertex -143 0.244717 -0.045085
      vertex -143 3.96044 6.39074
    endloop
  endfacet
  facet normal 1 0 0
    outer loop
      vertex -143 2.06107 5.54509
      vertex -143 0.244717 -0.045085
      vertex -143 2.96632 6.06773
    endloop
  endfacet
  facet normal 1 0 0
    outer loop
      vertex -143 1.28428 4.84565
      vertex -143 0.244717 -0.045085
      vertex -143 2.06107 5.54509
    endloop
  endfacet
  facet normal 1 0 0
    outer loop
      vertex -143 0.669873 4
      vertex -143 0.244717 -0.045085
      vertex -143 1.28428 4.84565
    endloop
  endfacet
  facet normal 1 0 0
    outer loop
      vertex -143 0.244717 3.04509
      vertex -143 0.244717 -0.045085
      vertex -143 0.669873 4
    endloop
  endfacet
  facet normal 1 0 0
    outer loop
      vertex -143 0.027391 2.02264
      vertex -143 0.244717 -0.045085
      vertex -143 0.244717 3.04509
    endloop
  endfacet
  facet normal 1 0 0
    outer loop
      vertex -143 0.027391 0.977358
      vertex -143 0.244717 -0.045085
      vertex -143 0.027391 2.02264
    endloop
  endfacet
  facet normal 1 0 0
    outer loop
      vertex -143 3.3832 3.02533
      vertex -143 0.244717 -0.045085
      vertex -143 3.30931 2.6777
    endloop
  endfacet
  facet normal 1 0 0
    outer loop
      vertex -143 3.52776 3.35
      vertex -143 0.244717 -0.045085
      vertex -143 3.3832 3.02533
    endloop
  endfacet
  facet normal 1 0 0
    outer loop
      vertex -143 4.64655 4.16285
      vertex -143 5 4.2
      vertex -143 10 6.5
    endloop
  endfacet
  facet normal 1 0 0
    outer loop
      vertex -143 5 6.5
      vertex -143 0.244717 -0.045085
      vertex -143 3.52776 3.35
    endloop
  endfacet
  facet normal 1 0 0
    outer loop
      vertex -143 5.69145 4.05303
      vertex -143 5.99923 3.87533
      vertex -143 10 6.5
    endloop
  endfacet
  facet normal 1 0 0
    outer loop
      vertex -143 5.99923 3.87533
      vertex -143 6.26335 3.63752
      vertex -143 10 6.5
    endloop
  endfacet
  facet normal 1 0 0
    outer loop
      vertex -143 5 6.5
      vertex -143 3.73665 3.63752
      vertex -143 4.00076 3.87533
    endloop
  endfacet
  facet normal 1 0 0
    outer loop
      vertex -143 5 6.5
      vertex -143 4.30855 4.05303
      vertex -143 10 6.5
    endloop
  endfacet
  facet normal 1 0 0
    outer loop
      vertex -143 5 6.5
      vertex -143 4.00076 3.87533
      vertex -143 4.30855 4.05303
    endloop
  endfacet
  facet normal 1 0 0
    outer loop
      vertex -143 4.30855 4.05303
      vertex -143 4.64655 4.16285
      vertex -143 10 6.5
    endloop
  endfacet
  facet normal 1 0 0
    outer loop
      vertex -143 5 4.2
      vertex -143 5.35345 4.16285
      vertex -143 10 6.5
    endloop
  endfacet
  facet normal 1 0 0
    outer loop
      vertex -143 5.35345 4.16285
      vertex -143 5.69145 4.05303
      vertex -143 10 6.5
    endloop
  endfacet
  facet normal 1 0 0
    outer loop
      vertex -143 5 0.8
      vertex -143 4.64655 0.837149
      vertex -143 0.244717 -0.045085
    endloop
  endfacet
  facet normal 1 0 0
    outer loop
      vertex -143 10 6.5
      vertex -143 6.47224 3.35
      vertex -143 10 -2.5
    endloop
  endfacet
  facet normal 1 0 0
    outer loop
      vertex -143 10 6.5
      vertex -143 6.26335 3.63752
      vertex -143 6.47224 3.35
    endloop
  endfacet
  facet normal 1 0 0
    outer loop
      vertex -143 6.6168 3.02533
      vertex -143 6.69069 2.6777
      vertex -143 10 -2.5
    endloop
  endfacet
  facet normal 1 0 0
    outer loop
      vertex -143 3.52776 1.65
      vertex -143 3.3832 1.97467
      vertex -143 0.244717 -0.045085
    endloop
  endfacet
  facet normal 1 0 0
    outer loop
      vertex -143 6.69069 2.6777
      vertex -143 6.69069 2.3223
      vertex -143 10 -2.5
    endloop
  endfacet
  facet normal 1 0 0
    outer loop
      vertex -143 6.69069 2.3223
      vertex -143 6.6168 1.97467
      vertex -143 10 -2.5
    endloop
  endfacet
  facet normal 1 0 0
    outer loop
      vertex -143 6.6168 1.97467
      vertex -143 6.47224 1.65
      vertex -143 10 -2.5
    endloop
  endfacet
  facet normal 1 0 0
    outer loop
      vertex -143 6.47224 1.65
      vertex -143 6.26335 1.36248
      vertex -143 10 -2.5
    endloop
  endfacet
  facet normal 1 0 0
    outer loop
      vertex -143 6.26335 1.36248
      vertex -143 5.99923 1.12467
      vertex -143 10 -2.5
    endloop
  endfacet
  facet normal 1 0 0
    outer loop
      vertex -143 4.30855 0.946973
      vertex -143 4.00076 1.12467
      vertex -143 0.244717 -0.045085
    endloop
  endfacet
  facet normal 1 0 0
    outer loop
      vertex -143 5.99923 1.12467
      vertex -143 5.69145 0.946973
      vertex -143 10 -2.5
    endloop
  endfacet
  facet normal 1 0 0
    outer loop
      vertex -143 5.69145 0.946973
      vertex -143 5.35345 0.837149
      vertex -143 10 -2.5
    endloop
  endfacet
  facet normal 1 0 0
    outer loop
      vertex -143 5 0.8
      vertex -143 0.244717 -0.045085
      vertex -143 5.35345 0.837149
    endloop
  endfacet
  facet normal 1 0 0
    outer loop
      vertex -143 4.00076 1.12467
      vertex -143 3.73665 1.36248
      vertex -143 0.244717 -0.045085
    endloop
  endfacet
  facet normal 1 0 0
    outer loop
      vertex -143 3.73665 1.36248
      vertex -143 3.52776 1.65
      vertex -143 0.244717 -0.045085
    endloop
  endfacet
  facet normal 1 0 0
    outer loop
      vertex -143 3.3832 1.97467
      vertex -143 3.30931 2.3223
      vertex -143 0.244717 -0.045085
    endloop
  endfacet
  facet normal 1 0 0
    outer loop
      vertex -143 6.47224 3.35
      vertex -143 6.6168 3.02533
      vertex -143 10 -2.5
    endloop
  endfacet
  facet normal 1 0 0
    outer loop
      vertex -143 3.30931 2.6777
      vertex -143 0.244717 -0.045085
      vertex -143 3.30931 2.3223
    endloop
  endfacet
  facet normal 1 0 0
    outer loop
      vertex -143 3.52776 3.35
      vertex -143 3.73665 3.63752
      vertex -143 5 6.5
    endloop
  endfacet
  facet normal -9.03138e-17 -0.913545 -0.406737
    outer loop
      vertex -143 0.244717 -0.045085
      vertex -153 0.244717 -0.045085
      vertex -153 0.669873 -1
    endloop
  endfacet
  facet normal -9.03138e-17 -0.913545 -0.406737
    outer loop
      vertex -143 0.669873 -1
      vertex -143 0.244717 -0.045085
      vertex -153 0.669873 -1
    endloop
  endfacet
  facet normal -1.30515e-16 -0.809017 -0.587785
    outer loop
      vertex -143 0.669873 -1
      vertex -153 0.669873 -1
      vertex -153 1.28428 -1.84565
    endloop
  endfacet
  facet normal -1.30515e-16 -0.809017 -0.587785
    outer loop
      vertex -143 1.28428 -1.84565
      vertex -143 0.669873 -1
      vertex -153 1.28428 -1.84565
    endloop
  endfacet
  facet normal -1.65011e-16 -0.669131 -0.743145
    outer loop
      vertex -153 1.28428 -1.84565
      vertex -153 2.06107 -2.54508
      vertex -143 1.28428 -1.84565
    endloop
  endfacet
  facet normal -1.65011e-16 -0.669131 -0.743145
    outer loop
      vertex -10 2.011 -2.5
      vertex -153 2.06107 -2.54508
      vertex 2.524e-16 2.06107 -2.54508
    endloop
  endfacet
  facet normal -1.65011e-16 -0.669131 -0.743145
    outer loop
      vertex -10 1.28428 -1.84565
      vertex 2.524e-16 2.06107 -2.54508
      vertex 1.57273e-16 1.28428 -1.84565
    endloop
  endfacet
  facet normal -1.65011e-16 -0.669131 -0.743145
    outer loop
      vertex -143 2.011 -2.5
      vertex -153 2.06107 -2.54508
      vertex -10 2.011 -2.5
    endloop
  endfacet
  facet normal -1.65011e-16 -0.669131 -0.743145
    outer loop
      vertex -143 1.28428 -1.84565
      vertex -153 2.06107 -2.54508
      vertex -143 2.011 -2.5
    endloop
  endfacet
  facet normal -1.65011e-16 -0.669131 -0.743145
    outer loop
      vertex -10 2.011 -2.5
      vertex 2.524e-16 2.06107 -2.54508
      vertex -10 1.28428 -1.84565
    endloop
  endfacet
  facet normal -1.92296e-16 -0.5 -0.866026
    outer loop
      vertex -153 2.06107 -2.54508
      vertex -153 2.96632 -3.06773
      vertex 2.524e-16 2.06107 -2.54508
    endloop
  endfacet
  facet normal -1.92296e-16 -0.5 -0.866026
    outer loop
      vertex 2.524e-16 2.06107 -2.54508
      vertex -153 2.96632 -3.06773
      vertex 3.63257e-16 2.96632 -3.06773
    endloop
  endfacet
  facet normal -2.11177e-16 -0.309017 -0.951056
    outer loop
      vertex -153 2.96632 -3.06773
      vertex -153 3.96044 -3.39074
      vertex 3.63257e-16 2.96632 -3.06773
    endloop
  endfacet
  facet normal -2.11177e-16 -0.309017 -0.951056
    outer loop
      vertex 3.63257e-16 2.96632 -3.06773
      vertex -153 3.96044 -3.39074
      vertex 4.84998e-16 3.96044 -3.39074
    endloop
  endfacet
  facet normal -2.20828e-16 -0.104529 -0.994522
    outer loop
      vertex -153 3.96044 -3.39074
      vertex -153 5 -3.5
      vertex 4.84998e-16 3.96044 -3.39074
    endloop
  endfacet
  facet normal -2.20828e-16 -0.104529 -0.994522
    outer loop
      vertex 4.84998e-16 3.96044 -3.39074
      vertex -153 5 -3.5
      vertex 6.12303e-16 5 -3.5
    endloop
  endfacet
  facet normal 0 0 -1
    outer loop
      vertex -153 5 -3.5
      vertex -153 66.2 -3.5
      vertex 6.12303e-16 5 -3.5
    endloop
  endfacet
  facet normal 0 0 -1
    outer loop
      vertex 6.12303e-16 5 -3.5
      vertex -153 66.2 -3.5
      vertex 8.10689e-15 66.2 -3.5
    endloop
  endfacet
  facet normal 0 1 0
    outer loop
      vertex -153 66.2 -3.5
      vertex -153 66.2 -2.5
      vertex 8.10689e-15 66.2 -3.5
    endloop
  endfacet
  facet normal 0 1 0
    outer loop
      vertex 8.10689e-15 66.2 -3.5
      vertex -153 66.2 -2.5
      vertex 8.10689e-15 66.2 -2.5
    endloop
  endfacet
  facet normal 0 0 1
    outer loop
      vertex -10 10 -2.5
      vertex -5 10 -2.5
      vertex -153 66.2 -2.5
    endloop
  endfacet
  facet normal 0 0 1
    outer loop
      vertex -153 66.2 -2.5
      vertex -153 10 -2.5
      vertex -143 10 -2.5
    endloop
  endfacet
  facet normal 0 0 1
    outer loop
      vertex -10 2.011 -2.5
      vertex -153 66.2 -2.5
      vertex -143 10 -2.5
    endloop
  endfacet
  facet normal 0 0 1
    outer loop
      vertex -143 2.011 -2.5
      vertex -10 2.011 -2.5
      vertex -143 10 -2.5
    endloop
  endfacet
  facet normal 0 0 1
    outer loop
      vertex -10 2.011 -2.5
      vertex -10 10 -2.5
      vertex -153 66.2 -2.5
    endloop
  endfacet
  facet normal 0 0 1
    outer loop
      vertex -5 56.2 -2.5
      vertex 6.88229e-15 56.2 -2.5
      vertex -153 66.2 -2.5
    endloop
  endfacet
  facet normal 0 0 1
    outer loop
      vertex -5 10 -2.5
      vertex -5 56.2 -2.5
      vertex -153 66.2 -2.5
    endloop
  endfacet
  facet normal 0 0 1
    outer loop
      vertex 6.88229e-15 56.2 -2.5
      vertex 8.10689e-15 66.2 -2.5
      vertex -153 66.2 -2.5
    endloop
  endfacet
  facet normal 0 1 0
    outer loop
      vertex -153 10 -2.5
      vertex -153 10 6.5
      vertex -143 10 -2.5
    endloop
  endfacet
  facet normal 0 1 0
    outer loop
      vertex -143 10 -2.5
      vertex -153 10 6.5
      vertex -143 10 6.5
    endloop
  endfacet
  facet normal 0 0 1
    outer loop
      vertex -153 10 6.5
      vertex -153 5 6.5
      vertex -143 5 6.5
    endloop
  endfacet
  facet normal 0 0 1
    outer loop
      vertex -143 10 6.5
      vertex -153 10 6.5
      vertex -143 5 6.5
    endloop
  endfacet
  facet normal 2.20828e-16 -0.104529 0.994522
    outer loop
      vertex -153 5 6.5
      vertex -153 3.96044 6.39074
      vertex -143 3.96044 6.39074
    endloop
  endfacet
  facet normal 2.20828e-16 -0.104529 0.994522
    outer loop
      vertex -143 5 6.5
      vertex -153 5 6.5
      vertex -143 3.96044 6.39074
    endloop
  endfacet
  facet normal 2.11177e-16 -0.309017 0.951056
    outer loop
      vertex -153 3.96044 6.39074
      vertex -153 2.96632 6.06773
      vertex -143 2.96632 6.06773
    endloop
  endfacet
  facet normal 2.11177e-16 -0.309017 0.951056
    outer loop
      vertex -143 3.96044 6.39074
      vertex -153 3.96044 6.39074
      vertex -143 2.96632 6.06773
    endloop
  endfacet
  facet normal 1.92296e-16 -0.5 0.866026
    outer loop
      vertex -153 2.96632 6.06773
      vertex -153 2.06107 5.54509
      vertex -143 2.06107 5.54509
    endloop
  endfacet
  facet normal 1.92296e-16 -0.5 0.866026
    outer loop
      vertex -143 2.96632 6.06773
      vertex -153 2.96632 6.06773
      vertex -143 2.06107 5.54509
    endloop
  endfacet
  facet normal 1.65011e-16 -0.669131 0.743145
    outer loop
      vertex -153 2.06107 5.54509
      vertex -153 1.28428 4.84565
      vertex -143 1.28428 4.84565
    endloop
  endfacet
  facet normal 1.65011e-16 -0.669131 0.743145
    outer loop
      vertex -143 2.06107 5.54509
      vertex -153 2.06107 5.54509
      vertex -143 1.28428 4.84565
    endloop
  endfacet
  facet normal 1.30515e-16 -0.809017 0.587785
    outer loop
      vertex -153 1.28428 4.84565
      vertex -153 0.669873 4
      vertex -143 0.669873 4
    endloop
  endfacet
  facet normal 1.30515e-16 -0.809017 0.587785
    outer loop
      vertex -143 1.28428 4.84565
      vertex -153 1.28428 4.84565
      vertex -143 0.669873 4
    endloop
  endfacet
  facet normal 9.03138e-17 -0.913545 0.406737
    outer loop
      vertex -153 0.669873 4
      vertex -153 0.244717 3.04509
      vertex -143 0.244717 3.04509
    endloop
  endfacet
  facet normal 9.03138e-17 -0.913545 0.406737
    outer loop
      vertex -143 0.669873 4
      vertex -153 0.669873 4
      vertex -143 0.244717 3.04509
    endloop
  endfacet
  facet normal 0 1 0
    outer loop
      vertex -143 3.30931 2.6777
      vertex -143 3.30931 2.3223
      vertex -153 3.30931 2.6777
    endloop
  endfacet
  facet normal 0 1 0
    outer loop
      vertex -153 3.30931 2.6777
      vertex -143 3.30931 2.3223
      vertex -153 3.30931 2.3223
    endloop
  endfacet
  facet normal -4.61655e-17 0.978148 -0.207911
    outer loop
      vertex -143 3.3832 3.02533
      vertex -143 3.30931 2.6777
      vertex -153 3.3832 3.02533
    endloop
  endfacet
  facet normal -4.61655e-17 0.978148 -0.207911
    outer loop
      vertex -153 3.3832 3.02533
      vertex -143 3.30931 2.6777
      vertex -153 3.30931 2.6777
    endloop
  endfacet
  facet normal -9.03138e-17 0.913545 -0.406737
    outer loop
      vertex -143 3.52776 3.35
      vertex -143 3.3832 3.02533
      vertex -153 3.52776 3.35
    endloop
  endfacet
  facet normal -9.03138e-17 0.913545 -0.406737
    outer loop
      vertex -153 3.52776 3.35
      vertex -143 3.3832 3.02533
      vertex -153 3.3832 3.02533
    endloop
  endfacet
  facet normal -1.30515e-16 0.809017 -0.587785
    outer loop
      vertex -143 3.73665 3.63752
      vertex -143 3.52776 3.35
      vertex -153 3.73665 3.63752
    endloop
  endfacet
  facet normal -1.30515e-16 0.809017 -0.587785
    outer loop
      vertex -153 3.73665 3.63752
      vertex -143 3.52776 3.35
      vertex -153 3.52776 3.35
    endloop
  endfacet
  facet normal -1.65011e-16 0.669131 -0.743144
    outer loop
      vertex -143 4.00076 3.87533
      vertex -143 3.73665 3.63752
      vertex -153 4.00076 3.87533
    endloop
  endfacet
  facet normal -1.65011e-16 0.669131 -0.743144
    outer loop
      vertex -153 4.00076 3.87533
      vertex -143 3.73665 3.63752
      vertex -153 3.73665 3.63752
    endloop
  endfacet
  facet normal -1.92296e-16 0.499999 -0.866026
    outer loop
      vertex -143 4.30855 4.05303
      vertex -143 4.00076 3.87533
      vertex -153 4.30855 4.05303
    endloop
  endfacet
  facet normal -1.92296e-16 0.499999 -0.866026
    outer loop
      vertex -153 4.30855 4.05303
      vertex -143 4.00076 3.87533
      vertex -153 4.00076 3.87533
    endloop
  endfacet
  facet normal -2.11177e-16 0.309018 -0.951056
    outer loop
      vertex -143 4.64655 4.16285
      vertex -143 4.30855 4.05303
      vertex -153 4.64655 4.16285
    endloop
  endfacet
  facet normal -2.11177e-16 0.309018 -0.951056
    outer loop
      vertex -153 4.64655 4.16285
      vertex -143 4.30855 4.05303
      vertex -153 4.30855 4.05303
    endloop
  endfacet
  facet normal -2.20828e-16 0.104528 -0.994522
    outer loop
      vertex -143 5 4.2
      vertex -143 4.64655 4.16285
      vertex -153 5 4.2
    endloop
  endfacet
  facet normal -2.20828e-16 0.104528 -0.994522
    outer loop
      vertex -153 5 4.2
      vertex -143 4.64655 4.16285
      vertex -153 4.64655 4.16285
    endloop
  endfacet
  facet normal -2.20828e-16 -0.104528 -0.994522
    outer loop
      vertex -143 5.35345 4.16285
      vertex -143 5 4.2
      vertex -153 5.35345 4.16285
    endloop
  endfacet
  facet normal -2.20828e-16 -0.104528 -0.994522
    outer loop
      vertex -153 5.35345 4.16285
      vertex -143 5 4.2
      vertex -153 5 4.2
    endloop
  endfacet
  facet normal -2.11177e-16 -0.309018 -0.951056
    outer loop
      vertex -143 5.69145 4.05303
      vertex -143 5.35345 4.16285
      vertex -153 5.69145 4.05303
    endloop
  endfacet
  facet normal -2.11177e-16 -0.309018 -0.951056
    outer loop
      vertex -153 5.69145 4.05303
      vertex -143 5.35345 4.16285
      vertex -153 5.35345 4.16285
    endloop
  endfacet
  facet normal -1.92296e-16 -0.499999 -0.866026
    outer loop
      vertex -143 5.99923 3.87533
      vertex -143 5.69145 4.05303
      vertex -153 5.99923 3.87533
    endloop
  endfacet
  facet normal -1.92296e-16 -0.499999 -0.866026
    outer loop
      vertex -153 5.99923 3.87533
      vertex -143 5.69145 4.05303
      vertex -153 5.69145 4.05303
    endloop
  endfacet
  facet normal -1.65011e-16 -0.669131 -0.743144
    outer loop
      vertex -143 6.26335 3.63752
      vertex -143 5.99923 3.87533
      vertex -153 6.26335 3.63752
    endloop
  endfacet
  facet normal -1.65011e-16 -0.669131 -0.743144
    outer loop
      vertex -153 6.26335 3.63752
      vertex -143 5.99923 3.87533
      vertex -153 5.99923 3.87533
    endloop
  endfacet
  facet normal -1.30515e-16 -0.809017 -0.587785
    outer loop
      vertex -153 6.47224 3.35
      vertex -143 6.47224 3.35
      vertex -143 6.26335 3.63752
    endloop
  endfacet
  facet normal -1.30515e-16 -0.809017 -0.587785
    outer loop
      vertex -153 6.26335 3.63752
      vertex -153 6.47224 3.35
      vertex -143 6.26335 3.63752
    endloop
  endfacet
  facet normal -9.03138e-17 -0.913545 -0.406737
    outer loop
      vertex -153 6.6168 3.02533
      vertex -143 6.6168 3.02533
      vertex -143 6.47224 3.35
    endloop
  endfacet
  facet normal -9.03138e-17 -0.913545 -0.406737
    outer loop
      vertex -153 6.47224 3.35
      vertex -153 6.6168 3.02533
      vertex -143 6.47224 3.35
    endloop
  endfacet
  facet normal -4.61655e-17 -0.978148 -0.207911
    outer loop
      vertex -153 6.69069 2.6777
      vertex -143 6.69069 2.6777
      vertex -143 6.6168 3.02533
    endloop
  endfacet
  facet normal -4.61655e-17 -0.978148 -0.207911
    outer loop
      vertex -153 6.6168 3.02533
      vertex -153 6.69069 2.6777
      vertex -143 6.6168 3.02533
    endloop
  endfacet
  facet normal 0 -1 0
    outer loop
      vertex -143 6.69069 2.3223
      vertex -143 6.69069 2.6777
      vertex -153 6.69069 2.6777
    endloop
  endfacet
  facet normal 0 -1 0
    outer loop
      vertex -153 6.69069 2.3223
      vertex -143 6.69069 2.3223
      vertex -153 6.69069 2.6777
    endloop
  endfacet
  facet normal 4.61655e-17 -0.978148 0.207911
    outer loop
      vertex -143 6.6168 1.97467
      vertex -143 6.69069 2.3223
      vertex -153 6.69069 2.3223
    endloop
  endfacet
  facet normal 4.61655e-17 -0.978148 0.207911
    outer loop
      vertex -153 6.6168 1.97467
      vertex -143 6.6168 1.97467
      vertex -153 6.69069 2.3223
    endloop
  endfacet
  facet normal 9.03138e-17 -0.913545 0.406737
    outer loop
      vertex -143 6.47224 1.65
      vertex -143 6.6168 1.97467
      vertex -153 6.6168 1.97467
    endloop
  endfacet
  facet normal 9.03138e-17 -0.913545 0.406737
    outer loop
      vertex -153 6.47224 1.65
      vertex -143 6.47224 1.65
      vertex -153 6.6168 1.97467
    endloop
  endfacet
  facet normal 1.30515e-16 -0.809017 0.587785
    outer loop
      vertex -143 6.26335 1.36248
      vertex -143 6.47224 1.65
      vertex -153 6.47224 1.65
    endloop
  endfacet
  facet normal 1.30515e-16 -0.809017 0.587785
    outer loop
      vertex -153 6.26335 1.36248
      vertex -143 6.26335 1.36248
      vertex -153 6.47224 1.65
    endloop
  endfacet
  facet normal 1.65011e-16 -0.669131 0.743144
    outer loop
      vertex -143 5.99923 1.12467
      vertex -143 6.26335 1.36248
      vertex -153 6.26335 1.36248
    endloop
  endfacet
  facet normal 1.65011e-16 -0.669131 0.743144
    outer loop
      vertex -153 5.99923 1.12467
      vertex -143 5.99923 1.12467
      vertex -153 6.26335 1.36248
    endloop
  endfacet
  facet normal 1.92296e-16 -0.499999 0.866026
    outer loop
      vertex -143 5.69145 0.946973
      vertex -143 5.99923 1.12467
      vertex -153 5.99923 1.12467
    endloop
  endfacet
  facet normal 1.92296e-16 -0.499999 0.866026
    outer loop
      vertex -153 5.69145 0.946973
      vertex -143 5.69145 0.946973
      vertex -153 5.99923 1.12467
    endloop
  endfacet
  facet normal 2.11177e-16 -0.309018 0.951056
    outer loop
      vertex -143 5.35345 0.837149
      vertex -143 5.69145 0.946973
      vertex -153 5.69145 0.946973
    endloop
  endfacet
  facet normal 2.11177e-16 -0.309018 0.951056
    outer loop
      vertex -153 5.35345 0.837149
      vertex -143 5.35345 0.837149
      vertex -153 5.69145 0.946973
    endloop
  endfacet
  facet normal 2.20828e-16 -0.104528 0.994522
    outer loop
      vertex -143 5 0.8
      vertex -143 5.35345 0.837149
      vertex -153 5.35345 0.837149
    endloop
  endfacet
  facet normal 2.20828e-16 -0.104528 0.994522
    outer loop
      vertex -153 5 0.8
      vertex -143 5 0.8
      vertex -153 5.35345 0.837149
    endloop
  endfacet
  facet normal 2.20828e-16 0.104528 0.994522
    outer loop
      vertex -143 4.64655 0.837149
      vertex -143 5 0.8
      vertex -153 5 0.8
    endloop
  endfacet
  facet normal 2.20828e-16 0.104528 0.994522
    outer loop
      vertex -153 4.64655 0.837149
      vertex -143 4.64655 0.837149
      vertex -153 5 0.8
    endloop
  endfacet
  facet normal 2.11177e-16 0.309018 0.951056
    outer loop
      vertex -143 4.30855 0.946973
      vertex -143 4.64655 0.837149
      vertex -153 4.64655 0.837149
    endloop
  endfacet
  facet normal 2.11177e-16 0.309018 0.951056
    outer loop
      vertex -153 4.30855 0.946973
      vertex -143 4.30855 0.946973
      vertex -153 4.64655 0.837149
    endloop
  endfacet
  facet normal 1.92296e-16 0.499999 0.866026
    outer loop
      vertex -143 4.00076 1.12467
      vertex -143 4.30855 0.946973
      vertex -153 4.30855 0.946973
    endloop
  endfacet
  facet normal 1.92296e-16 0.499999 0.866026
    outer loop
      vertex -153 4.00076 1.12467
      vertex -143 4.00076 1.12467
      vertex -153 4.30855 0.946973
    endloop
  endfacet
  facet normal 1.65011e-16 0.669131 0.743144
    outer loop
      vertex -143 3.73665 1.36248
      vertex -143 4.00076 1.12467
      vertex -153 4.00076 1.12467
    endloop
  endfacet
  facet normal 1.65011e-16 0.669131 0.743144
    outer loop
      vertex -153 3.73665 1.36248
      vertex -143 3.73665 1.36248
      vertex -153 4.00076 1.12467
    endloop
  endfacet
  facet normal 1.30515e-16 0.809017 0.587785
    outer loop
      vertex -143 3.73665 1.36248
      vertex -153 3.73665 1.36248
      vertex -143 3.52776 1.65
    endloop
  endfacet
  facet normal 1.30515e-16 0.809017 0.587785
    outer loop
      vertex -143 3.52776 1.65
      vertex -153 3.73665 1.36248
      vertex -153 3.52776 1.65
    endloop
  endfacet
  facet normal 9.03138e-17 0.913545 0.406737
    outer loop
      vertex -143 3.52776 1.65
      vertex -153 3.52776 1.65
      vertex -143 3.3832 1.97467
    endloop
  endfacet
  facet normal 9.03138e-17 0.913545 0.406737
    outer loop
      vertex -143 3.3832 1.97467
      vertex -153 3.52776 1.65
      vertex -153 3.3832 1.97467
    endloop
  endfacet
  facet normal 4.61655e-17 0.978148 0.207911
    outer loop
      vertex -143 3.3832 1.97467
      vertex -153 3.3832 1.97467
      vertex -143 3.30931 2.3223
    endloop
  endfacet
  facet normal 4.61655e-17 0.978148 0.207911
    outer loop
      vertex -143 3.30931 2.3223
      vertex -153 3.3832 1.97467
      vertex -153 3.30931 2.3223
    endloop
  endfacet
  facet normal -1 0 0
    outer loop
      vertex -10 0.244717 3.04509
      vertex -10 0.669873 4
      vertex -10 0.027391 2.02264
    endloop
  endfacet
  facet normal -1 0 0
    outer loop
      vertex -10 0.027391 2.02264
      vertex -10 0.669873 4
      vertex -10 1.28428 4.84565
    endloop
  endfacet
  facet normal -1 0 0
    outer loop
      vertex -10 0.027391 2.02264
      vertex -10 1.28428 4.84565
      vertex -10 2.06107 5.54509
    endloop
  endfacet
  facet normal -1 0 0
    outer loop
      vertex -10 0.027391 2.02264
      vertex -10 2.06107 5.54509
      vertex -10 2.96632 6.06773
    endloop
  endfacet
  facet normal -1 0 0
    outer loop
      vertex -10 0.027391 2.02264
      vertex -10 2.96632 6.06773
      vertex -10 3.96044 6.39074
    endloop
  endfacet
  facet normal -1 0 0
    outer loop
      vertex -10 0.027391 2.02264
      vertex -10 3.96044 6.39074
      vertex -10 5 6.5
    endloop
  endfacet
  facet normal -1 0 0
    outer loop
      vertex -10 4.64655 4.16285
      vertex -10 5 6.5
      vertex -10 10 6.5
    endloop
  endfacet
  facet normal -1 0 0
    outer loop
      vertex -10 6.26335 1.36248
      vertex -10 10 6.5
      vertex -10 10 -2.5
    endloop
  endfacet
  facet normal -1 0 0
    outer loop
      vertex -10 0.027391 2.02264
      vertex -10 10 -2.5
      vertex -10 2.011 -2.5
    endloop
  endfacet
  facet normal -1 0 0
    outer loop
      vertex -10 0.027391 2.02264
      vertex -10 2.011 -2.5
      vertex -10 1.28428 -1.84565
    endloop
  endfacet
  facet normal -1 0 0
    outer loop
      vertex -10 0.027391 2.02264
      vertex -10 1.28428 -1.84565
      vertex -10 0.669873 -1
    endloop
  endfacet
  facet normal -1 0 0
    outer loop
      vertex -10 0.027391 2.02264
      vertex -10 0.669873 -1
      vertex -10 0.244717 -0.045085
    endloop
  endfacet
  facet normal -1 0 0
    outer loop
      vertex -10 0.027391 2.02264
      vertex -10 0.244717 -0.045085
      vertex -10 0.027391 0.977358
    endloop
  endfacet
  facet normal -1 0 0
    outer loop
      vertex -10 4.64655 4.16285
      vertex -10 10 6.5
      vertex -10 5 4.2
    endloop
  endfacet
  facet normal -1 0 0
    outer loop
      vertex -10 0.027391 2.02264
      vertex -10 3.30931 2.3223
      vertex -10 3.3832 1.97467
    endloop
  endfacet
  facet normal -1 0 0
    outer loop
      vertex -10 0.027391 2.02264
      vertex -10 3.3832 1.97467
      vertex -10 3.52776 1.65
    endloop
  endfacet
  facet normal -1 0 0
    outer loop
      vertex -10 0.027391 2.02264
      vertex -10 3.52776 1.65
      vertex -10 3.73665 1.36248
    endloop
  endfacet
  facet normal -1 0 0
    outer loop
      vertex -10 0.027391 2.02264
      vertex -10 3.73665 1.36248
      vertex -10 4.00076 1.12467
    endloop
  endfacet
  facet normal -1 0 0
    outer loop
      vertex -10 0.027391 2.02264
      vertex -10 4.00076 1.12467
      vertex -10 10 -2.5
    endloop
  endfacet
  facet normal -1 0 0
    outer loop
      vertex -10 4.00076 1.12467
      vertex -10 4.30855 0.946973
      vertex -10 10 -2.5
    endloop
  endfacet
  facet normal -1 0 0
    outer loop
      vertex -10 5 0.8
      vertex -10 10 -2.5
      vertex -10 4.64655 0.837149
    endloop
  endfacet
  facet normal -1 0 0
    outer loop
      vertex -10 5.35345 0.837149
      vertex -10 10 -2.5
      vertex -10 5 0.8
    endloop
  endfacet
  facet normal -1 0 0
    outer loop
      vertex -10 5.69145 0.946973
      vertex -10 10 -2.5
      vertex -10 5.35345 0.837149
    endloop
  endfacet
  facet normal -1 0 0
    outer loop
      vertex -10 5.69145 4.05303
      vertex -10 10 6.5
      vertex -10 5.99923 3.87533
    endloop
  endfacet
  facet normal -1 0 0
    outer loop
      vertex -10 6.6168 1.97467
      vertex -10 10 6.5
      vertex -10 6.47224 1.65
    endloop
  endfacet
  facet normal -1 0 0
    outer loop
      vertex -10 6.69069 2.3223
      vertex -10 10 6.5
      vertex -10 6.6168 1.97467
    endloop
  endfacet
  facet normal -1 0 0
    outer loop
      vertex -10 5.69145 0.946973
      vertex -10 5.99923 1.12467
      vertex -10 10 -2.5
    endloop
  endfacet
  facet normal -1 0 0
    outer loop
      vertex -10 6.47224 1.65
      vertex -10 10 6.5
      vertex -10 6.26335 1.36248
    endloop
  endfacet
  facet normal -1 0 0
    outer loop
      vertex -10 5.99923 1.12467
      vertex -10 6.26335 1.36248
      vertex -10 10 -2.5
    endloop
  endfacet
  facet normal -1 0 0
    outer loop
      vertex -10 6.69069 2.6777
      vertex -10 10 6.5
      vertex -10 6.69069 2.3223
    endloop
  endfacet
  facet normal -1 0 0
    outer loop
      vertex -10 6.6168 3.02533
      vertex -10 10 6.5
      vertex -10 6.69069 2.6777
    endloop
  endfacet
  facet normal -1 0 0
    outer loop
      vertex -10 6.47224 3.35
      vertex -10 10 6.5
      vertex -10 6.6168 3.02533
    endloop
  endfacet
  facet normal -1 0 0
    outer loop
      vertex -10 6.26335 3.63752
      vertex -10 10 6.5
      vertex -10 6.47224 3.35
    endloop
  endfacet
  facet normal -1 0 0
    outer loop
      vertex -10 5.99923 3.87533
      vertex -10 10 6.5
      vertex -10 6.26335 3.63752
    endloop
  endfacet
  facet normal -1 0 0
    outer loop
      vertex -10 5.35345 4.16285
      vertex -10 10 6.5
      vertex -10 5.69145 4.05303
    endloop
  endfacet
  facet normal -1 0 0
    outer loop
      vertex -10 5 4.2
      vertex -10 10 6.5
      vertex -10 5.35345 4.16285
    endloop
  endfacet
  facet normal -1 0 0
    outer loop
      vertex -10 4.30855 4.05303
      vertex -10 5 6.5
      vertex -10 4.64655 4.16285
    endloop
  endfacet
  facet normal -1 0 0
    outer loop
      vertex -10 3.73665 3.63752
      vertex -10 0.027391 2.02264
      vertex -10 4.00076 3.87533
    endloop
  endfacet
  facet normal -1 0 0
    outer loop
      vertex -10 0.027391 2.02264
      vertex -10 5 6.5
      vertex -10 4.30855 4.05303
    endloop
  endfacet
  facet normal -1 0 0
    outer loop
      vertex -10 0.027391 2.02264
      vertex -10 4.30855 4.05303
      vertex -10 4.00076 3.87533
    endloop
  endfacet
  facet normal -1 0 0
    outer loop
      vertex -10 3.52776 3.35
      vertex -10 0.027391 2.02264
      vertex -10 3.73665 3.63752
    endloop
  endfacet
  facet normal -1 0 0
    outer loop
      vertex -10 3.3832 3.02533
      vertex -10 0.027391 2.02264
      vertex -10 3.52776 3.35
    endloop
  endfacet
  facet normal -1 0 0
    outer loop
      vertex -10 0.027391 2.02264
      vertex -10 3.3832 3.02533
      vertex -10 3.30931 2.6777
    endloop
  endfacet
  facet normal -1 0 0
    outer loop
      vertex -10 0.027391 2.02264
      vertex -10 3.30931 2.6777
      vertex -10 3.30931 2.3223
    endloop
  endfacet
  facet normal -1 0 0
    outer loop
      vertex -10 4.64655 0.837149
      vertex -10 10 -2.5
      vertex -10 4.30855 0.946973
    endloop
  endfacet
  facet normal -1.30515e-16 -0.809017 -0.587785
    outer loop
      vertex 8.20331e-17 0.669873 -1
      vertex -10 0.669873 -1
      vertex -10 1.28428 -1.84565
    endloop
  endfacet
  facet normal -1.30515e-16 -0.809017 -0.587785
    outer loop
      vertex 1.57273e-16 1.28428 -1.84565
      vertex 8.20331e-17 0.669873 -1
      vertex -10 1.28428 -1.84565
    endloop
  endfacet
  facet normal 1 -1.22461e-16 0
    outer loop
      vertex 3.35432e-18 0.027391 2.02264
      vertex 3.35432e-18 0.027391 0.977358
      vertex 2.99682e-17 0.244717 -0.045085
    endloop
  endfacet
  facet normal 1 -1.22461e-16 0
    outer loop
      vertex 1.57273e-16 1.28428 -1.84565
      vertex 3.35432e-18 0.027391 2.02264
      vertex 8.20331e-17 0.669873 -1
    endloop
  endfacet
  facet normal 1 -1.22461e-16 0
    outer loop
      vertex 8.20331e-17 0.669873 -1
      vertex 3.35432e-18 0.027391 2.02264
      vertex 2.99682e-17 0.244717 -0.045085
    endloop
  endfacet
  facet normal 1 -1.22461e-16 0
    outer loop
      vertex 2.524e-16 2.06107 -2.54508
      vertex 3.35432e-18 0.027391 2.02264
      vertex 1.57273e-16 1.28428 -1.84565
    endloop
  endfacet
  facet normal 1 -1.22461e-16 0
    outer loop
      vertex 3.63257e-16 2.96632 -3.06773
      vertex 3.35432e-18 0.027391 2.02264
      vertex 2.524e-16 2.06107 -2.54508
    endloop
  endfacet
  facet normal 1 -1.22461e-16 0
    outer loop
      vertex 4.84998e-16 3.96044 -3.39074
      vertex 3.35432e-18 0.027391 2.02264
      vertex 3.63257e-16 2.96632 -3.06773
    endloop
  endfacet
  facet normal 1 -1.22461e-16 0
    outer loop
      vertex 6.12303e-16 5 -3.5
      vertex 3.35432e-18 0.027391 2.02264
      vertex 4.84998e-16 3.96044 -3.39074
    endloop
  endfacet
  facet normal 1 -1.22461e-16 0
    outer loop
      vertex 5.69019e-16 4.64655 0.837149
      vertex 3.35432e-18 0.027391 2.02264
      vertex 6.12303e-16 5 -3.5
    endloop
  endfacet
  facet normal 1 -1.22461e-16 0
    outer loop
      vertex 5.27628e-16 4.30855 0.946973
      vertex 4.89936e-16 4.00076 1.12467
      vertex 3.35432e-18 0.027391 2.02264
    endloop
  endfacet
  facet normal 1 -1.22461e-16 0
    outer loop
      vertex 4.14309e-16 3.3832 1.97467
      vertex 4.05261e-16 3.30931 2.3223
      vertex 3.35432e-18 0.027391 2.02264
    endloop
  endfacet
  facet normal 1 -1.22461e-16 0
    outer loop
      vertex 8.10689e-15 66.2 -2.5
      vertex 6.88229e-15 56.2 -2.5
      vertex 8.10689e-15 66.2 -3.5
    endloop
  endfacet
  facet normal 1 -1.22461e-16 0
    outer loop
      vertex 4.84998e-16 3.96044 6.39074
      vertex 3.35432e-18 0.027391 2.02264
      vertex 6.12303e-16 5 6.5
    endloop
  endfacet
  facet normal 1 -1.22461e-16 0
    outer loop
      vertex 3.63257e-16 2.96632 6.06773
      vertex 3.35432e-18 0.027391 2.02264
      vertex 4.84998e-16 3.96044 6.39074
    endloop
  endfacet
  facet normal 1 -1.22461e-16 0
    outer loop
      vertex 2.524e-16 2.06107 5.54509
      vertex 3.35432e-18 0.027391 2.02264
      vertex 3.63257e-16 2.96632 6.06773
    endloop
  endfacet
  facet normal 1 -1.22461e-16 0
    outer loop
      vertex 1.57273e-16 1.28428 4.84565
      vertex 3.35432e-18 0.027391 2.02264
      vertex 2.524e-16 2.06107 5.54509
    endloop
  endfacet
  facet normal 1 -1.22461e-16 0
    outer loop
      vertex 8.20331e-17 0.669873 4
      vertex 3.35432e-18 0.027391 2.02264
      vertex 1.57273e-16 1.28428 4.84565
    endloop
  endfacet
  facet normal 1 -1.22461e-16 0
    outer loop
      vertex 2.99682e-17 0.244717 3.04509
      vertex 3.35432e-18 0.027391 2.02264
      vertex 8.20331e-17 0.669873 4
    endloop
  endfacet
  facet normal 1 -1.22461e-16 0
    outer loop
      vertex 7.92595e-16 6.47224 1.65
      vertex 8.10689e-15 66.2 -3.5
      vertex 6.88229e-15 56.2 -2.5
    endloop
  endfacet
  facet normal 1 -1.22461e-16 0
    outer loop
      vertex 4.05261e-16 3.30931 2.6777
      vertex 3.35432e-18 0.027391 2.02264
      vertex 4.05261e-16 3.30931 2.3223
    endloop
  endfacet
  facet normal 1 -1.22461e-16 0
    outer loop
      vertex 4.14309e-16 3.3832 3.02533
      vertex 3.35432e-18 0.027391 2.02264
      vertex 4.05261e-16 3.30931 2.6777
    endloop
  endfacet
  facet normal 1 -1.22461e-16 0
    outer loop
      vertex 4.57593e-16 3.73665 3.63752
      vertex 4.89936e-16 4.00076 3.87533
      vertex 6.12303e-16 5 6.5
    endloop
  endfacet
  facet normal 1 -1.22461e-16 0
    outer loop
      vertex 4.32011e-16 3.52776 3.35
      vertex 3.35432e-18 0.027391 2.02264
      vertex 4.14309e-16 3.3832 3.02533
    endloop
  endfacet
  facet normal 1 -1.22461e-16 0
    outer loop
      vertex 7.92595e-16 6.47224 1.65
      vertex 7.67013e-16 6.26335 1.36248
      vertex 8.10689e-15 66.2 -3.5
    endloop
  endfacet
  facet normal 1 -1.22461e-16 0
    outer loop
      vertex 6.12303e-16 5 6.5
      vertex 3.35432e-18 0.027391 2.02264
      vertex 4.32011e-16 3.52776 3.35
    endloop
  endfacet
  facet normal 1 -1.22461e-16 0
    outer loop
      vertex 6.12303e-16 5 4.2
      vertex 6.55587e-16 5.35345 4.16285
      vertex 6.88229e-15 56.2 6.5
    endloop
  endfacet
  facet normal 1 -1.22461e-16 0
    outer loop
      vertex 8.19346e-16 6.69069 2.6777
      vertex 8.19346e-16 6.69069 2.3223
      vertex 6.88229e-15 56.2 6.5
    endloop
  endfacet
  facet normal 1 -1.22461e-16 0
    outer loop
      vertex 6.96979e-16 5.69145 4.05303
      vertex 7.3467e-16 5.99923 3.87533
      vertex 6.88229e-15 56.2 6.5
    endloop
  endfacet
  facet normal 1 -1.22461e-16 0
    outer loop
      vertex 6.12303e-16 5 6.5
      vertex 4.89936e-16 4.00076 3.87533
      vertex 5.27628e-16 4.30855 4.05303
    endloop
  endfacet
  facet normal 1 -1.22461e-16 0
    outer loop
      vertex 6.55587e-16 5.35345 4.16285
      vertex 6.96979e-16 5.69145 4.05303
      vertex 6.88229e-15 56.2 6.5
    endloop
  endfacet
  facet normal 1 -1.22461e-16 0
    outer loop
      vertex 6.12303e-16 5 6.5
      vertex 5.27628e-16 4.30855 4.05303
      vertex 5.69019e-16 4.64655 4.16285
    endloop
  endfacet
  facet normal 1 -1.22461e-16 0
    outer loop
      vertex 6.12303e-16 5 6.5
      vertex 6.12303e-16 5 4.2
      vertex 6.88229e-15 56.2 6.5
    endloop
  endfacet
  facet normal 1 -1.22461e-16 0
    outer loop
      vertex 6.12303e-16 5 6.5
      vertex 5.69019e-16 4.64655 4.16285
      vertex 6.12303e-16 5 4.2
    endloop
  endfacet
  facet normal 1 -1.22461e-16 0
    outer loop
      vertex 7.3467e-16 5.99923 3.87533
      vertex 7.67013e-16 6.26335 3.63752
      vertex 6.88229e-15 56.2 6.5
    endloop
  endfacet
  facet normal 1 -1.22461e-16 0
    outer loop
      vertex 7.67013e-16 6.26335 3.63752
      vertex 7.92595e-16 6.47224 3.35
      vertex 6.88229e-15 56.2 6.5
    endloop
  endfacet
  facet normal 1 -1.22461e-16 0
    outer loop
      vertex 7.92595e-16 6.47224 3.35
      vertex 8.10297e-16 6.6168 3.02533
      vertex 6.88229e-15 56.2 6.5
    endloop
  endfacet
  facet normal 1 -1.22461e-16 0
    outer loop
      vertex 8.10297e-16 6.6168 3.02533
      vertex 8.19346e-16 6.69069 2.6777
      vertex 6.88229e-15 56.2 6.5
    endloop
  endfacet
  facet normal 1 -1.22461e-16 0
    outer loop
      vertex 4.32011e-16 3.52776 3.35
      vertex 4.57593e-16 3.73665 3.63752
      vertex 6.12303e-16 5 6.5
    endloop
  endfacet
  facet normal 1 -1.22461e-16 0
    outer loop
      vertex 8.10689e-15 66.2 -3.5
      vertex 7.67013e-16 6.26335 1.36248
      vertex 6.12303e-16 5 -3.5
    endloop
  endfacet
  facet normal 1 -1.22461e-16 0
    outer loop
      vertex 7.67013e-16 6.26335 1.36248
      vertex 7.3467e-16 5.99923 1.12467
      vertex 6.12303e-16 5 -3.5
    endloop
  endfacet
  facet normal 1 -1.22461e-16 0
    outer loop
      vertex 7.3467e-16 5.99923 1.12467
      vertex 6.96979e-16 5.69145 0.946973
      vertex 6.12303e-16 5 -3.5
    endloop
  endfacet
  facet normal 1 -1.22461e-16 0
    outer loop
      vertex 6.96979e-16 5.69145 0.946973
      vertex 6.55587e-16 5.35345 0.837149
      vertex 6.12303e-16 5 -3.5
    endloop
  endfacet
  facet normal 1 -1.22461e-16 0
    outer loop
      vertex 4.57593e-16 3.73665 1.36248
      vertex 4.32011e-16 3.52776 1.65
      vertex 3.35432e-18 0.027391 2.02264
    endloop
  endfacet
  facet normal 1 -1.22461e-16 0
    outer loop
      vertex 6.55587e-16 5.35345 0.837149
      vertex 6.12303e-16 5 0.8
      vertex 6.12303e-16 5 -3.5
    endloop
  endfacet
  facet normal 1 -1.22461e-16 0
    outer loop
      vertex 6.12303e-16 5 0.8
      vertex 5.69019e-16 4.64655 0.837149
      vertex 6.12303e-16 5 -3.5
    endloop
  endfacet
  facet normal 1 -1.22461e-16 0
    outer loop
      vertex 5.27628e-16 4.30855 0.946973
      vertex 3.35432e-18 0.027391 2.02264
      vertex 5.69019e-16 4.64655 0.837149
    endloop
  endfacet
  facet normal 1 -1.22461e-16 0
    outer loop
      vertex 4.32011e-16 3.52776 1.65
      vertex 4.14309e-16 3.3832 1.97467
      vertex 3.35432e-18 0.027391 2.02264
    endloop
  endfacet
  facet normal 1 -1.22461e-16 0
    outer loop
      vertex 4.89936e-16 4.00076 1.12467
      vertex 4.57593e-16 3.73665 1.36248
      vertex 3.35432e-18 0.027391 2.02264
    endloop
  endfacet
  facet normal 1 -1.22461e-16 0
    outer loop
      vertex 6.88229e-15 56.2 -2.5
      vertex 8.10297e-16 6.6168 1.97467
      vertex 7.92595e-16 6.47224 1.65
    endloop
  endfacet
  facet normal 1 -1.22461e-16 0
    outer loop
      vertex 6.88229e-15 56.2 -2.5
      vertex 8.19346e-16 6.69069 2.3223
      vertex 8.10297e-16 6.6168 1.97467
    endloop
  endfacet
  facet normal 1 -1.22461e-16 0
    outer loop
      vertex 6.88229e-15 56.2 -2.5
      vertex 6.88229e-15 56.2 6.5
      vertex 8.19346e-16 6.69069 2.3223
    endloop
  endfacet
  facet normal 0 1 0
    outer loop
      vertex -5 56.2 -2.5
      vertex -5 56.2 6.5
      vertex 6.88229e-15 56.2 -2.5
    endloop
  endfacet
  facet normal 0 1 0
    outer loop
      vertex 6.88229e-15 56.2 -2.5
      vertex -5 56.2 6.5
      vertex 6.88229e-15 56.2 6.5
    endloop
  endfacet
  facet normal -1 0 0
    outer loop
      vertex -5 10 -2.5
      vertex -5 10 6.5
      vertex -5 56.2 -2.5
    endloop
  endfacet
  facet normal -1 0 0
    outer loop
      vertex -5 56.2 -2.5
      vertex -5 10 6.5
      vertex -5 56.2 6.5
    endloop
  endfacet
  facet normal 0 1 0
    outer loop
      vertex -10 10 -2.5
      vertex -10 10 6.5
      vertex -5 10 -2.5
    endloop
  endfacet
  facet normal 0 1 0
    outer loop
      vertex -5 10 -2.5
      vertex -10 10 6.5
      vertex -5 10 6.5
    endloop
  endfacet
  facet normal 4.61655e-17 -0.978148 0.207911
    outer loop
      vertex -10 0.244717 3.04509
      vertex -10 0.027391 2.02264
      vertex 3.35432e-18 0.027391 2.02264
    endloop
  endfacet
  facet normal 4.61655e-17 -0.978148 0.207911
    outer loop
      vertex 2.99682e-17 0.244717 3.04509
      vertex -10 0.244717 3.04509
      vertex 3.35432e-18 0.027391 2.02264
    endloop
  endfacet
  facet normal 0 -1 0
    outer loop
      vertex -10 0.027391 2.02264
      vertex -10 0.027391 0.977358
      vertex 3.35432e-18 0.027391 0.977358
    endloop
  endfacet
  facet normal 0 -1 0
    outer loop
      vertex 3.35432e-18 0.027391 2.02264
      vertex -10 0.027391 2.02264
      vertex 3.35432e-18 0.027391 0.977358
    endloop
  endfacet
  facet normal -4.61655e-17 -0.978148 -0.207911
    outer loop
      vertex 3.35432e-18 0.027391 0.977358
      vertex -10 0.027391 0.977358
      vertex -10 0.244717 -0.045085
    endloop
  endfacet
  facet normal -4.61655e-17 -0.978148 -0.207911
    outer loop
      vertex 2.99682e-17 0.244717 -0.045085
      vertex 3.35432e-18 0.027391 0.977358
      vertex -10 0.244717 -0.045085
    endloop
  endfacet
  facet normal -9.03138e-17 -0.913545 -0.406737
    outer loop
      vertex 2.99682e-17 0.244717 -0.045085
      vertex -10 0.244717 -0.045085
      vertex -10 0.669873 -1
    endloop
  endfacet
  facet normal -9.03138e-17 -0.913545 -0.406737
    outer loop
      vertex 8.20331e-17 0.669873 -1
      vertex 2.99682e-17 0.244717 -0.045085
      vertex -10 0.669873 -1
    endloop
  endfacet
  facet normal 0 0 1
    outer loop
      vertex -10 10 6.5
      vertex -10 5 6.5
      vertex 6.12303e-16 5 6.5
    endloop
  endfacet
  facet normal 0 0 1
    outer loop
      vertex -5 10 6.5
      vertex -10 10 6.5
      vertex 6.12303e-16 5 6.5
    endloop
  endfacet
  facet normal 0 0 1
    outer loop
      vertex 6.88229e-15 56.2 6.5
      vertex -5 10 6.5
      vertex 6.12303e-16 5 6.5
    endloop
  endfacet
  facet normal 0 0 1
    outer loop
      vertex -5 56.2 6.5
      vertex -5 10 6.5
      vertex 6.88229e-15 56.2 6.5
    endloop
  endfacet
  facet normal 2.20828e-16 -0.104529 0.994522
    outer loop
      vertex -10 5 6.5
      vertex -10 3.96044 6.39074
      vertex 4.84998e-16 3.96044 6.39074
    endloop
  endfacet
  facet normal 2.20828e-16 -0.104529 0.994522
    outer loop
      vertex 6.12303e-16 5 6.5
      vertex -10 5 6.5
      vertex 4.84998e-16 3.96044 6.39074
    endloop
  endfacet
  facet normal 2.11177e-16 -0.309017 0.951056
    outer loop
      vertex -10 3.96044 6.39074
      vertex -10 2.96632 6.06773
      vertex 3.63257e-16 2.96632 6.06773
    endloop
  endfacet
  facet normal 2.11177e-16 -0.309017 0.951056
    outer loop
      vertex 4.84998e-16 3.96044 6.39074
      vertex -10 3.96044 6.39074
      vertex 3.63257e-16 2.96632 6.06773
    endloop
  endfacet
  facet normal 1.92296e-16 -0.5 0.866026
    outer loop
      vertex -10 2.96632 6.06773
      vertex -10 2.06107 5.54509
      vertex 2.524e-16 2.06107 5.54509
    endloop
  endfacet
  facet normal 1.92296e-16 -0.5 0.866026
    outer loop
      vertex 3.63257e-16 2.96632 6.06773
      vertex -10 2.96632 6.06773
      vertex 2.524e-16 2.06107 5.54509
    endloop
  endfacet
  facet normal 1.65011e-16 -0.669131 0.743145
    outer loop
      vertex -10 2.06107 5.54509
      vertex -10 1.28428 4.84565
      vertex 1.57273e-16 1.28428 4.84565
    endloop
  endfacet
  facet normal 1.65011e-16 -0.669131 0.743145
    outer loop
      vertex 2.524e-16 2.06107 5.54509
      vertex -10 2.06107 5.54509
      vertex 1.57273e-16 1.28428 4.84565
    endloop
  endfacet
  facet normal 1.30515e-16 -0.809017 0.587785
    outer loop
      vertex -10 1.28428 4.84565
      vertex -10 0.669873 4
      vertex 8.20331e-17 0.669873 4
    endloop
  endfacet
  facet normal 1.30515e-16 -0.809017 0.587785
    outer loop
      vertex 1.57273e-16 1.28428 4.84565
      vertex -10 1.28428 4.84565
      vertex 8.20331e-17 0.669873 4
    endloop
  endfacet
  facet normal 9.03138e-17 -0.913545 0.406737
    outer loop
      vertex -10 0.669873 4
      vertex -10 0.244717 3.04509
      vertex 2.99682e-17 0.244717 3.04509
    endloop
  endfacet
  facet normal 9.03138e-17 -0.913545 0.406737
    outer loop
      vertex 8.20331e-17 0.669873 4
      vertex -10 0.669873 4
      vertex 2.99682e-17 0.244717 3.04509
    endloop
  endfacet
  facet normal 4.61655e-17 0.978148 0.207911
    outer loop
      vertex 4.14309e-16 3.3832 1.97467
      vertex -10 3.3832 1.97467
      vertex 4.05261e-16 3.30931 2.3223
    endloop
  endfacet
  facet normal 4.61655e-17 0.978148 0.207911
    outer loop
      vertex 4.05261e-16 3.30931 2.3223
      vertex -10 3.3832 1.97467
      vertex -10 3.30931 2.3223
    endloop
  endfacet
  facet normal 0 1 0
    outer loop
      vertex 4.05261e-16 3.30931 2.6777
      vertex 4.05261e-16 3.30931 2.3223
      vertex -10 3.30931 2.6777
    endloop
  endfacet
  facet normal 0 1 0
    outer loop
      vertex -10 3.30931 2.6777
      vertex 4.05261e-16 3.30931 2.3223
      vertex -10 3.30931 2.3223
    endloop
  endfacet
  facet normal -4.61655e-17 0.978148 -0.207911
    outer loop
      vertex 4.14309e-16 3.3832 3.02533
      vertex 4.05261e-16 3.30931 2.6777
      vertex -10 3.3832 3.02533
    endloop
  endfacet
  facet normal -4.61655e-17 0.978148 -0.207911
    outer loop
      vertex -10 3.3832 3.02533
      vertex 4.05261e-16 3.30931 2.6777
      vertex -10 3.30931 2.6777
    endloop
  endfacet
  facet normal -9.03138e-17 0.913545 -0.406737
    outer loop
      vertex 4.32011e-16 3.52776 3.35
      vertex 4.14309e-16 3.3832 3.02533
      vertex -10 3.52776 3.35
    endloop
  endfacet
  facet normal -9.03138e-17 0.913545 -0.406737
    outer loop
      vertex -10 3.52776 3.35
      vertex 4.14309e-16 3.3832 3.02533
      vertex -10 3.3832 3.02533
    endloop
  endfacet
  facet normal -1.30515e-16 0.809017 -0.587785
    outer loop
      vertex 4.57593e-16 3.73665 3.63752
      vertex 4.32011e-16 3.52776 3.35
      vertex -10 3.73665 3.63752
    endloop
  endfacet
  facet normal -1.30515e-16 0.809017 -0.587785
    outer loop
      vertex -10 3.73665 3.63752
      vertex 4.32011e-16 3.52776 3.35
      vertex -10 3.52776 3.35
    endloop
  endfacet
  facet normal -1.65011e-16 0.669131 -0.743144
    outer loop
      vertex 4.89936e-16 4.00076 3.87533
      vertex 4.57593e-16 3.73665 3.63752
      vertex -10 4.00076 3.87533
    endloop
  endfacet
  facet normal -1.65011e-16 0.669131 -0.743144
    outer loop
      vertex -10 4.00076 3.87533
      vertex 4.57593e-16 3.73665 3.63752
      vertex -10 3.73665 3.63752
    endloop
  endfacet
  facet normal -1.92296e-16 0.499999 -0.866026
    outer loop
      vertex 5.27628e-16 4.30855 4.05303
      vertex 4.89936e-16 4.00076 3.87533
      vertex -10 4.30855 4.05303
    endloop
  endfacet
  facet normal -1.92296e-16 0.499999 -0.866026
    outer loop
      vertex -10 4.30855 4.05303
      vertex 4.89936e-16 4.00076 3.87533
      vertex -10 4.00076 3.87533
    endloop
  endfacet
  facet normal -2.11177e-16 0.309018 -0.951056
    outer loop
      vertex 5.69019e-16 4.64655 4.16285
      vertex 5.27628e-16 4.30855 4.05303
      vertex -10 4.64655 4.16285
    endloop
  endfacet
  facet normal -2.11177e-16 0.309018 -0.951056
    outer loop
      vertex -10 4.64655 4.16285
      vertex 5.27628e-16 4.30855 4.05303
      vertex -10 4.30855 4.05303
    endloop
  endfacet
  facet normal -2.20828e-16 0.104528 -0.994522
    outer loop
      vertex 6.12303e-16 5 4.2
      vertex 5.69019e-16 4.64655 4.16285
      vertex -10 5 4.2
    endloop
  endfacet
  facet normal -2.20828e-16 0.104528 -0.994522
    outer loop
      vertex -10 5 4.2
      vertex 5.69019e-16 4.64655 4.16285
      vertex -10 4.64655 4.16285
    endloop
  endfacet
  facet normal -2.20828e-16 -0.104528 -0.994522
    outer loop
      vertex 6.55587e-16 5.35345 4.16285
      vertex 6.12303e-16 5 4.2
      vertex -10 5.35345 4.16285
    endloop
  endfacet
  facet normal -2.20828e-16 -0.104528 -0.994522
    outer loop
      vertex -10 5.35345 4.16285
      vertex 6.12303e-16 5 4.2
      vertex -10 5 4.2
    endloop
  endfacet
  facet normal -2.11177e-16 -0.309018 -0.951056
    outer loop
      vertex 6.96979e-16 5.69145 4.05303
      vertex 6.55587e-16 5.35345 4.16285
      vertex -10 5.69145 4.05303
    endloop
  endfacet
  facet normal -2.11177e-16 -0.309018 -0.951056
    outer loop
      vertex -10 5.69145 4.05303
      vertex 6.55587e-16 5.35345 4.16285
      vertex -10 5.35345 4.16285
    endloop
  endfacet
  facet normal -1.92296e-16 -0.499999 -0.866026
    outer loop
      vertex 7.3467e-16 5.99923 3.87533
      vertex 6.96979e-16 5.69145 4.05303
      vertex -10 5.99923 3.87533
    endloop
  endfacet
  facet normal -1.92296e-16 -0.499999 -0.866026
    outer loop
      vertex -10 5.99923 3.87533
      vertex 6.96979e-16 5.69145 4.05303
      vertex -10 5.69145 4.05303
    endloop
  endfacet
  facet normal -1.65011e-16 -0.669131 -0.743144
    outer loop
      vertex 7.67013e-16 6.26335 3.63752
      vertex 7.3467e-16 5.99923 3.87533
      vertex -10 6.26335 3.63752
    endloop
  endfacet
  facet normal -1.65011e-16 -0.669131 -0.743144
    outer loop
      vertex -10 6.26335 3.63752
      vertex 7.3467e-16 5.99923 3.87533
      vertex -10 5.99923 3.87533
    endloop
  endfacet
  facet normal -1.30515e-16 -0.809017 -0.587785
    outer loop
      vertex -10 6.47224 3.35
      vertex 7.92595e-16 6.47224 3.35
      vertex 7.67013e-16 6.26335 3.63752
    endloop
  endfacet
  facet normal -1.30515e-16 -0.809017 -0.587785
    outer loop
      vertex -10 6.26335 3.63752
      vertex -10 6.47224 3.35
      vertex 7.67013e-16 6.26335 3.63752
    endloop
  endfacet
  facet normal -9.03138e-17 -0.913545 -0.406737
    outer loop
      vertex -10 6.6168 3.02533
      vertex 8.10297e-16 6.6168 3.02533
      vertex 7.92595e-16 6.47224 3.35
    endloop
  endfacet
  facet normal -9.03138e-17 -0.913545 -0.406737
    outer loop
      vertex -10 6.47224 3.35
      vertex -10 6.6168 3.02533
      vertex 7.92595e-16 6.47224 3.35
    endloop
  endfacet
  facet normal -4.61655e-17 -0.978148 -0.207911
    outer loop
      vertex -10 6.69069 2.6777
      vertex 8.19346e-16 6.69069 2.6777
      vertex 8.10297e-16 6.6168 3.02533
    endloop
  endfacet
  facet normal -4.61655e-17 -0.978148 -0.207911
    outer loop
      vertex -10 6.6168 3.02533
      vertex -10 6.69069 2.6777
      vertex 8.10297e-16 6.6168 3.02533
    endloop
  endfacet
  facet normal 0 -1 0
    outer loop
      vertex 8.19346e-16 6.69069 2.3223
      vertex 8.19346e-16 6.69069 2.6777
      vertex -10 6.69069 2.6777
    endloop
  endfacet
  facet normal 0 -1 0
    outer loop
      vertex -10 6.69069 2.3223
      vertex 8.19346e-16 6.69069 2.3223
      vertex -10 6.69069 2.6777
    endloop
  endfacet
  facet normal 4.61655e-17 -0.978148 0.207911
    outer loop
      vertex 8.10297e-16 6.6168 1.97467
      vertex 8.19346e-16 6.69069 2.3223
      vertex -10 6.69069 2.3223
    endloop
  endfacet
  facet normal 4.61655e-17 -0.978148 0.207911
    outer loop
      vertex -10 6.6168 1.97467
      vertex 8.10297e-16 6.6168 1.97467
      vertex -10 6.69069 2.3223
    endloop
  endfacet
  facet normal 9.03138e-17 -0.913545 0.406737
    outer loop
      vertex 7.92595e-16 6.47224 1.65
      vertex 8.10297e-16 6.6168 1.97467
      vertex -10 6.6168 1.97467
    endloop
  endfacet
  facet normal 9.03138e-17 -0.913545 0.406737
    outer loop
      vertex -10 6.47224 1.65
      vertex 7.92595e-16 6.47224 1.65
      vertex -10 6.6168 1.97467
    endloop
  endfacet
  facet normal 1.30515e-16 -0.809017 0.587785
    outer loop
      vertex 7.67013e-16 6.26335 1.36248
      vertex 7.92595e-16 6.47224 1.65
      vertex -10 6.47224 1.65
    endloop
  endfacet
  facet normal 1.30515e-16 -0.809017 0.587785
    outer loop
      vertex -10 6.26335 1.36248
      vertex 7.67013e-16 6.26335 1.36248
      vertex -10 6.47224 1.65
    endloop
  endfacet
  facet normal 1.65011e-16 -0.669131 0.743144
    outer loop
      vertex 7.3467e-16 5.99923 1.12467
      vertex 7.67013e-16 6.26335 1.36248
      vertex -10 6.26335 1.36248
    endloop
  endfacet
  facet normal 1.65011e-16 -0.669131 0.743144
    outer loop
      vertex -10 5.99923 1.12467
      vertex 7.3467e-16 5.99923 1.12467
      vertex -10 6.26335 1.36248
    endloop
  endfacet
  facet normal 1.92296e-16 -0.499999 0.866026
    outer loop
      vertex 6.96979e-16 5.69145 0.946973
      vertex 7.3467e-16 5.99923 1.12467
      vertex -10 5.99923 1.12467
    endloop
  endfacet
  facet normal 1.92296e-16 -0.499999 0.866026
    outer loop
      vertex -10 5.69145 0.946973
      vertex 6.96979e-16 5.69145 0.946973
      vertex -10 5.99923 1.12467
    endloop
  endfacet
  facet normal 2.11177e-16 -0.309018 0.951056
    outer loop
      vertex 6.55587e-16 5.35345 0.837149
      vertex 6.96979e-16 5.69145 0.946973
      vertex -10 5.69145 0.946973
    endloop
  endfacet
  facet normal 2.11177e-16 -0.309018 0.951056
    outer loop
      vertex -10 5.35345 0.837149
      vertex 6.55587e-16 5.35345 0.837149
      vertex -10 5.69145 0.946973
    endloop
  endfacet
  facet normal 2.20828e-16 -0.104528 0.994522
    outer loop
      vertex 6.12303e-16 5 0.8
      vertex 6.55587e-16 5.35345 0.837149
      vertex -10 5.35345 0.837149
    endloop
  endfacet
  facet normal 2.20828e-16 -0.104528 0.994522
    outer loop
      vertex -10 5 0.8
      vertex 6.12303e-16 5 0.8
      vertex -10 5.35345 0.837149
    endloop
  endfacet
  facet normal 2.20828e-16 0.104528 0.994522
    outer loop
      vertex 5.69019e-16 4.64655 0.837149
      vertex 6.12303e-16 5 0.8
      vertex -10 5 0.8
    endloop
  endfacet
  facet normal 2.20828e-16 0.104528 0.994522
    outer loop
      vertex -10 4.64655 0.837149
      vertex 5.69019e-16 4.64655 0.837149
      vertex -10 5 0.8
    endloop
  endfacet
  facet normal 2.11177e-16 0.309018 0.951056
    outer loop
      vertex 5.27628e-16 4.30855 0.946973
      vertex 5.69019e-16 4.64655 0.837149
      vertex -10 4.64655 0.837149
    endloop
  endfacet
  facet normal 2.11177e-16 0.309018 0.951056
    outer loop
      vertex -10 4.30855 0.946973
      vertex 5.27628e-16 4.30855 0.946973
      vertex -10 4.64655 0.837149
    endloop
  endfacet
  facet normal 1.92296e-16 0.499999 0.866026
    outer loop
      vertex 4.89936e-16 4.00076 1.12467
      vertex 5.27628e-16 4.30855 0.946973
      vertex -10 4.30855 0.946973
    endloop
  endfacet
  facet normal 1.92296e-16 0.499999 0.866026
    outer loop
      vertex -10 4.00076 1.12467
      vertex 4.89936e-16 4.00076 1.12467
      vertex -10 4.30855 0.946973
    endloop
  endfacet
  facet normal 1.65011e-16 0.669131 0.743144
    outer loop
      vertex 4.57593e-16 3.73665 1.36248
      vertex 4.89936e-16 4.00076 1.12467
      vertex -10 4.00076 1.12467
    endloop
  endfacet
  facet normal 1.65011e-16 0.669131 0.743144
    outer loop
      vertex -10 3.73665 1.36248
      vertex 4.57593e-16 3.73665 1.36248
      vertex -10 4.00076 1.12467
    endloop
  endfacet
  facet normal 1.30515e-16 0.809017 0.587785
    outer loop
      vertex 4.57593e-16 3.73665 1.36248
      vertex -10 3.73665 1.36248
      vertex 4.32011e-16 3.52776 1.65
    endloop
  endfacet
  facet normal 1.30515e-16 0.809017 0.587785
    outer loop
      vertex 4.32011e-16 3.52776 1.65
      vertex -10 3.73665 1.36248
      vertex -10 3.52776 1.65
    endloop
  endfacet
  facet normal 9.03138e-17 0.913545 0.406737
    outer loop
      vertex 4.32011e-16 3.52776 1.65
      vertex -10 3.52776 1.65
      vertex 4.14309e-16 3.3832 1.97467
    endloop
  endfacet
  facet normal 9.03138e-17 0.913545 0.406737
    outer loop
      vertex 4.14309e-16 3.3832 1.97467
      vertex -10 3.52776 1.65
      vertex -10 3.3832 1.97467
    endloop
  endfacet
endsolid OpenSCAD_Model
