solid OpenSCAD_Model
  facet normal 0 -1 0
    outer loop
      vertex 0 0.027391 2.02264
      vertex 0 0.027391 0.977358
      vertex 10 0.027391 0.977358
    endloop
  endfacet
  facet normal 0 -1 0
    outer loop
      vertex 10 0.027391 2.02264
      vertex 0 0.027391 2.02264
      vertex 10 0.027391 0.977358
    endloop
  endfacet
  facet normal -4.61655e-17 -0.978148 -0.207911
    outer loop
      vertex 10 0.027391 0.977358
      vertex 0 0.027391 0.977358
      vertex 0 0.244717 -0.045085
    endloop
  endfacet
  facet normal -4.61655e-17 -0.978148 -0.207911
    outer loop
      vertex 10 0.244717 -0.045085
      vertex 10 0.027391 0.977358
      vertex 0 0.244717 -0.045085
    endloop
  endfacet
  facet normal -1 0 0
    outer loop
      vertex 0 0.027391 0.977358
      vertex 0 0.027391 2.02264
      vertex 0 0.244717 -0.045085
    endloop
  endfacet
  facet normal -1 0 0
    outer loop
      vertex 0 0.244717 -0.045085
      vertex 0 0.027391 2.02264
      vertex 0 0.244717 3.04509
    endloop
  endfacet
  facet normal -1 0 0
    outer loop
      vertex 0 0.244717 -0.045085
      vertex 0 0.244717 3.04509
      vertex 0 0.669873 4
    endloop
  endfacet
  facet normal -1 0 0
    outer loop
      vertex 0 0.244717 -0.045085
      vertex 0 0.669873 4
      vertex 0 1.28428 4.84565
    endloop
  endfacet
  facet normal -1 0 0
    outer loop
      vertex 0 0.244717 -0.045085
      vertex 0 1.28428 4.84565
      vertex 0 2.06107 5.54509
    endloop
  endfacet
  facet normal -1 0 0
    outer loop
      vertex 0 0.244717 -0.045085
      vertex 0 2.06107 5.54509
      vertex 0 2.96632 6.06773
    endloop
  endfacet
  facet normal -1 0 0
    outer loop
      vertex 0 0.244717 -0.045085
      vertex 0 2.96632 6.06773
      vertex 0 3.96044 6.39074
    endloop
  endfacet
  facet normal -1 0 0
    outer loop
      vertex 0 0.244717 -0.045085
      vertex 0 3.96044 6.39074
      vertex 0 5 6.5
    endloop
  endfacet
  facet normal -1 0 0
    outer loop
      vertex 0 6.47224 3.35
      vertex 0 5 6.5
      vertex 0 56.2 6.5
    endloop
  endfacet
  facet normal -1 0 0
    outer loop
      vertex 0 0.244717 -0.045085
      vertex 0 56.2 6.5
      vertex 0 56.2 -2.5
    endloop
  endfacet
  facet normal -1 0 0
    outer loop
      vertex 0 56.2 -2.5
      vertex 0 66.2 -2.5
      vertex 0 66.2 -3.5
    endloop
  endfacet
  facet normal -1 0 0
    outer loop
      vertex 0 56.2 -2.5
      vertex 0 66.2 -3.5
      vertex 0 0.244717 -0.045085
    endloop
  endfacet
  facet normal -1 0 0
    outer loop
      vertex 0 0.244717 -0.045085
      vertex 0 66.2 -3.5
      vertex 0 5 -3.5
    endloop
  endfacet
  facet normal -1 0 0
    outer loop
      vertex 0 5.69145 0.946973
      vertex 0 56.2 6.5
      vertex 0 5.35345 0.837149
    endloop
  endfacet
  facet normal -1 0 0
    outer loop
      vertex 0 0.244717 -0.045085
      vertex 0 3.96044 -3.39074
      vertex 0 2.96632 -3.06773
    endloop
  endfacet
  facet normal -1 0 0
    outer loop
      vertex 0 0.244717 -0.045085
      vertex 0 2.96632 -3.06773
      vertex 0 2.06107 -2.54508
    endloop
  endfacet
  facet normal -1 0 0
    outer loop
      vertex 0 0.244717 -0.045085
      vertex 0 2.06107 -2.54508
      vertex 0 1.28428 -1.84565
    endloop
  endfacet
  facet normal -1 0 0
    outer loop
      vertex 0 0.244717 -0.045085
      vertex 0 1.28428 -1.84565
      vertex 0 0.669873 -1
    endloop
  endfacet
  facet normal -1 0 0
    outer loop
      vertex 0 0.244717 -0.045085
      vertex 0 3.30931 2.6777
      vertex 0 3.30931 2.3223
    endloop
  endfacet
  facet normal -1 0 0
    outer loop
      vertex 0 0.244717 -0.045085
      vertex 0 3.30931 2.3223
      vertex 0 3.3832 1.97467
    endloop
  endfacet
  facet normal -1 0 0
    outer loop
      vertex 0 0.244717 -0.045085
      vertex 0 3.3832 1.97467
      vertex 0 3.52776 1.65
    endloop
  endfacet
  facet normal -1 0 0
    outer loop
      vertex 0 0.244717 -0.045085
      vertex 0 3.52776 1.65
      vertex 0 3.73665 1.36248
    endloop
  endfacet
  facet normal -1 0 0
    outer loop
      vertex 0 0.244717 -0.045085
      vertex 0 3.73665 1.36248
      vertex 0 4.00076 1.12467
    endloop
  endfacet
  facet normal -1 0 0
    outer loop
      vertex 0 0.244717 -0.045085
      vertex 0 4.00076 1.12467
      vertex 0 4.30855 0.946973
    endloop
  endfacet
  facet normal -1 0 0
    outer loop
      vertex 0 0.244717 -0.045085
      vertex 0 4.30855 0.946973
      vertex 0 4.64655 0.837149
    endloop
  endfacet
  facet normal -1 0 0
    outer loop
      vertex 0 0.244717 -0.045085
      vertex 0 4.64655 0.837149
      vertex 0 5 0.8
    endloop
  endfacet
  facet normal -1 0 0
    outer loop
      vertex 0 0.244717 -0.045085
      vertex 0 5 0.8
      vertex 0 5.35345 0.837149
    endloop
  endfacet
  facet normal -1 0 0
    outer loop
      vertex 0 0.244717 -0.045085
      vertex 0 5.35345 0.837149
      vertex 0 56.2 6.5
    endloop
  endfacet
  facet normal -1 0 0
    outer loop
      vertex 0 5.99923 1.12467
      vertex 0 56.2 6.5
      vertex 0 5.69145 0.946973
    endloop
  endfacet
  facet normal -1 0 0
    outer loop
      vertex 0 6.26335 1.36248
      vertex 0 56.2 6.5
      vertex 0 5.99923 1.12467
    endloop
  endfacet
  facet normal -1 0 0
    outer loop
      vertex 0 6.47224 1.65
      vertex 0 56.2 6.5
      vertex 0 6.26335 1.36248
    endloop
  endfacet
  facet normal -1 0 0
    outer loop
      vertex 0 6.6168 1.97467
      vertex 0 56.2 6.5
      vertex 0 6.47224 1.65
    endloop
  endfacet
  facet normal -1 0 0
    outer loop
      vertex 0 6.69069 2.3223
      vertex 0 56.2 6.5
      vertex 0 6.6168 1.97467
    endloop
  endfacet
  facet normal -1 0 0
    outer loop
      vertex 0 6.69069 2.6777
      vertex 0 56.2 6.5
      vertex 0 6.69069 2.3223
    endloop
  endfacet
  facet normal -1 0 0
    outer loop
      vertex 0 6.6168 3.02533
      vertex 0 56.2 6.5
      vertex 0 6.69069 2.6777
    endloop
  endfacet
  facet normal -1 0 0
    outer loop
      vertex 0 3.52776 3.35
      vertex 0 5 6.5
      vertex 0 3.73665 3.63752
    endloop
  endfacet
  facet normal -1 0 0
    outer loop
      vertex 0 6.26335 3.63752
      vertex 0 5 6.5
      vertex 0 6.47224 3.35
    endloop
  endfacet
  facet normal -1 0 0
    outer loop
      vertex 0 6.6168 3.02533
      vertex 0 6.47224 3.35
      vertex 0 56.2 6.5
    endloop
  endfacet
  facet normal -1 0 0
    outer loop
      vertex 0 5.99923 3.87533
      vertex 0 5 6.5
      vertex 0 6.26335 3.63752
    endloop
  endfacet
  facet normal -1 0 0
    outer loop
      vertex 0 5.69145 4.05303
      vertex 0 5 6.5
      vertex 0 5.99923 3.87533
    endloop
  endfacet
  facet normal -1 0 0
    outer loop
      vertex 0 5.35345 4.16285
      vertex 0 5 6.5
      vertex 0 5.69145 4.05303
    endloop
  endfacet
  facet normal -1 0 0
    outer loop
      vertex 0 5 4.2
      vertex 0 5 6.5
      vertex 0 5.35345 4.16285
    endloop
  endfacet
  facet normal -1 0 0
    outer loop
      vertex 0 4.64655 4.16285
      vertex 0 5 6.5
      vertex 0 5 4.2
    endloop
  endfacet
  facet normal -1 0 0
    outer loop
      vertex 0 4.30855 4.05303
      vertex 0 5 6.5
      vertex 0 4.64655 4.16285
    endloop
  endfacet
  facet normal -1 0 0
    outer loop
      vertex 0 4.00076 3.87533
      vertex 0 5 6.5
      vertex 0 4.30855 4.05303
    endloop
  endfacet
  facet normal -1 0 0
    outer loop
      vertex 0 3.73665 3.63752
      vertex 0 5 6.5
      vertex 0 4.00076 3.87533
    endloop
  endfacet
  facet normal -1 0 0
    outer loop
      vertex 0 0.244717 -0.045085
      vertex 0 5 6.5
      vertex 0 3.52776 3.35
    endloop
  endfacet
  facet normal -1 0 0
    outer loop
      vertex 0 0.244717 -0.045085
      vertex 0 3.52776 3.35
      vertex 0 3.3832 3.02533
    endloop
  endfacet
  facet normal -1 0 0
    outer loop
      vertex 0 0.244717 -0.045085
      vertex 0 3.3832 3.02533
      vertex 0 3.30931 2.6777
    endloop
  endfacet
  facet normal -1 0 0
    outer loop
      vertex 0 3.96044 -3.39074
      vertex 0 0.244717 -0.045085
      vertex 0 5 -3.5
    endloop
  endfacet
  facet normal 4.61655e-17 -0.978148 0.207911
    outer loop
      vertex 0 0.244717 3.04509
      vertex 0 0.027391 2.02264
      vertex 10 0.027391 2.02264
    endloop
  endfacet
  facet normal 4.61655e-17 -0.978148 0.207911
    outer loop
      vertex 10 0.244717 3.04509
      vertex 0 0.244717 3.04509
      vertex 10 0.027391 2.02264
    endloop
  endfacet
  facet normal 1 0 0
    outer loop
      vertex 10 0.244717 -0.045085
      vertex 10 0.669873 -1
      vertex 10 1.28428 -1.84565
    endloop
  endfacet
  facet normal 1 0 0
    outer loop
      vertex 10 10 -2.5
      vertex 10 0.244717 -0.045085
      vertex 10 2.011 -2.5
    endloop
  endfacet
  facet normal 1 0 0
    outer loop
      vertex 10 2.011 -2.5
      vertex 10 0.244717 -0.045085
      vertex 10 1.28428 -1.84565
    endloop
  endfacet
  facet normal 1 0 0
    outer loop
      vertex 10 5.35345 0.837149
      vertex 10 0.244717 -0.045085
      vertex 10 10 -2.5
    endloop
  endfacet
  facet normal 1 0 0
    outer loop
      vertex 10 4.64655 0.837149
      vertex 10 4.30855 0.946973
      vertex 10 0.244717 -0.045085
    endloop
  endfacet
  facet normal 1 0 0
    outer loop
      vertex 10 3.96044 6.39074
      vertex 10 0.244717 -0.045085
      vertex 10 5 6.5
    endloop
  endfacet
  facet normal 1 0 0
    outer loop
      vertex 10 2.96632 6.06773
      vertex 10 0.244717 -0.045085
      vertex 10 3.96044 6.39074
    endloop
  endfacet
  facet normal 1 0 0
    outer loop
      vertex 10 2.06107 5.54509
      vertex 10 0.244717 -0.045085
      vertex 10 2.96632 6.06773
    endloop
  endfacet
  facet normal 1 0 0
    outer loop
      vertex 10 1.28428 4.84565
      vertex 10 0.244717 -0.045085
      vertex 10 2.06107 5.54509
    endloop
  endfacet
  facet normal 1 0 0
    outer loop
      vertex 10 0.669873 4
      vertex 10 0.244717 -0.045085
      vertex 10 1.28428 4.84565
    endloop
  endfacet
  facet normal 1 0 0
    outer loop
      vertex 10 0.244717 3.04509
      vertex 10 0.244717 -0.045085
      vertex 10 0.669873 4
    endloop
  endfacet
  facet normal 1 0 0
    outer loop
      vertex 10 0.027391 2.02264
      vertex 10 0.244717 -0.045085
      vertex 10 0.244717 3.04509
    endloop
  endfacet
  facet normal 1 0 0
    outer loop
      vertex 10 0.027391 0.977358
      vertex 10 0.244717 -0.045085
      vertex 10 0.027391 2.02264
    endloop
  endfacet
  facet normal 1 0 0
    outer loop
      vertex 10 3.3832 3.02533
      vertex 10 0.244717 -0.045085
      vertex 10 3.30931 2.6777
    endloop
  endfacet
  facet normal 1 0 0
    outer loop
      vertex 10 3.52776 3.35
      vertex 10 0.244717 -0.045085
      vertex 10 3.3832 3.02533
    endloop
  endfacet
  facet normal 1 0 0
    outer loop
      vertex 10 4.64655 4.16285
      vertex 10 5 4.2
      vertex 10 10 6.5
    endloop
  endfacet
  facet normal 1 0 0
    outer loop
      vertex 10 5 6.5
      vertex 10 0.244717 -0.045085
      vertex 10 3.52776 3.35
    endloop
  endfacet
  facet normal 1 0 0
    outer loop
      vertex 10 5.69145 4.05303
      vertex 10 5.99923 3.87533
      vertex 10 10 6.5
    endloop
  endfacet
  facet normal 1 0 0
    outer loop
      vertex 10 5.99923 3.87533
      vertex 10 6.26335 3.63752
      vertex 10 10 6.5
    endloop
  endfacet
  facet normal 1 0 0
    outer loop
      vertex 10 5 6.5
      vertex 10 3.73665 3.63752
      vertex 10 4.00076 3.87533
    endloop
  endfacet
  facet normal 1 0 0
    outer loop
      vertex 10 5 6.5
      vertex 10 4.30855 4.05303
      vertex 10 10 6.5
    endloop
  endfacet
  facet normal 1 0 0
    outer loop
      vertex 10 5 6.5
      vertex 10 4.00076 3.87533
      vertex 10 4.30855 4.05303
    endloop
  endfacet
  facet normal 1 0 0
    outer loop
      vertex 10 4.30855 4.05303
      vertex 10 4.64655 4.16285
      vertex 10 10 6.5
    endloop
  endfacet
  facet normal 1 0 0
    outer loop
      vertex 10 5 4.2
      vertex 10 5.35345 4.16285
      vertex 10 10 6.5
    endloop
  endfacet
  facet normal 1 0 0
    outer loop
      vertex 10 5.35345 4.16285
      vertex 10 5.69145 4.05303
      vertex 10 10 6.5
    endloop
  endfacet
  facet normal 1 0 0
    outer loop
      vertex 10 5 0.8
      vertex 10 4.64655 0.837149
      vertex 10 0.244717 -0.045085
    endloop
  endfacet
  facet normal 1 0 0
    outer loop
      vertex 10 10 6.5
      vertex 10 6.47224 3.35
      vertex 10 10 -2.5
    endloop
  endfacet
  facet normal 1 0 0
    outer loop
      vertex 10 10 6.5
      vertex 10 6.26335 3.63752
      vertex 10 6.47224 3.35
    endloop
  endfacet
  facet normal 1 0 0
    outer loop
      vertex 10 6.6168 3.02533
      vertex 10 6.69069 2.6777
      vertex 10 10 -2.5
    endloop
  endfacet
  facet normal 1 0 0
    outer loop
      vertex 10 3.52776 1.65
      vertex 10 3.3832 1.97467
      vertex 10 0.244717 -0.045085
    endloop
  endfacet
  facet normal 1 0 0
    outer loop
      vertex 10 6.69069 2.6777
      vertex 10 6.69069 2.3223
      vertex 10 10 -2.5
    endloop
  endfacet
  facet normal 1 0 0
    outer loop
      vertex 10 6.69069 2.3223
      vertex 10 6.6168 1.97467
      vertex 10 10 -2.5
    endloop
  endfacet
  facet normal 1 0 0
    outer loop
      vertex 10 6.6168 1.97467
      vertex 10 6.47224 1.65
      vertex 10 10 -2.5
    endloop
  endfacet
  facet normal 1 0 0
    outer loop
      vertex 10 6.47224 1.65
      vertex 10 6.26335 1.36248
      vertex 10 10 -2.5
    endloop
  endfacet
  facet normal 1 0 0
    outer loop
      vertex 10 6.26335 1.36248
      vertex 10 5.99923 1.12467
      vertex 10 10 -2.5
    endloop
  endfacet
  facet normal 1 0 0
    outer loop
      vertex 10 4.30855 0.946973
      vertex 10 4.00076 1.12467
      vertex 10 0.244717 -0.045085
    endloop
  endfacet
  facet normal 1 0 0
    outer loop
      vertex 10 5.99923 1.12467
      vertex 10 5.69145 0.946973
      vertex 10 10 -2.5
    endloop
  endfacet
  facet normal 1 0 0
    outer loop
      vertex 10 5.69145 0.946973
      vertex 10 5.35345 0.837149
      vertex 10 10 -2.5
    endloop
  endfacet
  facet normal 1 0 0
    outer loop
      vertex 10 5 0.8
      vertex 10 0.244717 -0.045085
      vertex 10 5.35345 0.837149
    endloop
  endfacet
  facet normal 1 0 0
    outer loop
      vertex 10 4.00076 1.12467
      vertex 10 3.73665 1.36248
      vertex 10 0.244717 -0.045085
    endloop
  endfacet
  facet normal 1 0 0
    outer loop
      vertex 10 3.73665 1.36248
      vertex 10 3.52776 1.65
      vertex 10 0.244717 -0.045085
    endloop
  endfacet
  facet normal 1 0 0
    outer loop
      vertex 10 3.3832 1.97467
      vertex 10 3.30931 2.3223
      vertex 10 0.244717 -0.045085
    endloop
  endfacet
  facet normal 1 0 0
    outer loop
      vertex 10 6.47224 3.35
      vertex 10 6.6168 3.02533
      vertex 10 10 -2.5
    endloop
  endfacet
  facet normal 1 0 0
    outer loop
      vertex 10 3.30931 2.6777
      vertex 10 0.244717 -0.045085
      vertex 10 3.30931 2.3223
    endloop
  endfacet
  facet normal 1 0 0
    outer loop
      vertex 10 3.52776 3.35
      vertex 10 3.73665 3.63752
      vertex 10 5 6.5
    endloop
  endfacet
  facet normal -9.03138e-17 -0.913545 -0.406737
    outer loop
      vertex 10 0.244717 -0.045085
      vertex 0 0.244717 -0.045085
      vertex 0 0.669873 -1
    endloop
  endfacet
  facet normal -9.03138e-17 -0.913545 -0.406737
    outer loop
      vertex 10 0.669873 -1
      vertex 10 0.244717 -0.045085
      vertex 0 0.669873 -1
    endloop
  endfacet
  facet normal -1.30515e-16 -0.809017 -0.587785
    outer loop
      vertex 10 0.669873 -1
      vertex 0 0.669873 -1
      vertex 0 1.28428 -1.84565
    endloop
  endfacet
  facet normal -1.30515e-16 -0.809017 -0.587785
    outer loop
      vertex 10 1.28428 -1.84565
      vertex 10 0.669873 -1
      vertex 0 1.28428 -1.84565
    endloop
  endfacet
  facet normal -1.65011e-16 -0.669131 -0.743145
    outer loop
      vertex 0 1.28428 -1.84565
      vertex 0 2.06107 -2.54508
      vertex 10 1.28428 -1.84565
    endloop
  endfacet
  facet normal -1.65011e-16 -0.669131 -0.743145
    outer loop
      vertex 143 2.011 -2.5
      vertex 0 2.06107 -2.54508
      vertex 153 2.06107 -2.54508
    endloop
  endfacet
  facet normal -1.65011e-16 -0.669131 -0.743145
    outer loop
      vertex 143 1.28428 -1.84565
      vertex 153 2.06107 -2.54508
      vertex 153 1.28428 -1.84565
    endloop
  endfacet
  facet normal -1.65011e-16 -0.669131 -0.743145
    outer loop
      vertex 10 2.011 -2.5
      vertex 0 2.06107 -2.54508
      vertex 143 2.011 -2.5
    endloop
  endfacet
  facet normal -1.65011e-16 -0.669131 -0.743145
    outer loop
      vertex 10 1.28428 -1.84565
      vertex 0 2.06107 -2.54508
      vertex 10 2.011 -2.5
    endloop
  endfacet
  facet normal -1.65011e-16 -0.669131 -0.743145
    outer loop
      vertex 143 2.011 -2.5
      vertex 153 2.06107 -2.54508
      vertex 143 1.28428 -1.84565
    endloop
  endfacet
  facet normal -1.92296e-16 -0.5 -0.866026
    outer loop
      vertex 0 2.06107 -2.54508
      vertex 0 2.96632 -3.06773
      vertex 153 2.06107 -2.54508
    endloop
  endfacet
  facet normal -1.92296e-16 -0.5 -0.866026
    outer loop
      vertex 153 2.06107 -2.54508
      vertex 0 2.96632 -3.06773
      vertex 153 2.96632 -3.06773
    endloop
  endfacet
  facet normal -2.11177e-16 -0.309017 -0.951056
    outer loop
      vertex 0 2.96632 -3.06773
      vertex 0 3.96044 -3.39074
      vertex 153 2.96632 -3.06773
    endloop
  endfacet
  facet normal -2.11177e-16 -0.309017 -0.951056
    outer loop
      vertex 153 2.96632 -3.06773
      vertex 0 3.96044 -3.39074
      vertex 153 3.96044 -3.39074
    endloop
  endfacet
  facet normal -2.20828e-16 -0.104529 -0.994522
    outer loop
      vertex 0 3.96044 -3.39074
      vertex 0 5 -3.5
      vertex 153 3.96044 -3.39074
    endloop
  endfacet
  facet normal -2.20828e-16 -0.104529 -0.994522
    outer loop
      vertex 153 3.96044 -3.39074
      vertex 0 5 -3.5
      vertex 153 5 -3.5
    endloop
  endfacet
  facet normal 0 0 -1
    outer loop
      vertex 0 5 -3.5
      vertex 0 66.2 -3.5
      vertex 153 5 -3.5
    endloop
  endfacet
  facet normal 0 0 -1
    outer loop
      vertex 153 5 -3.5
      vertex 0 66.2 -3.5
      vertex 153 66.2 -3.5
    endloop
  endfacet
  facet normal 0 1 0
    outer loop
      vertex 0 66.2 -3.5
      vertex 0 66.2 -2.5
      vertex 153 66.2 -3.5
    endloop
  endfacet
  facet normal 0 1 0
    outer loop
      vertex 153 66.2 -3.5
      vertex 0 66.2 -2.5
      vertex 153 66.2 -2.5
    endloop
  endfacet
  facet normal 0 0 1
    outer loop
      vertex 10 10 -2.5
      vertex 143 2.011 -2.5
      vertex 5 56.2 -2.5
    endloop
  endfacet
  facet normal 0 0 1
    outer loop
      vertex 0 66.2 -2.5
      vertex 0 56.2 -2.5
      vertex 5 56.2 -2.5
    endloop
  endfacet
  facet normal 0 0 1
    outer loop
      vertex 143 2.011 -2.5
      vertex 0 66.2 -2.5
      vertex 5 56.2 -2.5
    endloop
  endfacet
  facet normal 0 0 1
    outer loop
      vertex 5 10 -2.5
      vertex 10 10 -2.5
      vertex 5 56.2 -2.5
    endloop
  endfacet
  facet normal 0 0 1
    outer loop
      vertex 143 10 -2.5
      vertex 153 10 -2.5
      vertex 0 66.2 -2.5
    endloop
  endfacet
  facet normal 0 0 1
    outer loop
      vertex 10 2.011 -2.5
      vertex 143 2.011 -2.5
      vertex 10 10 -2.5
    endloop
  endfacet
  facet normal 0 0 1
    outer loop
      vertex 143 2.011 -2.5
      vertex 143 10 -2.5
      vertex 0 66.2 -2.5
    endloop
  endfacet
  facet normal 0 0 1
    outer loop
      vertex 153 10 -2.5
      vertex 153 66.2 -2.5
      vertex 0 66.2 -2.5
    endloop
  endfacet
  facet normal 0 1 0
    outer loop
      vertex 0 56.2 -2.5
      vertex 0 56.2 6.5
      vertex 5 56.2 -2.5
    endloop
  endfacet
  facet normal 0 1 0
    outer loop
      vertex 5 56.2 -2.5
      vertex 0 56.2 6.5
      vertex 5 56.2 6.5
    endloop
  endfacet
  facet normal 0 0 1
    outer loop
      vertex 5 10 6.5
      vertex 0 5 6.5
      vertex 10 5 6.5
    endloop
  endfacet
  facet normal 0 0 1
    outer loop
      vertex 5 10 6.5
      vertex 5 56.2 6.5
      vertex 0 56.2 6.5
    endloop
  endfacet
  facet normal 0 0 1
    outer loop
      vertex 0 56.2 6.5
      vertex 0 5 6.5
      vertex 5 10 6.5
    endloop
  endfacet
  facet normal 0 0 1
    outer loop
      vertex 10 10 6.5
      vertex 5 10 6.5
      vertex 10 5 6.5
    endloop
  endfacet
  facet normal 2.20828e-16 -0.104529 0.994522
    outer loop
      vertex 0 5 6.5
      vertex 0 3.96044 6.39074
      vertex 10 3.96044 6.39074
    endloop
  endfacet
  facet normal 2.20828e-16 -0.104529 0.994522
    outer loop
      vertex 10 5 6.5
      vertex 0 5 6.5
      vertex 10 3.96044 6.39074
    endloop
  endfacet
  facet normal 2.11177e-16 -0.309017 0.951056
    outer loop
      vertex 0 3.96044 6.39074
      vertex 0 2.96632 6.06773
      vertex 10 2.96632 6.06773
    endloop
  endfacet
  facet normal 2.11177e-16 -0.309017 0.951056
    outer loop
      vertex 10 3.96044 6.39074
      vertex 0 3.96044 6.39074
      vertex 10 2.96632 6.06773
    endloop
  endfacet
  facet normal 1.92296e-16 -0.5 0.866026
    outer loop
      vertex 0 2.96632 6.06773
      vertex 0 2.06107 5.54509
      vertex 10 2.06107 5.54509
    endloop
  endfacet
  facet normal 1.92296e-16 -0.5 0.866026
    outer loop
      vertex 10 2.96632 6.06773
      vertex 0 2.96632 6.06773
      vertex 10 2.06107 5.54509
    endloop
  endfacet
  facet normal 1.65011e-16 -0.669131 0.743145
    outer loop
      vertex 0 2.06107 5.54509
      vertex 0 1.28428 4.84565
      vertex 10 1.28428 4.84565
    endloop
  endfacet
  facet normal 1.65011e-16 -0.669131 0.743145
    outer loop
      vertex 10 2.06107 5.54509
      vertex 0 2.06107 5.54509
      vertex 10 1.28428 4.84565
    endloop
  endfacet
  facet normal 1.30515e-16 -0.809017 0.587785
    outer loop
      vertex 0 1.28428 4.84565
      vertex 0 0.669873 4
      vertex 10 0.669873 4
    endloop
  endfacet
  facet normal 1.30515e-16 -0.809017 0.587785
    outer loop
      vertex 10 1.28428 4.84565
      vertex 0 1.28428 4.84565
      vertex 10 0.669873 4
    endloop
  endfacet
  facet normal 9.03138e-17 -0.913545 0.406737
    outer loop
      vertex 0 0.669873 4
      vertex 0 0.244717 3.04509
      vertex 10 0.244717 3.04509
    endloop
  endfacet
  facet normal 9.03138e-17 -0.913545 0.406737
    outer loop
      vertex 10 0.669873 4
      vertex 0 0.669873 4
      vertex 10 0.244717 3.04509
    endloop
  endfacet
  facet normal -4.61655e-17 0.978148 -0.207911
    outer loop
      vertex 10 3.3832 3.02533
      vertex 10 3.30931 2.6777
      vertex 0 3.3832 3.02533
    endloop
  endfacet
  facet normal -4.61655e-17 0.978148 -0.207911
    outer loop
      vertex 0 3.3832 3.02533
      vertex 10 3.30931 2.6777
      vertex 0 3.30931 2.6777
    endloop
  endfacet
  facet normal 0 1 0
    outer loop
      vertex 10 3.30931 2.6777
      vertex 10 3.30931 2.3223
      vertex 0 3.30931 2.6777
    endloop
  endfacet
  facet normal 0 1 0
    outer loop
      vertex 0 3.30931 2.6777
      vertex 10 3.30931 2.3223
      vertex 0 3.30931 2.3223
    endloop
  endfacet
  facet normal -9.03138e-17 0.913545 -0.406737
    outer loop
      vertex 10 3.52776 3.35
      vertex 10 3.3832 3.02533
      vertex 0 3.52776 3.35
    endloop
  endfacet
  facet normal -9.03138e-17 0.913545 -0.406737
    outer loop
      vertex 0 3.52776 3.35
      vertex 10 3.3832 3.02533
      vertex 0 3.3832 3.02533
    endloop
  endfacet
  facet normal -1.30515e-16 0.809017 -0.587785
    outer loop
      vertex 10 3.73665 3.63752
      vertex 10 3.52776 3.35
      vertex 0 3.73665 3.63752
    endloop
  endfacet
  facet normal -1.30515e-16 0.809017 -0.587785
    outer loop
      vertex 0 3.73665 3.63752
      vertex 10 3.52776 3.35
      vertex 0 3.52776 3.35
    endloop
  endfacet
  facet normal -1.65011e-16 0.669131 -0.743144
    outer loop
      vertex 10 4.00076 3.87533
      vertex 10 3.73665 3.63752
      vertex 0 4.00076 3.87533
    endloop
  endfacet
  facet normal -1.65011e-16 0.669131 -0.743144
    outer loop
      vertex 0 4.00076 3.87533
      vertex 10 3.73665 3.63752
      vertex 0 3.73665 3.63752
    endloop
  endfacet
  facet normal -1.92296e-16 0.499999 -0.866026
    outer loop
      vertex 10 4.30855 4.05303
      vertex 10 4.00076 3.87533
      vertex 0 4.30855 4.05303
    endloop
  endfacet
  facet normal -1.92296e-16 0.499999 -0.866026
    outer loop
      vertex 0 4.30855 4.05303
      vertex 10 4.00076 3.87533
      vertex 0 4.00076 3.87533
    endloop
  endfacet
  facet normal -2.11177e-16 0.309018 -0.951056
    outer loop
      vertex 10 4.64655 4.16285
      vertex 10 4.30855 4.05303
      vertex 0 4.64655 4.16285
    endloop
  endfacet
  facet normal -2.11177e-16 0.309018 -0.951056
    outer loop
      vertex 0 4.64655 4.16285
      vertex 10 4.30855 4.05303
      vertex 0 4.30855 4.05303
    endloop
  endfacet
  facet normal -2.20828e-16 0.104528 -0.994522
    outer loop
      vertex 10 5 4.2
      vertex 10 4.64655 4.16285
      vertex 0 5 4.2
    endloop
  endfacet
  facet normal -2.20828e-16 0.104528 -0.994522
    outer loop
      vertex 0 5 4.2
      vertex 10 4.64655 4.16285
      vertex 0 4.64655 4.16285
    endloop
  endfacet
  facet normal -2.20828e-16 -0.104528 -0.994522
    outer loop
      vertex 10 5.35345 4.16285
      vertex 10 5 4.2
      vertex 0 5.35345 4.16285
    endloop
  endfacet
  facet normal -2.20828e-16 -0.104528 -0.994522
    outer loop
      vertex 0 5.35345 4.16285
      vertex 10 5 4.2
      vertex 0 5 4.2
    endloop
  endfacet
  facet normal -2.11177e-16 -0.309018 -0.951056
    outer loop
      vertex 10 5.69145 4.05303
      vertex 10 5.35345 4.16285
      vertex 0 5.69145 4.05303
    endloop
  endfacet
  facet normal -2.11177e-16 -0.309018 -0.951056
    outer loop
      vertex 0 5.69145 4.05303
      vertex 10 5.35345 4.16285
      vertex 0 5.35345 4.16285
    endloop
  endfacet
  facet normal -1.92296e-16 -0.499999 -0.866026
    outer loop
      vertex 10 5.99923 3.87533
      vertex 10 5.69145 4.05303
      vertex 0 5.99923 3.87533
    endloop
  endfacet
  facet normal -1.92296e-16 -0.499999 -0.866026
    outer loop
      vertex 0 5.99923 3.87533
      vertex 10 5.69145 4.05303
      vertex 0 5.69145 4.05303
    endloop
  endfacet
  facet normal -1.65011e-16 -0.669131 -0.743144
    outer loop
      vertex 10 6.26335 3.63752
      vertex 10 5.99923 3.87533
      vertex 0 6.26335 3.63752
    endloop
  endfacet
  facet normal -1.65011e-16 -0.669131 -0.743144
    outer loop
      vertex 0 6.26335 3.63752
      vertex 10 5.99923 3.87533
      vertex 0 5.99923 3.87533
    endloop
  endfacet
  facet normal -1.30515e-16 -0.809017 -0.587785
    outer loop
      vertex 0 6.47224 3.35
      vertex 10 6.47224 3.35
      vertex 10 6.26335 3.63752
    endloop
  endfacet
  facet normal -1.30515e-16 -0.809017 -0.587785
    outer loop
      vertex 0 6.26335 3.63752
      vertex 0 6.47224 3.35
      vertex 10 6.26335 3.63752
    endloop
  endfacet
  facet normal -9.03138e-17 -0.913545 -0.406737
    outer loop
      vertex 0 6.6168 3.02533
      vertex 10 6.6168 3.02533
      vertex 10 6.47224 3.35
    endloop
  endfacet
  facet normal -9.03138e-17 -0.913545 -0.406737
    outer loop
      vertex 0 6.47224 3.35
      vertex 0 6.6168 3.02533
      vertex 10 6.47224 3.35
    endloop
  endfacet
  facet normal -4.61655e-17 -0.978148 -0.207911
    outer loop
      vertex 0 6.69069 2.6777
      vertex 10 6.69069 2.6777
      vertex 10 6.6168 3.02533
    endloop
  endfacet
  facet normal -4.61655e-17 -0.978148 -0.207911
    outer loop
      vertex 0 6.6168 3.02533
      vertex 0 6.69069 2.6777
      vertex 10 6.6168 3.02533
    endloop
  endfacet
  facet normal 0 -1 0
    outer loop
      vertex 10 6.69069 2.3223
      vertex 10 6.69069 2.6777
      vertex 0 6.69069 2.6777
    endloop
  endfacet
  facet normal 0 -1 0
    outer loop
      vertex 0 6.69069 2.3223
      vertex 10 6.69069 2.3223
      vertex 0 6.69069 2.6777
    endloop
  endfacet
  facet normal 4.61655e-17 -0.978148 0.207911
    outer loop
      vertex 10 6.6168 1.97467
      vertex 10 6.69069 2.3223
      vertex 0 6.69069 2.3223
    endloop
  endfacet
  facet normal 4.61655e-17 -0.978148 0.207911
    outer loop
      vertex 0 6.6168 1.97467
      vertex 10 6.6168 1.97467
      vertex 0 6.69069 2.3223
    endloop
  endfacet
  facet normal 9.03138e-17 -0.913545 0.406737
    outer loop
      vertex 10 6.47224 1.65
      vertex 10 6.6168 1.97467
      vertex 0 6.6168 1.97467
    endloop
  endfacet
  facet normal 9.03138e-17 -0.913545 0.406737
    outer loop
      vertex 0 6.47224 1.65
      vertex 10 6.47224 1.65
      vertex 0 6.6168 1.97467
    endloop
  endfacet
  facet normal 1.30515e-16 -0.809017 0.587785
    outer loop
      vertex 10 6.26335 1.36248
      vertex 10 6.47224 1.65
      vertex 0 6.47224 1.65
    endloop
  endfacet
  facet normal 1.30515e-16 -0.809017 0.587785
    outer loop
      vertex 0 6.26335 1.36248
      vertex 10 6.26335 1.36248
      vertex 0 6.47224 1.65
    endloop
  endfacet
  facet normal 1.65011e-16 -0.669131 0.743144
    outer loop
      vertex 10 5.99923 1.12467
      vertex 10 6.26335 1.36248
      vertex 0 6.26335 1.36248
    endloop
  endfacet
  facet normal 1.65011e-16 -0.669131 0.743144
    outer loop
      vertex 0 5.99923 1.12467
      vertex 10 5.99923 1.12467
      vertex 0 6.26335 1.36248
    endloop
  endfacet
  facet normal 1.92296e-16 -0.499999 0.866026
    outer loop
      vertex 10 5.69145 0.946973
      vertex 10 5.99923 1.12467
      vertex 0 5.99923 1.12467
    endloop
  endfacet
  facet normal 1.92296e-16 -0.499999 0.866026
    outer loop
      vertex 0 5.69145 0.946973
      vertex 10 5.69145 0.946973
      vertex 0 5.99923 1.12467
    endloop
  endfacet
  facet normal 2.11177e-16 -0.309018 0.951056
    outer loop
      vertex 10 5.35345 0.837149
      vertex 10 5.69145 0.946973
      vertex 0 5.69145 0.946973
    endloop
  endfacet
  facet normal 2.11177e-16 -0.309018 0.951056
    outer loop
      vertex 0 5.35345 0.837149
      vertex 10 5.35345 0.837149
      vertex 0 5.69145 0.946973
    endloop
  endfacet
  facet normal 2.20828e-16 -0.104528 0.994522
    outer loop
      vertex 10 5 0.8
      vertex 10 5.35345 0.837149
      vertex 0 5.35345 0.837149
    endloop
  endfacet
  facet normal 2.20828e-16 -0.104528 0.994522
    outer loop
      vertex 0 5 0.8
      vertex 10 5 0.8
      vertex 0 5.35345 0.837149
    endloop
  endfacet
  facet normal 2.20828e-16 0.104528 0.994522
    outer loop
      vertex 10 4.64655 0.837149
      vertex 10 5 0.8
      vertex 0 5 0.8
    endloop
  endfacet
  facet normal 2.20828e-16 0.104528 0.994522
    outer loop
      vertex 0 4.64655 0.837149
      vertex 10 4.64655 0.837149
      vertex 0 5 0.8
    endloop
  endfacet
  facet normal 2.11177e-16 0.309018 0.951056
    outer loop
      vertex 10 4.30855 0.946973
      vertex 10 4.64655 0.837149
      vertex 0 4.64655 0.837149
    endloop
  endfacet
  facet normal 2.11177e-16 0.309018 0.951056
    outer loop
      vertex 0 4.30855 0.946973
      vertex 10 4.30855 0.946973
      vertex 0 4.64655 0.837149
    endloop
  endfacet
  facet normal 1.92296e-16 0.499999 0.866026
    outer loop
      vertex 10 4.00076 1.12467
      vertex 10 4.30855 0.946973
      vertex 0 4.30855 0.946973
    endloop
  endfacet
  facet normal 1.92296e-16 0.499999 0.866026
    outer loop
      vertex 0 4.00076 1.12467
      vertex 10 4.00076 1.12467
      vertex 0 4.30855 0.946973
    endloop
  endfacet
  facet normal 1.65011e-16 0.669131 0.743144
    outer loop
      vertex 10 3.73665 1.36248
      vertex 10 4.00076 1.12467
      vertex 0 4.00076 1.12467
    endloop
  endfacet
  facet normal 1.65011e-16 0.669131 0.743144
    outer loop
      vertex 0 3.73665 1.36248
      vertex 10 3.73665 1.36248
      vertex 0 4.00076 1.12467
    endloop
  endfacet
  facet normal 1.30515e-16 0.809017 0.587785
    outer loop
      vertex 10 3.73665 1.36248
      vertex 0 3.73665 1.36248
      vertex 10 3.52776 1.65
    endloop
  endfacet
  facet normal 1.30515e-16 0.809017 0.587785
    outer loop
      vertex 10 3.52776 1.65
      vertex 0 3.73665 1.36248
      vertex 0 3.52776 1.65
    endloop
  endfacet
  facet normal 9.03138e-17 0.913545 0.406737
    outer loop
      vertex 10 3.52776 1.65
      vertex 0 3.52776 1.65
      vertex 10 3.3832 1.97467
    endloop
  endfacet
  facet normal 9.03138e-17 0.913545 0.406737
    outer loop
      vertex 10 3.3832 1.97467
      vertex 0 3.52776 1.65
      vertex 0 3.3832 1.97467
    endloop
  endfacet
  facet normal 4.61655e-17 0.978148 0.207911
    outer loop
      vertex 10 3.3832 1.97467
      vertex 0 3.3832 1.97467
      vertex 10 3.30931 2.3223
    endloop
  endfacet
  facet normal 4.61655e-17 0.978148 0.207911
    outer loop
      vertex 10 3.30931 2.3223
      vertex 0 3.3832 1.97467
      vertex 0 3.30931 2.3223
    endloop
  endfacet
  facet normal 0 1 0
    outer loop
      vertex 5 10 -2.5
      vertex 5 10 6.5
      vertex 10 10 -2.5
    endloop
  endfacet
  facet normal 0 1 0
    outer loop
      vertex 10 10 -2.5
      vertex 5 10 6.5
      vertex 10 10 6.5
    endloop
  endfacet
  facet normal -1 0 0
    outer loop
      vertex 143 0.244717 3.04509
      vertex 143 0.669873 4
      vertex 143 0.027391 2.02264
    endloop
  endfacet
  facet normal -1 0 0
    outer loop
      vertex 143 0.027391 2.02264
      vertex 143 0.669873 4
      vertex 143 1.28428 4.84565
    endloop
  endfacet
  facet normal -1 0 0
    outer loop
      vertex 143 0.027391 2.02264
      vertex 143 1.28428 4.84565
      vertex 143 2.06107 5.54509
    endloop
  endfacet
  facet normal -1 0 0
    outer loop
      vertex 143 0.027391 2.02264
      vertex 143 2.06107 5.54509
      vertex 143 2.96632 6.06773
    endloop
  endfacet
  facet normal -1 0 0
    outer loop
      vertex 143 0.027391 2.02264
      vertex 143 2.96632 6.06773
      vertex 143 3.96044 6.39074
    endloop
  endfacet
  facet normal -1 0 0
    outer loop
      vertex 143 0.027391 2.02264
      vertex 143 3.96044 6.39074
      vertex 143 5 6.5
    endloop
  endfacet
  facet normal -1 0 0
    outer loop
      vertex 143 4.64655 4.16285
      vertex 143 5 6.5
      vertex 143 10 6.5
    endloop
  endfacet
  facet normal -1 0 0
    outer loop
      vertex 143 6.26335 1.36248
      vertex 143 10 6.5
      vertex 143 10 -2.5
    endloop
  endfacet
  facet normal -1 0 0
    outer loop
      vertex 143 0.027391 2.02264
      vertex 143 10 -2.5
      vertex 143 2.011 -2.5
    endloop
  endfacet
  facet normal -1 0 0
    outer loop
      vertex 143 0.027391 2.02264
      vertex 143 2.011 -2.5
      vertex 143 1.28428 -1.84565
    endloop
  endfacet
  facet normal -1 0 0
    outer loop
      vertex 143 0.027391 2.02264
      vertex 143 1.28428 -1.84565
      vertex 143 0.669873 -1
    endloop
  endfacet
  facet normal -1 0 0
    outer loop
      vertex 143 0.027391 2.02264
      vertex 143 0.669873 -1
      vertex 143 0.244717 -0.045085
    endloop
  endfacet
  facet normal -1 0 0
    outer loop
      vertex 143 0.027391 2.02264
      vertex 143 0.244717 -0.045085
      vertex 143 0.027391 0.977358
    endloop
  endfacet
  facet normal -1 0 0
    outer loop
      vertex 143 4.64655 4.16285
      vertex 143 10 6.5
      vertex 143 5 4.2
    endloop
  endfacet
  facet normal -1 0 0
    outer loop
      vertex 143 0.027391 2.02264
      vertex 143 3.30931 2.3223
      vertex 143 3.3832 1.97467
    endloop
  endfacet
  facet normal -1 0 0
    outer loop
      vertex 143 0.027391 2.02264
      vertex 143 3.3832 1.97467
      vertex 143 3.52776 1.65
    endloop
  endfacet
  facet normal -1 0 0
    outer loop
      vertex 143 0.027391 2.02264
      vertex 143 3.52776 1.65
      vertex 143 3.73665 1.36248
    endloop
  endfacet
  facet normal -1 0 0
    outer loop
      vertex 143 0.027391 2.02264
      vertex 143 3.73665 1.36248
      vertex 143 4.00076 1.12467
    endloop
  endfacet
  facet normal -1 0 0
    outer loop
      vertex 143 0.027391 2.02264
      vertex 143 4.00076 1.12467
      vertex 143 10 -2.5
    endloop
  endfacet
  facet normal -1 0 0
    outer loop
      vertex 143 4.00076 1.12467
      vertex 143 4.30855 0.946973
      vertex 143 10 -2.5
    endloop
  endfacet
  facet normal -1 0 0
    outer loop
      vertex 143 5 0.8
      vertex 143 10 -2.5
      vertex 143 4.64655 0.837149
    endloop
  endfacet
  facet normal -1 0 0
    outer loop
      vertex 143 5.35345 0.837149
      vertex 143 10 -2.5
      vertex 143 5 0.8
    endloop
  endfacet
  facet normal -1 0 0
    outer loop
      vertex 143 5.69145 0.946973
      vertex 143 10 -2.5
      vertex 143 5.35345 0.837149
    endloop
  endfacet
  facet normal -1 0 0
    outer loop
      vertex 143 5.69145 4.05303
      vertex 143 10 6.5
      vertex 143 5.99923 3.87533
    endloop
  endfacet
  facet normal -1 0 0
    outer loop
      vertex 143 6.6168 1.97467
      vertex 143 10 6.5
      vertex 143 6.47224 1.65
    endloop
  endfacet
  facet normal -1 0 0
    outer loop
      vertex 143 6.69069 2.3223
      vertex 143 10 6.5
      vertex 143 6.6168 1.97467
    endloop
  endfacet
  facet normal -1 0 0
    outer loop
      vertex 143 5.69145 0.946973
      vertex 143 5.99923 1.12467
      vertex 143 10 -2.5
    endloop
  endfacet
  facet normal -1 0 0
    outer loop
      vertex 143 6.47224 1.65
      vertex 143 10 6.5
      vertex 143 6.26335 1.36248
    endloop
  endfacet
  facet normal -1 0 0
    outer loop
      vertex 143 5.99923 1.12467
      vertex 143 6.26335 1.36248
      vertex 143 10 -2.5
    endloop
  endfacet
  facet normal -1 0 0
    outer loop
      vertex 143 6.69069 2.6777
      vertex 143 10 6.5
      vertex 143 6.69069 2.3223
    endloop
  endfacet
  facet normal -1 0 0
    outer loop
      vertex 143 6.6168 3.02533
      vertex 143 10 6.5
      vertex 143 6.69069 2.6777
    endloop
  endfacet
  facet normal -1 0 0
    outer loop
      vertex 143 6.47224 3.35
      vertex 143 10 6.5
      vertex 143 6.6168 3.02533
    endloop
  endfacet
  facet normal -1 0 0
    outer loop
      vertex 143 6.26335 3.63752
      vertex 143 10 6.5
      vertex 143 6.47224 3.35
    endloop
  endfacet
  facet normal -1 0 0
    outer loop
      vertex 143 5.99923 3.87533
      vertex 143 10 6.5
      vertex 143 6.26335 3.63752
    endloop
  endfacet
  facet normal -1 0 0
    outer loop
      vertex 143 5.35345 4.16285
      vertex 143 10 6.5
      vertex 143 5.69145 4.05303
    endloop
  endfacet
  facet normal -1 0 0
    outer loop
      vertex 143 5 4.2
      vertex 143 10 6.5
      vertex 143 5.35345 4.16285
    endloop
  endfacet
  facet normal -1 0 0
    outer loop
      vertex 143 4.30855 4.05303
      vertex 143 5 6.5
      vertex 143 4.64655 4.16285
    endloop
  endfacet
  facet normal -1 0 0
    outer loop
      vertex 143 3.73665 3.63752
      vertex 143 0.027391 2.02264
      vertex 143 4.00076 3.87533
    endloop
  endfacet
  facet normal -1 0 0
    outer loop
      vertex 143 0.027391 2.02264
      vertex 143 5 6.5
      vertex 143 4.30855 4.05303
    endloop
  endfacet
  facet normal -1 0 0
    outer loop
      vertex 143 0.027391 2.02264
      vertex 143 4.30855 4.05303
      vertex 143 4.00076 3.87533
    endloop
  endfacet
  facet normal -1 0 0
    outer loop
      vertex 143 3.52776 3.35
      vertex 143 0.027391 2.02264
      vertex 143 3.73665 3.63752
    endloop
  endfacet
  facet normal -1 0 0
    outer loop
      vertex 143 3.3832 3.02533
      vertex 143 0.027391 2.02264
      vertex 143 3.52776 3.35
    endloop
  endfacet
  facet normal -1 0 0
    outer loop
      vertex 143 0.027391 2.02264
      vertex 143 3.3832 3.02533
      vertex 143 3.30931 2.6777
    endloop
  endfacet
  facet normal -1 0 0
    outer loop
      vertex 143 0.027391 2.02264
      vertex 143 3.30931 2.6777
      vertex 143 3.30931 2.3223
    endloop
  endfacet
  facet normal -1 0 0
    outer loop
      vertex 143 4.64655 0.837149
      vertex 143 10 -2.5
      vertex 143 4.30855 0.946973
    endloop
  endfacet
  facet normal -1.30515e-16 -0.809017 -0.587785
    outer loop
      vertex 153 0.669873 -1
      vertex 143 0.669873 -1
      vertex 143 1.28428 -1.84565
    endloop
  endfacet
  facet normal -1.30515e-16 -0.809017 -0.587785
    outer loop
      vertex 153 1.28428 -1.84565
      vertex 153 0.669873 -1
      vertex 143 1.28428 -1.84565
    endloop
  endfacet
  facet normal 1 0 0
    outer loop
      vertex 153 0.027391 2.02264
      vertex 153 0.027391 0.977358
      vertex 153 0.244717 -0.045085
    endloop
  endfacet
  facet normal 1 0 0
    outer loop
      vertex 153 1.28428 -1.84565
      vertex 153 0.027391 2.02264
      vertex 153 0.669873 -1
    endloop
  endfacet
  facet normal 1 0 0
    outer loop
      vertex 153 0.669873 -1
      vertex 153 0.027391 2.02264
      vertex 153 0.244717 -0.045085
    endloop
  endfacet
  facet normal 1 0 0
    outer loop
      vertex 153 2.06107 -2.54508
      vertex 153 0.027391 2.02264
      vertex 153 1.28428 -1.84565
    endloop
  endfacet
  facet normal 1 0 0
    outer loop
      vertex 153 2.96632 -3.06773
      vertex 153 0.027391 2.02264
      vertex 153 2.06107 -2.54508
    endloop
  endfacet
  facet normal 1 0 0
    outer loop
      vertex 153 3.96044 -3.39074
      vertex 153 0.027391 2.02264
      vertex 153 2.96632 -3.06773
    endloop
  endfacet
  facet normal 1 0 0
    outer loop
      vertex 153 5 -3.5
      vertex 153 0.027391 2.02264
      vertex 153 3.96044 -3.39074
    endloop
  endfacet
  facet normal 1 0 0
    outer loop
      vertex 153 10 -2.5
      vertex 153 0.027391 2.02264
      vertex 153 5 -3.5
    endloop
  endfacet
  facet normal 1 0 0
    outer loop
      vertex 153 10 -2.5
      vertex 153 6.47224 1.65
      vertex 153 6.26335 1.36248
    endloop
  endfacet
  facet normal 1 0 0
    outer loop
      vertex 153 66.2 -3.5
      vertex 153 10 -2.5
      vertex 153 5 -3.5
    endloop
  endfacet
  facet normal 1 0 0
    outer loop
      vertex 153 4.64655 0.837149
      vertex 153 0.027391 2.02264
      vertex 153 10 -2.5
    endloop
  endfacet
  facet normal 1 0 0
    outer loop
      vertex 153 3.96044 6.39074
      vertex 153 0.027391 2.02264
      vertex 153 5 6.5
    endloop
  endfacet
  facet normal 1 0 0
    outer loop
      vertex 153 2.96632 6.06773
      vertex 153 0.027391 2.02264
      vertex 153 3.96044 6.39074
    endloop
  endfacet
  facet normal 1 0 0
    outer loop
      vertex 153 2.06107 5.54509
      vertex 153 0.027391 2.02264
      vertex 153 2.96632 6.06773
    endloop
  endfacet
  facet normal 1 0 0
    outer loop
      vertex 153 1.28428 4.84565
      vertex 153 0.027391 2.02264
      vertex 153 2.06107 5.54509
    endloop
  endfacet
  facet normal 1 0 0
    outer loop
      vertex 153 0.669873 4
      vertex 153 0.027391 2.02264
      vertex 153 1.28428 4.84565
    endloop
  endfacet
  facet normal 1 0 0
    outer loop
      vertex 153 0.244717 3.04509
      vertex 153 0.027391 2.02264
      vertex 153 0.669873 4
    endloop
  endfacet
  facet normal 1 0 0
    outer loop
      vertex 153 3.30931 2.6777
      vertex 153 0.027391 2.02264
      vertex 153 3.30931 2.3223
    endloop
  endfacet
  facet normal 1 0 0
    outer loop
      vertex 153 4.30855 0.946973
      vertex 153 4.00076 1.12467
      vertex 153 0.027391 2.02264
    endloop
  endfacet
  facet normal 1 0 0
    outer loop
      vertex 153 3.3832 3.02533
      vertex 153 0.027391 2.02264
      vertex 153 3.30931 2.6777
    endloop
  endfacet
  facet normal 1 0 0
    outer loop
      vertex 153 3.52776 3.35
      vertex 153 0.027391 2.02264
      vertex 153 3.3832 3.02533
    endloop
  endfacet
  facet normal 1 0 0
    outer loop
      vertex 153 3.73665 3.63752
      vertex 153 0.027391 2.02264
      vertex 153 3.52776 3.35
    endloop
  endfacet
  facet normal 1 0 0
    outer loop
      vertex 153 5.69145 4.05303
      vertex 153 5.99923 3.87533
      vertex 153 10 6.5
    endloop
  endfacet
  facet normal 1 0 0
    outer loop
      vertex 153 5 6.5
      vertex 153 0.027391 2.02264
      vertex 153 4.00076 3.87533
    endloop
  endfacet
  facet normal 1 0 0
    outer loop
      vertex 153 5 6.5
      vertex 153 4.30855 4.05303
      vertex 153 10 6.5
    endloop
  endfacet
  facet normal 1 0 0
    outer loop
      vertex 153 5 6.5
      vertex 153 4.00076 3.87533
      vertex 153 4.30855 4.05303
    endloop
  endfacet
  facet normal 1 0 0
    outer loop
      vertex 153 4.30855 4.05303
      vertex 153 4.64655 4.16285
      vertex 153 10 6.5
    endloop
  endfacet
  facet normal 1 0 0
    outer loop
      vertex 153 5.35345 4.16285
      vertex 153 5.69145 4.05303
      vertex 153 10 6.5
    endloop
  endfacet
  facet normal 1 0 0
    outer loop
      vertex 153 4.00076 1.12467
      vertex 153 3.73665 1.36248
      vertex 153 0.027391 2.02264
    endloop
  endfacet
  facet normal 1 0 0
    outer loop
      vertex 153 3.3832 1.97467
      vertex 153 3.30931 2.3223
      vertex 153 0.027391 2.02264
    endloop
  endfacet
  facet normal 1 0 0
    outer loop
      vertex 153 4.64655 4.16285
      vertex 153 5 4.2
      vertex 153 10 6.5
    endloop
  endfacet
  facet normal 1 0 0
    outer loop
      vertex 153 5 4.2
      vertex 153 5.35345 4.16285
      vertex 153 10 6.5
    endloop
  endfacet
  facet normal 1 0 0
    outer loop
      vertex 153 6.26335 1.36248
      vertex 153 5.99923 1.12467
      vertex 153 10 -2.5
    endloop
  endfacet
  facet normal 1 0 0
    outer loop
      vertex 153 5.99923 1.12467
      vertex 153 5.69145 0.946973
      vertex 153 10 -2.5
    endloop
  endfacet
  facet normal 1 0 0
    outer loop
      vertex 153 5.69145 0.946973
      vertex 153 5.35345 0.837149
      vertex 153 10 -2.5
    endloop
  endfacet
  facet normal 1 0 0
    outer loop
      vertex 153 3.73665 1.36248
      vertex 153 3.52776 1.65
      vertex 153 0.027391 2.02264
    endloop
  endfacet
  facet normal 1 0 0
    outer loop
      vertex 153 5.35345 0.837149
      vertex 153 5 0.8
      vertex 153 10 -2.5
    endloop
  endfacet
  facet normal 1 0 0
    outer loop
      vertex 153 5 0.8
      vertex 153 4.64655 0.837149
      vertex 153 10 -2.5
    endloop
  endfacet
  facet normal 1 0 0
    outer loop
      vertex 153 4.30855 0.946973
      vertex 153 0.027391 2.02264
      vertex 153 4.64655 0.837149
    endloop
  endfacet
  facet normal 1 0 0
    outer loop
      vertex 153 3.52776 1.65
      vertex 153 3.3832 1.97467
      vertex 153 0.027391 2.02264
    endloop
  endfacet
  facet normal 1 0 0
    outer loop
      vertex 153 3.73665 3.63752
      vertex 153 4.00076 3.87533
      vertex 153 0.027391 2.02264
    endloop
  endfacet
  facet normal 1 0 0
    outer loop
      vertex 153 66.2 -2.5
      vertex 153 10 -2.5
      vertex 153 66.2 -3.5
    endloop
  endfacet
  facet normal 1 0 0
    outer loop
      vertex 153 10 -2.5
      vertex 153 6.6168 1.97467
      vertex 153 6.47224 1.65
    endloop
  endfacet
  facet normal 1 0 0
    outer loop
      vertex 153 10 -2.5
      vertex 153 6.69069 2.3223
      vertex 153 6.6168 1.97467
    endloop
  endfacet
  facet normal 1 0 0
    outer loop
      vertex 153 10 -2.5
      vertex 153 6.69069 2.6777
      vertex 153 6.69069 2.3223
    endloop
  endfacet
  facet normal 1 0 0
    outer loop
      vertex 153 10 -2.5
      vertex 153 6.6168 3.02533
      vertex 153 6.69069 2.6777
    endloop
  endfacet
  facet normal 1 0 0
    outer loop
      vertex 153 10 -2.5
      vertex 153 6.47224 3.35
      vertex 153 6.6168 3.02533
    endloop
  endfacet
  facet normal 1 0 0
    outer loop
      vertex 153 6.26335 3.63752
      vertex 153 10 6.5
      vertex 153 5.99923 3.87533
    endloop
  endfacet
  facet normal 1 0 0
    outer loop
      vertex 153 6.47224 3.35
      vertex 153 10 6.5
      vertex 153 6.26335 3.63752
    endloop
  endfacet
  facet normal 1 0 0
    outer loop
      vertex 153 10 -2.5
      vertex 153 10 6.5
      vertex 153 6.47224 3.35
    endloop
  endfacet
  facet normal 0 1 0
    outer loop
      vertex 143 10 -2.5
      vertex 143 10 6.5
      vertex 153 10 -2.5
    endloop
  endfacet
  facet normal 0 1 0
    outer loop
      vertex 153 10 -2.5
      vertex 143 10 6.5
      vertex 153 10 6.5
    endloop
  endfacet
  facet normal 1 0 0
    outer loop
      vertex 5 10 6.5
      vertex 5 10 -2.5
      vertex 5 56.2 -2.5
    endloop
  endfacet
  facet normal 1 0 0
    outer loop
      vertex 5 56.2 6.5
      vertex 5 10 6.5
      vertex 5 56.2 -2.5
    endloop
  endfacet
  facet normal 4.61655e-17 -0.978148 0.207911
    outer loop
      vertex 143 0.244717 3.04509
      vertex 143 0.027391 2.02264
      vertex 153 0.027391 2.02264
    endloop
  endfacet
  facet normal 4.61655e-17 -0.978148 0.207911
    outer loop
      vertex 153 0.244717 3.04509
      vertex 143 0.244717 3.04509
      vertex 153 0.027391 2.02264
    endloop
  endfacet
  facet normal 0 -1 0
    outer loop
      vertex 143 0.027391 2.02264
      vertex 143 0.027391 0.977358
      vertex 153 0.027391 0.977358
    endloop
  endfacet
  facet normal 0 -1 0
    outer loop
      vertex 153 0.027391 2.02264
      vertex 143 0.027391 2.02264
      vertex 153 0.027391 0.977358
    endloop
  endfacet
  facet normal -4.61655e-17 -0.978148 -0.207911
    outer loop
      vertex 153 0.027391 0.977358
      vertex 143 0.027391 0.977358
      vertex 143 0.244717 -0.045085
    endloop
  endfacet
  facet normal -4.61655e-17 -0.978148 -0.207911
    outer loop
      vertex 153 0.244717 -0.045085
      vertex 153 0.027391 0.977358
      vertex 143 0.244717 -0.045085
    endloop
  endfacet
  facet normal -9.03138e-17 -0.913545 -0.406737
    outer loop
      vertex 153 0.244717 -0.045085
      vertex 143 0.244717 -0.045085
      vertex 143 0.669873 -1
    endloop
  endfacet
  facet normal -9.03138e-17 -0.913545 -0.406737
    outer loop
      vertex 153 0.669873 -1
      vertex 153 0.244717 -0.045085
      vertex 143 0.669873 -1
    endloop
  endfacet
  facet normal 0 0 1
    outer loop
      vertex 143 10 6.5
      vertex 143 5 6.5
      vertex 153 5 6.5
    endloop
  endfacet
  facet normal 0 0 1
    outer loop
      vertex 153 10 6.5
      vertex 143 10 6.5
      vertex 153 5 6.5
    endloop
  endfacet
  facet normal 2.20828e-16 -0.104529 0.994522
    outer loop
      vertex 143 5 6.5
      vertex 143 3.96044 6.39074
      vertex 153 3.96044 6.39074
    endloop
  endfacet
  facet normal 2.20828e-16 -0.104529 0.994522
    outer loop
      vertex 153 5 6.5
      vertex 143 5 6.5
      vertex 153 3.96044 6.39074
    endloop
  endfacet
  facet normal 2.11177e-16 -0.309017 0.951056
    outer loop
      vertex 143 3.96044 6.39074
      vertex 143 2.96632 6.06773
      vertex 153 2.96632 6.06773
    endloop
  endfacet
  facet normal 2.11177e-16 -0.309017 0.951056
    outer loop
      vertex 153 3.96044 6.39074
      vertex 143 3.96044 6.39074
      vertex 153 2.96632 6.06773
    endloop
  endfacet
  facet normal 1.92296e-16 -0.5 0.866026
    outer loop
      vertex 143 2.96632 6.06773
      vertex 143 2.06107 5.54509
      vertex 153 2.06107 5.54509
    endloop
  endfacet
  facet normal 1.92296e-16 -0.5 0.866026
    outer loop
      vertex 153 2.96632 6.06773
      vertex 143 2.96632 6.06773
      vertex 153 2.06107 5.54509
    endloop
  endfacet
  facet normal 1.65011e-16 -0.669131 0.743145
    outer loop
      vertex 143 2.06107 5.54509
      vertex 143 1.28428 4.84565
      vertex 153 1.28428 4.84565
    endloop
  endfacet
  facet normal 1.65011e-16 -0.669131 0.743145
    outer loop
      vertex 153 2.06107 5.54509
      vertex 143 2.06107 5.54509
      vertex 153 1.28428 4.84565
    endloop
  endfacet
  facet normal 1.30515e-16 -0.809017 0.587785
    outer loop
      vertex 143 1.28428 4.84565
      vertex 143 0.669873 4
      vertex 153 0.669873 4
    endloop
  endfacet
  facet normal 1.30515e-16 -0.809017 0.587785
    outer loop
      vertex 153 1.28428 4.84565
      vertex 143 1.28428 4.84565
      vertex 153 0.669873 4
    endloop
  endfacet
  facet normal 9.03138e-17 -0.913545 0.406737
    outer loop
      vertex 143 0.669873 4
      vertex 143 0.244717 3.04509
      vertex 153 0.244717 3.04509
    endloop
  endfacet
  facet normal 9.03138e-17 -0.913545 0.406737
    outer loop
      vertex 153 0.669873 4
      vertex 143 0.669873 4
      vertex 153 0.244717 3.04509
    endloop
  endfacet
  facet normal 4.61655e-17 0.978148 0.207911
    outer loop
      vertex 153 3.3832 1.97467
      vertex 143 3.3832 1.97467
      vertex 153 3.30931 2.3223
    endloop
  endfacet
  facet normal 4.61655e-17 0.978148 0.207911
    outer loop
      vertex 153 3.30931 2.3223
      vertex 143 3.3832 1.97467
      vertex 143 3.30931 2.3223
    endloop
  endfacet
  facet normal 0 1 0
    outer loop
      vertex 153 3.30931 2.6777
      vertex 153 3.30931 2.3223
      vertex 143 3.30931 2.6777
    endloop
  endfacet
  facet normal 0 1 0
    outer loop
      vertex 143 3.30931 2.6777
      vertex 153 3.30931 2.3223
      vertex 143 3.30931 2.3223
    endloop
  endfacet
  facet normal -4.61655e-17 0.978148 -0.207911
    outer loop
      vertex 153 3.3832 3.02533
      vertex 153 3.30931 2.6777
      vertex 143 3.3832 3.02533
    endloop
  endfacet
  facet normal -4.61655e-17 0.978148 -0.207911
    outer loop
      vertex 143 3.3832 3.02533
      vertex 153 3.30931 2.6777
      vertex 143 3.30931 2.6777
    endloop
  endfacet
  facet normal -9.03138e-17 0.913545 -0.406737
    outer loop
      vertex 153 3.52776 3.35
      vertex 153 3.3832 3.02533
      vertex 143 3.52776 3.35
    endloop
  endfacet
  facet normal -9.03138e-17 0.913545 -0.406737
    outer loop
      vertex 143 3.52776 3.35
      vertex 153 3.3832 3.02533
      vertex 143 3.3832 3.02533
    endloop
  endfacet
  facet normal -1.30515e-16 0.809017 -0.587785
    outer loop
      vertex 153 3.73665 3.63752
      vertex 153 3.52776 3.35
      vertex 143 3.73665 3.63752
    endloop
  endfacet
  facet normal -1.30515e-16 0.809017 -0.587785
    outer loop
      vertex 143 3.73665 3.63752
      vertex 153 3.52776 3.35
      vertex 143 3.52776 3.35
    endloop
  endfacet
  facet normal -1.65011e-16 0.669131 -0.743144
    outer loop
      vertex 153 4.00076 3.87533
      vertex 153 3.73665 3.63752
      vertex 143 4.00076 3.87533
    endloop
  endfacet
  facet normal -1.65011e-16 0.669131 -0.743144
    outer loop
      vertex 143 4.00076 3.87533
      vertex 153 3.73665 3.63752
      vertex 143 3.73665 3.63752
    endloop
  endfacet
  facet normal -1.92296e-16 0.499999 -0.866026
    outer loop
      vertex 153 4.30855 4.05303
      vertex 153 4.00076 3.87533
      vertex 143 4.30855 4.05303
    endloop
  endfacet
  facet normal -1.92296e-16 0.499999 -0.866026
    outer loop
      vertex 143 4.30855 4.05303
      vertex 153 4.00076 3.87533
      vertex 143 4.00076 3.87533
    endloop
  endfacet
  facet normal -2.11177e-16 0.309018 -0.951056
    outer loop
      vertex 153 4.64655 4.16285
      vertex 153 4.30855 4.05303
      vertex 143 4.64655 4.16285
    endloop
  endfacet
  facet normal -2.11177e-16 0.309018 -0.951056
    outer loop
      vertex 143 4.64655 4.16285
      vertex 153 4.30855 4.05303
      vertex 143 4.30855 4.05303
    endloop
  endfacet
  facet normal -2.20828e-16 0.104528 -0.994522
    outer loop
      vertex 153 5 4.2
      vertex 153 4.64655 4.16285
      vertex 143 5 4.2
    endloop
  endfacet
  facet normal -2.20828e-16 0.104528 -0.994522
    outer loop
      vertex 143 5 4.2
      vertex 153 4.64655 4.16285
      vertex 143 4.64655 4.16285
    endloop
  endfacet
  facet normal -2.20828e-16 -0.104528 -0.994522
    outer loop
      vertex 153 5.35345 4.16285
      vertex 153 5 4.2
      vertex 143 5.35345 4.16285
    endloop
  endfacet
  facet normal -2.20828e-16 -0.104528 -0.994522
    outer loop
      vertex 143 5.35345 4.16285
      vertex 153 5 4.2
      vertex 143 5 4.2
    endloop
  endfacet
  facet normal -2.11177e-16 -0.309018 -0.951056
    outer loop
      vertex 153 5.69145 4.05303
      vertex 153 5.35345 4.16285
      vertex 143 5.69145 4.05303
    endloop
  endfacet
  facet normal -2.11177e-16 -0.309018 -0.951056
    outer loop
      vertex 143 5.69145 4.05303
      vertex 153 5.35345 4.16285
      vertex 143 5.35345 4.16285
    endloop
  endfacet
  facet normal -1.92296e-16 -0.499999 -0.866026
    outer loop
      vertex 153 5.99923 3.87533
      vertex 153 5.69145 4.05303
      vertex 143 5.99923 3.87533
    endloop
  endfacet
  facet normal -1.92296e-16 -0.499999 -0.866026
    outer loop
      vertex 143 5.99923 3.87533
      vertex 153 5.69145 4.05303
      vertex 143 5.69145 4.05303
    endloop
  endfacet
  facet normal -1.65011e-16 -0.669131 -0.743144
    outer loop
      vertex 153 6.26335 3.63752
      vertex 153 5.99923 3.87533
      vertex 143 6.26335 3.63752
    endloop
  endfacet
  facet normal -1.65011e-16 -0.669131 -0.743144
    outer loop
      vertex 143 6.26335 3.63752
      vertex 153 5.99923 3.87533
      vertex 143 5.99923 3.87533
    endloop
  endfacet
  facet normal -1.30515e-16 -0.809017 -0.587785
    outer loop
      vertex 143 6.47224 3.35
      vertex 153 6.47224 3.35
      vertex 153 6.26335 3.63752
    endloop
  endfacet
  facet normal -1.30515e-16 -0.809017 -0.587785
    outer loop
      vertex 143 6.26335 3.63752
      vertex 143 6.47224 3.35
      vertex 153 6.26335 3.63752
    endloop
  endfacet
  facet normal -9.03138e-17 -0.913545 -0.406737
    outer loop
      vertex 143 6.6168 3.02533
      vertex 153 6.6168 3.02533
      vertex 153 6.47224 3.35
    endloop
  endfacet
  facet normal -9.03138e-17 -0.913545 -0.406737
    outer loop
      vertex 143 6.47224 3.35
      vertex 143 6.6168 3.02533
      vertex 153 6.47224 3.35
    endloop
  endfacet
  facet normal -4.61655e-17 -0.978148 -0.207911
    outer loop
      vertex 143 6.69069 2.6777
      vertex 153 6.69069 2.6777
      vertex 153 6.6168 3.02533
    endloop
  endfacet
  facet normal -4.61655e-17 -0.978148 -0.207911
    outer loop
      vertex 143 6.6168 3.02533
      vertex 143 6.69069 2.6777
      vertex 153 6.6168 3.02533
    endloop
  endfacet
  facet normal 0 -1 0
    outer loop
      vertex 153 6.69069 2.3223
      vertex 153 6.69069 2.6777
      vertex 143 6.69069 2.6777
    endloop
  endfacet
  facet normal 0 -1 0
    outer loop
      vertex 143 6.69069 2.3223
      vertex 153 6.69069 2.3223
      vertex 143 6.69069 2.6777
    endloop
  endfacet
  facet normal 4.61655e-17 -0.978148 0.207911
    outer loop
      vertex 153 6.6168 1.97467
      vertex 153 6.69069 2.3223
      vertex 143 6.69069 2.3223
    endloop
  endfacet
  facet normal 4.61655e-17 -0.978148 0.207911
    outer loop
      vertex 143 6.6168 1.97467
      vertex 153 6.6168 1.97467
      vertex 143 6.69069 2.3223
    endloop
  endfacet
  facet normal 9.03138e-17 -0.913545 0.406737
    outer loop
      vertex 153 6.47224 1.65
      vertex 153 6.6168 1.97467
      vertex 143 6.6168 1.97467
    endloop
  endfacet
  facet normal 9.03138e-17 -0.913545 0.406737
    outer loop
      vertex 143 6.47224 1.65
      vertex 153 6.47224 1.65
      vertex 143 6.6168 1.97467
    endloop
  endfacet
  facet normal 1.30515e-16 -0.809017 0.587785
    outer loop
      vertex 153 6.26335 1.36248
      vertex 153 6.47224 1.65
      vertex 143 6.47224 1.65
    endloop
  endfacet
  facet normal 1.30515e-16 -0.809017 0.587785
    outer loop
      vertex 143 6.26335 1.36248
      vertex 153 6.26335 1.36248
      vertex 143 6.47224 1.65
    endloop
  endfacet
  facet normal 1.65011e-16 -0.669131 0.743144
    outer loop
      vertex 153 5.99923 1.12467
      vertex 153 6.26335 1.36248
      vertex 143 6.26335 1.36248
    endloop
  endfacet
  facet normal 1.65011e-16 -0.669131 0.743144
    outer loop
      vertex 143 5.99923 1.12467
      vertex 153 5.99923 1.12467
      vertex 143 6.26335 1.36248
    endloop
  endfacet
  facet normal 1.92296e-16 -0.499999 0.866026
    outer loop
      vertex 153 5.69145 0.946973
      vertex 153 5.99923 1.12467
      vertex 143 5.99923 1.12467
    endloop
  endfacet
  facet normal 1.92296e-16 -0.499999 0.866026
    outer loop
      vertex 143 5.69145 0.946973
      vertex 153 5.69145 0.946973
      vertex 143 5.99923 1.12467
    endloop
  endfacet
  facet normal 2.11177e-16 -0.309018 0.951056
    outer loop
      vertex 153 5.35345 0.837149
      vertex 153 5.69145 0.946973
      vertex 143 5.69145 0.946973
    endloop
  endfacet
  facet normal 2.11177e-16 -0.309018 0.951056
    outer loop
      vertex 143 5.35345 0.837149
      vertex 153 5.35345 0.837149
      vertex 143 5.69145 0.946973
    endloop
  endfacet
  facet normal 2.20828e-16 -0.104528 0.994522
    outer loop
      vertex 153 5 0.8
      vertex 153 5.35345 0.837149
      vertex 143 5.35345 0.837149
    endloop
  endfacet
  facet normal 2.20828e-16 -0.104528 0.994522
    outer loop
      vertex 143 5 0.8
      vertex 153 5 0.8
      vertex 143 5.35345 0.837149
    endloop
  endfacet
  facet normal 2.20828e-16 0.104528 0.994522
    outer loop
      vertex 153 4.64655 0.837149
      vertex 153 5 0.8
      vertex 143 5 0.8
    endloop
  endfacet
  facet normal 2.20828e-16 0.104528 0.994522
    outer loop
      vertex 143 4.64655 0.837149
      vertex 153 4.64655 0.837149
      vertex 143 5 0.8
    endloop
  endfacet
  facet normal 2.11177e-16 0.309018 0.951056
    outer loop
      vertex 153 4.30855 0.946973
      vertex 153 4.64655 0.837149
      vertex 143 4.64655 0.837149
    endloop
  endfacet
  facet normal 2.11177e-16 0.309018 0.951056
    outer loop
      vertex 143 4.30855 0.946973
      vertex 153 4.30855 0.946973
      vertex 143 4.64655 0.837149
    endloop
  endfacet
  facet normal 1.92296e-16 0.499999 0.866026
    outer loop
      vertex 153 4.00076 1.12467
      vertex 153 4.30855 0.946973
      vertex 143 4.30855 0.946973
    endloop
  endfacet
  facet normal 1.92296e-16 0.499999 0.866026
    outer loop
      vertex 143 4.00076 1.12467
      vertex 153 4.00076 1.12467
      vertex 143 4.30855 0.946973
    endloop
  endfacet
  facet normal 1.65011e-16 0.669131 0.743144
    outer loop
      vertex 153 3.73665 1.36248
      vertex 153 4.00076 1.12467
      vertex 143 4.00076 1.12467
    endloop
  endfacet
  facet normal 1.65011e-16 0.669131 0.743144
    outer loop
      vertex 143 3.73665 1.36248
      vertex 153 3.73665 1.36248
      vertex 143 4.00076 1.12467
    endloop
  endfacet
  facet normal 1.30515e-16 0.809017 0.587785
    outer loop
      vertex 153 3.73665 1.36248
      vertex 143 3.73665 1.36248
      vertex 153 3.52776 1.65
    endloop
  endfacet
  facet normal 1.30515e-16 0.809017 0.587785
    outer loop
      vertex 153 3.52776 1.65
      vertex 143 3.73665 1.36248
      vertex 143 3.52776 1.65
    endloop
  endfacet
  facet normal 9.03138e-17 0.913545 0.406737
    outer loop
      vertex 153 3.52776 1.65
      vertex 143 3.52776 1.65
      vertex 153 3.3832 1.97467
    endloop
  endfacet
  facet normal 9.03138e-17 0.913545 0.406737
    outer loop
      vertex 153 3.3832 1.97467
      vertex 143 3.52776 1.65
      vertex 143 3.3832 1.97467
    endloop
  endfacet
endsolid OpenSCAD_Model
