999
dxfrw 0.6.3
  0
SECTION
  2
HEADER
  9
$ACADVER
  1
AC1021
  9
$DWGCODEPAGE
  3
ANSI_1252
  9
$INSBASE
 10
0
 20
0
 30
0
  9
$EXTMIN
 10
29.44976427162761
 20
30
 30
0
  9
$EXTMAX
 10
407.5547196362105
 20
371.0000000000062
 30
0
  9
$LIMMIN
 10
0
 20
0
  9
$LIMMAX
 10
420
 20
297
  9
$ORTHOMODE
 70
    0
  9
$REGENMODE
 70
    1
  9
$FILLMODE
 70
    1
  9
$QTEXTMODE
 70
    0
  9
$MIRRTEXT
 70
    0
  9
$LTSCALE
 40
1
  9
$ATTMODE
 70
    0
  9
$TEXTSIZE
 40
2.5
  9
$TRACEWID
 40
15.68
  9
$TEXTSTYLE
  7
STANDARD
  9
$CLAYER
  8
0
  9
$CELTYPE
  6
BYLAYER
  9
$CECOLOR
 62
  256
  9
$CELTSCALE
 40
1
  9
$DISPSILH
 70
    0
  9
$DIMSCALE
 40
2.5
  9
$DIMASZ
 40
2.5
  9
$DIMEXO
 40
0.625
  9
$DIMDLI
 40
3.75
  9
$DIMRND
 40
0
  9
$DIMDLE
 40
0
  9
$DIMEXE
 40
1.25
  9
$DIMTP
 40
0
  9
$DIMTM
 40
0
  9
$DIMTXT
 40
2.5
  9
$DIMCEN
 40
2.5
  9
$DIMTSZ
 40
0
  9
$DIMTOL
 70
    0
  9
$DIMLIM
 70
    0
  9
$DIMTIH
 70
    0
  9
$DIMTOH
 70
    0
  9
$DIMSE1
 70
    0
  9
$DIMSE2
 70
    0
  9
$DIMTAD
 70
    1
  9
$DIMZIN
 70
    8
  9
$DIMBLK
  1

  9
$DIMASO
 70
    1
  9
$DIMSHO
 70
    1
  9
$DIMPOST
  1

  9
$DIMAPOST
  1

  9
$DIMALT
 70
    0
  9
$DIMALTD
 70
    3
  9
$DIMALTF
 40
0.03937
  9
$DIMLFAC
 40
1
  9
$DIMTOFL
 70
    1
  9
$DIMTVP
 40
0
  9
$DIMTIX
 70
    0
  9
$DIMSOXD
 70
    0
  9
$DIMSAH
 70
    0
  9
$DIMBLK1
  1

  9
$DIMBLK2
  1

  9
$DIMSTYLE
  2
Standard
  9
$DIMCLRD
 70
    0
  9
$DIMCLRE
 70
    0
  9
$DIMCLRT
 70
    0
  9
$DIMTFAC
 40
1
  9
$DIMGAP
 40
0.625
  9
$DIMJUST
 70
    0
  9
$DIMSD1
 70
    0
  9
$DIMSD2
 70
    0
  9
$DIMTOLJ
 70
    0
  9
$DIMTZIN
 70
    8
  9
$DIMALTZ
 70
    0
  9
$DIMALTTZ
 70
    0
  9
$DIMUPT
 70
    0
  9
$DIMDEC
 70
    2
  9
$DIMTDEC
 70
    2
  9
$DIMALTU
 70
    2
  9
$DIMALTTD
 70
    3
  9
$DIMTXSTY
  7
STANDARD
  9
$DIMAUNIT
 70
    0
  9
$DIMADEC
 70
    0
  9
$DIMALTRND
 40
0
  9
$DIMAZIN
 70
    0
  9
$DIMDSEP
 70
   44
  9
$DIMATFIT
 70
    3
  9
$DIMFRAC
 70
    0
  9
$DIMLDRBLK
  1
STANDARD
  9
$DIMLUNIT
 70
    2
  9
$DIMLWD
 70
   -2
  9
$DIMLWE
 70
   -2
  9
$DIMTMOVE
 70
    0
  9
$DIMFXL
 40
1
  9
$DIMFXLON
 70
    0
  9
$DIMJOGANG
 40
0.7854
  9
$DIMTFILL
 70
    0
  9
$DIMTFILLCLR
 70
    0
  9
$DIMARCSYM
 70
    0
  9
$DIMLTYPE
  6

  9
$DIMLTEX1
  6

  9
$DIMLTEX2
  6

  9
$LUNITS
 70
    2
  9
$LUPREC
 70
    4
  9
$SKETCHINC
 40
1
  9
$FILLETRAD
 40
0
  9
$AUNITS
 70
    0
  9
$AUPREC
 70
    2
  9
$MENU
  1
.
  9
$ELEVATION
 40
0
  9
$PELEVATION
 40
0
  9
$THICKNESS
 40
0
  9
$LIMCHECK
 70
    0
  9
$CHAMFERA
 40
0
  9
$CHAMFERB
 40
0
  9
$CHAMFERC
 40
0
  9
$CHAMFERD
 40
0
  9
$SKPOLY
 70
    0
  9
$USRTIMER
 70
    1
  9
$ANGBASE
 50
0
  9
$ANGDIR
 70
    0
  9
$PDMODE
 70
   34
  9
$PDSIZE
 40
0
  9
$PLINEWID
 40
0
  9
$SPLFRAME
 70
    0
  9
$SPLINETYPE
 70
    2
  9
$SPLINESEGS
 70
    8
  9
$HANDSEED
  5
20000
  9
$SURFTAB1
 70
    6
  9
$SURFTAB2
 70
    6
  9
$SURFTYPE
 70
    6
  9
$SURFU
 70
    6
  9
$SURFV
 70
    6
  9
$UCSBASE
  2

  9
$UCSNAME
  2

  9
$UCSORG
 10
0
 20
0
 30
0
  9
$UCSXDIR
 10
1
 20
0
 30
0
  9
$UCSYDIR
 10
0
 20
1
 30
0
  9
$UCSORTHOREF
  2

  9
$UCSORTHOVIEW
 70
    0
  9
$UCSORGTOP
 10
0
 20
0
 30
0
  9
$UCSORGBOTTOM
 10
0
 20
0
 30
0
  9
$UCSORGLEFT
 10
0
 20
0
 30
0
  9
$UCSORGRIGHT
 10
0
 20
0
 30
0
  9
$UCSORGFRONT
 10
0
 20
0
 30
0
  9
$UCSORGBACK
 10
0
 20
0
 30
0
  9
$PUCSBASE
  2

  9
$PUCSNAME
  2

  9
$PUCSORG
 10
0
 20
0
 30
0
  9
$PUCSXDIR
 10
1
 20
0
 30
0
  9
$PUCSYDIR
 10
0
 20
1
 30
0
  9
$PUCSORTHOREF
  2

  9
$PUCSORTHOVIEW
 70
    0
  9
$PUCSORGTOP
 10
0
 20
0
 30
0
  9
$PUCSORGBOTTOM
 10
0
 20
0
 30
0
  9
$PUCSORGLEFT
 10
0
 20
0
 30
0
  9
$PUCSORGRIGHT
 10
0
 20
0
 30
0
  9
$PUCSORGFRONT
 10
0
 20
0
 30
0
  9
$PUCSORGBACK
 10
0
 20
0
 30
0
  9
$USERI1
 70
    0
  9
$USERI2
 70
    0
  9
$USERI3
 70
    0
  9
$USERI4
 70
    0
  9
$USERI5
 70
    0
  9
$USERR1
 40
0
  9
$USERR2
 40
0
  9
$USERR3
 40
0
  9
$USERR4
 40
0
  9
$USERR5
 40
0
  9
$WORLDVIEW
 70
    1
  9
$SHADEDGE
 70
    3
  9
$SHADEDIF
 70
   70
  9
$TILEMODE
 70
    1
  9
$MAXACTVP
 70
   64
  9
$PINSBASE
 10
0
 20
0
 30
0
  9
$PLIMCHECK
 70
    0
  9
$PEXTMIN
 10
0
 20
0
 30
0
  9
$PEXTMAX
 10
0
 20
0
 30
0
  9
$SNAPSTYLE
 70
    0
  9
$PLIMMIN
 10
0
 20
0
  9
$PLIMMAX
 10
210
 20
297
  9
$UNITMODE
 70
    0
  9
$VISRETAIN
 70
    1
  9
$PLINEGEN
 70
    0
  9
$PSLTSCALE
 70
    1
  9
$TREEDEPTH
 70
 3020
  9
$CMLSTYLE
  2
Standard
  9
$CMLJUST
 70
    0
  9
$CMLSCALE
 40
20
  9
$PROXYGRAPHICS
 70
    1
  9
$MEASUREMENT
 70
    1
  9
$CELWEIGHT
370
   -1
  9
$ENDCAPS
280
    0
  9
$JOINSTYLE
280
    0
  9
$LWDISPLAY
290
    0
  9
$INSUNITS
 70
    4
  9
$HYPERLINKBASE
  1

  9
$STYLESHEET
  1

  9
$XEDIT
290
    1
  9
$CEPSNTYPE
380
    0
  9
$PSTYLEMODE
290
    1
  9
$EXTNAMES
290
    1
  9
$PSVPSCALE
 40
1
  9
$OLESTARTUP
290
    0
  9
$SORTENTS
280
  127
  9
$INDEXCTL
280
    0
  9
$HIDETEXT
280
    1
  9
$XCLIPFRAME
290
    0
  9
$HALOGAP
280
    0
  9
$OBSCOLOR
 70
  257
  9
$OBSLTYPE
280
    0
  9
$INTERSECTIONDISPLAY
280
    0
  9
$INTERSECTIONCOLOR
 70
  257
  9
$DIMASSOC
280
    1
  9
$PROJECTNAME
  1

  9
$CAMERADISPLAY
290
    0
  9
$LENSLENGTH
 40
50
  9
$CAMERAHEIGHT
 40
0
  9
$STEPSPERSEC
 40
2
  9
$STEPSIZE
 40
50
  9
$3DDWFPREC
 40
2
  9
$PSOLWIDTH
 40
5
  9
$PSOLHEIGHT
 40
80
  9
$LOFTANG1
 40
1.570796326794897
  9
$LOFTANG2
 40
1.570796326794897
  9
$LOFTMAG1
 40
0
  9
$LOFTMAG2
 40
0
  9
$LOFTPARAM
 70
    7
  9
$LOFTNORMALS
280
    1
  9
$LATITUDE
 40
1
  9
$LONGITUDE
 40
1
  9
$NORTHDIRECTION
 40
0
  9
$TIMEZONE
 70
-8000
  9
$LIGHTGLYPHDISPLAY
280
    1
  9
$TILEMODELIGHTSYNCH
280
    1
  9
$SOLIDHIST
280
    1
  9
$SHOWHIST
280
    1
  9
$DWFFRAME
280
    2
  9
$DGNFRAME
280
    0
  9
$REALWORLDSCALE
290
    1
  9
$INTERFERECOLOR
 62
    1
  9
$CSHADOW
280
    0
  9
$SHADOWPLANELOCATION
 40
0
  0
ENDSEC
  0
SECTION
  2
CLASSES
  0
ENDSEC
  0
SECTION
  2
TABLES
  0
TABLE
  2
VPORT
  5
8
330
0
100
AcDbSymbolTable
 70
    1
  0
VPORT
  5
31
330
2
100
AcDbSymbolTableRecord
100
AcDbViewportTableRecord
  2
*ACTIVE
 70
    0
 10
0
 20
0
 11
1
 21
1
 12
286.5954922894425
 22
202.3724792408067
 13
0
 23
0
 14
10
 24
10
 15
10
 25
10
 16
0
 26
0
 36
1
 17
0
 27
0
 37
0
 40
409.4899169632266
 41
1.733487833140209
 42
50
 43
0
 44
0
 50
0
 51
0
 71
    0
 72
  100
 73
    1
 74
    3
 75
    0
 76
    1
 77
    0
 78
    0
281
    0
 65
    1
110
0
120
0
130
0
111
1
121
0
131
0
112
0
122
1
132
0
 79
    0
146
0
348
10020
 60
    7
 61
    5
292
1
282
    1
141
0
142
0
 63
  250
421
3358443
  0
ENDTAB
  0
TABLE
  2
LTYPE
  5
5
330
0
100
AcDbSymbolTable
 70
    4
  0
LTYPE
  5
14
330
5
100
AcDbSymbolTableRecord
100
AcDbLinetypeTableRecord
  2
ByBlock
 70
    0
  3

 72
   65
 73
    0
 40
0
  0
LTYPE
  5
15
330
5
100
AcDbSymbolTableRecord
100
AcDbLinetypeTableRecord
  2
ByLayer
 70
    0
  3

 72
   65
 73
    0
 40
0
  0
LTYPE
  5
16
330
5
100
AcDbSymbolTableRecord
100
AcDbLinetypeTableRecord
  2
Continuous
 70
    0
  3
Solid line
 72
   65
 73
    0
 40
0
  0
LTYPE
  5
32
330
5
100
AcDbSymbolTableRecord
100
AcDbLinetypeTableRecord
  2
DOT
 70
    0
  3
Dot . . . . . . . . . . . . . . . . . . . . . .
 72
   65
 73
    2
 40
6.35
 49
0
 74
    0
 49
-6.35
 74
    0
  0
LTYPE
  5
33
330
5
100
AcDbSymbolTableRecord
100
AcDbLinetypeTableRecord
  2
DOTTINY
 70
    0
  3
Dot (.15x) .....................................
 72
   65
 73
    2
 40
0.9525
 49
0
 74
    0
 49
-0.9525
 74
    0
  0
LTYPE
  5
34
330
5
100
AcDbSymbolTableRecord
100
AcDbLinetypeTableRecord
  2
DOT2
 70
    0
  3
Dot (.5x) .....................................
 72
   65
 73
    2
 40
3.175
 49
0
 74
    0
 49
-3.175
 74
    0
  0
LTYPE
  5
35
330
5
100
AcDbSymbolTableRecord
100
AcDbLinetypeTableRecord
  2
DOTX2
 70
    0
  3
Dot (2x) .  .  .  .  .  .  .  .  .  .  .  .  .
 72
   65
 73
    2
 40
12.7
 49
0
 74
    0
 49
-12.7
 74
    0
  0
LTYPE
  5
36
330
5
100
AcDbSymbolTableRecord
100
AcDbLinetypeTableRecord
  2
DASHED
 70
    0
  3
Dashed _ _ _ _ _ _ _ _ _ _ _ _ _ _ _ _ _
 72
   65
 73
    2
 40
19.05
 49
12.7
 74
    0
 49
-6.35
 74
    0
  0
LTYPE
  5
37
330
5
100
AcDbSymbolTableRecord
100
AcDbLinetypeTableRecord
  2
DASHEDTINY
 70
    0
  3
Dashed (.15x) _ _ _ _ _ _ _ _ _ _ _ _ _ _ _ _ _
 72
   65
 73
    2
 40
2.8575
 49
1.905
 74
    0
 49
-0.9525
 74
    0
  0
LTYPE
  5
38
330
5
100
AcDbSymbolTableRecord
100
AcDbLinetypeTableRecord
  2
DASHED2
 70
    0
  3
Dashed (.5x) _ _ _ _ _ _ _ _ _ _ _ _ _ _ _ _ _
 72
   65
 73
    2
 40
9.524999999999999
 49
6.35
 74
    0
 49
-3.175
 74
    0
  0
LTYPE
  5
39
330
5
100
AcDbSymbolTableRecord
100
AcDbLinetypeTableRecord
  2
DASHEDX2
 70
    0
  3
Dashed (2x) ____  ____  ____  ____  ____  ___
 72
   65
 73
    2
 40
38.09999999999999
 49
25.4
 74
    0
 49
-12.7
 74
    0
  0
LTYPE
  5
3A
330
5
100
AcDbSymbolTableRecord
100
AcDbLinetypeTableRecord
  2
DASHDOT
 70
    0
  3
Dash dot __ . __ . __ . __ . __ . __ . __ . __
 72
   65
 73
    4
 40
25.4
 49
12.7
 74
    0
 49
-6.35
 74
    0
 49
0
 74
    0
 49
-6.35
 74
    0
  0
LTYPE
  5
3B
330
5
100
AcDbSymbolTableRecord
100
AcDbLinetypeTableRecord
  2
DASHDOTTINY
 70
    0
  3
Dash dot (.15x) _._._._._._._._._._._._._._._.
 72
   65
 73
    4
 40
3.81
 49
1.905
 74
    0
 49
-0.9525
 74
    0
 49
0
 74
    0
 49
-0.9525
 74
    0
  0
LTYPE
  5
3C
330
5
100
AcDbSymbolTableRecord
100
AcDbLinetypeTableRecord
  2
DASHDOT2
 70
    0
  3
Dash dot (.5x) _._._._._._._._._._._._._._._.
 72
   65
 73
    4
 40
12.7
 49
6.35
 74
    0
 49
-3.175
 74
    0
 49
0
 74
    0
 49
-3.175
 74
    0
  0
LTYPE
  5
3D
330
5
100
AcDbSymbolTableRecord
100
AcDbLinetypeTableRecord
  2
DASHDOTX2
 70
    0
  3
Dash dot (2x) ____  .  ____  .  ____  .  ___
 72
   65
 73
    4
 40
50.8
 49
25.4
 74
    0
 49
-12.7
 74
    0
 49
0
 74
    0
 49
-12.7
 74
    0
  0
LTYPE
  5
3E
330
5
100
AcDbSymbolTableRecord
100
AcDbLinetypeTableRecord
  2
DIVIDE
 70
    0
  3
Divide ____ . . ____ . . ____ . . ____ . . ____
 72
   65
 73
    6
 40
31.75
 49
12.7
 74
    0
 49
-6.35
 74
    0
 49
0
 74
    0
 49
-6.35
 74
    0
 49
0
 74
    0
 49
-6.35
 74
    0
  0
LTYPE
  5
3F
330
5
100
AcDbSymbolTableRecord
100
AcDbLinetypeTableRecord
  2
DIVIDETINY
 70
    0
  3
Divide (.15x) __..__..__..__..__..__..__..__.._
 72
   65
 73
    6
 40
4.7625
 49
1.905
 74
    0
 49
-0.9525
 74
    0
 49
0
 74
    0
 49
-0.9525
 74
    0
 49
0
 74
    0
 49
-0.9525
 74
    0
  0
LTYPE
  5
40
330
5
100
AcDbSymbolTableRecord
100
AcDbLinetypeTableRecord
  2
DIVIDE2
 70
    0
  3
Divide (.5x) __..__..__..__..__..__..__..__.._
 72
   65
 73
    6
 40
15.875
 49
6.35
 74
    0
 49
-3.175
 74
    0
 49
0
 74
    0
 49
-3.175
 74
    0
 49
0
 74
    0
 49
-3.175
 74
    0
  0
LTYPE
  5
41
330
5
100
AcDbSymbolTableRecord
100
AcDbLinetypeTableRecord
  2
DIVIDEX2
 70
    0
  3
Divide (2x) ________  .  .  ________  .  .  _
 72
   65
 73
    6
 40
63.5
 49
25.4
 74
    0
 49
-12.7
 74
    0
 49
0
 74
    0
 49
-12.7
 74
    0
 49
0
 74
    0
 49
-12.7
 74
    0
  0
LTYPE
  5
42
330
5
100
AcDbSymbolTableRecord
100
AcDbLinetypeTableRecord
  2
BORDER
 70
    0
  3
Border __ __ . __ __ . __ __ . __ __ . __ __ .
 72
   65
 73
    6
 40
44.45
 49
12.7
 74
    0
 49
-6.35
 74
    0
 49
12.7
 74
    0
 49
-6.35
 74
    0
 49
0
 74
    0
 49
-6.35
 74
    0
  0
LTYPE
  5
43
330
5
100
AcDbSymbolTableRecord
100
AcDbLinetypeTableRecord
  2
BORDERTINY
 70
    0
  3
Border (.15x) __.__.__.__.__.__.__.__.__.__.__.
 72
   65
 73
    6
 40
6.6675
 49
1.905
 74
    0
 49
-0.9525
 74
    0
 49
1.905
 74
    0
 49
-0.9525
 74
    0
 49
0
 74
    0
 49
-0.9525
 74
    0
  0
LTYPE
  5
44
330
5
100
AcDbSymbolTableRecord
100
AcDbLinetypeTableRecord
  2
BORDER2
 70
    0
  3
Border (.5x) __.__.__.__.__.__.__.__.__.__.__.
 72
   65
 73
    6
 40
22.225
 49
6.35
 74
    0
 49
-3.175
 74
    0
 49
6.35
 74
    0
 49
-3.175
 74
    0
 49
0
 74
    0
 49
-3.175
 74
    0
  0
LTYPE
  5
45
330
5
100
AcDbSymbolTableRecord
100
AcDbLinetypeTableRecord
  2
BORDERX2
 70
    0
  3
Border (2x) ____  ____  .  ____  ____  .  ___
 72
   65
 73
    6
 40
88.89999999999999
 49
25.4
 74
    0
 49
-12.7
 74
    0
 49
25.4
 74
    0
 49
-12.7
 74
    0
 49
0
 74
    0
 49
-12.7
 74
    0
  0
LTYPE
  5
46
330
5
100
AcDbSymbolTableRecord
100
AcDbLinetypeTableRecord
  2
CENTER
 70
    0
  3
Center ____ _ ____ _ ____ _ ____ _ ____ _ ____
 72
   65
 73
    4
 40
50.8
 49
31.75
 74
    0
 49
-6.35
 74
    0
 49
6.35
 74
    0
 49
-6.35
 74
    0
  0
LTYPE
  5
47
330
5
100
AcDbSymbolTableRecord
100
AcDbLinetypeTableRecord
  2
CENTERTINY
 70
    0
  3
Center (.15x) ___ _ ___ _ ___ _ ___ _ ___ _ ___
 72
   65
 73
    4
 40
7.619999999999999
 49
4.7625
 74
    0
 49
-0.9525
 74
    0
 49
0.9525
 74
    0
 49
-0.9525
 74
    0
  0
LTYPE
  5
48
330
5
100
AcDbSymbolTableRecord
100
AcDbLinetypeTableRecord
  2
CENTER2
 70
    0
  3
Center (.5x) ___ _ ___ _ ___ _ ___ _ ___ _ ___
 72
   65
 73
    4
 40
28.575
 49
19.05
 74
    0
 49
-3.175
 74
    0
 49
3.175
 74
    0
 49
-3.175
 74
    0
  0
LTYPE
  5
49
330
5
100
AcDbSymbolTableRecord
100
AcDbLinetypeTableRecord
  2
CENTERX2
 70
    0
  3
Center (2x) ________  __  ________  __  _____
 72
   65
 73
    4
 40
101.6
 49
63.5
 74
    0
 49
-12.7
 74
    0
 49
12.7
 74
    0
 49
-12.7
 74
    0
  0
ENDTAB
  0
TABLE
  2
LAYER
  5
2
330
0
100
AcDbSymbolTable
 70
    1
  0
LAYER
  5
10
330
2
100
AcDbSymbolTableRecord
100
AcDbLayerTableRecord
  2
0
 70
    0
 62
    7
  6
CONTINUOUS
370
    0
390
F
  0
ENDTAB
  0
TABLE
  2
STYLE
  5
3
330
0
100
AcDbSymbolTable
 70
    3
  0
STYLE
  5
4A
330
2
100
AcDbSymbolTableRecord
100
AcDbTextStyleTableRecord
  2
Standard
 70
    0
 40
0
 41
1
 50
0
 71
    0
 42
1
  3
txt
  4

  0
ENDTAB
  0
TABLE
  2
VIEW
  5
6
330
0
100
AcDbSymbolTable
 70
    0
  0
ENDTAB
  0
TABLE
  2
UCS
  5
7
330
0
100
AcDbSymbolTable
 70
    0
  0
ENDTAB
  0
TABLE
  2
APPID
  5
9
330
0
100
AcDbSymbolTable
 70
    1
  0
APPID
  5
12
330
9
100
AcDbSymbolTableRecord
100
AcDbRegAppTableRecord
  2
ACAD
 70
    0
  0
APPID
  5
4B
330
9
100
AcDbSymbolTableRecord
100
AcDbRegAppTableRecord
  2
LibreCad
 70
    0
  0
ENDTAB
  0
TABLE
  2
DIMSTYLE
  5
A
330
0
100
AcDbSymbolTable
 70
    1
100
AcDbDimStyleTable
 71
    1
  0
DIMSTYLE
105
4C
330
A
100
AcDbSymbolTableRecord
100
AcDbDimStyleTableRecord
  2
Standard
 70
    0
 40
1
 41
2.5
 42
0.625
 43
0.38
 44
1.25
 45
0
 46
0
 47
0
 48
0
 49
1
140
2.5
141
0.09
142
2.5
143
25.4
144
1
145
0
146
1
147
0.625
148
0
 71
    0
 72
    0
 73
    0
 74
    1
 75
    0
 76
    0
 77
    0
 78
    1
 79
    0
170
    0
171
    2
172
    0
173
    0
174
    0
175
    0
176
    0
177
    0
178
    0
179
    0
271
    2
272
    4
273
    2
274
    2
275
    0
276
    0
277
    2
278
    0
279
    0
280
    0
281
    0
282
    0
283
    1
284
    0
285
    0
286
    0
288
    0
289
    3
340
standard
341

371
   -2
372
   -2
  0
ENDTAB
  0
TABLE
  2
BLOCK_RECORD
  5
1
330
0
100
AcDbSymbolTable
 70
    2
  0
BLOCK_RECORD
  5
1F
330
1
100
AcDbSymbolTableRecord
100
AcDbBlockTableRecord
  2
*Model_Space
 70
    0
280
    1
281
    0
  0
BLOCK_RECORD
  5
1E
330
1
100
AcDbSymbolTableRecord
100
AcDbBlockTableRecord
  2
*Paper_Space
 70
    0
280
    1
281
    0
  0
ENDTAB
  0
ENDSEC
  0
SECTION
  2
BLOCKS
  0
BLOCK
  5
20
330
1F
100
AcDbEntity
  8
0
100
AcDbBlockBegin
  2
*Model_Space
 70
    0
 10
0
 20
0
 30
0
  3
*Model_Space
  1

  0
ENDBLK
  5
21
330
1F
100
AcDbEntity
  8
0
100
AcDbBlockEnd
  0
BLOCK
  5
1C
330
1B
100
AcDbEntity
  8
0
100
AcDbBlockBegin
  2
*Paper_Space
 70
    0
 10
0
 20
0
 30
0
  3
*Paper_Space
  1

  0
ENDBLK
  5
1D
330
1F
100
AcDbEntity
  8
0
100
AcDbBlockEnd
  0
ENDSEC
  0
SECTION
  2
ENTITIES
  0
LWPOLYLINE
  5
4D
100
AcDbEntity
  8
0
  6
ByLayer
 62
  256
370
   -1
100
AcDbPolyline
 90
   20
 70
    1
 43
0
 10
168.550776
 20
362.2500000000001
 42
-0.01796400000000009
 10
178.284314
 20
349.325866
 42
-0.03484000000000004
 10
184.927545
 20
338.241372
 42
-0.03690699999999999
 10
189.727499
 20
326.776456
 42
-0.02299600000000006
 10
193.7102499999999
 20
312.7534979999999
 42
0.006694999999999967
 10
194.9695039999999
 20
307.6983870000001
 42
0.03424900000000017
 10
195.895698
 20
304.958643
 42
0.07041600000000023
 10
196.769442
 20
303.484581
 42
0.2270739999999999
 10
197.769052
 20
303.003498
 42
0.2536939999999964
 10
198.767313
 20
303.542294
 42
0.1796539999999981
 10
199.055287
 20
304.809552
 42
0.02575700000000005
 10
198.4788800000006
 20
307.9141600000002
 42
0.000804000000000025
 10
195.4467790000003
 20
320.4849140000006
 42
0.01678600000000002
 10
191.874968
 20
333.2981160000001
 42
0.02097199999999991
 10
187.6715900000001
 20
344.908188
 42
0.02203400000000003
 10
182.713412
 20
355.6239420000001
 42
0.02271699999999998
 10
176.877196
 20
365.75
 10
173.524842
 20
371
 10
167.489593
 20
371
 10
161.454343
 20
371
  0
LWPOLYLINE
  5
4E
100
AcDbEntity
  8
0
  6
ByLayer
 62
  256
370
   -1
100
AcDbPolyline
 90
   28
 70
    1
 43
0
 10
237.496113
 20
365.993943
 42
0.040876
 10
234.7223250000001
 20
360.778707
 42
0.02142300000000003
 10
232.1020310000001
 20
353.906359
 42
0.01981699999999995
 10
229.8214700000001
 20
346.028789
 42
0.01774799999999997
 10
228.075438
 20
337.701256
 42
0.01198500000000003
 10
226.724489
 20
328.590965
 42
0.00698900000000001
 10
225.5200049999999
 20
317.6117819999999
 42
0.002964999999999935
 10
224.5524679999999
 20
306.8132680000002
 42
0.1129359999999999
 10
224.893982
 20
304.415683
 42
0.1645989999999983
 10
225.760533
 20
303.37146
 42
0.4222189999999844
 10
226.615808
 20
303.587284
 42
0.0796570000000002
 10
227.453343
 20
305.7750889999999
 42
0.0130480000000001
 10
228.2701190000001
 20
310.25
 42
-0.02701699999999999
 10
231.1353660000001
 20
323.794948
 42
-0.01620599999999997
 10
235.915403
 20
339.5317120000001
 42
-0.01590799999999992
 10
241.418274
 20
354.190581
 42
-0.045747
 10
246.453299
 20
363.80645
 42
0.01063299999999996
 10
247.901728
 20
366.1555539999999
 42
0.01694799999999975
 10
249.027427
 20
368.229082
 42
0.01106900000000006
 10
249.840266
 20
369.949681
 42
0.3105969999999808
 10
249.754655
 20
370.412011
 42
0.1526470000000061
 10
249.314055
 20
370.6427620000001
 42
0.01450700000000004
 10
248.097094
 20
370.827278
 42
0.01747200000000002
 10
246.600261
 20
370.9571100000001
 42
0.01289599999999993
 10
244.937579
 20
371
 42
0.03206599999999998
 10
242.374789
 20
370.835472
 42
0.1165140000000001
 10
240.857935
 20
370.264172
 42
0.08830900000000011
 10
239.537372
 20
368.987894
 42
0.01394399999999997
  0
LWPOLYLINE
  5
4F
100
AcDbEntity
  8
0
  6
ByLayer
 62
  256
370
   -1
100
AcDbPolyline
 90
   34
 70
    1
 43
0
 10
137.05
 20
369.165154
 42
0.01486100000000016
 10
137.7270949999996
 20
368.6048990000005
 42
0.0006420000000001052
 10
140.1633169999995
 20
366.7131730000008
 42
0.001094000000000041
 10
143.0601439999997
 20
364.4798650000005
 42
0.0007800000000000348
 10
146.3144830000003
 20
361.990323
 42
-0.01683000000000005
 10
150.402282
 20
358.649889
 42
-0.01783100000000012
 10
154.175474
 20
355.10339
 42
-0.017697
 10
157.711922
 20
351.271411
 42
-0.01605100000000001
 10
161.090183
 20
347.075169
 42
-0.02689399999999998
 10
166.7397880000001
 20
338.672798
 42
-0.016988
 10
172.448809
 20
328.326038
 42
-0.01702900000000006
 10
177.266691
 20
317.9897219999999
 42
-0.03761099999999996
 10
180.0607559999999
 20
309.75
 42
0.007440000000000003
 10
181.240237
 20
305.431518
 42
0.08982399999999982
 10
182.002655
 20
303.895257
 42
0.1830059999999976
 10
183.076495
 20
303.208543
 42
0.05178300000000037
 10
185.084712
 20
302.9999999999999
 10
188.372583
 20
303
 10
186.3672410000001
 20
310.2365189999999
 42
0.007451
 10
183.8885430000001
 20
318.689656
 42
0.01426900000000005
 10
181.606472
 20
325.381171
 42
0.0162830000000001
 10
179.17141
 20
331.308993
 42
0.01414200000000001
 10
176.245923
 20
337.355701
 42
0.01999500000000005
 10
172.141757
 20
344.542365
 42
0.009881000000000001
 10
166.392296
 20
353.344182
 42
0.009503000000000062
 10
160.514401
 20
361.623056
 42
0.03126800000000005
 10
156.205511
 20
366.75
 42
0.03344999999999995
 10
154.103023
 20
368.6793709999999
 42
0.1009609999999994
 10
152.381406
 20
369.5633829999999
 42
0.06130000000000011
 10
150.008338
 20
369.9236960000001
 42
0.00705899999999999
 10
144.603833
 20
370
 42
0.009229000000000058
 10
141.406219
 20
369.940975
 42
0.01829200000000007
 10
138.877064
 20
369.754764
 42
0.0201710000000001
 10
137.138546
 20
369.491285
 42
0.6234300000000292
  0
LWPOLYLINE
  5
50
100
AcDbEntity
  8
0
  6
ByLayer
 62
  256
370
   -1
100
AcDbPolyline
 90
   28
 70
    1
 43
0
 10
184.5
 20
369.512035
 42
0.1239129999999979
 10
184.588712
 20
369.15957
 42
0.001019999999999871
 10
185.9533859999998
 20
366.6326840000006
 42
0.003570000000000005
 10
187.5512319999999
 20
363.737922
 42
0.00228099999999987
 10
189.4476959999998
 20
360.395218
 42
-0.02751300000000009
 10
195.176481
 20
348.993686
 42
-0.02725299999999995
 10
199.639057
 20
336.996394
 42
-0.02756100000000004
 10
202.727126
 20
324.723882
 42
-0.02978499999999994
 10
204.348214
 20
312.5000000000001
 42
0.004956000000000146
 10
204.8050060000001
 20
306.9558599999999
 42
0.05476599999999972
 10
205.2500020000001
 20
304.777862
 42
0.1577659999999974
 10
206.019023
 20
303.7095390000001
 42
0.1239529999999991
 10
207.347539
 20
303.167667
 42
0.03529900000000014
 10
208.655983
 20
303.075844
 42
0.2408990000000119
 10
209.2140420000001
 20
303.361637
 42
0.1852900000000021
 10
209.394149
 20
304.043377
 42
0.02048699999999995
 10
209.150146
 20
305.667667
 42
-0.01306900000000015
 10
208.900156
 20
307.1788990000001
 42
-0.003563999999999897
 10
208.584945
 20
309.5773770000002
 42
-0.003601999999999979
 10
208.2663190000001
 20
312.3037200000001
 42
-0.00374200000000002
 10
207.991279
 20
315.0000000000001
 42
0.02264
 10
205.998938
 20
329.194885
 42
0.01179199999999992
 10
202.3017679999999
 20
346.6865139999998
 42
0.007616000000000005
 10
198.105231
 20
363.321342
 42
0.1080110000000001
 10
195.301728
 20
368.738903
 42
0.1884370000000012
 10
193.871046
 20
369.530859
 42
0.01540300000000009
 10
189.537309
 20
369.975562
 42
0.01268700000000004
 10
185.178431
 20
370.1765609999999
 42
0.4202919999999782
  0
LWPOLYLINE
  5
51
100
AcDbEntity
  8
0
  6
ByLayer
 62
  256
370
   -1
100
AcDbPolyline
 90
   28
 70
    1
 43
0
 10
206.5
 20
369.078957
 42
0.04995500000000008
 10
206.564588
 20
368.4341000000001
 42
0.001765000000000044
 10
207.069817
 20
365.981839
 42
0.003255999999999979
 10
207.6966049999999
 20
363.0869470000002
 42
0.002271000000000125
 10
208.4398019999999
 20
359.8289570000001
 42
-0.01756400000000004
 10
210.153523
 20
351.0923960000001
 42
-0.01331899999999999
 10
211.438311
 20
341.4109730000001
 42
-0.01178999999999999
 10
212.332478
 20
330.4935620000001
 42
-0.007943999999999988
 10
212.8607009999999
 20
318.0000000000001
 42
0.002520000000000097
 10
213.145348
 20
308.9396739999997
 42
0.03194399999999995
 10
213.486814
 20
305.547054
 42
0.1097500000000001
 10
214.140791
 20
303.922933
 42
0.2078779999999956
 10
215.314595
 20
303.187913
 42
0.2477729999999986
 10
216.7816
 20
303.700633
 42
0.133254000000001
 10
217.697181
 20
305.442872
 42
0.03078999999999994
 10
218.3551279999999
 20
309.5898290000002
 42
0.00190699999999988
 10
219.4997509999996
 20
321.9999999999994
 42
-0.00822700000000005
 10
221.129837
 20
337.5252560000001
 42
-0.01512100000000009
 10
223.045368
 20
350.0884580000001
 42
-0.01851000000000001
 10
225.300552
 20
360.24193
 42
-0.03421499999999995
 10
227.989755
 20
368.25
 42
0.2811690000000017
 10
227.845032
 20
369.171357
 42
0.1767649999999986
 10
226.86771
 20
369.7269109999999
 42
0.03858799999999988
 10
224.308876
 20
369.9574239999999
 42
0.003176000000000091
 10
217.6069889999999
 20
370
 42
0.007776999999999995
 10
213.348279
 20
369.9337590000001
 42
0.01290800000000003
 10
209.762678
 20
369.7294440000001
 42
0.006516000000000069
 10
206.830748
 20
369.447799
 42
0.3826940000000321
  0
LWPOLYLINE
  5
52
100
AcDbEntity
  8
0
  6
ByLayer
 62
  256
370
   -1
100
AcDbPolyline
 90
   20
 70
    1
 43
0
 10
255.98933
 20
364.25
 42
0.03544400000000004
 10
251.610037
 20
357.81403
 42
0.01580799999999996
 10
246.737306
 20
348.7877010000001
 42
0.01554700000000004
 10
242.159008
 20
338.865272
 42
0.02021
 10
238.625393
 20
329.5
 42
0.02104699999999997
 10
236.557559
 20
322.262385
 42
0.01488300000000003
 10
234.824638
 20
313.987682
 42
0.008684999999999946
 10
233.575423
 20
306.2125070000001
 42
0.1756510000000007
 10
234.0563909999999
 20
303.908758
 42
0.1673810000000019
 10
235.059548
 20
303.0883180000001
 42
0.1984029999999937
 10
236.274665
 20
303.1343580000001
 42
0.144508999999999
 10
237.395105
 20
304.110381
 42
0.08712400000000062
 10
238.0754780000001
 20
305.75
 42
-0.03330099999999998
 10
242.5042119999999
 20
320.804872
 42
-0.02794400000000001
 10
249.115622
 20
336.076788
 42
-0.02780900000000001
 10
257.4314390000001
 20
350.599591
 42
-0.03198199999999992
 10
266.963408
 20
363.41329
 10
272.551088
 20
370
 10
266.540167
 20
370
 10
260.529245
 20
370
  0
LWPOLYLINE
  5
53
100
AcDbEntity
  8
0
  6
ByLayer
 62
  256
370
   -1
100
AcDbPolyline
 90
   30
 70
    1
 43
0
 10
274.5
 20
361.24242
 42
0.03268999999999998
 10
263.641019
 20
348.481605
 42
0.03064500000000004
 10
254.280409
 20
334.145112
 42
0.03227200000000002
 10
247.356555
 20
319.90753
 42
0.05988699999999996
 10
243.953456
 20
307.538186
 42
0.009165999999999961
 10
243.57654
 20
304.666763
 42
0.125291999999998
 10
243.7193450000001
 20
303.631669
 42
0.2545129999999987
 10
244.321141
 20
303.139047
 42
0.04691700000000006
 10
245.799738
 20
303
 42
0.1011560000000006
 10
247.242248
 20
303.294855
 42
0.1397239999999978
 10
248.263572
 20
304.122287
 42
0.06562399999999986
 10
249.1712319999999
 20
305.860718
 42
0.009410000000000094
 10
250.47937
 20
309.663663
 42
-0.009794999999999943
 10
251.474804
 20
312.550312
 42
-0.007157999999999953
 10
252.688448
 20
315.717112
 42
-0.007236000000000005
 10
253.925316
 20
318.685839
 42
-0.01582700000000001
 10
254.976545
 20
320.913663
 42
-0.03954399999999991
 10
261.431929
 20
331.4053249999999
 42
-0.02431700000000002
 10
270.549811
 20
342.697807
 42
-0.02372900000000003
 10
281.116655
 20
353.4796370000001
 42
-0.02903399999999996
 10
292.0000000000001
 20
362.461454
 42
0.001098999999999781
 10
295.1337769999996
 20
364.7661399999997
 42
0.001528999999999854
 10
297.9290619999992
 20
366.8446129999995
 42
0.0009310000000000932
 10
300.2738239999997
 20
368.6060729999999
 42
0.01962700000000003
 10
300.9499999999999
 20
369.158937
 42
0.631962999999946
 10
300.854702
 20
369.4890600000001
 42
0.01597299999999991
 10
298.845
 20
369.753104
 42
0.016294
 10
296.010259
 20
369.9407780000001
 42
0.008366000000000018
 10
292.45
 20
370.000566
 10
283
 20
370.001132
  0
LWPOLYLINE
  5
54
100
AcDbEntity
  8
0
  6
ByLayer
 62
  256
370
   -1
100
AcDbPolyline
 90
   22
 70
    1
 43
0
 10
207.5
 20
297.111697
 42
0.2211790000000043
 10
207.733943
 20
296.608714
 42
0.008905000000000116
 10
209.335938
 20
295.307163
 42
0.01417699999999989
 10
211.354947
 20
293.816035
 42
0.009407000000000042
 10
213.75
 20
292.216004
 42
-0.003445999999999991
 10
216.413485
 20
290.482206
 42
-0.002787000000000018
 10
219.248959
 20
288.585711
 42
-0.00281600000000005
 10
221.845334
 20
286.806701
 42
-0.007270000000000029
 10
223.693265
 20
285.484962
 10
227.38653
 20
282.761312
 10
235.4432650000001
 20
290.0715760000001
 42
0.001969999999999866
 10
238.5320609999998
 20
292.8964529999998
 42
0.003190999999999949
 10
241.1333339999995
 20
295.3252429999995
 42
0.0005530000000001218
 10
243.4112970000001
 20
297.484316
 42
0.2055959999999916
 10
243.5
 20
297.69092
 42
0.408855000000011
 10
243.375668
 20
297.817552999999
 42
0.0002900000000000706
 10
238.2124999999999
 20
297.9092079999991
 42
0.002683000000000016
 10
232.4020969999999
 20
297.977789
 42
0.001608999999999899
 10
225.5000000000001
 20
297.9999999999999
 42
0.004624999999999998
 10
218.598042
 20
297.9361489999999
 42
0.007701999999999935
 10
212.7875
 20
297.739061
 42
0.002368000000000012
 10
207.839115
 20
297.471357
 42
0.397099000000012
  0
LWPOLYLINE
  5
55
100
AcDbEntity
  8
0
  6
ByLayer
 62
  256
370
   -1
100
AcDbPolyline
 90
   26
 70
    1
 43
0
 10
170.75
 20
290.6837530000001
 42
0.00657100000000007
 10
168.3550059999999
 20
288.122337
 42
0.009813999999999993
 10
166.335938
 20
285.815925
 42
0.005288999999999999
 10
164.704443
 20
283.834567
 42
0.1712150000000029
 10
164.5
 20
283.255031
 42
0.2595830000000011
 10
164.733251
 20
282.836025
 42
0.02763899999999993
 10
165.748437
 20
282.281923
 42
0.02851299999999996
 10
167.121601
 20
281.72173
 42
0.01897200000000004
 10
168.75
 20
281.231538
 42
-0.002844999999999975
 10
170.685713
 20
280.7162860000001
 42
-0.001652000000000041
 10
173.004711
 20
280.0766190000001
 42
-0.001651000000000053
 10
175.324989
 20
279.4200740000001
 42
-0.00278499999999996
 10
177.266037
 20
278.852188
 10
181.532075
 20
277.578255
 10
187.468858
 20
284.0391279999999
 42
0.007629000000000094
 10
189.746863
 20
286.5954379999999
 42
0.0110119999999999
 10
191.6755699999999
 20
288.929398
 42
0.006940999999999904
 10
193.208098
 20
290.925766
 42
0.1507530000000004
 10
193.45282
 20
291.614142
 42
0.2984679999999981
 10
192.779682
 20
292.74278
 42
0.01837899999999991
 10
189.027937
 20
294.400957
 42
0.02593999999999997
 10
184.711463
 20
295.867589
 42
0.03566100000000007
 10
180.699758
 20
296.699095
 42
0.05709500000000013
 10
178.372047
 20
296.743365
 42
0.112654
 10
176.625555
 20
296.165734
 42
0.05849000000000015
 10
174.640438
 20
294.623099
 42
0.007087999999999992
  0
LWPOLYLINE
  5
56
100
AcDbEntity
  8
0
  6
ByLayer
 62
  256
370
   -1
100
AcDbPolyline
 90
   28
 70
    1
 43
0
 10
247.918562
 20
290.2177429999999
 42
0.006940999999999904
 10
242.4541600000001
 20
286.1021450000001
 42
0.01664900000000004
 10
238.552469
 20
282.864176
 42
0.01360400000000006
 10
235.836402
 20
280.317593
 42
0.3054500000000048
 10
235.635519
 20
279.313657
 42
0.1032710000000003
 10
236.7097039999994
 20
277.7476420000005
 42
0.001590000000000083
 10
244.6810709999988
 20
270.1624640000009
 42
0.0009640000000000014
 10
252.9129619999994
 20
262.4091230000008
 42
0.1906459999999988
 10
253.946953
 20
262.0000000000001
 42
0.1553599999999896
 10
254.4158129999999
 20
262.1492880000001
 42
0.005424000000000034
 10
255.9809849999999
 20
263.284163
 42
0.00963899999999991
 10
257.8102729999999
 20
264.696527
 42
0.006539999999999897
 10
259.8405079999999
 20
266.371617
 42
-0.01094799999999997
 10
262.057933
 20
268.168537
 42
-0.009547999999999987
 10
264.454034
 20
269.952682
 42
-0.009645000000000056
 10
266.682775
 20
271.482864
 42
-0.02787900000000004
 10
268.300885
 20
272.423611
 42
0.02397900000000007
 10
270.001721
 20
273.394792
 42
0.1031490000000008
 10
270.832189
 20
274.203858
 42
0.1516539999999973
 10
271.1026
 20
275.103889
 42
0.07367100000000028
 10
270.913888
 20
276.301994
 42
0.08066100000000001
 10
268.437063
 20
281.247877
 42
0.02897600000000007
 10
263.449418
 20
287.375632
 42
0.024525
 10
258.027982
 20
292.745661
 42
0.1897430000000005
 10
254.747119
 20
293.9677429999999
 42
0.1048079999999983
 10
253.777188
 20
293.7433869999999
 42
0.01651000000000003
 10
252.020544
 20
292.8528749999999
 42
0.017716
 10
249.992148
 20
291.643523
 42
0.01464699999999994
  0
LWPOLYLINE
  5
57
100
AcDbEntity
  8
0
  6
ByLayer
 62
  256
370
   -1
100
AcDbPolyline
 90
   26
 70
    1
 43
0
 10
195.084562
 20
282.639098
 42
0.004547000000000041
 10
192.9442359999999
 20
280.156045
 42
0.006977999999999979
 10
191.1404649999999
 20
277.963204
 42
0.002886000000000021
 10
189.642201
 20
276.066721
 42
0.1672479999999949
 10
189.5
 20
275.653493
 42
0.2525539999999949
 10
189.685775
 20
275.3091600000001
 42
0.006757999999999808
 10
191.189063
 20
274.350351
 42
0.01253399999999984
 10
193.0461589999999
 20
273.2643090000001
 42
0.00806100000000017
 10
195.25
 20
272.094508
 42
-0.009636999999999979
 10
197.704254
 20
270.781855
 42
-0.007480000000000069
 10
200.324935
 20
269.2626099999999
 42
-0.007572000000000003
 10
202.72735
 20
267.771522
 42
-0.01807500000000001
 10
204.451906
 20
266.574486
 10
207.903812
 20
263.988747
 10
213.654727
 20
270.2443729999999
 42
0.00366900000000004
 10
215.862312
 20
272.6813569999999
 42
0.00567099999999983
 10
217.7301689999998
 20
274.8223609999999
 42
0.002075000000000062
 10
219.3033349999999
 20
276.68299
 42
0.154026
 10
219.45282
 20
277.044514
 42
0.2712749999999968
 10
218.749728
 20
278.525008
 42
0.004909999999999945
 10
211.199712
 20
283.556206
 42
0.007293999999999935
 10
203.753564
 20
288.259875
 42
0.1380700000000005
 10
201.1244
 20
289
 42
0.203684000000016
 10
200.8305789999999
 20
288.875126
 42
0.001885999999999955
 10
199.162396
 20
287.131485
 42
0.00597399999999998
 10
197.258107
 20
285.07737
 42
0.003779999999999979
  0
LWPOLYLINE
  5
58
100
AcDbEntity
  8
0
  6
ByLayer
 62
  256
370
   -1
100
AcDbPolyline
 90
   28
 70
    1
 43
0
 10
156.531862
 20
273.383508
 42
0.02916800000000001
 10
153.83299
 20
269.921898
 42
0.03799200000000003
 10
151.809397
 20
266.451861
 42
0.0407470000000001
 10
150.671943
 20
263.524025
 42
0.2862450000000043
 10
151.060013
 20
262.113482
 42
0.07244299999999984
 10
151.707351
 20
261.670516
 42
0.007964999999999929
 10
153.339504
 20
260.903045
 42
0.00959400000000005
 10
155.325113
 20
260.0531730000001
 42
0.007619000000000152
 10
157.4999999999999
 20
259.2096240000002
 42
-0.000633999999999988
 10
159.7280360000001
 20
258.38108
 42
-0.0007060000000000504
 10
161.8744819999999
 20
257.576324
 42
-0.0006510000000000927
 10
163.7022570000001
 20
256.8853810000001
 42
-0.003728000000000072
 10
164.668448
 20
256.5104349999999
 42
0.2269220000000035
 10
165.743152
 20
256.584334
 42
0.06990699999999958
 10
167.0664889999999
 20
257.599829
 42
0.03701700000000011
 10
168.820032
 20
259.670419
 42
0.00876799999999987
 10
171.418448
 20
263.3791449999999
 42
0.005189000000000041
 10
173.365596
 20
266.330294
 42
0.007661000000000108
 10
175.007294
 20
268.963272
 42
0.003997999999999921
 10
176.337971
 20
271.212596
 42
0.1323179999999996
 10
176.5
 20
271.814147
 42
0.3129209999999964
 10
175.873584
 20
272.717055
 42
0.005789000000000009
 10
170.134277
 20
274.787035
 42
0.01205600000000008
 10
164.586464
 20
276.566959
 42
0.07171000000000008
 10
161.582593
 20
277
 42
0.1241549999999995
 10
160.652149
 20
276.7653450000001
 42
0.03184000000000008
 10
159.325335
 20
275.9376560000001
 42
0.0304290000000001
 10
157.885225
 20
274.767738
 42
0.02680100000000001
  0
LWPOLYLINE
  5
59
100
AcDbEntity
  8
0
  6
ByLayer
 62
  256
370
   -1
100
AcDbPolyline
 90
   22
 70
    1
 43
0
 10
221.101255
 20
267.102323
 42
0.009706000000000031
 10
218.890987
 20
264.7802819999999
 42
0.015105
 10
217.087419
 20
262.686719
 42
0.009282000000000092
 10
215.698364
 20
260.905606
 42
0.2689199999999968
 10
215.632559
 20
260.352323
 42
0.09088799999999926
 10
216.0064829999998
 20
259.7918100000002
 42
0.001737000000000082
 10
218.45704
 20
257.2800349999999
 42
0.004151999999999829
 10
221.3590199999996
 20
254.3748190000002
 42
0.00276200000000017
 10
224.7318339999999
 20
251.090349
 10
233.463668
 20
242.680699
 10
239.980245
 20
249.590349
 42
0.004425000000000056
 10
242.477988
 20
252.2861559999999
 42
0.006839000000000118
 10
244.5830439999999
 20
254.663381
 42
0.002682999999999905
 10
246.3400669999999
 20
256.7253969999999
 42
0.1762729999999999
 10
246.498411
 20
257.157331
 42
0.2211339999999996
 10
245.7553800000002
 20
258.7653749999999
 42
0.003264000000000046
 10
237.5530050000002
 20
265.620436
 42
0.003887999999999963
 10
229.3531520000001
 20
272.276533
 42
0.170132999999999
 10
227.288521
 20
273
 42
0.1915190000000119
 10
227.0534270000001
 20
272.9065209999999
 42
0.001131999999999974
 10
225.3261720000001
 20
271.2675570000001
 42
0.004487000000000037
 10
223.363822
 20
269.363155
 42
0.002813999999999991
  0
LWPOLYLINE
  5
5A
100
AcDbEntity
  8
0
  6
ByLayer
 62
  256
370
   -1
100
AcDbPolyline
 90
   24
 70
    1
 43
0
 10
178.441776
 20
260.92146
 42
0.009745000000000026
 10
174.502276
 20
255.38502
 42
0.2450200000000001
 10
174.289128
 20
253.592914
 42
0.155564
 10
175.5671879999999
 20
251.9825180000001
 42
0.003469000000000025
 10
183.9228719999999
 20
246.4559220000002
 42
0.01170200000000016
 10
186.626842
 20
244.7831160000001
 42
0.01875899999999994
 10
189.01663
 20
243.49889
 42
0.01327400000000003
 10
190.984197
 20
242.598802
 42
0.3211099999999927
 10
191.541845
 20
242.722872
 42
0.02308800000000016
 10
192.002711
 20
243.2878140000001
 42
0.0009299999999998758
 10
193.5740579999998
 20
245.4148589999997
 42
0.001631000000000031
 10
195.4226729999999
 20
247.9442239999998
 42
0.001153999999999993
 10
197.4825149999999
 20
250.7957969999999
 42
0.00524099999999994
 10
200.6504249999999
 20
255.301629
 42
0.05601799999999992
 10
201.7024
 20
257.272069
 42
0.1580110000000008
 10
201.789072
 20
258.602943
 42
0.1223970000000001
 10
201.098922
 20
259.890692
 42
0.0757580000000002
 10
198.974607
 20
261.6226610000001
 42
0.014076
 10
194.552335
 20
264.065202
 42
0.01580200000000009
 10
189.86616
 20
266.299346
 42
0.04186699999999999
 10
186.356541
 20
267.49987
 42
0.1142119999999999
 10
184.749052
 20
267.529559
 42
0.1217159999999994
 10
183.334017
 20
266.843903
 42
0.05286300000000009
 10
181.6112109999999
 20
265.073301
 42
0.007039999999999982
  0
LWPOLYLINE
  5
5B
100
AcDbEntity
  8
0
  6
ByLayer
 62
  256
370
   -1
100
AcDbPolyline
 90
   26
 70
    1
 43
0
 10
270.757688
 20
264.170597
 42
0.01606700000000003
 10
266.894261
 20
261.430417
 42
0.02113200000000003
 10
263.5649020000001
 20
258.675279
 42
0.01758699999999999
 10
261.019996
 20
256.213823
 42
0.1941080000000008
 10
260.5000000000001
 20
254.92484
 42
0.1393359999999938
 10
260.6839660000001
 20
254.277501
 42
0.009116999999999821
 10
261.748438
 20
252.6241020000001
 42
0.01267699999999996
 10
263.121954
 20
250.682131
 42
0.009095000000000141
 10
264.75
 20
248.580676
 42
-0.002219000000000059
 10
266.5307480000001
 20
246.346268
 42
-0.001961000000000045
 10
268.366881
 20
244.0024239999999
 42
-0.001969000000000041
 10
270.004791
 20
241.8774139999999
 42
-0.005990999999999879
 10
271.094702
 20
240.415827
 10
273.189404
 20
237.535409
 10
278.594702
 20
242.396473
 42
0.01352499999999993
 10
281.126562
 20
244.8004
 42
0.0395329999999998
 10
282.686366
 20
246.632696
 42
0.06065499999999988
 10
283.507035
 20
248.117046
 42
0.1382730000000004
 10
283.64522
 20
249.378769
 42
0.04765100000000007
 10
282.686486
 20
252.96904
 42
0.01414500000000002
 10
280.553227
 20
258.241544
 42
0.01154800000000001
 10
278.1816729999999
 20
263.333756
 42
0.09435000000000027
 10
276.641728
 20
265.371738
 42
0.07140999999999985
 10
275.527131
 20
266.122852
 42
0.1644019999999984
 10
274.536356
 20
266.246864
 42
0.08518899999999978
 10
273.25918
 20
265.749531
 42
0.01087100000000004
  0
LWPOLYLINE
  5
5C
100
AcDbEntity
  8
0
  6
ByLayer
 62
  256
370
   -1
100
AcDbPolyline
 90
   24
 70
    1
 43
0
 10
146.6096
 20
251.832091
 42
0.02170399999999996
 10
146.163186
 20
250.252153
 42
0.01192699999999996
 10
145.747886
 20
248.285554
 42
0.01186999999999998
 10
145.420916
 20
246.266234
 42
0.01857800000000001
 10
145.245869
 20
244.515199
 42
0.02934999999999986
 10
145.236757
 20
242.117699
 42
0.1381819999999998
 10
145.677897
 20
240.82772
 42
0.1110780000000004
 10
146.778029
 20
239.812222
 42
0.01585599999999992
 10
149.5
 20
238.351755
 42
0.007468999999999982
 10
151.298962
 20
237.492038
 42
0.009546999999999934
 10
152.982264
 20
236.756863
 42
0.007742000000000058
 10
154.406498
 20
236.192625
 42
0.07634000000000007
 10
155.035368
 20
236.059025
 42
0.2857199999999971
 10
155.988507
 20
236.57931
 42
0.004477999999999777
 10
159.1252249999998
 20
242.2458269999997
 42
0.007577000000000184
 10
162.008697
 20
247.764817
 42
0.1171069999999997
 10
162.5
 20
249.833722
 42
0.2774260000000021
 10
161.880409
 20
250.864456
 42
0.01902700000000006
 10
158.685267
 20
252.408943
 42
0.02629300000000005
 10
155.005778
 20
253.792426
 42
0.03714399999999993
 10
151.599972
 20
254.600005
 42
0.01900399999999992
 10
149.201969
 20
254.89052
 42
0.1483150000000011
 10
148.114371
 20
254.656518
 42
0.1634439999999989
 10
147.393312
 20
253.867406
 42
0.02439699999999998
  0
LWPOLYLINE
  5
5D
100
AcDbEntity
  8
0
  6
ByLayer
 62
  256
370
   -1
100
AcDbPolyline
 90
   30
 70
    1
 43
0
 10
205.317982
 20
248.042028
 42
0.008274000000000019
 10
203.531106
 20
245.929832
 42
0.007429999999999997
 10
201.748604
 20
243.683377
 42
0.007469000000000093
 10
200.209351
 20
241.620101
 42
0.0231160000000001
 10
199.257322
 20
240.166326
 10
197.533776
 20
237.248595
 10
201.595436
 20
234.433863
 42
-0.02234800000000006
 10
203.459246
 20
233.014922
 42
-0.01061899999999997
 10
205.734221
 20
231.033148
 42
-0.01050199999999999
 10
208.029122
 20
228.856887
 42
-0.01465399999999995
 10
209.981309
 20
226.809565
 42
0.02748700000000004
 10
212.778072
 20
224.023256
 42
0.06340499999999995
 10
215.219702
 20
222.345943
 42
0.1602300000000005
 10
216.782689
 20
222.097678
 42
0.3680239999999965
 10
217.5
 20
222.940229
 42
-0.1430249999999975
 10
217.6766380000001
 20
223.545106
 42
-0.005498999999999976
 10
218.96875
 20
225.520547
 42
-0.009446999999999942
 10
220.584231
 20
227.836208
 42
-0.006480000000000084
 10
222.5
 20
230.403971
 42
0.005684000000000038
 10
224.41593
 20
232.96343
 42
0.008422000000000074
 10
226.03125
 20
235.2532079999999
 42
0.004441000000000012
 10
227.339274
 20
237.212502
 42
0.1459649999999975
 10
227.5
 20
237.751334
 42
0.209796000000002
 10
226.689375
 20
239.598239
 42
0.005049999999999971
 10
219.579953
 20
246.005661
 42
0.005613999999999959
 10
212.3928730000001
 20
252.210475
 42
0.1770539999999999
 10
210.233157
 20
253
 42
0.1953080000000038
 10
209.873984
 20
252.854138
 42
0.004554000000000011
 10
208.550873
 20
251.543596
 42
0.009422000000000028
 10
207.021991
 20
249.9421450000001
 42
0.006169000000000054
  0
LWPOLYLINE
  5
5E
100
AcDbEntity
  8
0
  6
ByLayer
 62
  256
370
   -1
100
AcDbPolyline
 90
   26
 70
    1
 43
0
 10
245.842255
 20
243.748328
 42
0.004265999999999989
 10
241.45356
 20
239.413651
 42
0.06789300000000009
 10
240.193975
 20
237.748052
 42
0.2035380000000009
 10
240.050617
 20
236.453769
 42
0.08589599999999986
 10
240.84681
 20
234.8574
 42
-0.008409999999999935
 10
241.8177120000001
 20
233.4893379999999
 42
-0.001526999999999948
 10
243.5681980000001
 20
230.915924
 42
-0.001643999999999993
 10
245.5985659999999
 20
227.8899639999999
 42
-0.001489999999999994
 10
247.6770059999999
 20
224.7500000000001
 42
0.009001999999999972
 10
250.756881
 20
220.2456520000001
 42
0.040163
 10
252.812736
 20
217.795058
 42
0.1813880000000018
 10
253.913531
 20
217.285389
 42
0.4362770000000198
 10
254.5
 20
217.829587
 42
-0.1645230000000001
 10
254.678906
 20
218.35858
 42
-0.005051999999999967
 10
256.115625
 20
220.200806
 42
-0.009438999999999923
 10
257.892424
 20
222.347787
 42
-0.006333000000000017
 10
260
 20
224.736871
 42
0.01123099999999987
 10
262.1066819999999
 20
227.172619
 42
0.01536200000000022
 10
263.884375
 20
229.463631
 42
0.01209699999999976
 10
265.240417
 20
231.424707
 42
0.1462269999999996
 10
265.4999999999999
 20
232.293331
 42
0.1382729999999981
 10
264.911672
 20
234.380079
 42
0.009414999999999988
 10
261.56339
 20
239.621916
 42
0.01419400000000006
 10
257.950399
 20
244.729637
 42
0.04327700000000008
 10
255.118271
 20
247.890928
 10
252.571076
 20
250.281856
  0
LWPOLYLINE
  5
5F
100
AcDbEntity
  8
0
  6
ByLayer
 62
  256
370
   -1
100
AcDbPolyline
 90
   68
 70
    1
 43
0
 10
58.5
 20
244.715886
 42
0.05580899999999997
 10
53.73646400000001
 20
242.206552
 42
0.036797
 10
48.87840600000001
 20
238.358489
 42
0.03660800000000004
 10
44.60014599999998
 20
233.804104
 42
0.05235200000000007
 10
41.58163999999999
 20
229.160027
 42
0.07596700000000002
 10
37.51173300000003
 20
216.882881
 42
0.06061099999999994
 10
36.85028700000001
 20
202.934796
 42
0.05859199999999998
 10
39.58735599999999
 20
188.759258
 42
0.06102800000000004
 10
45.51972
 20
175.813527
 42
-0.005265999999999944
 10
46.66162999999999
 20
173.913131
 42
-0.007673000000000027
 10
47.624543
 20
172.212448
 42
-0.004241999999999987
 10
48.39948900000002
 20
170.764325
 42
-0.1213099999999998
 10
48.5
 20
170.356147
 42
-0.4519040000000106
 10
47.86235299999998
 20
169.794713
 42
-0.008859999999999986
 10
43.02479999999996
 20
170.499472
 42
-0.01776800000000001
 10
38.09815499999996
 20
171.487484
 42
-0.03680600000000001
 10
34.360012
 20
172.672689
 42
0.01495800000000008
 10
32.811296
 20
173.239236
 42
0.02220200000000009
 10
31.421736
 20
173.633377
 42
0.01859999999999997
 10
30.291049
 20
173.856453
 42
0.2402149999999948
 10
29.894331
 20
173.727664
 42
0.3322130000000005
 10
29.63381099999998
 20
171.9299280000001
 42
0.01145000000000004
 10
33.37792799999995
 20
165.397821
 42
0.02035400000000006
 10
37.61625700000002
 20
158.985876
 42
0.0485369999999999
 10
41.38453500000001
 20
154.704773
 42
0.06062699999999988
 10
48.32402799999997
 20
149.635325
 42
0.04222199999999992
 10
57.16970999999994
 20
145.627468
 42
0.03823100000000013
 10
67.526768
 20
142.821204
 42
0.03056499999999995
 10
78.99999999999994
 20
141.355487
 42
0.01652699999999996
 10
84.21336199999998
 20
141.183905
 42
0.02141600000000001
 10
88.99195700000001
 20
141.389394
 42
0.01733699999999985
 10
94.45537199999998
 20
142.050782
 42
0.0066479999999999
 10
101.9999999999999
 20
143.333749
 42
-0.00241900000000009
 10
107.779885
 20
144.366999
 42
-0.00241900000000009
 10
113.5695410000001
 20
145.3442920000001
 42
-0.002364000000000059
 10
118.631807
 20
146.1490780000001
 42
-0.009585999999999933
 10
121.726096
 20
146.565451
 42
0.0215499999999999
 10
125.068666
 20
147.096919
 42
0.06963999999999984
 10
127.183746
 20
147.844695
 42
0.06749799999999993
 10
129.047382
 20
149.15745
 42
0.01940700000000011
 10
131.542767
 20
151.662223
 42
0.01405899999999983
 10
133.086112
 20
153.434014
 42
0.02048799999999981
 10
134.3352849999999
 20
155.085737
 42
0.01666499999999994
 10
135.239454
 20
156.486438
 42
0.2188040000000016
 10
135.304998
 20
157.085005
 42
0.2144970000000031
 10
134.837408
 20
157.592657
 42
0.004419000000000031
 10
131.574787
 20
158.952979
 42
0.009539000000000041
 10
127.655639
 20
160.460057
 42
0.006173000000000069
 10
123.0674839999999
 20
162.06083
 42
-0.04165499999999996
 10
98.49475799999999
 20
172.641848
 42
-0.07103700000000022
 10
80.48926499999995
 20
185.816947
 42
-0.08494199999999999
 10
69.04137499999997
 20
201.591508
 42
-0.09166199999999995
 10
63.87593699999998
 20
219.864916
 42
-0.03879199999999992
 10
63.793311
 20
225.326134
 42
-0.07224400000000002
 10
64.69972
 20
229.649618
 42
-0.07647599999999996
 10
66.75145999999999
 20
233.37383
 42
-0.04855300000000004
 10
70.14585
 20
236.993914
 42
-0.03064399999999998
 10
72.24652200000001
 20
238.621782
 42
-0.07280200000000001
 10
74.01993299999999
 20
239.48424
 42
-0.06060399999999996
 10
76.15855000000001
 20
239.887211
 42
-0.01629699999999997
 10
79.61812999999995
 20
240
 42
0.0194230000000001
 10
84.19765199999999
 20
240.177966
 42
0.3402809999999944
 10
85.234525
 20
241.112746
 42
0.3118009999999989
 10
84.633841
 20
242.445855
 42
0.017841
 10
80.48814300000001
 20
244.75
 42
0.06855500000000009
 10
75.739684
 20
246.401473
 42
0.04988200000000004
 10
70.167913
 20
246.94999
 42
0.04715899999999993
 10
64.25752300000001
 20
246.382042
 42
0.04585500000000001
  0
LWPOLYLINE
  5
60
100
AcDbEntity
  8
0
  6
ByLayer
 62
  256
370
   -1
100
AcDbPolyline
 90
   22
 70
    1
 43
0
 10
165.183054
 20
239.577849
 42
0.009814999999999977
 10
163.773041
 20
237.360988
 42
0.01303800000000001
 10
162.584234
 20
235.288517
 42
0.01035299999999998
 10
161.681515
 20
233.528926
 42
0.1154069999999994
 10
161.507954
 20
232.765384
 42
0.2163110000000002
 10
162.082146
 20
231.521096
 42
0.003443000000000112
 10
168.1425940000001
 20
226.359132
 42
0.006460000000000098
 10
174.0161349999999
 20
221.553784
 42
0.08378700000000036
 10
176.480238
 20
220.189672
 42
0.3217609999999931
 10
176.990696
 20
220.338772
 42
0.009109000000000055
 10
178.442122
 20
222.264787
 42
0.01529799999999995
 10
180.109613
 20
224.717995
 42
0.009512000000000112
 10
181.920819
 20
227.689672
 10
186.47967
 20
235.5
 10
184.277269
 20
237.332418
 42
0.02958999999999999
 10
181.407278
 20
239.446118
 42
0.01674900000000001
 10
177.706851
 20
241.675025
 42
0.01626999999999996
 10
174.044459
 20
243.5636049999999
 42
0.05068699999999991
 10
171.433054
 20
244.4940549999999
 42
0.08989499999999978
 10
169.899597
 20
244.588765
 42
0.1380899999999986
 10
168.677993
 20
244.0836619999999
 42
0.06924399999999972
 10
167.361446
 20
242.715065
 42
0.01040500000000007
  0
LWPOLYLINE
  5
61
100
AcDbEntity
  8
0
  6
ByLayer
 62
  256
370
   -1
100
AcDbPolyline
 90
   70
 70
    1
 43
0
 10
364.673484
 20
237.839413
 42
-0.04144900000000001
 10
368.389722
 20
233.851498
 42
-0.07666000000000005
 10
370.563077
 20
230.004783
 42
-0.06631400000000012
 10
371.656717
 20
225.309107
 42
-0.02442700000000025
 10
371.980702
 20
218.4999999999999
 42
-0.01099899999999982
 10
371.8665889999999
 20
213.602569
 42
-0.03071199999999969
 10
371.500789
 20
210.187249
 42
-0.03781100000000032
 10
370.774063
 20
207.264335
 42
-0.02557200000000002
 10
369.5305049999999
 20
204.062042
 42
-0.03989900000000023
 10
366.514038
 20
198.557423
 42
-0.02459400000000019
 10
362.159083
 20
192.587389
 42
-0.02291300000000011
 10
356.810784
 20
186.553375
 42
-0.02094400000000008
 10
350.776137
 20
180.842146
 42
-0.041195
 10
343.2916389999999
 20
175.3431899999999
 42
-0.01894699999999981
 10
332.7454270000001
 20
169.396742
 42
-0.01894100000000014
 10
321.788714
 20
164.2700349999999
 42
-0.04157100000000001
 10
313
 20
161.389974
 42
0.007649999999999989
 10
310.251972
 20
160.691574
 42
0.01027799999999993
 10
307.786774
 20
159.970049
 42
0.007662000000000003
 10
305.760593
 20
159.297221
 42
0.1001540000000005
 10
305.082633
 20
158.894898
 42
0.3370109999999975
 10
304.967625
 20
158.281914
 42
0.02871500000000011
 10
305.817862
 20
156.804024
 42
0.0277190000000001
 10
307.192988
 20
154.937293
 42
0.01482100000000017
 10
309.0826329999999
 20
152.782633
 42
0.01431900000000005
 10
312.05868
 20
149.763672
 42
0.05992900000000018
 10
314.09432
 20
148.2347020000001
 42
0.07158899999999978
 10
316.252705
 20
147.368717
 42
0.02603699999999982
 10
319.5
 20
146.755775
 42
-0.01820700000000004
 10
322.496567
 20
146.238597
 42
-0.004213000000000098
 10
327.496875
 20
145.1427620000001
 42
-0.004344999999999958
 10
333.2367190000001
 20
143.781498
 42
-0.004238000000000016
 10
338.9999999999999
 20
142.30975
 42
0.02162799999999993
 10
351.1523409999999
 20
139.652802
 42
0.03117699999999993
 10
362.088453
 20
138.448629
 42
0.03588600000000008
 10
371.619425
 20
138.681285
 42
0.05882999999999989
 10
379.5
 20
140.391241
 42
0.03628500000000009
 10
385.1829609999999
 20
142.81901
 42
0.03223100000000018
 10
390.69553
 20
146.128742
 42
0.03334899999999991
 10
395.5060659999999
 20
149.954225
 42
0.05079599999999997
 10
399.0654029999999
 20
153.925163
 42
0.03333899999999994
 10
401.857339
 20
158.352396
 42
0.01649199999999995
 10
404.826792
 20
164.3009139999998
 42
0.007854000000000135
 10
407.4574180000001
 20
170.28278
 42
0.3049589999999953
 10
407.191195
 20
171.642139
 42
0.2711050000000048
 10
406.7448
 20
171.758939
 42
0.01332000000000007
 10
405.230802
 20
171.290265
 42
0.01851999999999998
 10
403.389502
 20
170.58903
 42
0.01199599999999988
 10
401.312526
 20
169.649263
 42
-0.04648200000000006
 10
396.512692
 20
167.864476
 42
-0.02497699999999997
 10
390.333452
 20
166.526985
 42
-0.01686499999999994
 10
384.538453
 20
165.772364
 42
-0.4425480000000049
 10
383.5
 20
166.715846
 42
-0.1297260000000034
 10
383.630756
 20
167.211332
 42
-0.02844599999999998
 10
384.11253
 20
167.958192
 42
-0.027796
 10
384.786989
 20
168.783165
 42
-0.02357999999999989
 10
385.585209
 20
169.577113
 42
0.04127800000000003
 10
388.5237119999999
 20
172.714203
 42
0.01996999999999993
 10
391.7677689999999
 20
177.1608859999999
 42
0.0199739999999999
 10
394.680649
 20
181.907604
 42
0.03685200000000005
 10
396.595262
 20
186.008589
 42
0.06064300000000013
 10
399.699102
 20
198.583971
 42
0.07213200000000014
 10
399.4161359999999
 20
210.794423
 42
0.07548699999999997
 10
395.73833
 20
221.972191
 42
0.07579100000000008
 10
388.911888
 20
231.537268
 42
0.04256099999999997
 10
384.514888
 20
235.351795
 42
0.05372400000000011
 10
379.850034
 20
238.036156
 42
0.05128700000000005
 10
374.545224
 20
239.749122
 42
0.03420300000000001
 10
368.218236
 20
240.650258
 10
361
 20
241.178825
  0
LWPOLYLINE
  5
62
100
AcDbEntity
  8
0
  6
ByLayer
 62
  256
370
   -1
100
AcDbPolyline
 90
   14
 70
    1
 43
0
 10
280.159918
 20
234.163771
 10
276.390832
 20
230.303876
 10
278.890387
 20
224.651938
 42
0.01620600000000008
 10
280.761815
 20
220.765859
 42
0.135893
 10
282.079068
 20
219.355668
 42
0.336564999999998
 10
283.287996
 20
219.476946
 42
0.0827139999999997
 10
284.58781
 20
221.164074
 42
0.1001360000000003
 10
285.5039770000001
 20
224.214269
 42
0.01733999999999985
 10
285.8520120000001
 20
230.2596219999999
 42
0.01106800000000014
 10
285.8563010000001
 20
236.431015
 42
0.3126590000000087
 10
284.964502
 20
237.660587
 42
0.2226259999999972
 10
284.361043
 20
237.599509
 42
0.022546
 10
283.126013
 20
236.783167
 42
0.02482699999999993
 10
281.679149
 20
235.616039
 42
0.01721899999999998
  0
LWPOLYLINE
  5
63
100
AcDbEntity
  8
0
  6
ByLayer
 62
  256
370
   -1
100
AcDbPolyline
 90
   16
 70
    1
 43
0
 10
145.5
 20
230.901129
 42
0.06550000000000016
 10
145.8565
 20
228.191428
 42
0.02903699999999992
 10
146.992216
 20
224.760662
 42
0.02185600000000009
 10
148.39116
 20
221.640174
 42
0.2836720000000012
 10
149.428729
 20
221
 42
0.2743839999999997
 10
150.211073
 20
221.464279
 42
0.0111159999999999
 10
151.784292
 20
224.5054919999999
 42
0.01704900000000015
 10
153.157989
 20
227.572801
 42
0.09704600000000022
 10
153.5
 20
229.318319
 42
0.219137999999998
 10
152.973351
 20
230.462253
 42
0.02801199999999996
 10
150.766491
 20
232.146455
 42
0.03165900000000001
 10
148.32147
 20
233.587478
 42
0.1178590000000005
 10
146.595708
 20
234
 42
0.2458780000000003
 10
146.175189
 20
233.779901
 42
0.06673699999999975
 10
145.821864
 20
233.089707
 42
0.05142900000000001
 10
145.579843
 20
232.088128
 42
0.03359399999999998
  0
LWPOLYLINE
  5
64
100
AcDbEntity
  8
0
  6
ByLayer
 62
  256
370
   -1
100
AcDbPolyline
 90
   26
 70
    1
 43
0
 10
230.560018
 20
226.065011
 42
0.009649000000000055
 10
228.866045
 20
224.15754
 42
0.006387000000000032
 10
226.991804
 20
221.905602
 42
0.006428000000000047
 10
225.226098
 20
219.669949
 42
0.01240500000000003
 10
223.881135
 20
217.828477
 42
0.01271500000000001
 10
222.29019
 20
215.403274
 42
0.08688899999999998
 10
221.759556
 20
214.08171
 42
0.1412970000000001
 10
221.841094
 20
212.955321
 42
0.0534269999999999
 10
222.548146
 20
211.527335
 42
0.01895699999999992
 10
225.7657060000001
 20
206.868516
 42
0.00765999999999988
 10
230.4882190000002
 20
200.7539549999998
 42
0.00214999999999986
 10
235.546974
 20
194.4631230000003
 42
0.2260439999999972
 10
236.519039
 20
194
 42
0.2103349999999932
 10
236.9926859999999
 20
194.2084730000001
 42
0.02380599999999974
 10
237.759996
 20
195.13074
 42
0.02557100000000019
 10
238.602405
 20
196.374839
 42
0.01808499999999992
 10
239.423133
 20
197.849328
 42
-0.018058
 10
240.431168
 20
199.660558
 42
-0.008124999999999957
 10
241.877399
 20
201.966216
 42
-0.008030999999999957
 10
243.485521
 20
204.354896
 42
-0.01084499999999998
 10
245.020434
 20
206.458827
 10
248.653955
 20
211.218998
 10
242.851242
 20
219.6743980000001
 42
0.005029999999999927
 10
237.4642410000001
 20
227.3572289999999
 42
0.1179820000000002
 10
235.470355
 20
229.086152
 42
0.2961479999999988
 10
233.618394
 20
228.90712
 42
0.03829400000000004
  0
LWPOLYLINE
  5
65
100
AcDbEntity
  8
0
  6
ByLayer
 62
  256
370
   -1
100
AcDbPolyline
 90
   36
 70
    1
 43
0
 10
187.07104
 20
221.666067
 42
0.005457000000000043
 10
185.319649
 20
218.786531
 42
0.007926999999999939
 10
183.842743
 20
216.205106
 42
0.004470999999999974
 10
182.657121
 20
214.008173
 42
0.1220859999999992
 10
182.5
 20
213.374275
 42
0.1662739999999981
 10
182.69455
 20
212.805421
 42
0.01014700000000015
 10
183.83911
 20
211.388188
 42
0.01422999999999976
 10
185.3122349999999
 20
209.7358130000001
 42
0.009993000000000035
 10
187.058672
 20
207.958208
 42
-0.01119799999999994
 10
189.098011
 20
205.872447
 42
-0.006391000000000042
 10
191.471722
 20
203.267411
 42
-0.00637999999999998
 10
193.79449
 20
200.583698
 42
-0.01051300000000006
 10
195.680282
 20
198.25
 42
0.009573000000000101
 10
197.29958
 20
196.238371
 42
0.01412800000000015
 10
198.80281
 20
194.542188
 42
0.009288999999999936
 10
200.103557
 20
193.20609
 42
0.1975689999999983
 10
200.604764
 20
193
 42
0.2366990000000099
 10
201.059125
 20
193.22786
 42
0.0135999999999999
 10
201.985411
 20
194.542188
 42
0.01836800000000014
 10
203.025256
 20
196.238277
 42
0.01226099999999993
 10
204.095012
 20
198.25
 42
-0.01047199999999995
 10
205.280669
 20
200.499052
 42
-0.007937000000000105
 10
206.671422
 20
202.916986
 42
-0.008033000000000054
 10
208.049804
 20
205.145582
 42
-0.01846800000000004
 10
209.174398
 20
206.765273
 42
0.02982000000000009
 10
210.158626
 20
208.253794
 42
0.04491199999999985
 10
210.813476
 20
209.663647
 42
0.05400099999999965
 10
211.11579
 20
210.914328
 42
0.109587
 10
211.026265
 20
211.917247
 42
0.1194580000000001
 10
209.404885
 20
214.5909689999999
 42
0.006768999999999969
 10
202.444911
 20
221.3987729999999
 42
0.005068000000000009
 10
195.162074
 20
228.1925750000001
 42
0.1872779999999999
 10
193.082
 20
229
 42
0.2089280000000002
 10
192.302877
 20
228.659579
 42
0.015089
 10
190.722313
 20
226.845657
 42
0.01912100000000009
 10
188.926945
 20
224.475845
 42
0.01318900000000006
  0
LWPOLYLINE
  5
66
100
AcDbEntity
  8
0
  6
ByLayer
 62
  256
370
   -1
100
AcDbPolyline
 90
   20
 70
    1
 43
0
 10
155.699266
 20
219.473249
 42
0.05090499999999994
 10
153.805821
 20
214.294672
 42
0.1237229999999998
 10
153.79526
 20
210.255531
 42
0.1014269999999999
 10
155.734722
 20
206.196508
 42
0.02766099999999998
 10
160.35225
 20
200.75
 42
0.01025599999999985
 10
161.770707
 20
199.313368
 42
0.0146109999999999
 10
163.092453
 20
198.101562
 42
0.01051399999999975
 10
164.227551
 20
197.161316
 42
0.1692789999999951
 10
164.690376
 20
197
 42
0.2777499999999986
 10
165.6386350000001
 20
197.570791
 42
0.003648999999999908
 10
168.952859
 20
203.9396809999998
 42
0.006428000000000158
 10
172.0071480000001
 20
210.1095900000001
 42
0.112169
 10
172.5
 20
212.278869
 42
0.2042639999999986
 10
171.579619
 20
214.437793
 42
0.01432599999999999
 10
166.597593
 20
218.952035
 42
0.01578200000000002
 10
161.379169
 20
223.137276
 42
0.1625099999999999
 10
158.794895
 20
224
 42
0.228168999999992
 10
158.33538
 20
223.77879
 42
0.01842100000000001
 10
157.515804
 20
222.670267
 42
0.02192799999999999
 10
156.606993
 20
221.207585
 42
0.01496500000000003
  0
LWPOLYLINE
  5
67
100
AcDbEntity
  8
0
  6
ByLayer
 62
  256
370
   -1
100
AcDbPolyline
 90
   18
 70
    1
 43
0
 10
261.352585
 20
214.85174
 10
255.70517
 20
207.786109
 10
258.487026
 20
201.6430540000001
 42
-0.002560000000000016
 10
259.594927
 20
199.1628040000001
 42
-0.002969000000000046
 10
260.6233130000001
 20
196.79046
 42
-0.00264699999999995
 10
261.471223
 20
194.772644
 42
-0.01758499999999997
 10
261.853056
 20
193.75
 42
0.174968999999999
 10
262.869122
 20
192.463841
 42
0.2514289999999995
 10
264.288304
 20
192.374164
 42
0.08449399999999997
 10
266.4540890000001
 20
193.849909
 42
0.01364699999999996
 10
270.0436759999999
 20
197.501832
 42
0.01316600000000004
 10
275.2611999999999
 20
203.412783
 42
0.1125730000000001
 10
276.858383
 20
206.536644
 42
0.1478509999999995
 10
276.716651
 20
209.67407
 42
0.02797199999999997
 10
274.488505
 20
215.023761
 42
0.02906300000000006
 10
271.404475
 20
220.554277
 42
0.2598980000000008
 10
269.044956
 20
221.829386
 42
0.2051699999999997
 10
266.324978
 20
220.621829
 42
0.01848999999999999
  0
LWPOLYLINE
  5
68
100
AcDbEntity
  8
0
  6
ByLayer
 62
  256
370
   -1
100
AcDbPolyline
 90
   18
 70
    1
 43
0
 10
175.567596
 20
199.858399
 42
0.01389099999999999
 10
172.77823
 20
194.706544
 42
0.07720899999999986
 10
171.808407
 20
191.72363
 42
0.1519659999999999
 10
172.112306
 20
189.588627
 42
0.1097760000000001
 10
173.599246
 20
187.679401
 42
0.03718799999999986
 10
174.982754
 20
186.69985
 42
0.00874899999999996
 10
177.438451
 20
185.279925
 42
0.008963999999999866
 10
180.327697
 20
183.743205
 42
0.008712000000000096
 10
183.297608
 20
182.295841
 42
0.02077500000000002
 10
188.659618
 20
180.063478
 42
0.09652799999999997
 10
191.953868
 20
179.530158
 42
0.2263580000000017
 10
193.764863
 20
180.466477
 42
0.1635380000000003
 10
194.5
 20
182.653961
 42
0.1327250000000003
 10
193.715993
 20
185.555439
 42
0.01271099999999994
 10
189.832684
 20
191.843551
 42
0.017304
 10
185.425325
 20
198.105954
 42
0.03975799999999995
 10
181.59528
 20
202.408716
 10
178.664274
 20
205.216798
  0
LWPOLYLINE
  5
69
100
AcDbEntity
  8
0
  6
ByLayer
 62
  256
370
   -1
100
AcDbPolyline
 90
   22
 70
    1
 43
0
 10
213.122855
 20
196.75
 42
0.005572000000000047
 10
208.987913
 20
189.1139669999999
 42
0.08204199999999996
 10
208.026519
 20
186.226754
 42
0.1515190000000001
 10
208.373136
 20
183.819948
 42
0.03169399999999986
 10
210.467095
 20
180.051279
 10
213.708491
 20
175
 10
220.069062
 20
175
 42
0.02555800000000004
 10
224.451855
 20
175.224173
 42
0.13609
 10
226.664148
 20
176.089185
 42
0.136925000000001
 10
228.107916
 20
177.967253
 42
0.02599000000000008
 10
229.525357
 20
182.088415
 42
0.07205400000000008
 10
229.757704
 20
183.793418
 42
0.07358900000000011
 10
229.493382
 20
185.481351
 42
0.0472950000000001
 10
228.620259
 20
187.56525
 42
0.01260099999999998
 10
226.840577
 20
190.699029
 42
0.009434000000000074
 10
223.7046
 20
195.694847
 42
0.01753399999999994
 10
220.946838
 20
199.603148
 42
0.01438600000000005
 10
218.629627
 20
202.478496
 42
0.219345999999998
 10
217.49805
 20
203
 42
0.2338999999999878
 10
217.005363
 20
202.756181
 42
0.01024299999999995
 10
215.841517
 20
201.164062
 42
0.01554800000000006
 10
214.519744
 20
199.145077
 42
0.01028000000000003
  0
LWPOLYLINE
  5
6A
100
AcDbEntity
  8
0
  6
ByLayer
 62
  256
370
   -1
100
AcDbPolyline
 90
   22
 70
    1
 43
0
 10
249.325388
 20
197.630411
 42
0.01196899999999994
 10
244.272317
 20
190.307445
 42
0.05923599999999991
 10
242.045068
 20
185.831561
 42
0.1163640000000001
 10
241.673839
 20
182.522394
 42
0.128551
 10
242.853626
 20
179.531065
 42
0.05775999999999985
 10
243.792839
 20
178.516326
 42
0.193109
 10
244.635457
 20
178.23042
 42
0.09156700000000009
 10
245.825373
 20
178.51787
 42
0.007796000000000088
 10
248.687621
 20
179.84878
 42
0.02076000000000004
 10
250.573262
 20
180.860269
 42
0.01621900000000003
 10
252.534437
 20
182.107119
 42
0.01650200000000012
 10
254.286792
 20
183.389466
 42
0.03798400000000002
 10
255.491581
 20
184.491039
 10
257.815172
 20
186.964388
 10
255.045068
 20
193.482194
 42
0.00791700000000002
 10
253.937219
 20
195.978319
 42
0.01254400000000007
 10
252.901421
 20
198.076163
 42
0.006477000000000011
 10
251.978018
 20
199.779897
 42
0.2849650000000036
 10
251.637482
 20
199.968575
 42
0.1673670000000048
 10
251.298738
 20
199.832917
 42
0.01960999999999994
 10
250.695343
 20
199.268777
 42
0.02177200000000007
 10
250.013282
 20
198.516153
 42
0.01619499999999998
  0
LWPOLYLINE
  5
6B
100
AcDbEntity
  8
0
  6
ByLayer
 62
  256
370
   -1
100
AcDbPolyline
 90
   28
 70
    1
 43
0
 10
207.942237
 20
163.906537
 42
0.1863259999999984
 10
207.851057
 20
163.4197050000001
 42
0.005238000000000154
 10
208.268946
 20
161.28999
 42
0.01002900000000018
 10
208.8452439999999
 20
158.7637840000001
 42
0.006644000000000108
 10
209.6032259999999
 20
155.887101
 42
-0.03170100000000004
 10
212.018362
 20
144.417956
 42
-0.01263999999999995
 10
213.924935
 20
128.456513
 42
-0.009745999999999993
 10
215.4861330000001
 20
107.4302529999999
 42
-0.004263000000000037
 10
216.774486
 20
79.49999999999967
 42
0.009072999999999784
 10
216.96496
 20
76.08469600000004
 42
0.07044899999999982
 10
217.304085
 20
74.528189
 42
0.1764670000000009
 10
217.939842
 20
73.780286
 42
0.1299580000000004
 10
219
 20
73.49999999999999
 42
0.3056409999999993
 10
220.198457
 20
74.30808199999998
 42
0.06368400000000018
 10
220.877814
 20
76.89193299999999
 42
0.01928499999999998
 10
221.3759130000003
 20
82.32981099999984
 42
0.001375999999999964
 10
222.1354620000006
 20
97.49999999999955
 42
-0.006696000000000009
 10
223.3659740000001
 20
117.7581950000002
 42
-0.01720699999999996
 10
224.954385
 20
132.344756
 42
-0.02259499999999995
 10
227.205011
 20
144.170924
 42
-0.02461300000000008
 10
230.465797
 20
155.40655
 42
0.01514299999999984
 10
232.403598
 20
161.6401849999999
 42
0.283591000000001
 10
231.856803
 20
163.53059
 42
0.179581
 10
229.707443
 20
164.392034
 42
0.006052000000000065
 10
220.416345
 20
164.519436
 42
0.004901000000000004
 10
215.756268
 20
164.481257
 42
0.007775000000000055
 10
211.767713
 20
164.347415
 42
0.002805999999999998
 10
208.368375
 20
164.1612649999999
 42
0.2438969999999945
  0
LWPOLYLINE
  5
6C
100
AcDbEntity
  8
0
  6
ByLayer
 62
  256
370
   -1
100
AcDbPolyline
 90
  102
 70
    1
 43
0
 10
292.5
 20
152.369661
 42
0.027865
 10
279.216461
 20
143.997399
 42
0.03011100000000005
 10
267.303288
 20
134.3971
 42
0.03049500000000001
 10
256.763354
 20
123.556141
 42
0.03018499999999995
 10
247.581626
 20
111.478099
 42
0.018505
 10
242.447543
 20
103.153604
 42
0.02315000000000001
 10
238.343082
 20
95.06027899999998
 42
0.02290600000000004
 10
234.971489
 20
86.55103
 42
0.01749100000000003
 10
232.044917
 20
76.97047700000002
 42
0.02085
 10
229.311401
 20
64.73485199999999
 42
0.009800999999999933
 10
226.7529129999998
 20
48.72871299999977
 42
0.002765999999999952
 10
224.5388849999999
 20
32.22682699999996
 42
0.4521729999999963
 10
225.618108
 20
31
 42
-0.04920899999999993
 10
225.991595
 20
30.96315299999999
 42
-0.01403599999999999
 10
226.560163
 20
30.833173
 42
-0.01398900000000008
 10
227.197092
 20
30.649474
 42
-0.01440999999999994
 10
227.816405
 20
30.432079
 42
0.2786679999999993
 10
228.601568
 20
30.57263500000001
 42
0.1176239999999992
 10
229.245079
 20
31.48181500000001
 42
0.04546300000000007
 10
229.834775
 20
33.45144299999997
 42
0.008382999999999861
 10
230.526259
 20
37.18207899999989
 42
-0.04828700000000001
 10
235.53611
 20
55.78920600000001
 42
-0.05684500000000003
 10
243.846515
 20
72.02559000000002
 42
-0.06135100000000003
 10
254.928015
 20
84.93928300000002
 42
-0.07539199999999996
 10
268.126077
 20
93.74859000000001
 42
-0.02261700000000008
 10
271.761334
 20
95.254931
 42
-0.04531200000000001
 10
274.765627
 20
96.04463499999999
 42
-0.03378099999999999
 10
278.385437
 20
96.40396899999998
 42
-0.007852000000000031
 10
284.5
 20
96.49999999999997
 42
-0.007984999999999994
 10
290.307825
 20
96.40724499999999
 42
-0.028908
 10
293.987927
 20
96.07610400000002
 42
-0.04054799999999996
 10
296.916923
 20
95.39464599999998
 42
-0.03053199999999998
 10
300
 20
94.19638599999999
 42
-0.04881099999999994
 10
306.101899
 20
90.62707799999997
 42
-0.07730799999999986
 10
310.394734
 20
86.37069899999997
 42
-0.08531199999999994
 10
312.917692
 20
81.34357200000001
 42
-0.07386600000000004
 10
313.785714
 20
75.5
 42
-0.0436080000000002
 10
313.4591770000001
 20
71.76313599999999
 42
-0.04707499999999998
 10
312.489633
 20
68.23804
 42
-0.05093400000000001
 10
310.985339
 20
65.23408700000002
 42
-0.07816599999999976
 10
309.065937
 20
63.05472300000005
 42
0.1917460000000033
 10
308.0900589999999
 20
61.264897
 42
0.3998449999999977
 10
308.958577
 20
60.09950899999999
 42
0.09001200000000022
 10
312.594074
 20
60.13568000000001
 42
0.02480100000000011
 10
318.172446
 20
61.49536700000004
 42
0.06202300000000004
 10
322.450821
 20
63.36792200000002
 42
0.03111099999999992
 10
327.3332159999999
 20
66.698486
 42
0.02622900000000009
 10
331.512098
 20
70.31439400000001
 42
0.204024999999999
 10
332.5
 20
72.634647
 42
-0.1351490000000002
 10
333.4894619999999
 20
76.22841300000002
 42
-0.02985300000000002
 10
337.116059
 20
81.56333900000001
 42
-0.03183200000000003
 10
341.531303
 20
86.59377899999998
 42
-0.0775409999999999
 10
345.501302
 20
89.50067300000001
 42
-0.04814400000000002
 10
347.061394
 20
90.125668
 42
-0.009320999999999956
 10
349.995289
 20
90.92559199999997
 42
-0.009835
 10
353.465652
 20
91.73035399999999
 42
-0.008942999999999944
 10
357.076453
 20
92.42595
 42
0.02951099999999986
 10
364.901925
 20
94.270051
 42
0.03620800000000004
 10
371.92056
 20
96.93452299999998
 42
0.04043100000000007
 10
377.451968
 20
100.072464
 42
0.1070029999999998
 10
380.571632
 20
103.349767
 42
0.04433199999999993
 10
381.308258
 20
104.840444
 42
0.02618899999999996
 10
381.92936
 20
106.727386
 42
0.0260590000000001
 10
382.355318
 20
108.691958
 42
0.04013599999999997
 10
382.496262
 20
110.424314
 10
382.5
 20
114.348628
 10
380.25
 20
112.299277
 42
-0.04521900000000013
 10
376.740939
 20
109.640602
 42
-0.08670900000000005
 10
373.477464
 20
108.318081
 42
-0.08274100000000009
 10
369.85587
 20
108.147988
 42
-0.03819299999999992
 10
365.214195
 20
109.062467
 42
-0.07188399999999989
 10
362.928926
 20
110.06768
 42
-0.03092099999999999
 10
360.2114779999999
 20
112.006613
 42
-0.02182
 10
356.7986789999999
 20
115.0313580000001
 42
-0.007894000000000024
 10
352.2141949999999
 20
119.6086270000001
 42
0.009384999999999956
 10
347.226989
 20
124.558381
 42
0.023425
 10
343.354497
 20
127.927637
 42
0.02887499999999997
 10
339.707595
 20
130.484373
 42
0.02345999999999999
 10
335.533391
 20
132.801736
 42
0.01405700000000003
 10
330.659922
 20
135.047285
 42
0.05407499999999997
 10
327.473267
 20
136.01775
 42
0.04112400000000002
 10
323.757855
 20
136.410696
 42
0.005791999999999967
 10
316.048642
 20
136.5
 42
-0.003822000000000112
 10
309.2063399999998
 20
136.552297
 42
-0.030242
 10
306.047931
 20
136.792011
 42
-0.07840600000000016
 10
304.398756
 20
137.289018
 42
-0.236901999999995
 10
303.703065
 20
138.192162
 42
-0.1451509999999977
 10
303.7841399999999
 20
139.024077
 42
-0.08479100000000094
 10
304.315897
 20
139.882478
 42
-0.06213599999999958
 10
305.288852
 20
140.740817
 42
-0.03205400000000012
 10
306.687814
 20
141.569339
 42
0.003005999999999768
 10
307.9831549999999
 20
142.238152
 42
0.004184000000000113
 10
309.134046
 20
142.8535019999999
 42
0.002594000000000083
 10
310.093999
 20
143.383618
 42
0.05297600000000043
 10
310.364257
 20
143.574767
 42
0.4101959999999754
 10
310.4081279999998
 20
144.1932330000001
 42
0.001658999999999993
 10
305.4578879999999
 20
149.940478
 42
0.002127999999999998
 10
300.5235570000002
 20
155.5822859999999
 42
0.2202120000000065
 10
299.600033
 20
155.988554
 42
0.1112069999999993
 10
299.183046
 20
155.886256
 42
0.00232500000000005
 10
297.266885
 20
154.920783
 42
0.005295000000000031
 10
295.034364
 20
153.752917
 42
0.003526999999999976
  0
LWPOLYLINE
  5
6D
100
AcDbEntity
  8
0
  6
ByLayer
 62
  256
370
   -1
100
AcDbPolyline
 90
   86
 70
    1
 43
0
 10
138.090242
 20
153.447385
 42
0.01626400000000003
 10
137.293124
 20
152.59665
 42
0.005493000000000083
 10
136.186802
 20
151.307858
 42
0.005457000000000043
 10
134.9940660000001
 20
149.855206
 42
0.006235999999999963
 10
133.886048
 20
148.439489
 10
131.302358
 20
145.052096
 10
134.978466
 20
141.58508
 42
-0.02258000000000003
 10
136.63969
 20
139.870211
 42
-0.04977600000000016
 10
137.705529
 20
138.392576
 42
-0.06715400000000003
 10
138.254244
 20
137.062643
 42
-0.09983200000000073
 10
138.327287
 20
135.809032
 42
-0.1467029999999993
 10
137.670442
 20
134.384836
 42
-0.1934680000000018
 10
136.404711
 20
133.749636
 42
-0.03977299999999994
 10
133.5980499999997
 20
133.7400859999998
 42
-0.001548999999999964
 10
123.2821179999999
 20
134.5588179999997
 42
0.02632700000000006
 10
116.057685
 20
134.773137
 42
0.05320999999999994
 10
110.418978
 20
134.039935
 42
0.05635800000000009
 10
105.271873
 20
132.171454
 42
0.03321499999999999
 10
99.61109499999999
 20
128.875762
 42
0.03092399999999999
 10
97.011708
 20
126.877202
 42
0.01439699999999997
 10
93.88731800000004
 20
123.989306
 42
0.01408100000000005
 10
90.73274100000003
 20
120.721441
 42
0.01755300000000009
 10
88
 20
117.506477
 42
-0.03222000000000001
 10
82.48993299999999
 20
111.396435
 42
-0.06430899999999992
 10
77.294016
 20
107.494413
 42
-0.07927999999999989
 10
72.06501699999998
 20
105.541367
 42
-0.07944500000000004
 10
66.49175399999999
 20
105.314571
 42
0.02683599999999997
 10
62.602449
 20
105.564715
 42
0.2366140000000005
 10
61.100168
 20
104.831392
 42
0.3234780000000015
 10
61.06273999999999
 20
103.408119
 42
0.04116399999999989
 10
63.11028799999998
 20
100.884884
 42
0.06081999999999989
 10
67.15689799999998
 20
97.57676900000001
 42
0.04713799999999977
 10
72.23621699999998
 20
94.999044
 42
0.03925899999999988
 10
78.586274
 20
93.05600899999997
 42
0.02234699999999983
 10
86.49999999999994
 20
91.66677699999998
 42
-0.01923400000000002
 10
93.45683699999999
 20
90.49010799999999
 42
-0.03197299999999995
 10
99.18605700000001
 20
88.904867
 42
-0.03858100000000009
 10
103.557089
 20
86.999942
 42
-0.0978980000000001
 10
106.230994
 20
84.82308800000001
 42
-0.04135800000000008
 10
106.842448
 20
83.94761000000001
 42
-0.00444900000000002
 10
108.067795
 20
81.79802599999998
 42
-0.005445999999999908
 10
109.478639
 20
79.20507300000001
 42
-0.004359999999999991
 10
110.943186
 20
76.38295899999999
 42
0.03760499999999993
 10
115.604153
 20
68.69731100000001
 42
0.05668399999999989
 10
120.843175
 20
62.88499700000001
 42
0.06864799999999988
 10
126.328251
 20
59.23700400000001
 42
0.1129320000000001
 10
131.735191
 20
58
 42
0.02341000000000009
 10
133.817675
 20
58.097554
 42
0.3322290000000052
 10
134.338005
 20
58.568042
 42
0.230002999999998
 10
134.125847
 20
59.37205700000001
 42
0.01357900000000001
 10
132.382444
 20
61.29181300000002
 42
-0.05446299999999995
 10
130.329513
 20
63.96097900000002
 42
-0.04723799999999991
 10
128.785335
 20
67.13811800000002
 42
-0.04569499999999981
 10
127.823877
 20
70.65757800000002
 42
-0.04386599999999986
 10
127.5
 20
74.34215500000001
 42
-0.1247520000000001
 10
130.411768
 20
85.83073
 42
-0.11987
 10
138.47191
 20
94.74637999999999
 42
-0.1133569999999999
 10
150.135872
 20
99.28919999999998
 42
-0.102861
 10
163.059512
 20
98.521264
 42
-0.05721900000000005
 10
172.025007
 20
94.95419100000001
 42
-0.04951400000000002
 10
180.432124
 20
89.30166800000001
 42
-0.04352399999999997
 10
188.477748
 20
81.37631099999997
 42
-0.028352
 10
196.366611
 20
70.98274299999997
 42
-0.02131199999999997
 10
200.983394
 20
63.45154699999999
 42
-0.02776800000000004
 10
204.512985
 20
56.17818
 42
-0.02968000000000001
 10
207.03085
 20
48.99025000000002
 42
-0.03180200000000004
 10
208.611446
 20
41.71768800000029
 42
0.002259000000000007
 10
209.8292339999999
 20
33.92122000000026
 42
0.04062699999999994
 10
210.431972
 20
31.465371
 42
0.1619650000000006
 10
211.226904
 20
30.404407
 42
0.1528309999999996
 10
212.519052
 20
30
 42
0.2827989999999985
 10
213.91117
 20
30.855825
 42
0.1180670000000002
 10
214.44168
 20
33.08795300000001
 42
0.03716499999999995
 10
214.0939250000001
 20
37.65484899999991
 42
0.004455000000000026
 10
212.4889610000001
 20
47.65062699999991
 42
0.01597400000000005
 10
208.2823900000001
 20
68.39591799999999
 42
0.02682000000000009
 10
203.274012
 20
85.45088200000001
 42
0.03048700000000003
 10
197.031273
 20
100.207563
 42
0.03155599999999999
 10
189.102543
 20
113.919559
 42
0.02563099999999996
 10
180.329655
 20
125.736885
 42
0.03050499999999998
 10
170.85645
 20
135.888449
 42
0.03268
 10
160.883845
 20
144.18012
 42
0.04100199999999997
 10
150.6143350000001
 20
150.4246329999999
 42
0.006690999999999995
 10
144.6122930000001
 20
153.331258
 42
0.05023699999999991
 10
141.635253
 20
154.375027
 42
0.1216500000000001
 10
139.706067
 20
154.364831
 42
0.1353170000000004
  0
ENDSEC
  0
SECTION
  2
OBJECTS
  0
DICTIONARY
  5
C
330
0
100
AcDbDictionary
281
    1
  3
ACAD_GROUP
350
D
  0
DICTIONARY
  5
D
330
C
100
AcDbDictionary
281
    1
  0
ENDSEC
  0
EOF
