solid OpenSCAD_Model
  facet normal -1 0 0
    outer loop
      vertex -6 -7.5 -8
      vertex -6 -7.5 8
      vertex -6 7.5 -8
    endloop
  endfacet
  facet normal -1 0 0
    outer loop
      vertex -6 7.5 -8
      vertex -6 -7.5 8
      vertex -6 7.5 8
    endloop
  endfacet
  facet normal 0 -1 0
    outer loop
      vertex 8.41811 -7.5 -3.97809
      vertex -6 -7.5 -8
      vertex 14 -7.5 -8
    endloop
  endfacet
  facet normal 0 -1 0
    outer loop
      vertex 6 -7.5 3.4641
      vertex 6.76393 -7.5 3.80423
      vertex 14 -7.5 8
    endloop
  endfacet
  facet normal 0 -1 0
    outer loop
      vertex -6 -7.5 8
      vertex -6 -7.5 -8
      vertex 4.08741 -7.5 -0.831647
    endloop
  endfacet
  facet normal 0 -1 0
    outer loop
      vertex 4.08741 -7.5 0.831647
      vertex -6 -7.5 8
      vertex 4 -7.5 1.66533e-15
    endloop
  endfacet
  facet normal 0 -1 0
    outer loop
      vertex 11.9126 -7.5 0.831647
      vertex 12 -7.5 1.66533e-15
      vertex 14 -7.5 -8
    endloop
  endfacet
  facet normal 0 -1 0
    outer loop
      vertex 4.34582 -7.5 1.62695
      vertex -6 -7.5 8
      vertex 4.08741 -7.5 0.831647
    endloop
  endfacet
  facet normal 0 -1 0
    outer loop
      vertex 4.76393 -7.5 2.35114
      vertex -6 -7.5 8
      vertex 4.34582 -7.5 1.62695
    endloop
  endfacet
  facet normal 0 -1 0
    outer loop
      vertex 5.32348 -7.5 2.97258
      vertex -6 -7.5 8
      vertex 4.76393 -7.5 2.35114
    endloop
  endfacet
  facet normal 0 -1 0
    outer loop
      vertex 6 -7.5 3.4641
      vertex -6 -7.5 8
      vertex 5.32348 -7.5 2.97258
    endloop
  endfacet
  facet normal 0 -1 0
    outer loop
      vertex 6.76393 -7.5 3.80423
      vertex 7.58189 -7.5 3.97809
      vertex 14 -7.5 8
    endloop
  endfacet
  facet normal 0 -1 0
    outer loop
      vertex 14 -7.5 8
      vertex -6 -7.5 8
      vertex 6 -7.5 3.4641
    endloop
  endfacet
  facet normal 0 -1 0
    outer loop
      vertex 7.58189 -7.5 3.97809
      vertex 8.41811 -7.5 3.97809
      vertex 14 -7.5 8
    endloop
  endfacet
  facet normal 0 -1 0
    outer loop
      vertex 11.9126 -7.5 -0.831647
      vertex 11.6542 -7.5 -1.62695
      vertex 14 -7.5 -8
    endloop
  endfacet
  facet normal 0 -1 0
    outer loop
      vertex 11.6542 -7.5 -1.62695
      vertex 11.2361 -7.5 -2.35114
      vertex 14 -7.5 -8
    endloop
  endfacet
  facet normal 0 -1 0
    outer loop
      vertex 14 -7.5 8
      vertex 9.23607 -7.5 3.80423
      vertex 10 -7.5 3.4641
    endloop
  endfacet
  facet normal 0 -1 0
    outer loop
      vertex 9.23607 -7.5 -3.80423
      vertex 8.41811 -7.5 -3.97809
      vertex 14 -7.5 -8
    endloop
  endfacet
  facet normal 0 -1 0
    outer loop
      vertex 14 -7.5 8
      vertex 10 -7.5 3.4641
      vertex 10.6765 -7.5 2.97258
    endloop
  endfacet
  facet normal 0 -1 0
    outer loop
      vertex 14 -7.5 8
      vertex 10.6765 -7.5 2.97258
      vertex 11.2361 -7.5 2.35114
    endloop
  endfacet
  facet normal 0 -1 0
    outer loop
      vertex 12 -7.5 1.66533e-15
      vertex 11.9126 -7.5 -0.831647
      vertex 14 -7.5 -8
    endloop
  endfacet
  facet normal 0 -1 0
    outer loop
      vertex 14 -7.5 8
      vertex 11.2361 -7.5 2.35114
      vertex 11.6542 -7.5 1.62695
    endloop
  endfacet
  facet normal 0 -1 0
    outer loop
      vertex 14 -7.5 8
      vertex 11.9126 -7.5 0.831647
      vertex 14 -7.5 -8
    endloop
  endfacet
  facet normal 0 -1 0
    outer loop
      vertex 14 -7.5 8
      vertex 11.6542 -7.5 1.62695
      vertex 11.9126 -7.5 0.831647
    endloop
  endfacet
  facet normal 0 -1 0
    outer loop
      vertex 11.2361 -7.5 -2.35114
      vertex 10.6765 -7.5 -2.97258
      vertex 14 -7.5 -8
    endloop
  endfacet
  facet normal 0 -1 0
    outer loop
      vertex 10.6765 -7.5 -2.97258
      vertex 10 -7.5 -3.4641
      vertex 14 -7.5 -8
    endloop
  endfacet
  facet normal 0 -1 0
    outer loop
      vertex 10 -7.5 -3.4641
      vertex 9.23607 -7.5 -3.80423
      vertex 14 -7.5 -8
    endloop
  endfacet
  facet normal 0 -1 0
    outer loop
      vertex 7.58189 -7.5 -3.97809
      vertex -6 -7.5 -8
      vertex 8.41811 -7.5 -3.97809
    endloop
  endfacet
  facet normal 0 -1 0
    outer loop
      vertex 6.76393 -7.5 -3.80423
      vertex -6 -7.5 -8
      vertex 7.58189 -7.5 -3.97809
    endloop
  endfacet
  facet normal 0 -1 0
    outer loop
      vertex 6 -7.5 -3.4641
      vertex -6 -7.5 -8
      vertex 6.76393 -7.5 -3.80423
    endloop
  endfacet
  facet normal 0 -1 0
    outer loop
      vertex 5.32348 -7.5 -2.97258
      vertex -6 -7.5 -8
      vertex 6 -7.5 -3.4641
    endloop
  endfacet
  facet normal 0 -1 0
    outer loop
      vertex 4.76393 -7.5 -2.35114
      vertex -6 -7.5 -8
      vertex 5.32348 -7.5 -2.97258
    endloop
  endfacet
  facet normal 0 -1 0
    outer loop
      vertex 4.34582 -7.5 -1.62695
      vertex -6 -7.5 -8
      vertex 4.76393 -7.5 -2.35114
    endloop
  endfacet
  facet normal 0 -1 0
    outer loop
      vertex 4.08741 -7.5 -0.831647
      vertex -6 -7.5 -8
      vertex 4.34582 -7.5 -1.62695
    endloop
  endfacet
  facet normal 0 -1 0
    outer loop
      vertex 4.08741 -7.5 -0.831647
      vertex 4 -7.5 1.66533e-15
      vertex -6 -7.5 8
    endloop
  endfacet
  facet normal 0 -1 0
    outer loop
      vertex 8.41811 -7.5 3.97809
      vertex 9.23607 -7.5 3.80423
      vertex 14 -7.5 8
    endloop
  endfacet
  facet normal 0 0 -1
    outer loop
      vertex -3 0 -8
      vertex -6 -7.5 -8
      vertex -2.93444 0.623735 -8
    endloop
  endfacet
  facet normal 0 0 -1
    outer loop
      vertex 14 1 -8
      vertex -6 7.5 -8
      vertex 14 7.5 -8
    endloop
  endfacet
  facet normal 0 0 -1
    outer loop
      vertex 1.5 2.59808 -8
      vertex -6 7.5 -8
      vertex 14 1 -8
    endloop
  endfacet
  facet normal 0 0 -1
    outer loop
      vertex 2.81219 1 -8
      vertex 2.74064 1.22021 -8
      vertex 14 1 -8
    endloop
  endfacet
  facet normal 0 0 -1
    outer loop
      vertex -0.313585 2.98357 -8
      vertex -6 7.5 -8
      vertex 0.313585 2.98357 -8
    endloop
  endfacet
  facet normal 0 0 -1
    outer loop
      vertex 2.74064 1.22021 -8
      vertex 2.42705 1.76336 -8
      vertex 14 1 -8
    endloop
  endfacet
  facet normal 0 0 -1
    outer loop
      vertex 0.313585 2.98357 -8
      vertex -6 7.5 -8
      vertex 0.927051 2.85317 -8
    endloop
  endfacet
  facet normal 0 0 -1
    outer loop
      vertex 2.42705 1.76336 -8
      vertex 2.00739 2.22943 -8
      vertex 14 1 -8
    endloop
  endfacet
  facet normal 0 0 -1
    outer loop
      vertex 2.00739 2.22943 -8
      vertex 1.5 2.59808 -8
      vertex 14 1 -8
    endloop
  endfacet
  facet normal 0 0 -1
    outer loop
      vertex -0.927051 2.85317 -8
      vertex -6 7.5 -8
      vertex -0.313585 2.98357 -8
    endloop
  endfacet
  facet normal 0 0 -1
    outer loop
      vertex -1.5 2.59808 -8
      vertex -6 7.5 -8
      vertex -0.927051 2.85317 -8
    endloop
  endfacet
  facet normal 0 0 -1
    outer loop
      vertex -2.00739 2.22943 -8
      vertex -6 7.5 -8
      vertex -1.5 2.59808 -8
    endloop
  endfacet
  facet normal 0 0 -1
    outer loop
      vertex -2.42705 1.76336 -8
      vertex -6 7.5 -8
      vertex -2.00739 2.22943 -8
    endloop
  endfacet
  facet normal 0 0 -1
    outer loop
      vertex -2.74064 1.22021 -8
      vertex -6 7.5 -8
      vertex -2.42705 1.76336 -8
    endloop
  endfacet
  facet normal 0 0 -1
    outer loop
      vertex -6 -7.5 -8
      vertex -6 7.5 -8
      vertex -2.74064 1.22021 -8
    endloop
  endfacet
  facet normal 0 0 -1
    outer loop
      vertex -6 -7.5 -8
      vertex -2.74064 1.22021 -8
      vertex -2.93444 0.623735 -8
    endloop
  endfacet
  facet normal 0 0 -1
    outer loop
      vertex -2.93444 -0.623735 -8
      vertex -6 -7.5 -8
      vertex -3 0 -8
    endloop
  endfacet
  facet normal 0 0 -1
    outer loop
      vertex -2.74064 -1.22021 -8
      vertex -6 -7.5 -8
      vertex -2.93444 -0.623735 -8
    endloop
  endfacet
  facet normal 0 0 -1
    outer loop
      vertex -2.42705 -1.76336 -8
      vertex -6 -7.5 -8
      vertex -2.74064 -1.22021 -8
    endloop
  endfacet
  facet normal 0 0 -1
    outer loop
      vertex 0.313585 -2.98357 -8
      vertex 14 -7.5 -8
      vertex -0.313585 -2.98357 -8
    endloop
  endfacet
  facet normal 0 0 -1
    outer loop
      vertex -6 -7.5 -8
      vertex -2.42705 -1.76336 -8
      vertex -2.00739 -2.22943 -8
    endloop
  endfacet
  facet normal 0 0 -1
    outer loop
      vertex -6 -7.5 -8
      vertex -2.00739 -2.22943 -8
      vertex -1.5 -2.59808 -8
    endloop
  endfacet
  facet normal 0 0 -1
    outer loop
      vertex -6 -7.5 -8
      vertex -1.5 -2.59808 -8
      vertex -0.927051 -2.85317 -8
    endloop
  endfacet
  facet normal 0 0 -1
    outer loop
      vertex -6 -7.5 -8
      vertex -0.927051 -2.85317 -8
      vertex 14 -7.5 -8
    endloop
  endfacet
  facet normal 0 0 -1
    outer loop
      vertex -0.927051 -2.85317 -8
      vertex -0.313585 -2.98357 -8
      vertex 14 -7.5 -8
    endloop
  endfacet
  facet normal 0 0 -1
    outer loop
      vertex 0.927051 -2.85317 -8
      vertex 14 -7.5 -8
      vertex 0.313585 -2.98357 -8
    endloop
  endfacet
  facet normal 0 0 -1
    outer loop
      vertex 14 -1 -8
      vertex 14 -7.5 -8
      vertex 2.81219 -1 -8
    endloop
  endfacet
  facet normal 0 0 -1
    outer loop
      vertex 0.927051 -2.85317 -8
      vertex 1.5 -2.59808 -8
      vertex 14 -7.5 -8
    endloop
  endfacet
  facet normal 0 0 -1
    outer loop
      vertex 1.5 -2.59808 -8
      vertex 2.00739 -2.22943 -8
      vertex 14 -7.5 -8
    endloop
  endfacet
  facet normal 0 0 -1
    outer loop
      vertex 2.00739 -2.22943 -8
      vertex 2.42705 -1.76336 -8
      vertex 14 -7.5 -8
    endloop
  endfacet
  facet normal 0 0 -1
    outer loop
      vertex 2.42705 -1.76336 -8
      vertex 2.74064 -1.22021 -8
      vertex 14 -7.5 -8
    endloop
  endfacet
  facet normal 0 0 -1
    outer loop
      vertex 2.74064 -1.22021 -8
      vertex 2.81219 -1 -8
      vertex 14 -7.5 -8
    endloop
  endfacet
  facet normal 0 0 -1
    outer loop
      vertex 0.927051 2.85317 -8
      vertex -6 7.5 -8
      vertex 1.5 2.59808 -8
    endloop
  endfacet
  facet normal 0 1 0
    outer loop
      vertex 6.76393 7.5 -3.80423
      vertex 14 7.5 -8
      vertex 6 7.5 -3.4641
    endloop
  endfacet
  facet normal 0 1 0
    outer loop
      vertex 9.23607 7.5 3.80423
      vertex -6 7.5 8
      vertex 14 7.5 8
    endloop
  endfacet
  facet normal 0 1 0
    outer loop
      vertex -6 7.5 -8
      vertex -6 7.5 8
      vertex 4 7.5 -1.66533e-15
    endloop
  endfacet
  facet normal 0 1 0
    outer loop
      vertex -6 7.5 -8
      vertex 4 7.5 -1.66533e-15
      vertex 4.08741 7.5 -0.831647
    endloop
  endfacet
  facet normal 0 1 0
    outer loop
      vertex -6 7.5 -8
      vertex 4.08741 7.5 -0.831647
      vertex 4.34582 7.5 -1.62695
    endloop
  endfacet
  facet normal 0 1 0
    outer loop
      vertex -6 7.5 -8
      vertex 4.34582 7.5 -1.62695
      vertex 4.76393 7.5 -2.35114
    endloop
  endfacet
  facet normal 0 1 0
    outer loop
      vertex -6 7.5 -8
      vertex 4.76393 7.5 -2.35114
      vertex 5.32348 7.5 -2.97258
    endloop
  endfacet
  facet normal 0 1 0
    outer loop
      vertex -6 7.5 -8
      vertex 5.32348 7.5 -2.97258
      vertex 6 7.5 -3.4641
    endloop
  endfacet
  facet normal 0 1 0
    outer loop
      vertex -6 7.5 -8
      vertex 6 7.5 -3.4641
      vertex 14 7.5 -8
    endloop
  endfacet
  facet normal 0 1 0
    outer loop
      vertex 7.58189 7.5 -3.97809
      vertex 14 7.5 -8
      vertex 6.76393 7.5 -3.80423
    endloop
  endfacet
  facet normal 0 1 0
    outer loop
      vertex 8.41811 7.5 -3.97809
      vertex 14 7.5 -8
      vertex 7.58189 7.5 -3.97809
    endloop
  endfacet
  facet normal 0 1 0
    outer loop
      vertex 9.23607 7.5 -3.80423
      vertex 14 7.5 -8
      vertex 8.41811 7.5 -3.97809
    endloop
  endfacet
  facet normal 0 1 0
    outer loop
      vertex 14 7.5 -8
      vertex 9.23607 7.5 -3.80423
      vertex 10 7.5 -3.4641
    endloop
  endfacet
  facet normal 0 1 0
    outer loop
      vertex 14 7.5 -8
      vertex 10 7.5 -3.4641
      vertex 10.6765 7.5 -2.97258
    endloop
  endfacet
  facet normal 0 1 0
    outer loop
      vertex 14 7.5 -8
      vertex 10.6765 7.5 -2.97258
      vertex 11.2361 7.5 -2.35114
    endloop
  endfacet
  facet normal 0 1 0
    outer loop
      vertex 14 7.5 -8
      vertex 11.2361 7.5 -2.35114
      vertex 11.6542 7.5 -1.62695
    endloop
  endfacet
  facet normal 0 1 0
    outer loop
      vertex 14 7.5 -8
      vertex 11.6542 7.5 -1.62695
      vertex 11.9126 7.5 -0.831647
    endloop
  endfacet
  facet normal 0 1 0
    outer loop
      vertex 14 7.5 -8
      vertex 11.9126 7.5 -0.831647
      vertex 14 7.5 8
    endloop
  endfacet
  facet normal 0 1 0
    outer loop
      vertex 11.9126 7.5 0.831647
      vertex 14 7.5 8
      vertex 12 7.5 -1.66533e-15
    endloop
  endfacet
  facet normal 0 1 0
    outer loop
      vertex 11.6542 7.5 1.62695
      vertex 14 7.5 8
      vertex 11.9126 7.5 0.831647
    endloop
  endfacet
  facet normal 0 1 0
    outer loop
      vertex 11.2361 7.5 2.35114
      vertex 14 7.5 8
      vertex 11.6542 7.5 1.62695
    endloop
  endfacet
  facet normal 0 1 0
    outer loop
      vertex 7.58189 7.5 3.97809
      vertex -6 7.5 8
      vertex 8.41811 7.5 3.97809
    endloop
  endfacet
  facet normal 0 1 0
    outer loop
      vertex 11.2361 7.5 2.35114
      vertex 10.6765 7.5 2.97258
      vertex 14 7.5 8
    endloop
  endfacet
  facet normal 0 1 0
    outer loop
      vertex 6.76393 7.5 3.80423
      vertex -6 7.5 8
      vertex 7.58189 7.5 3.97809
    endloop
  endfacet
  facet normal 0 1 0
    outer loop
      vertex 10.6765 7.5 2.97258
      vertex 10 7.5 3.4641
      vertex 14 7.5 8
    endloop
  endfacet
  facet normal 0 1 0
    outer loop
      vertex 8.41811 7.5 3.97809
      vertex -6 7.5 8
      vertex 9.23607 7.5 3.80423
    endloop
  endfacet
  facet normal 0 1 0
    outer loop
      vertex 10 7.5 3.4641
      vertex 9.23607 7.5 3.80423
      vertex 14 7.5 8
    endloop
  endfacet
  facet normal 0 1 0
    outer loop
      vertex 6 7.5 3.4641
      vertex -6 7.5 8
      vertex 6.76393 7.5 3.80423
    endloop
  endfacet
  facet normal 0 1 0
    outer loop
      vertex 5.32348 7.5 2.97258
      vertex -6 7.5 8
      vertex 6 7.5 3.4641
    endloop
  endfacet
  facet normal 0 1 0
    outer loop
      vertex 4.76393 7.5 2.35114
      vertex -6 7.5 8
      vertex 5.32348 7.5 2.97258
    endloop
  endfacet
  facet normal 0 1 0
    outer loop
      vertex 4.34582 7.5 1.62695
      vertex -6 7.5 8
      vertex 4.76393 7.5 2.35114
    endloop
  endfacet
  facet normal 0 1 0
    outer loop
      vertex 4.08741 7.5 0.831647
      vertex -6 7.5 8
      vertex 4.34582 7.5 1.62695
    endloop
  endfacet
  facet normal 0 1 0
    outer loop
      vertex 4 7.5 -1.66533e-15
      vertex -6 7.5 8
      vertex 4.08741 7.5 0.831647
    endloop
  endfacet
  facet normal 0 1 0
    outer loop
      vertex 12 7.5 -1.66533e-15
      vertex 14 7.5 8
      vertex 11.9126 7.5 -0.831647
    endloop
  endfacet
  facet normal 0 0 1
    outer loop
      vertex 1.5 -2.59808 8
      vertex -6 -7.5 8
      vertex 14 -7.5 8
    endloop
  endfacet
  facet normal 0 0 1
    outer loop
      vertex 2.00739 2.22943 8
      vertex 14 1 8
      vertex 1.5 2.59808 8
    endloop
  endfacet
  facet normal 0 0 1
    outer loop
      vertex 2.81219 -1 8
      vertex 2.74064 -1.22021 8
      vertex 14 -7.5 8
    endloop
  endfacet
  facet normal 0 0 1
    outer loop
      vertex -2.93444 -0.623735 8
      vertex -3 0 8
      vertex -6 7.5 8
    endloop
  endfacet
  facet normal 0 0 1
    outer loop
      vertex 2.74064 -1.22021 8
      vertex 2.42705 -1.76336 8
      vertex 14 -7.5 8
    endloop
  endfacet
  facet normal 0 0 1
    outer loop
      vertex 2.42705 -1.76336 8
      vertex 2.00739 -2.22943 8
      vertex 14 -7.5 8
    endloop
  endfacet
  facet normal 0 0 1
    outer loop
      vertex 2.00739 -2.22943 8
      vertex 1.5 -2.59808 8
      vertex 14 -7.5 8
    endloop
  endfacet
  facet normal 0 0 1
    outer loop
      vertex 0.927051 -2.85317 8
      vertex 0.313585 -2.98357 8
      vertex -6 -7.5 8
    endloop
  endfacet
  facet normal 0 0 1
    outer loop
      vertex -3 0 8
      vertex -2.93444 0.623735 8
      vertex -6 7.5 8
    endloop
  endfacet
  facet normal 0 0 1
    outer loop
      vertex -0.927051 -2.85317 8
      vertex -6 -7.5 8
      vertex -0.313585 -2.98357 8
    endloop
  endfacet
  facet normal 0 0 1
    outer loop
      vertex -1.5 -2.59808 8
      vertex -6 -7.5 8
      vertex -0.927051 -2.85317 8
    endloop
  endfacet
  facet normal 0 0 1
    outer loop
      vertex -2.00739 -2.22943 8
      vertex -6 -7.5 8
      vertex -1.5 -2.59808 8
    endloop
  endfacet
  facet normal 0 0 1
    outer loop
      vertex -2.93444 0.623735 8
      vertex -2.74064 1.22021 8
      vertex -6 7.5 8
    endloop
  endfacet
  facet normal 0 0 1
    outer loop
      vertex -2.42705 -1.76336 8
      vertex -6 -7.5 8
      vertex -2.00739 -2.22943 8
    endloop
  endfacet
  facet normal 0 0 1
    outer loop
      vertex -2.74064 -1.22021 8
      vertex -6 -7.5 8
      vertex -2.42705 -1.76336 8
    endloop
  endfacet
  facet normal 0 0 1
    outer loop
      vertex -6 7.5 8
      vertex -6 -7.5 8
      vertex -2.74064 -1.22021 8
    endloop
  endfacet
  facet normal 0 0 1
    outer loop
      vertex -6 7.5 8
      vertex -2.74064 -1.22021 8
      vertex -2.93444 -0.623735 8
    endloop
  endfacet
  facet normal 0 0 1
    outer loop
      vertex 1.5 2.59808 8
      vertex 14 1 8
      vertex -6 7.5 8
    endloop
  endfacet
  facet normal 0 0 1
    outer loop
      vertex -2.74064 1.22021 8
      vertex -2.42705 1.76336 8
      vertex -6 7.5 8
    endloop
  endfacet
  facet normal 0 0 1
    outer loop
      vertex -1.5 2.59808 8
      vertex -0.927051 2.85317 8
      vertex -6 7.5 8
    endloop
  endfacet
  facet normal 0 0 1
    outer loop
      vertex -6 7.5 8
      vertex -2.42705 1.76336 8
      vertex -2.00739 2.22943 8
    endloop
  endfacet
  facet normal 0 0 1
    outer loop
      vertex -0.313585 2.98357 8
      vertex 0.313585 2.98357 8
      vertex -6 7.5 8
    endloop
  endfacet
  facet normal 0 0 1
    outer loop
      vertex -6 7.5 8
      vertex -2.00739 2.22943 8
      vertex -1.5 2.59808 8
    endloop
  endfacet
  facet normal 0 0 1
    outer loop
      vertex 1.5 -2.59808 8
      vertex 0.927051 -2.85317 8
      vertex -6 -7.5 8
    endloop
  endfacet
  facet normal 0 0 1
    outer loop
      vertex 0.313585 -2.98357 8
      vertex -0.313585 -2.98357 8
      vertex -6 -7.5 8
    endloop
  endfacet
  facet normal 0 0 1
    outer loop
      vertex -6 7.5 8
      vertex -0.927051 2.85317 8
      vertex -0.313585 2.98357 8
    endloop
  endfacet
  facet normal 0 0 1
    outer loop
      vertex 2.74064 1.22021 8
      vertex 14 1 8
      vertex 2.42705 1.76336 8
    endloop
  endfacet
  facet normal 0 0 1
    outer loop
      vertex 0.927051 2.85317 8
      vertex -6 7.5 8
      vertex 0.313585 2.98357 8
    endloop
  endfacet
  facet normal 0 0 1
    outer loop
      vertex 1.5 2.59808 8
      vertex -6 7.5 8
      vertex 0.927051 2.85317 8
    endloop
  endfacet
  facet normal 0 0 1
    outer loop
      vertex 2.81219 1 8
      vertex 14 1 8
      vertex 2.74064 1.22021 8
    endloop
  endfacet
  facet normal 0 0 1
    outer loop
      vertex 2.42705 1.76336 8
      vertex 14 1 8
      vertex 2.00739 2.22943 8
    endloop
  endfacet
  facet normal 0 0 1
    outer loop
      vertex 14 7.5 8
      vertex -6 7.5 8
      vertex 14 1 8
    endloop
  endfacet
  facet normal 0 0 1
    outer loop
      vertex 14 -1 8
      vertex 2.81219 -1 8
      vertex 14 -7.5 8
    endloop
  endfacet
  facet normal 1 0 0
    outer loop
      vertex 14 -7.5 8
      vertex 14 -7.5 -8
      vertex 14 -1 -8
    endloop
  endfacet
  facet normal 1 0 0
    outer loop
      vertex 14 -1 8
      vertex 14 -7.5 8
      vertex 14 -1 -8
    endloop
  endfacet
  facet normal 0.994522 2.32101e-17 0.104529
    outer loop
      vertex 4.08741 -7.5 -0.831647
      vertex 4.08741 -1 -0.831647
      vertex 4 -1 2.22045e-16
    endloop
  endfacet
  facet normal 0.994522 2.32101e-17 0.104529
    outer loop
      vertex 4 -7.5 1.66533e-15
      vertex 4.08741 -7.5 -0.831647
      vertex 4 -1 2.22045e-16
    endloop
  endfacet
  facet normal 0.951057 6.86154e-17 0.309016
    outer loop
      vertex 4.34582 -7.5 -1.62695
      vertex 4.34582 -1 -1.62695
      vertex 4.08741 -1 -0.831647
    endloop
  endfacet
  facet normal 0.951057 6.86154e-17 0.309016
    outer loop
      vertex 4.08741 -7.5 -0.831647
      vertex 4.34582 -7.5 -1.62695
      vertex 4.08741 -1 -0.831647
    endloop
  endfacet
  facet normal 0.866025 1.11022e-16 0.5
    outer loop
      vertex 4.76393 -7.5 -2.35114
      vertex 4.76393 -1 -2.35114
      vertex 4.34582 -1 -1.62695
    endloop
  endfacet
  facet normal 0.866025 1.11022e-16 0.5
    outer loop
      vertex 4.34582 -7.5 -1.62695
      vertex 4.76393 -7.5 -2.35114
      vertex 4.34582 -1 -1.62695
    endloop
  endfacet
  facet normal 0.743144 1.48577e-16 0.669131
    outer loop
      vertex 5.32348 -7.5 -2.97258
      vertex 5.32348 -1 -2.97258
      vertex 4.76393 -1 -2.35114
    endloop
  endfacet
  facet normal 0.743144 1.48577e-16 0.669131
    outer loop
      vertex 4.76393 -7.5 -2.35114
      vertex 5.32348 -7.5 -2.97258
      vertex 4.76393 -1 -2.35114
    endloop
  endfacet
  facet normal 0.587786 1.79638e-16 0.809016
    outer loop
      vertex 6 -7.5 -3.4641
      vertex 6 -1 -3.4641
      vertex 5.32348 -1 -2.97258
    endloop
  endfacet
  facet normal 0.587786 1.79638e-16 0.809016
    outer loop
      vertex 5.32348 -7.5 -2.97258
      vertex 6 -7.5 -3.4641
      vertex 5.32348 -1 -2.97258
    endloop
  endfacet
  facet normal 0.406736 2.02848e-16 0.913546
    outer loop
      vertex 6.76393 -7.5 -3.80423
      vertex 6.76393 -1 -3.80423
      vertex 6 -1 -3.4641
    endloop
  endfacet
  facet normal 0.406736 2.02848e-16 0.913546
    outer loop
      vertex 6 -7.5 -3.4641
      vertex 6.76393 -7.5 -3.80423
      vertex 6 -1 -3.4641
    endloop
  endfacet
  facet normal 0.207912 2.17192e-16 0.978147
    outer loop
      vertex 7.58189 -7.5 -3.97809
      vertex 7.58189 -1 -3.97809
      vertex 6.76393 -1 -3.80423
    endloop
  endfacet
  facet normal 0.207912 2.17192e-16 0.978147
    outer loop
      vertex 6.76393 -7.5 -3.80423
      vertex 7.58189 -7.5 -3.97809
      vertex 6.76393 -1 -3.80423
    endloop
  endfacet
  facet normal 0 2.22045e-16 1
    outer loop
      vertex 8.41811 -7.5 -3.97809
      vertex 8.41811 -1 -3.97809
      vertex 7.58189 -1 -3.97809
    endloop
  endfacet
  facet normal 0 2.22045e-16 1
    outer loop
      vertex 7.58189 -7.5 -3.97809
      vertex 8.41811 -7.5 -3.97809
      vertex 7.58189 -1 -3.97809
    endloop
  endfacet
  facet normal -0.207912 2.17192e-16 0.978147
    outer loop
      vertex 9.23607 -7.5 -3.80423
      vertex 9.23607 -1 -3.80423
      vertex 8.41811 -1 -3.97809
    endloop
  endfacet
  facet normal -0.207912 2.17192e-16 0.978147
    outer loop
      vertex 8.41811 -7.5 -3.97809
      vertex 9.23607 -7.5 -3.80423
      vertex 8.41811 -1 -3.97809
    endloop
  endfacet
  facet normal -0.406736 2.02848e-16 0.913546
    outer loop
      vertex 10 -7.5 -3.4641
      vertex 10 -1 -3.4641
      vertex 9.23607 -1 -3.80423
    endloop
  endfacet
  facet normal -0.406736 2.02848e-16 0.913546
    outer loop
      vertex 9.23607 -7.5 -3.80423
      vertex 10 -7.5 -3.4641
      vertex 9.23607 -1 -3.80423
    endloop
  endfacet
  facet normal -0.587786 1.79638e-16 0.809016
    outer loop
      vertex 10.6765 -7.5 -2.97258
      vertex 10.6765 -1 -2.97258
      vertex 10 -1 -3.4641
    endloop
  endfacet
  facet normal -0.587786 1.79638e-16 0.809016
    outer loop
      vertex 10 -7.5 -3.4641
      vertex 10.6765 -7.5 -2.97258
      vertex 10 -1 -3.4641
    endloop
  endfacet
  facet normal -0.743144 1.48577e-16 0.669131
    outer loop
      vertex 11.2361 -1 -2.35114
      vertex 10.6765 -1 -2.97258
      vertex 11.2361 -7.5 -2.35114
    endloop
  endfacet
  facet normal -0.743144 1.48577e-16 0.669131
    outer loop
      vertex 11.2361 -7.5 -2.35114
      vertex 10.6765 -1 -2.97258
      vertex 10.6765 -7.5 -2.97258
    endloop
  endfacet
  facet normal -0.866025 1.11022e-16 0.5
    outer loop
      vertex 11.6542 -1 -1.62695
      vertex 11.2361 -1 -2.35114
      vertex 11.6542 -7.5 -1.62695
    endloop
  endfacet
  facet normal -0.866025 1.11022e-16 0.5
    outer loop
      vertex 11.6542 -7.5 -1.62695
      vertex 11.2361 -1 -2.35114
      vertex 11.2361 -7.5 -2.35114
    endloop
  endfacet
  facet normal -0.951057 6.86154e-17 0.309016
    outer loop
      vertex 11.9126 -1 -0.831647
      vertex 11.6542 -1 -1.62695
      vertex 11.9126 -7.5 -0.831647
    endloop
  endfacet
  facet normal -0.951057 6.86154e-17 0.309016
    outer loop
      vertex 11.9126 -7.5 -0.831647
      vertex 11.6542 -1 -1.62695
      vertex 11.6542 -7.5 -1.62695
    endloop
  endfacet
  facet normal -0.994522 2.32101e-17 0.104529
    outer loop
      vertex 12 -1 2.22045e-16
      vertex 11.9126 -1 -0.831647
      vertex 12 -7.5 1.66533e-15
    endloop
  endfacet
  facet normal -0.994522 2.32101e-17 0.104529
    outer loop
      vertex 12 -7.5 1.66533e-15
      vertex 11.9126 -1 -0.831647
      vertex 11.9126 -7.5 -0.831647
    endloop
  endfacet
  facet normal -0.994522 -2.32101e-17 -0.104529
    outer loop
      vertex 12 -1 2.22045e-16
      vertex 12 -7.5 1.66533e-15
      vertex 11.9126 -1 0.831647
    endloop
  endfacet
  facet normal -0.994522 -2.32101e-17 -0.104529
    outer loop
      vertex 11.9126 -1 0.831647
      vertex 12 -7.5 1.66533e-15
      vertex 11.9126 -7.5 0.831647
    endloop
  endfacet
  facet normal -0.951057 -6.86154e-17 -0.309016
    outer loop
      vertex 11.9126 -1 0.831647
      vertex 11.9126 -7.5 0.831647
      vertex 11.6542 -1 1.62695
    endloop
  endfacet
  facet normal -0.951057 -6.86154e-17 -0.309016
    outer loop
      vertex 11.6542 -1 1.62695
      vertex 11.9126 -7.5 0.831647
      vertex 11.6542 -7.5 1.62695
    endloop
  endfacet
  facet normal -0.866025 -1.11022e-16 -0.5
    outer loop
      vertex 11.6542 -1 1.62695
      vertex 11.6542 -7.5 1.62695
      vertex 11.2361 -1 2.35114
    endloop
  endfacet
  facet normal -0.866025 -1.11022e-16 -0.5
    outer loop
      vertex 11.2361 -1 2.35114
      vertex 11.6542 -7.5 1.62695
      vertex 11.2361 -7.5 2.35114
    endloop
  endfacet
  facet normal -0.743144 -1.48577e-16 -0.669131
    outer loop
      vertex 11.2361 -1 2.35114
      vertex 11.2361 -7.5 2.35114
      vertex 10.6765 -1 2.97258
    endloop
  endfacet
  facet normal -0.743144 -1.48577e-16 -0.669131
    outer loop
      vertex 10.6765 -1 2.97258
      vertex 11.2361 -7.5 2.35114
      vertex 10.6765 -7.5 2.97258
    endloop
  endfacet
  facet normal -0.587786 -1.79638e-16 -0.809016
    outer loop
      vertex 10.6765 -1 2.97258
      vertex 10.6765 -7.5 2.97258
      vertex 10 -1 3.4641
    endloop
  endfacet
  facet normal -0.587786 -1.79638e-16 -0.809016
    outer loop
      vertex 10 -1 3.4641
      vertex 10.6765 -7.5 2.97258
      vertex 10 -7.5 3.4641
    endloop
  endfacet
  facet normal -0.406736 -2.02848e-16 -0.913546
    outer loop
      vertex 10 -1 3.4641
      vertex 10 -7.5 3.4641
      vertex 9.23607 -1 3.80423
    endloop
  endfacet
  facet normal -0.406736 -2.02848e-16 -0.913546
    outer loop
      vertex 9.23607 -1 3.80423
      vertex 10 -7.5 3.4641
      vertex 9.23607 -7.5 3.80423
    endloop
  endfacet
  facet normal -0.207912 -2.17192e-16 -0.978147
    outer loop
      vertex 9.23607 -1 3.80423
      vertex 9.23607 -7.5 3.80423
      vertex 8.41811 -1 3.97809
    endloop
  endfacet
  facet normal -0.207912 -2.17192e-16 -0.978147
    outer loop
      vertex 8.41811 -1 3.97809
      vertex 9.23607 -7.5 3.80423
      vertex 8.41811 -7.5 3.97809
    endloop
  endfacet
  facet normal 0 -2.22045e-16 -1
    outer loop
      vertex 8.41811 -1 3.97809
      vertex 8.41811 -7.5 3.97809
      vertex 7.58189 -1 3.97809
    endloop
  endfacet
  facet normal 0 -2.22045e-16 -1
    outer loop
      vertex 7.58189 -1 3.97809
      vertex 8.41811 -7.5 3.97809
      vertex 7.58189 -7.5 3.97809
    endloop
  endfacet
  facet normal 0.207912 -2.17192e-16 -0.978147
    outer loop
      vertex 7.58189 -1 3.97809
      vertex 7.58189 -7.5 3.97809
      vertex 6.76393 -1 3.80423
    endloop
  endfacet
  facet normal 0.207912 -2.17192e-16 -0.978147
    outer loop
      vertex 6.76393 -1 3.80423
      vertex 7.58189 -7.5 3.97809
      vertex 6.76393 -7.5 3.80423
    endloop
  endfacet
  facet normal 0.406736 -2.02848e-16 -0.913546
    outer loop
      vertex 6.76393 -1 3.80423
      vertex 6.76393 -7.5 3.80423
      vertex 6 -1 3.4641
    endloop
  endfacet
  facet normal 0.406736 -2.02848e-16 -0.913546
    outer loop
      vertex 6 -1 3.4641
      vertex 6.76393 -7.5 3.80423
      vertex 6 -7.5 3.4641
    endloop
  endfacet
  facet normal 0.587786 -1.79638e-16 -0.809016
    outer loop
      vertex 6 -1 3.4641
      vertex 6 -7.5 3.4641
      vertex 5.32348 -1 2.97258
    endloop
  endfacet
  facet normal 0.587786 -1.79638e-16 -0.809016
    outer loop
      vertex 5.32348 -1 2.97258
      vertex 6 -7.5 3.4641
      vertex 5.32348 -7.5 2.97258
    endloop
  endfacet
  facet normal 0.743144 -1.48577e-16 -0.669131
    outer loop
      vertex 4.76393 -1 2.35114
      vertex 5.32348 -1 2.97258
      vertex 5.32348 -7.5 2.97258
    endloop
  endfacet
  facet normal 0.743144 -1.48577e-16 -0.669131
    outer loop
      vertex 4.76393 -7.5 2.35114
      vertex 4.76393 -1 2.35114
      vertex 5.32348 -7.5 2.97258
    endloop
  endfacet
  facet normal 0.866025 -1.11022e-16 -0.5
    outer loop
      vertex 4.34582 -1 1.62695
      vertex 4.76393 -1 2.35114
      vertex 4.76393 -7.5 2.35114
    endloop
  endfacet
  facet normal 0.866025 -1.11022e-16 -0.5
    outer loop
      vertex 4.34582 -7.5 1.62695
      vertex 4.34582 -1 1.62695
      vertex 4.76393 -7.5 2.35114
    endloop
  endfacet
  facet normal 0.951057 -6.86154e-17 -0.309016
    outer loop
      vertex 4.08741 -1 0.831647
      vertex 4.34582 -1 1.62695
      vertex 4.34582 -7.5 1.62695
    endloop
  endfacet
  facet normal 0.951057 -6.86154e-17 -0.309016
    outer loop
      vertex 4.08741 -7.5 0.831647
      vertex 4.08741 -1 0.831647
      vertex 4.34582 -7.5 1.62695
    endloop
  endfacet
  facet normal 0.994522 -2.32101e-17 -0.104529
    outer loop
      vertex 4 -1 2.22045e-16
      vertex 4.08741 -1 0.831647
      vertex 4.08741 -7.5 0.831647
    endloop
  endfacet
  facet normal 0.994522 -2.32101e-17 -0.104529
    outer loop
      vertex 4 -7.5 1.66533e-15
      vertex 4 -1 2.22045e-16
      vertex 4.08741 -7.5 0.831647
    endloop
  endfacet
  facet normal 0 1 0
    outer loop
      vertex 6 -1 -3.4641
      vertex 14 -1 -8
      vertex 2.81219 -1 -8
    endloop
  endfacet
  facet normal 0 1 0
    outer loop
      vertex 10.6765 -1 -2.97258
      vertex 14 -1 -8
      vertex 10 -1 -3.4641
    endloop
  endfacet
  facet normal 0 1 0
    outer loop
      vertex 2.81219 -1 8
      vertex 4.08741 -1 -0.831647
      vertex 2.81219 -1 -8
    endloop
  endfacet
  facet normal 0 1 0
    outer loop
      vertex 9.23607 -1 -3.80423
      vertex 14 -1 -8
      vertex 8.41811 -1 -3.97809
    endloop
  endfacet
  facet normal 0 1 0
    outer loop
      vertex 4.08741 -1 -0.831647
      vertex 4.34582 -1 -1.62695
      vertex 2.81219 -1 -8
    endloop
  endfacet
  facet normal 0 1 0
    outer loop
      vertex 8.41811 -1 -3.97809
      vertex 14 -1 -8
      vertex 7.58189 -1 -3.97809
    endloop
  endfacet
  facet normal 0 1 0
    outer loop
      vertex 4.34582 -1 -1.62695
      vertex 4.76393 -1 -2.35114
      vertex 2.81219 -1 -8
    endloop
  endfacet
  facet normal 0 1 0
    outer loop
      vertex 7.58189 -1 -3.97809
      vertex 14 -1 -8
      vertex 6.76393 -1 -3.80423
    endloop
  endfacet
  facet normal 0 1 0
    outer loop
      vertex 4.76393 -1 -2.35114
      vertex 5.32348 -1 -2.97258
      vertex 2.81219 -1 -8
    endloop
  endfacet
  facet normal 0 1 0
    outer loop
      vertex 5.32348 -1 -2.97258
      vertex 6 -1 -3.4641
      vertex 2.81219 -1 -8
    endloop
  endfacet
  facet normal 0 1 0
    outer loop
      vertex 10 -1 -3.4641
      vertex 14 -1 -8
      vertex 9.23607 -1 -3.80423
    endloop
  endfacet
  facet normal 0 1 0
    outer loop
      vertex 11.2361 -1 -2.35114
      vertex 14 -1 -8
      vertex 10.6765 -1 -2.97258
    endloop
  endfacet
  facet normal 0 1 0
    outer loop
      vertex 11.6542 -1 -1.62695
      vertex 14 -1 -8
      vertex 11.2361 -1 -2.35114
    endloop
  endfacet
  facet normal 0 1 0
    outer loop
      vertex 11.9126 -1 -0.831647
      vertex 14 -1 -8
      vertex 11.6542 -1 -1.62695
    endloop
  endfacet
  facet normal 0 1 0
    outer loop
      vertex 14 -1 8
      vertex 14 -1 -8
      vertex 11.9126 -1 -0.831647
    endloop
  endfacet
  facet normal 0 1 0
    outer loop
      vertex 11.9126 -1 0.831647
      vertex 14 -1 8
      vertex 12 -1 2.22045e-16
    endloop
  endfacet
  facet normal 0 1 0
    outer loop
      vertex 11.6542 -1 1.62695
      vertex 14 -1 8
      vertex 11.9126 -1 0.831647
    endloop
  endfacet
  facet normal 0 1 0
    outer loop
      vertex 9.23607 -1 3.80423
      vertex 2.81219 -1 8
      vertex 10 -1 3.4641
    endloop
  endfacet
  facet normal 0 1 0
    outer loop
      vertex 14 -1 8
      vertex 11.6542 -1 1.62695
      vertex 11.2361 -1 2.35114
    endloop
  endfacet
  facet normal 0 1 0
    outer loop
      vertex 14 -1 8
      vertex 11.2361 -1 2.35114
      vertex 10.6765 -1 2.97258
    endloop
  endfacet
  facet normal 0 1 0
    outer loop
      vertex 14 -1 8
      vertex 10.6765 -1 2.97258
      vertex 10 -1 3.4641
    endloop
  endfacet
  facet normal 0 1 0
    outer loop
      vertex 14 -1 8
      vertex 10 -1 3.4641
      vertex 2.81219 -1 8
    endloop
  endfacet
  facet normal 0 1 0
    outer loop
      vertex 8.41811 -1 3.97809
      vertex 2.81219 -1 8
      vertex 9.23607 -1 3.80423
    endloop
  endfacet
  facet normal 0 1 0
    outer loop
      vertex 7.58189 -1 3.97809
      vertex 2.81219 -1 8
      vertex 8.41811 -1 3.97809
    endloop
  endfacet
  facet normal 0 1 0
    outer loop
      vertex 6 -1 3.4641
      vertex 2.81219 -1 8
      vertex 6.76393 -1 3.80423
    endloop
  endfacet
  facet normal 0 1 0
    outer loop
      vertex 7.58189 -1 3.97809
      vertex 6.76393 -1 3.80423
      vertex 2.81219 -1 8
    endloop
  endfacet
  facet normal 0 1 0
    outer loop
      vertex 12 -1 2.22045e-16
      vertex 14 -1 8
      vertex 11.9126 -1 -0.831647
    endloop
  endfacet
  facet normal 0 1 0
    outer loop
      vertex 5.32348 -1 2.97258
      vertex 2.81219 -1 8
      vertex 6 -1 3.4641
    endloop
  endfacet
  facet normal 0 1 0
    outer loop
      vertex 2.81219 -1 8
      vertex 5.32348 -1 2.97258
      vertex 4.76393 -1 2.35114
    endloop
  endfacet
  facet normal 0 1 0
    outer loop
      vertex 2.81219 -1 8
      vertex 4.76393 -1 2.35114
      vertex 4.34582 -1 1.62695
    endloop
  endfacet
  facet normal 0 1 0
    outer loop
      vertex 2.81219 -1 8
      vertex 4.34582 -1 1.62695
      vertex 4.08741 -1 0.831647
    endloop
  endfacet
  facet normal 0 1 0
    outer loop
      vertex 2.81219 -1 8
      vertex 4.08741 -1 0.831647
      vertex 4 -1 2.22045e-16
    endloop
  endfacet
  facet normal 0 1 0
    outer loop
      vertex 2.81219 -1 8
      vertex 4 -1 2.22045e-16
      vertex 4.08741 -1 -0.831647
    endloop
  endfacet
  facet normal 0 1 0
    outer loop
      vertex 6.76393 -1 -3.80423
      vertex 14 -1 -8
      vertex 6 -1 -3.4641
    endloop
  endfacet
  facet normal -0.951056 0.309018 0
    outer loop
      vertex 2.81219 -1 8
      vertex 2.81219 -1 -8
      vertex 2.74064 -1.22021 8
    endloop
  endfacet
  facet normal -0.951056 0.309018 0
    outer loop
      vertex 2.74064 -1.22021 8
      vertex 2.81219 -1 -8
      vertex 2.74064 -1.22021 -8
    endloop
  endfacet
  facet normal -0.866026 0.499999 0
    outer loop
      vertex 2.74064 -1.22021 8
      vertex 2.74064 -1.22021 -8
      vertex 2.42705 -1.76336 8
    endloop
  endfacet
  facet normal -0.866026 0.499999 0
    outer loop
      vertex 2.42705 -1.76336 8
      vertex 2.74064 -1.22021 -8
      vertex 2.42705 -1.76336 -8
    endloop
  endfacet
  facet normal -0.743144 0.669131 0
    outer loop
      vertex 2.42705 -1.76336 8
      vertex 2.42705 -1.76336 -8
      vertex 2.00739 -2.22943 8
    endloop
  endfacet
  facet normal -0.743144 0.669131 0
    outer loop
      vertex 2.00739 -2.22943 8
      vertex 2.42705 -1.76336 -8
      vertex 2.00739 -2.22943 -8
    endloop
  endfacet
  facet normal -0.587785 0.809017 0
    outer loop
      vertex 2.00739 -2.22943 8
      vertex 2.00739 -2.22943 -8
      vertex 1.5 -2.59808 8
    endloop
  endfacet
  facet normal -0.587785 0.809017 0
    outer loop
      vertex 1.5 -2.59808 8
      vertex 2.00739 -2.22943 -8
      vertex 1.5 -2.59808 -8
    endloop
  endfacet
  facet normal -0.406738 0.913545 0
    outer loop
      vertex 1.5 -2.59808 8
      vertex 1.5 -2.59808 -8
      vertex 0.927051 -2.85317 8
    endloop
  endfacet
  facet normal -0.406738 0.913545 0
    outer loop
      vertex 0.927051 -2.85317 8
      vertex 1.5 -2.59808 -8
      vertex 0.927051 -2.85317 -8
    endloop
  endfacet
  facet normal -0.207911 0.978148 0
    outer loop
      vertex 0.927051 -2.85317 8
      vertex 0.927051 -2.85317 -8
      vertex 0.313585 -2.98357 8
    endloop
  endfacet
  facet normal -0.207911 0.978148 0
    outer loop
      vertex 0.313585 -2.98357 8
      vertex 0.927051 -2.85317 -8
      vertex 0.313585 -2.98357 -8
    endloop
  endfacet
  facet normal 0 1 0
    outer loop
      vertex 0.313585 -2.98357 8
      vertex 0.313585 -2.98357 -8
      vertex -0.313585 -2.98357 8
    endloop
  endfacet
  facet normal 0 1 0
    outer loop
      vertex -0.313585 -2.98357 8
      vertex 0.313585 -2.98357 -8
      vertex -0.313585 -2.98357 -8
    endloop
  endfacet
  facet normal 0.207911 0.978148 0
    outer loop
      vertex -0.313585 -2.98357 8
      vertex -0.313585 -2.98357 -8
      vertex -0.927051 -2.85317 8
    endloop
  endfacet
  facet normal 0.207911 0.978148 0
    outer loop
      vertex -0.927051 -2.85317 8
      vertex -0.313585 -2.98357 -8
      vertex -0.927051 -2.85317 -8
    endloop
  endfacet
  facet normal 0.406738 0.913545 0
    outer loop
      vertex -0.927051 -2.85317 8
      vertex -0.927051 -2.85317 -8
      vertex -1.5 -2.59808 8
    endloop
  endfacet
  facet normal 0.406738 0.913545 0
    outer loop
      vertex -1.5 -2.59808 8
      vertex -0.927051 -2.85317 -8
      vertex -1.5 -2.59808 -8
    endloop
  endfacet
  facet normal 0.587785 0.809017 0
    outer loop
      vertex -1.5 -2.59808 8
      vertex -1.5 -2.59808 -8
      vertex -2.00739 -2.22943 8
    endloop
  endfacet
  facet normal 0.587785 0.809017 0
    outer loop
      vertex -2.00739 -2.22943 8
      vertex -1.5 -2.59808 -8
      vertex -2.00739 -2.22943 -8
    endloop
  endfacet
  facet normal 0.743144 0.669131 0
    outer loop
      vertex -2.42705 -1.76336 8
      vertex -2.00739 -2.22943 8
      vertex -2.00739 -2.22943 -8
    endloop
  endfacet
  facet normal 0.743144 0.669131 0
    outer loop
      vertex -2.42705 -1.76336 -8
      vertex -2.42705 -1.76336 8
      vertex -2.00739 -2.22943 -8
    endloop
  endfacet
  facet normal 0.866026 0.499999 0
    outer loop
      vertex -2.74064 -1.22021 8
      vertex -2.42705 -1.76336 8
      vertex -2.42705 -1.76336 -8
    endloop
  endfacet
  facet normal 0.866026 0.499999 0
    outer loop
      vertex -2.74064 -1.22021 -8
      vertex -2.74064 -1.22021 8
      vertex -2.42705 -1.76336 -8
    endloop
  endfacet
  facet normal 0.951056 0.309018 0
    outer loop
      vertex -2.93444 -0.623735 8
      vertex -2.74064 -1.22021 8
      vertex -2.74064 -1.22021 -8
    endloop
  endfacet
  facet normal 0.951056 0.309018 0
    outer loop
      vertex -2.93444 -0.623735 -8
      vertex -2.93444 -0.623735 8
      vertex -2.74064 -1.22021 -8
    endloop
  endfacet
  facet normal 0.994522 0.104528 0
    outer loop
      vertex -3 0 8
      vertex -2.93444 -0.623735 8
      vertex -2.93444 -0.623735 -8
    endloop
  endfacet
  facet normal 0.994522 0.104528 0
    outer loop
      vertex -3 0 -8
      vertex -3 0 8
      vertex -2.93444 -0.623735 -8
    endloop
  endfacet
  facet normal 0.994522 -0.104528 0
    outer loop
      vertex -2.93444 0.623735 -8
      vertex -2.93444 0.623735 8
      vertex -3 0 8
    endloop
  endfacet
  facet normal 0.994522 -0.104528 0
    outer loop
      vertex -3 0 -8
      vertex -2.93444 0.623735 -8
      vertex -3 0 8
    endloop
  endfacet
  facet normal 0.951056 -0.309018 0
    outer loop
      vertex -2.74064 1.22021 -8
      vertex -2.74064 1.22021 8
      vertex -2.93444 0.623735 8
    endloop
  endfacet
  facet normal 0.951056 -0.309018 0
    outer loop
      vertex -2.93444 0.623735 -8
      vertex -2.74064 1.22021 -8
      vertex -2.93444 0.623735 8
    endloop
  endfacet
  facet normal 0.866026 -0.499999 0
    outer loop
      vertex -2.42705 1.76336 -8
      vertex -2.42705 1.76336 8
      vertex -2.74064 1.22021 8
    endloop
  endfacet
  facet normal 0.866026 -0.499999 0
    outer loop
      vertex -2.74064 1.22021 -8
      vertex -2.42705 1.76336 -8
      vertex -2.74064 1.22021 8
    endloop
  endfacet
  facet normal 0.743144 -0.669131 0
    outer loop
      vertex -2.00739 2.22943 -8
      vertex -2.00739 2.22943 8
      vertex -2.42705 1.76336 8
    endloop
  endfacet
  facet normal 0.743144 -0.669131 0
    outer loop
      vertex -2.42705 1.76336 -8
      vertex -2.00739 2.22943 -8
      vertex -2.42705 1.76336 8
    endloop
  endfacet
  facet normal 0.587785 -0.809017 0
    outer loop
      vertex -1.5 2.59808 -8
      vertex -1.5 2.59808 8
      vertex -2.00739 2.22943 8
    endloop
  endfacet
  facet normal 0.587785 -0.809017 0
    outer loop
      vertex -2.00739 2.22943 -8
      vertex -1.5 2.59808 -8
      vertex -2.00739 2.22943 8
    endloop
  endfacet
  facet normal 0.406738 -0.913545 0
    outer loop
      vertex -0.927051 2.85317 -8
      vertex -0.927051 2.85317 8
      vertex -1.5 2.59808 8
    endloop
  endfacet
  facet normal 0.406738 -0.913545 0
    outer loop
      vertex -1.5 2.59808 -8
      vertex -0.927051 2.85317 -8
      vertex -1.5 2.59808 8
    endloop
  endfacet
  facet normal 0.207911 -0.978148 0
    outer loop
      vertex -0.313585 2.98357 -8
      vertex -0.313585 2.98357 8
      vertex -0.927051 2.85317 8
    endloop
  endfacet
  facet normal 0.207911 -0.978148 0
    outer loop
      vertex -0.927051 2.85317 -8
      vertex -0.313585 2.98357 -8
      vertex -0.927051 2.85317 8
    endloop
  endfacet
  facet normal 0 -1 0
    outer loop
      vertex 0.313585 2.98357 -8
      vertex 0.313585 2.98357 8
      vertex -0.313585 2.98357 8
    endloop
  endfacet
  facet normal 0 -1 0
    outer loop
      vertex -0.313585 2.98357 -8
      vertex 0.313585 2.98357 -8
      vertex -0.313585 2.98357 8
    endloop
  endfacet
  facet normal -0.207911 -0.978148 0
    outer loop
      vertex 0.927051 2.85317 -8
      vertex 0.927051 2.85317 8
      vertex 0.313585 2.98357 8
    endloop
  endfacet
  facet normal -0.207911 -0.978148 0
    outer loop
      vertex 0.313585 2.98357 -8
      vertex 0.927051 2.85317 -8
      vertex 0.313585 2.98357 8
    endloop
  endfacet
  facet normal -0.406738 -0.913545 0
    outer loop
      vertex 1.5 2.59808 -8
      vertex 1.5 2.59808 8
      vertex 0.927051 2.85317 8
    endloop
  endfacet
  facet normal -0.406738 -0.913545 0
    outer loop
      vertex 0.927051 2.85317 -8
      vertex 1.5 2.59808 -8
      vertex 0.927051 2.85317 8
    endloop
  endfacet
  facet normal -0.587785 -0.809017 0
    outer loop
      vertex 2.00739 2.22943 -8
      vertex 2.00739 2.22943 8
      vertex 1.5 2.59808 8
    endloop
  endfacet
  facet normal -0.587785 -0.809017 0
    outer loop
      vertex 1.5 2.59808 -8
      vertex 2.00739 2.22943 -8
      vertex 1.5 2.59808 8
    endloop
  endfacet
  facet normal -0.743144 -0.669131 0
    outer loop
      vertex 2.42705 1.76336 8
      vertex 2.00739 2.22943 8
      vertex 2.42705 1.76336 -8
    endloop
  endfacet
  facet normal -0.743144 -0.669131 0
    outer loop
      vertex 2.42705 1.76336 -8
      vertex 2.00739 2.22943 8
      vertex 2.00739 2.22943 -8
    endloop
  endfacet
  facet normal -0.866026 -0.499999 0
    outer loop
      vertex 2.74064 1.22021 8
      vertex 2.42705 1.76336 8
      vertex 2.74064 1.22021 -8
    endloop
  endfacet
  facet normal -0.866026 -0.499999 0
    outer loop
      vertex 2.74064 1.22021 -8
      vertex 2.42705 1.76336 8
      vertex 2.42705 1.76336 -8
    endloop
  endfacet
  facet normal -0.951056 -0.309018 0
    outer loop
      vertex 2.81219 1 8
      vertex 2.74064 1.22021 8
      vertex 2.81219 1 -8
    endloop
  endfacet
  facet normal -0.951056 -0.309018 0
    outer loop
      vertex 2.81219 1 -8
      vertex 2.74064 1.22021 8
      vertex 2.74064 1.22021 -8
    endloop
  endfacet
  facet normal 0 -1 0
    outer loop
      vertex 6 1 3.4641
      vertex 14 1 8
      vertex 2.81219 1 8
    endloop
  endfacet
  facet normal 0 -1 0
    outer loop
      vertex 11.9126 1 0.831647
      vertex 12 1 -2.22045e-16
      vertex 14 1 -8
    endloop
  endfacet
  facet normal 0 -1 0
    outer loop
      vertex 2.81219 1 -8
      vertex 4 1 -2.22045e-16
      vertex 2.81219 1 8
    endloop
  endfacet
  facet normal 0 -1 0
    outer loop
      vertex 4 1 -2.22045e-16
      vertex 4.08741 1 0.831647
      vertex 2.81219 1 8
    endloop
  endfacet
  facet normal 0 -1 0
    outer loop
      vertex 4.08741 1 0.831647
      vertex 4.34582 1 1.62695
      vertex 2.81219 1 8
    endloop
  endfacet
  facet normal 0 -1 0
    outer loop
      vertex 9.23607 1 -3.80423
      vertex 8.41811 1 -3.97809
      vertex 14 1 -8
    endloop
  endfacet
  facet normal 0 -1 0
    outer loop
      vertex 4.34582 1 1.62695
      vertex 4.76393 1 2.35114
      vertex 2.81219 1 8
    endloop
  endfacet
  facet normal 0 -1 0
    outer loop
      vertex 4.76393 1 2.35114
      vertex 5.32348 1 2.97258
      vertex 2.81219 1 8
    endloop
  endfacet
  facet normal 0 -1 0
    outer loop
      vertex 6.76393 1 3.80423
      vertex 14 1 8
      vertex 6 1 3.4641
    endloop
  endfacet
  facet normal 0 -1 0
    outer loop
      vertex 7.58189 1 3.97809
      vertex 14 1 8
      vertex 6.76393 1 3.80423
    endloop
  endfacet
  facet normal 0 -1 0
    outer loop
      vertex 8.41811 1 3.97809
      vertex 14 1 8
      vertex 7.58189 1 3.97809
    endloop
  endfacet
  facet normal 0 -1 0
    outer loop
      vertex 9.23607 1 3.80423
      vertex 14 1 8
      vertex 8.41811 1 3.97809
    endloop
  endfacet
  facet normal 0 -1 0
    outer loop
      vertex 10 1 3.4641
      vertex 14 1 8
      vertex 9.23607 1 3.80423
    endloop
  endfacet
  facet normal 0 -1 0
    outer loop
      vertex 10.6765 1 2.97258
      vertex 14 1 8
      vertex 10 1 3.4641
    endloop
  endfacet
  facet normal 0 -1 0
    outer loop
      vertex 11.2361 1 2.35114
      vertex 14 1 8
      vertex 10.6765 1 2.97258
    endloop
  endfacet
  facet normal 0 -1 0
    outer loop
      vertex 11.6542 1 1.62695
      vertex 14 1 8
      vertex 11.2361 1 2.35114
    endloop
  endfacet
  facet normal 0 -1 0
    outer loop
      vertex 11.9126 1 0.831647
      vertex 14 1 8
      vertex 11.6542 1 1.62695
    endloop
  endfacet
  facet normal 0 -1 0
    outer loop
      vertex 12 1 -2.22045e-16
      vertex 11.9126 1 -0.831647
      vertex 14 1 -8
    endloop
  endfacet
  facet normal 0 -1 0
    outer loop
      vertex 14 1 -8
      vertex 14 1 8
      vertex 11.9126 1 0.831647
    endloop
  endfacet
  facet normal 0 -1 0
    outer loop
      vertex 11.6542 1 -1.62695
      vertex 11.2361 1 -2.35114
      vertex 14 1 -8
    endloop
  endfacet
  facet normal 0 -1 0
    outer loop
      vertex 11.2361 1 -2.35114
      vertex 10.6765 1 -2.97258
      vertex 14 1 -8
    endloop
  endfacet
  facet normal 0 -1 0
    outer loop
      vertex 10.6765 1 -2.97258
      vertex 10 1 -3.4641
      vertex 14 1 -8
    endloop
  endfacet
  facet normal 0 -1 0
    outer loop
      vertex 2.81219 1 -8
      vertex 14 1 -8
      vertex 8.41811 1 -3.97809
    endloop
  endfacet
  facet normal 0 -1 0
    outer loop
      vertex 2.81219 1 -8
      vertex 8.41811 1 -3.97809
      vertex 7.58189 1 -3.97809
    endloop
  endfacet
  facet normal 0 -1 0
    outer loop
      vertex 2.81219 1 -8
      vertex 7.58189 1 -3.97809
      vertex 6.76393 1 -3.80423
    endloop
  endfacet
  facet normal 0 -1 0
    outer loop
      vertex 2.81219 1 -8
      vertex 6.76393 1 -3.80423
      vertex 6 1 -3.4641
    endloop
  endfacet
  facet normal 0 -1 0
    outer loop
      vertex 2.81219 1 -8
      vertex 6 1 -3.4641
      vertex 5.32348 1 -2.97258
    endloop
  endfacet
  facet normal 0 -1 0
    outer loop
      vertex 2.81219 1 -8
      vertex 5.32348 1 -2.97258
      vertex 4.76393 1 -2.35114
    endloop
  endfacet
  facet normal 0 -1 0
    outer loop
      vertex 2.81219 1 -8
      vertex 4.76393 1 -2.35114
      vertex 4.34582 1 -1.62695
    endloop
  endfacet
  facet normal 0 -1 0
    outer loop
      vertex 2.81219 1 -8
      vertex 4.08741 1 -0.831647
      vertex 4 1 -2.22045e-16
    endloop
  endfacet
  facet normal 0 -1 0
    outer loop
      vertex 2.81219 1 -8
      vertex 4.34582 1 -1.62695
      vertex 4.08741 1 -0.831647
    endloop
  endfacet
  facet normal 0 -1 0
    outer loop
      vertex 5.32348 1 2.97258
      vertex 6 1 3.4641
      vertex 2.81219 1 8
    endloop
  endfacet
  facet normal 0 -1 0
    outer loop
      vertex 11.9126 1 -0.831647
      vertex 11.6542 1 -1.62695
      vertex 14 1 -8
    endloop
  endfacet
  facet normal 0 -1 0
    outer loop
      vertex 10 1 -3.4641
      vertex 9.23607 1 -3.80423
      vertex 14 1 -8
    endloop
  endfacet
  facet normal 1 0 0
    outer loop
      vertex 14 1 8
      vertex 14 1 -8
      vertex 14 7.5 -8
    endloop
  endfacet
  facet normal 1 0 0
    outer loop
      vertex 14 7.5 8
      vertex 14 1 8
      vertex 14 7.5 -8
    endloop
  endfacet
  facet normal 0.994522 -2.32101e-17 -0.104529
    outer loop
      vertex 4 7.5 -1.66533e-15
      vertex 4.08741 7.5 0.831647
      vertex 4.08741 1 0.831647
    endloop
  endfacet
  facet normal 0.994522 -2.32101e-17 -0.104529
    outer loop
      vertex 4 1 -2.22045e-16
      vertex 4 7.5 -1.66533e-15
      vertex 4.08741 1 0.831647
    endloop
  endfacet
  facet normal 0.994522 2.32101e-17 0.104529
    outer loop
      vertex 4.08741 1 -0.831647
      vertex 4.08741 7.5 -0.831647
      vertex 4 7.5 -1.66533e-15
    endloop
  endfacet
  facet normal 0.994522 2.32101e-17 0.104529
    outer loop
      vertex 4 1 -2.22045e-16
      vertex 4.08741 1 -0.831647
      vertex 4 7.5 -1.66533e-15
    endloop
  endfacet
  facet normal 0.951057 -6.86154e-17 -0.309016
    outer loop
      vertex 4.08741 7.5 0.831647
      vertex 4.34582 7.5 1.62695
      vertex 4.34582 1 1.62695
    endloop
  endfacet
  facet normal 0.951057 -6.86154e-17 -0.309016
    outer loop
      vertex 4.08741 1 0.831647
      vertex 4.08741 7.5 0.831647
      vertex 4.34582 1 1.62695
    endloop
  endfacet
  facet normal 0.866025 -1.11022e-16 -0.5
    outer loop
      vertex 4.34582 7.5 1.62695
      vertex 4.76393 7.5 2.35114
      vertex 4.76393 1 2.35114
    endloop
  endfacet
  facet normal 0.866025 -1.11022e-16 -0.5
    outer loop
      vertex 4.34582 1 1.62695
      vertex 4.34582 7.5 1.62695
      vertex 4.76393 1 2.35114
    endloop
  endfacet
  facet normal 0.743144 -1.48577e-16 -0.669131
    outer loop
      vertex 4.76393 7.5 2.35114
      vertex 5.32348 7.5 2.97258
      vertex 5.32348 1 2.97258
    endloop
  endfacet
  facet normal 0.743144 -1.48577e-16 -0.669131
    outer loop
      vertex 4.76393 1 2.35114
      vertex 4.76393 7.5 2.35114
      vertex 5.32348 1 2.97258
    endloop
  endfacet
  facet normal 0.587786 -1.79638e-16 -0.809016
    outer loop
      vertex 6 7.5 3.4641
      vertex 6 1 3.4641
      vertex 5.32348 7.5 2.97258
    endloop
  endfacet
  facet normal 0.587786 -1.79638e-16 -0.809016
    outer loop
      vertex 5.32348 7.5 2.97258
      vertex 6 1 3.4641
      vertex 5.32348 1 2.97258
    endloop
  endfacet
  facet normal 0.406736 -2.02848e-16 -0.913546
    outer loop
      vertex 6.76393 7.5 3.80423
      vertex 6.76393 1 3.80423
      vertex 6 7.5 3.4641
    endloop
  endfacet
  facet normal 0.406736 -2.02848e-16 -0.913546
    outer loop
      vertex 6 7.5 3.4641
      vertex 6.76393 1 3.80423
      vertex 6 1 3.4641
    endloop
  endfacet
  facet normal 0.207912 -2.17192e-16 -0.978147
    outer loop
      vertex 7.58189 7.5 3.97809
      vertex 7.58189 1 3.97809
      vertex 6.76393 7.5 3.80423
    endloop
  endfacet
  facet normal 0.207912 -2.17192e-16 -0.978147
    outer loop
      vertex 6.76393 7.5 3.80423
      vertex 7.58189 1 3.97809
      vertex 6.76393 1 3.80423
    endloop
  endfacet
  facet normal 0 -2.22045e-16 -1
    outer loop
      vertex 8.41811 7.5 3.97809
      vertex 8.41811 1 3.97809
      vertex 7.58189 7.5 3.97809
    endloop
  endfacet
  facet normal 0 -2.22045e-16 -1
    outer loop
      vertex 7.58189 7.5 3.97809
      vertex 8.41811 1 3.97809
      vertex 7.58189 1 3.97809
    endloop
  endfacet
  facet normal -0.207912 -2.17192e-16 -0.978147
    outer loop
      vertex 9.23607 7.5 3.80423
      vertex 9.23607 1 3.80423
      vertex 8.41811 7.5 3.97809
    endloop
  endfacet
  facet normal -0.207912 -2.17192e-16 -0.978147
    outer loop
      vertex 8.41811 7.5 3.97809
      vertex 9.23607 1 3.80423
      vertex 8.41811 1 3.97809
    endloop
  endfacet
  facet normal -0.406736 -2.02848e-16 -0.913546
    outer loop
      vertex 10 7.5 3.4641
      vertex 10 1 3.4641
      vertex 9.23607 7.5 3.80423
    endloop
  endfacet
  facet normal -0.406736 -2.02848e-16 -0.913546
    outer loop
      vertex 9.23607 7.5 3.80423
      vertex 10 1 3.4641
      vertex 9.23607 1 3.80423
    endloop
  endfacet
  facet normal -0.587786 -1.79638e-16 -0.809016
    outer loop
      vertex 10.6765 7.5 2.97258
      vertex 10.6765 1 2.97258
      vertex 10 7.5 3.4641
    endloop
  endfacet
  facet normal -0.587786 -1.79638e-16 -0.809016
    outer loop
      vertex 10 7.5 3.4641
      vertex 10.6765 1 2.97258
      vertex 10 1 3.4641
    endloop
  endfacet
  facet normal -0.743144 -1.48577e-16 -0.669131
    outer loop
      vertex 11.2361 7.5 2.35114
      vertex 11.2361 1 2.35114
      vertex 10.6765 7.5 2.97258
    endloop
  endfacet
  facet normal -0.743144 -1.48577e-16 -0.669131
    outer loop
      vertex 10.6765 7.5 2.97258
      vertex 11.2361 1 2.35114
      vertex 10.6765 1 2.97258
    endloop
  endfacet
  facet normal -0.866025 -1.11022e-16 -0.5
    outer loop
      vertex 11.6542 7.5 1.62695
      vertex 11.6542 1 1.62695
      vertex 11.2361 7.5 2.35114
    endloop
  endfacet
  facet normal -0.866025 -1.11022e-16 -0.5
    outer loop
      vertex 11.2361 7.5 2.35114
      vertex 11.6542 1 1.62695
      vertex 11.2361 1 2.35114
    endloop
  endfacet
  facet normal -0.951057 -6.86154e-17 -0.309016
    outer loop
      vertex 11.9126 7.5 0.831647
      vertex 11.9126 1 0.831647
      vertex 11.6542 7.5 1.62695
    endloop
  endfacet
  facet normal -0.951057 -6.86154e-17 -0.309016
    outer loop
      vertex 11.6542 7.5 1.62695
      vertex 11.9126 1 0.831647
      vertex 11.6542 1 1.62695
    endloop
  endfacet
  facet normal -0.994522 -2.32101e-17 -0.104529
    outer loop
      vertex 12 7.5 -1.66533e-15
      vertex 12 1 -2.22045e-16
      vertex 11.9126 7.5 0.831647
    endloop
  endfacet
  facet normal -0.994522 -2.32101e-17 -0.104529
    outer loop
      vertex 11.9126 7.5 0.831647
      vertex 12 1 -2.22045e-16
      vertex 11.9126 1 0.831647
    endloop
  endfacet
  facet normal -0.994522 2.32101e-17 0.104529
    outer loop
      vertex 12 7.5 -1.66533e-15
      vertex 11.9126 7.5 -0.831647
      vertex 12 1 -2.22045e-16
    endloop
  endfacet
  facet normal -0.994522 2.32101e-17 0.104529
    outer loop
      vertex 12 1 -2.22045e-16
      vertex 11.9126 7.5 -0.831647
      vertex 11.9126 1 -0.831647
    endloop
  endfacet
  facet normal -0.951057 6.86154e-17 0.309016
    outer loop
      vertex 11.9126 7.5 -0.831647
      vertex 11.6542 7.5 -1.62695
      vertex 11.9126 1 -0.831647
    endloop
  endfacet
  facet normal -0.951057 6.86154e-17 0.309016
    outer loop
      vertex 11.9126 1 -0.831647
      vertex 11.6542 7.5 -1.62695
      vertex 11.6542 1 -1.62695
    endloop
  endfacet
  facet normal -0.866025 1.11022e-16 0.5
    outer loop
      vertex 11.6542 7.5 -1.62695
      vertex 11.2361 7.5 -2.35114
      vertex 11.6542 1 -1.62695
    endloop
  endfacet
  facet normal -0.866025 1.11022e-16 0.5
    outer loop
      vertex 11.6542 1 -1.62695
      vertex 11.2361 7.5 -2.35114
      vertex 11.2361 1 -2.35114
    endloop
  endfacet
  facet normal -0.743144 1.48577e-16 0.669131
    outer loop
      vertex 11.2361 7.5 -2.35114
      vertex 10.6765 7.5 -2.97258
      vertex 11.2361 1 -2.35114
    endloop
  endfacet
  facet normal -0.743144 1.48577e-16 0.669131
    outer loop
      vertex 11.2361 1 -2.35114
      vertex 10.6765 7.5 -2.97258
      vertex 10.6765 1 -2.97258
    endloop
  endfacet
  facet normal -0.587786 1.79638e-16 0.809016
    outer loop
      vertex 10.6765 1 -2.97258
      vertex 10.6765 7.5 -2.97258
      vertex 10 7.5 -3.4641
    endloop
  endfacet
  facet normal -0.587786 1.79638e-16 0.809016
    outer loop
      vertex 10 1 -3.4641
      vertex 10.6765 1 -2.97258
      vertex 10 7.5 -3.4641
    endloop
  endfacet
  facet normal -0.406736 2.02848e-16 0.913546
    outer loop
      vertex 10 1 -3.4641
      vertex 10 7.5 -3.4641
      vertex 9.23607 7.5 -3.80423
    endloop
  endfacet
  facet normal -0.406736 2.02848e-16 0.913546
    outer loop
      vertex 9.23607 1 -3.80423
      vertex 10 1 -3.4641
      vertex 9.23607 7.5 -3.80423
    endloop
  endfacet
  facet normal -0.207912 2.17192e-16 0.978147
    outer loop
      vertex 9.23607 1 -3.80423
      vertex 9.23607 7.5 -3.80423
      vertex 8.41811 7.5 -3.97809
    endloop
  endfacet
  facet normal -0.207912 2.17192e-16 0.978147
    outer loop
      vertex 8.41811 1 -3.97809
      vertex 9.23607 1 -3.80423
      vertex 8.41811 7.5 -3.97809
    endloop
  endfacet
  facet normal 0 2.22045e-16 1
    outer loop
      vertex 8.41811 1 -3.97809
      vertex 8.41811 7.5 -3.97809
      vertex 7.58189 7.5 -3.97809
    endloop
  endfacet
  facet normal 0 2.22045e-16 1
    outer loop
      vertex 7.58189 1 -3.97809
      vertex 8.41811 1 -3.97809
      vertex 7.58189 7.5 -3.97809
    endloop
  endfacet
  facet normal 0.207912 2.17192e-16 0.978147
    outer loop
      vertex 7.58189 1 -3.97809
      vertex 7.58189 7.5 -3.97809
      vertex 6.76393 7.5 -3.80423
    endloop
  endfacet
  facet normal 0.207912 2.17192e-16 0.978147
    outer loop
      vertex 6.76393 1 -3.80423
      vertex 7.58189 1 -3.97809
      vertex 6.76393 7.5 -3.80423
    endloop
  endfacet
  facet normal 0.406736 2.02848e-16 0.913546
    outer loop
      vertex 6.76393 1 -3.80423
      vertex 6.76393 7.5 -3.80423
      vertex 6 7.5 -3.4641
    endloop
  endfacet
  facet normal 0.406736 2.02848e-16 0.913546
    outer loop
      vertex 6 1 -3.4641
      vertex 6.76393 1 -3.80423
      vertex 6 7.5 -3.4641
    endloop
  endfacet
  facet normal 0.587786 1.79638e-16 0.809016
    outer loop
      vertex 6 1 -3.4641
      vertex 6 7.5 -3.4641
      vertex 5.32348 7.5 -2.97258
    endloop
  endfacet
  facet normal 0.587786 1.79638e-16 0.809016
    outer loop
      vertex 5.32348 1 -2.97258
      vertex 6 1 -3.4641
      vertex 5.32348 7.5 -2.97258
    endloop
  endfacet
  facet normal 0.743144 1.48577e-16 0.669131
    outer loop
      vertex 5.32348 1 -2.97258
      vertex 5.32348 7.5 -2.97258
      vertex 4.76393 7.5 -2.35114
    endloop
  endfacet
  facet normal 0.743144 1.48577e-16 0.669131
    outer loop
      vertex 4.76393 1 -2.35114
      vertex 5.32348 1 -2.97258
      vertex 4.76393 7.5 -2.35114
    endloop
  endfacet
  facet normal 0.866025 1.11022e-16 0.5
    outer loop
      vertex 4.76393 1 -2.35114
      vertex 4.76393 7.5 -2.35114
      vertex 4.34582 7.5 -1.62695
    endloop
  endfacet
  facet normal 0.866025 1.11022e-16 0.5
    outer loop
      vertex 4.34582 1 -1.62695
      vertex 4.76393 1 -2.35114
      vertex 4.34582 7.5 -1.62695
    endloop
  endfacet
  facet normal 0.951057 6.86154e-17 0.309016
    outer loop
      vertex 4.34582 1 -1.62695
      vertex 4.34582 7.5 -1.62695
      vertex 4.08741 7.5 -0.831647
    endloop
  endfacet
  facet normal 0.951057 6.86154e-17 0.309016
    outer loop
      vertex 4.08741 1 -0.831647
      vertex 4.34582 1 -1.62695
      vertex 4.08741 7.5 -0.831647
    endloop
  endfacet
endsolid OpenSCAD_Model
