999
dxfrw 0.6.3
  0
SECTION
  2
HEADER
  9
$ACADVER
  1
AC1021
  9
$DWGCODEPAGE
  3
ANSI_1252
  9
$INSBASE
 10
0
 20
0
 30
0
  9
$EXTMIN
 10
314.1292730237784
 20
488.2099295939106
 30
0
  9
$EXTMAX
 10
1336.967339455112
 20
1459.017912603486
 30
0
  9
$LIMMIN
 10
0
 20
0
  9
$LIMMAX
 10
420
 20
297
  9
$ORTHOMODE
 70
    0
  9
$REGENMODE
 70
    1
  9
$FILLMODE
 70
    1
  9
$QTEXTMODE
 70
    0
  9
$MIRRTEXT
 70
    0
  9
$LTSCALE
 40
1
  9
$ATTMODE
 70
    0
  9
$TEXTSIZE
 40
2.5
  9
$TRACEWID
 40
15.68
  9
$TEXTSTYLE
  7
STANDARD
  9
$CLAYER
  8
0
  9
$CELTYPE
  6
BYLAYER
  9
$CECOLOR
 62
  256
  9
$CELTSCALE
 40
1
  9
$DISPSILH
 70
    0
  9
$DIMSCALE
 40
2.5
  9
$DIMASZ
 40
2.5
  9
$DIMEXO
 40
0.625
  9
$DIMDLI
 40
3.75
  9
$DIMRND
 40
0
  9
$DIMDLE
 40
0
  9
$DIMEXE
 40
1.25
  9
$DIMTP
 40
0
  9
$DIMTM
 40
0
  9
$DIMTXT
 40
2.5
  9
$DIMCEN
 40
2.5
  9
$DIMTSZ
 40
0
  9
$DIMTOL
 70
    0
  9
$DIMLIM
 70
    0
  9
$DIMTIH
 70
    0
  9
$DIMTOH
 70
    0
  9
$DIMSE1
 70
    0
  9
$DIMSE2
 70
    0
  9
$DIMTAD
 70
    1
  9
$DIMZIN
 70
    8
  9
$DIMBLK
  1

  9
$DIMASO
 70
    1
  9
$DIMSHO
 70
    1
  9
$DIMPOST
  1

  9
$DIMAPOST
  1

  9
$DIMALT
 70
    0
  9
$DIMALTD
 70
    3
  9
$DIMALTF
 40
0.03937
  9
$DIMLFAC
 40
1
  9
$DIMTOFL
 70
    1
  9
$DIMTVP
 40
0
  9
$DIMTIX
 70
    0
  9
$DIMSOXD
 70
    0
  9
$DIMSAH
 70
    0
  9
$DIMBLK1
  1

  9
$DIMBLK2
  1

  9
$DIMSTYLE
  2
Standard
  9
$DIMCLRD
 70
    0
  9
$DIMCLRE
 70
    0
  9
$DIMCLRT
 70
    0
  9
$DIMTFAC
 40
1
  9
$DIMGAP
 40
0.625
  9
$DIMJUST
 70
    0
  9
$DIMSD1
 70
    0
  9
$DIMSD2
 70
    0
  9
$DIMTOLJ
 70
    0
  9
$DIMTZIN
 70
    8
  9
$DIMALTZ
 70
    0
  9
$DIMALTTZ
 70
    0
  9
$DIMUPT
 70
    0
  9
$DIMDEC
 70
    2
  9
$DIMTDEC
 70
    2
  9
$DIMALTU
 70
    2
  9
$DIMALTTD
 70
    3
  9
$DIMTXSTY
  7
STANDARD
  9
$DIMAUNIT
 70
    0
  9
$DIMADEC
 70
    0
  9
$DIMALTRND
 40
0
  9
$DIMAZIN
 70
    0
  9
$DIMDSEP
 70
   44
  9
$DIMATFIT
 70
    3
  9
$DIMFRAC
 70
    0
  9
$DIMLDRBLK
  1
STANDARD
  9
$DIMLUNIT
 70
    2
  9
$DIMLWD
 70
   -2
  9
$DIMLWE
 70
   -2
  9
$DIMTMOVE
 70
    0
  9
$DIMFXL
 40
1
  9
$DIMFXLON
 70
    0
  9
$DIMJOGANG
 40
0.7854
  9
$DIMTFILL
 70
    0
  9
$DIMTFILLCLR
 70
    0
  9
$DIMARCSYM
 70
    0
  9
$DIMLTYPE
  6

  9
$DIMLTEX1
  6

  9
$DIMLTEX2
  6

  9
$LUNITS
 70
    2
  9
$LUPREC
 70
    4
  9
$SKETCHINC
 40
1
  9
$FILLETRAD
 40
0
  9
$AUNITS
 70
    0
  9
$AUPREC
 70
    2
  9
$MENU
  1
.
  9
$ELEVATION
 40
0
  9
$PELEVATION
 40
0
  9
$THICKNESS
 40
0
  9
$LIMCHECK
 70
    0
  9
$CHAMFERA
 40
0
  9
$CHAMFERB
 40
0
  9
$CHAMFERC
 40
0
  9
$CHAMFERD
 40
0
  9
$SKPOLY
 70
    0
  9
$USRTIMER
 70
    1
  9
$ANGBASE
 50
0
  9
$ANGDIR
 70
    0
  9
$PDMODE
 70
   34
  9
$PDSIZE
 40
0
  9
$PLINEWID
 40
0
  9
$SPLFRAME
 70
    0
  9
$SPLINETYPE
 70
    2
  9
$SPLINESEGS
 70
    8
  9
$HANDSEED
  5
20000
  9
$SURFTAB1
 70
    6
  9
$SURFTAB2
 70
    6
  9
$SURFTYPE
 70
    6
  9
$SURFU
 70
    6
  9
$SURFV
 70
    6
  9
$UCSBASE
  2

  9
$UCSNAME
  2

  9
$UCSORG
 10
0
 20
0
 30
0
  9
$UCSXDIR
 10
1
 20
0
 30
0
  9
$UCSYDIR
 10
0
 20
1
 30
0
  9
$UCSORTHOREF
  2

  9
$UCSORTHOVIEW
 70
    0
  9
$UCSORGTOP
 10
0
 20
0
 30
0
  9
$UCSORGBOTTOM
 10
0
 20
0
 30
0
  9
$UCSORGLEFT
 10
0
 20
0
 30
0
  9
$UCSORGRIGHT
 10
0
 20
0
 30
0
  9
$UCSORGFRONT
 10
0
 20
0
 30
0
  9
$UCSORGBACK
 10
0
 20
0
 30
0
  9
$PUCSBASE
  2

  9
$PUCSNAME
  2

  9
$PUCSORG
 10
0
 20
0
 30
0
  9
$PUCSXDIR
 10
1
 20
0
 30
0
  9
$PUCSYDIR
 10
0
 20
1
 30
0
  9
$PUCSORTHOREF
  2

  9
$PUCSORTHOVIEW
 70
    0
  9
$PUCSORGTOP
 10
0
 20
0
 30
0
  9
$PUCSORGBOTTOM
 10
0
 20
0
 30
0
  9
$PUCSORGLEFT
 10
0
 20
0
 30
0
  9
$PUCSORGRIGHT
 10
0
 20
0
 30
0
  9
$PUCSORGFRONT
 10
0
 20
0
 30
0
  9
$PUCSORGBACK
 10
0
 20
0
 30
0
  9
$USERI1
 70
    0
  9
$USERI2
 70
    0
  9
$USERI3
 70
    0
  9
$USERI4
 70
    0
  9
$USERI5
 70
    0
  9
$USERR1
 40
0
  9
$USERR2
 40
0
  9
$USERR3
 40
0
  9
$USERR4
 40
0
  9
$USERR5
 40
0
  9
$WORLDVIEW
 70
    1
  9
$SHADEDGE
 70
    3
  9
$SHADEDIF
 70
   70
  9
$TILEMODE
 70
    1
  9
$MAXACTVP
 70
   64
  9
$PINSBASE
 10
0
 20
0
 30
0
  9
$PLIMCHECK
 70
    0
  9
$PEXTMIN
 10
0
 20
0
 30
0
  9
$PEXTMAX
 10
0
 20
0
 30
0
  9
$SNAPSTYLE
 70
    0
  9
$PLIMMIN
 10
0
 20
0
  9
$PLIMMAX
 10
210
 20
297
  9
$UNITMODE
 70
    0
  9
$VISRETAIN
 70
    1
  9
$PLINEGEN
 70
    0
  9
$PSLTSCALE
 70
    1
  9
$TREEDEPTH
 70
 3020
  9
$CMLSTYLE
  2
Standard
  9
$CMLJUST
 70
    0
  9
$CMLSCALE
 40
20
  9
$PROXYGRAPHICS
 70
    1
  9
$MEASUREMENT
 70
    1
  9
$CELWEIGHT
370
   -1
  9
$ENDCAPS
280
    0
  9
$JOINSTYLE
280
    0
  9
$LWDISPLAY
290
    0
  9
$INSUNITS
 70
    4
  9
$HYPERLINKBASE
  1

  9
$STYLESHEET
  1

  9
$XEDIT
290
    1
  9
$CEPSNTYPE
380
    0
  9
$PSTYLEMODE
290
    1
  9
$EXTNAMES
290
    1
  9
$PSVPSCALE
 40
1
  9
$OLESTARTUP
290
    0
  9
$SORTENTS
280
  127
  9
$INDEXCTL
280
    0
  9
$HIDETEXT
280
    1
  9
$XCLIPFRAME
290
    0
  9
$HALOGAP
280
    0
  9
$OBSCOLOR
 70
  257
  9
$OBSLTYPE
280
    0
  9
$INTERSECTIONDISPLAY
280
    0
  9
$INTERSECTIONCOLOR
 70
  257
  9
$DIMASSOC
280
    1
  9
$PROJECTNAME
  1

  9
$CAMERADISPLAY
290
    0
  9
$LENSLENGTH
 40
50
  9
$CAMERAHEIGHT
 40
0
  9
$STEPSPERSEC
 40
2
  9
$STEPSIZE
 40
50
  9
$3DDWFPREC
 40
2
  9
$PSOLWIDTH
 40
5
  9
$PSOLHEIGHT
 40
80
  9
$LOFTANG1
 40
1.570796326794897
  9
$LOFTANG2
 40
1.570796326794897
  9
$LOFTMAG1
 40
0
  9
$LOFTMAG2
 40
0
  9
$LOFTPARAM
 70
    7
  9
$LOFTNORMALS
280
    1
  9
$LATITUDE
 40
1
  9
$LONGITUDE
 40
1
  9
$NORTHDIRECTION
 40
0
  9
$TIMEZONE
 70
-8000
  9
$LIGHTGLYPHDISPLAY
280
    1
  9
$TILEMODELIGHTSYNCH
280
    1
  9
$SOLIDHIST
280
    1
  9
$SHOWHIST
280
    1
  9
$DWFFRAME
280
    2
  9
$DGNFRAME
280
    0
  9
$REALWORLDSCALE
290
    1
  9
$INTERFERECOLOR
 62
    1
  9
$CSHADOW
280
    0
  9
$SHADOWPLANELOCATION
 40
0
  0
ENDSEC
  0
SECTION
  2
CLASSES
  0
ENDSEC
  0
SECTION
  2
TABLES
  0
TABLE
  2
VPORT
  5
8
330
0
100
AcDbSymbolTable
 70
    1
  0
VPORT
  5
31
330
2
100
AcDbSymbolTableRecord
100
AcDbViewportTableRecord
  2
*ACTIVE
 70
    0
 10
0
 20
0
 11
1
 21
1
 12
851.5859500083994
 22
731.8478043102488
 13
0
 23
0
 14
10
 24
10
 15
10
 25
10
 16
0
 26
0
 36
1
 17
0
 27
0
 37
0
 40
981.1302369490711
 41
1.788532351394003
 42
50
 43
0
 44
0
 50
0
 51
0
 71
    0
 72
  100
 73
    1
 74
    3
 75
    0
 76
    1
 77
    0
 78
    0
281
    0
 65
    1
110
0
120
0
130
0
111
1
121
0
131
0
112
0
122
1
132
0
 79
    0
146
0
348
10020
 60
    7
 61
    5
292
1
282
    1
141
0
142
0
 63
  250
421
3358443
  0
ENDTAB
  0
TABLE
  2
LTYPE
  5
5
330
0
100
AcDbSymbolTable
 70
    4
  0
LTYPE
  5
14
330
5
100
AcDbSymbolTableRecord
100
AcDbLinetypeTableRecord
  2
ByBlock
 70
    0
  3

 72
   65
 73
    0
 40
0
  0
LTYPE
  5
15
330
5
100
AcDbSymbolTableRecord
100
AcDbLinetypeTableRecord
  2
ByLayer
 70
    0
  3

 72
   65
 73
    0
 40
0
  0
LTYPE
  5
16
330
5
100
AcDbSymbolTableRecord
100
AcDbLinetypeTableRecord
  2
Continuous
 70
    0
  3
Solid line
 72
   65
 73
    0
 40
0
  0
LTYPE
  5
32
330
5
100
AcDbSymbolTableRecord
100
AcDbLinetypeTableRecord
  2
DOT
 70
    0
  3
Dot . . . . . . . . . . . . . . . . . . . . . .
 72
   65
 73
    2
 40
6.35
 49
0
 74
    0
 49
-6.35
 74
    0
  0
LTYPE
  5
33
330
5
100
AcDbSymbolTableRecord
100
AcDbLinetypeTableRecord
  2
DOTTINY
 70
    0
  3
Dot (.15x) .....................................
 72
   65
 73
    2
 40
0.9525
 49
0
 74
    0
 49
-0.9525
 74
    0
  0
LTYPE
  5
34
330
5
100
AcDbSymbolTableRecord
100
AcDbLinetypeTableRecord
  2
DOT2
 70
    0
  3
Dot (.5x) .....................................
 72
   65
 73
    2
 40
3.175
 49
0
 74
    0
 49
-3.175
 74
    0
  0
LTYPE
  5
35
330
5
100
AcDbSymbolTableRecord
100
AcDbLinetypeTableRecord
  2
DOTX2
 70
    0
  3
Dot (2x) .  .  .  .  .  .  .  .  .  .  .  .  .
 72
   65
 73
    2
 40
12.7
 49
0
 74
    0
 49
-12.7
 74
    0
  0
LTYPE
  5
36
330
5
100
AcDbSymbolTableRecord
100
AcDbLinetypeTableRecord
  2
DASHED
 70
    0
  3
Dashed _ _ _ _ _ _ _ _ _ _ _ _ _ _ _ _ _
 72
   65
 73
    2
 40
19.05
 49
12.7
 74
    0
 49
-6.35
 74
    0
  0
LTYPE
  5
37
330
5
100
AcDbSymbolTableRecord
100
AcDbLinetypeTableRecord
  2
DASHEDTINY
 70
    0
  3
Dashed (.15x) _ _ _ _ _ _ _ _ _ _ _ _ _ _ _ _ _
 72
   65
 73
    2
 40
2.8575
 49
1.905
 74
    0
 49
-0.9525
 74
    0
  0
LTYPE
  5
38
330
5
100
AcDbSymbolTableRecord
100
AcDbLinetypeTableRecord
  2
DASHED2
 70
    0
  3
Dashed (.5x) _ _ _ _ _ _ _ _ _ _ _ _ _ _ _ _ _
 72
   65
 73
    2
 40
9.524999999999999
 49
6.35
 74
    0
 49
-3.175
 74
    0
  0
LTYPE
  5
39
330
5
100
AcDbSymbolTableRecord
100
AcDbLinetypeTableRecord
  2
DASHEDX2
 70
    0
  3
Dashed (2x) ____  ____  ____  ____  ____  ___
 72
   65
 73
    2
 40
38.09999999999999
 49
25.4
 74
    0
 49
-12.7
 74
    0
  0
LTYPE
  5
3A
330
5
100
AcDbSymbolTableRecord
100
AcDbLinetypeTableRecord
  2
DASHDOT
 70
    0
  3
Dash dot __ . __ . __ . __ . __ . __ . __ . __
 72
   65
 73
    4
 40
25.4
 49
12.7
 74
    0
 49
-6.35
 74
    0
 49
0
 74
    0
 49
-6.35
 74
    0
  0
LTYPE
  5
3B
330
5
100
AcDbSymbolTableRecord
100
AcDbLinetypeTableRecord
  2
DASHDOTTINY
 70
    0
  3
Dash dot (.15x) _._._._._._._._._._._._._._._.
 72
   65
 73
    4
 40
3.81
 49
1.905
 74
    0
 49
-0.9525
 74
    0
 49
0
 74
    0
 49
-0.9525
 74
    0
  0
LTYPE
  5
3C
330
5
100
AcDbSymbolTableRecord
100
AcDbLinetypeTableRecord
  2
DASHDOT2
 70
    0
  3
Dash dot (.5x) _._._._._._._._._._._._._._._.
 72
   65
 73
    4
 40
12.7
 49
6.35
 74
    0
 49
-3.175
 74
    0
 49
0
 74
    0
 49
-3.175
 74
    0
  0
LTYPE
  5
3D
330
5
100
AcDbSymbolTableRecord
100
AcDbLinetypeTableRecord
  2
DASHDOTX2
 70
    0
  3
Dash dot (2x) ____  .  ____  .  ____  .  ___
 72
   65
 73
    4
 40
50.8
 49
25.4
 74
    0
 49
-12.7
 74
    0
 49
0
 74
    0
 49
-12.7
 74
    0
  0
LTYPE
  5
3E
330
5
100
AcDbSymbolTableRecord
100
AcDbLinetypeTableRecord
  2
DIVIDE
 70
    0
  3
Divide ____ . . ____ . . ____ . . ____ . . ____
 72
   65
 73
    6
 40
31.75
 49
12.7
 74
    0
 49
-6.35
 74
    0
 49
0
 74
    0
 49
-6.35
 74
    0
 49
0
 74
    0
 49
-6.35
 74
    0
  0
LTYPE
  5
3F
330
5
100
AcDbSymbolTableRecord
100
AcDbLinetypeTableRecord
  2
DIVIDETINY
 70
    0
  3
Divide (.15x) __..__..__..__..__..__..__..__.._
 72
   65
 73
    6
 40
4.7625
 49
1.905
 74
    0
 49
-0.9525
 74
    0
 49
0
 74
    0
 49
-0.9525
 74
    0
 49
0
 74
    0
 49
-0.9525
 74
    0
  0
LTYPE
  5
40
330
5
100
AcDbSymbolTableRecord
100
AcDbLinetypeTableRecord
  2
DIVIDE2
 70
    0
  3
Divide (.5x) __..__..__..__..__..__..__..__.._
 72
   65
 73
    6
 40
15.875
 49
6.35
 74
    0
 49
-3.175
 74
    0
 49
0
 74
    0
 49
-3.175
 74
    0
 49
0
 74
    0
 49
-3.175
 74
    0
  0
LTYPE
  5
41
330
5
100
AcDbSymbolTableRecord
100
AcDbLinetypeTableRecord
  2
DIVIDEX2
 70
    0
  3
Divide (2x) ________  .  .  ________  .  .  _
 72
   65
 73
    6
 40
63.5
 49
25.4
 74
    0
 49
-12.7
 74
    0
 49
0
 74
    0
 49
-12.7
 74
    0
 49
0
 74
    0
 49
-12.7
 74
    0
  0
LTYPE
  5
42
330
5
100
AcDbSymbolTableRecord
100
AcDbLinetypeTableRecord
  2
BORDER
 70
    0
  3
Border __ __ . __ __ . __ __ . __ __ . __ __ .
 72
   65
 73
    6
 40
44.45
 49
12.7
 74
    0
 49
-6.35
 74
    0
 49
12.7
 74
    0
 49
-6.35
 74
    0
 49
0
 74
    0
 49
-6.35
 74
    0
  0
LTYPE
  5
43
330
5
100
AcDbSymbolTableRecord
100
AcDbLinetypeTableRecord
  2
BORDERTINY
 70
    0
  3
Border (.15x) __.__.__.__.__.__.__.__.__.__.__.
 72
   65
 73
    6
 40
6.6675
 49
1.905
 74
    0
 49
-0.9525
 74
    0
 49
1.905
 74
    0
 49
-0.9525
 74
    0
 49
0
 74
    0
 49
-0.9525
 74
    0
  0
LTYPE
  5
44
330
5
100
AcDbSymbolTableRecord
100
AcDbLinetypeTableRecord
  2
BORDER2
 70
    0
  3
Border (.5x) __.__.__.__.__.__.__.__.__.__.__.
 72
   65
 73
    6
 40
22.225
 49
6.35
 74
    0
 49
-3.175
 74
    0
 49
6.35
 74
    0
 49
-3.175
 74
    0
 49
0
 74
    0
 49
-3.175
 74
    0
  0
LTYPE
  5
45
330
5
100
AcDbSymbolTableRecord
100
AcDbLinetypeTableRecord
  2
BORDERX2
 70
    0
  3
Border (2x) ____  ____  .  ____  ____  .  ___
 72
   65
 73
    6
 40
88.89999999999999
 49
25.4
 74
    0
 49
-12.7
 74
    0
 49
25.4
 74
    0
 49
-12.7
 74
    0
 49
0
 74
    0
 49
-12.7
 74
    0
  0
LTYPE
  5
46
330
5
100
AcDbSymbolTableRecord
100
AcDbLinetypeTableRecord
  2
CENTER
 70
    0
  3
Center ____ _ ____ _ ____ _ ____ _ ____ _ ____
 72
   65
 73
    4
 40
50.8
 49
31.75
 74
    0
 49
-6.35
 74
    0
 49
6.35
 74
    0
 49
-6.35
 74
    0
  0
LTYPE
  5
47
330
5
100
AcDbSymbolTableRecord
100
AcDbLinetypeTableRecord
  2
CENTERTINY
 70
    0
  3
Center (.15x) ___ _ ___ _ ___ _ ___ _ ___ _ ___
 72
   65
 73
    4
 40
7.619999999999999
 49
4.7625
 74
    0
 49
-0.9525
 74
    0
 49
0.9525
 74
    0
 49
-0.9525
 74
    0
  0
LTYPE
  5
48
330
5
100
AcDbSymbolTableRecord
100
AcDbLinetypeTableRecord
  2
CENTER2
 70
    0
  3
Center (.5x) ___ _ ___ _ ___ _ ___ _ ___ _ ___
 72
   65
 73
    4
 40
28.575
 49
19.05
 74
    0
 49
-3.175
 74
    0
 49
3.175
 74
    0
 49
-3.175
 74
    0
  0
LTYPE
  5
49
330
5
100
AcDbSymbolTableRecord
100
AcDbLinetypeTableRecord
  2
CENTERX2
 70
    0
  3
Center (2x) ________  __  ________  __  _____
 72
   65
 73
    4
 40
101.6
 49
63.5
 74
    0
 49
-12.7
 74
    0
 49
12.7
 74
    0
 49
-12.7
 74
    0
  0
ENDTAB
  0
TABLE
  2
LAYER
  5
2
330
0
100
AcDbSymbolTable
 70
    1
  0
LAYER
  5
10
330
2
100
AcDbSymbolTableRecord
100
AcDbLayerTableRecord
  2
0
 70
    0
 62
    7
  6
CONTINUOUS
370
    0
390
F
  0
ENDTAB
  0
TABLE
  2
STYLE
  5
3
330
0
100
AcDbSymbolTable
 70
    3
  0
STYLE
  5
4A
330
2
100
AcDbSymbolTableRecord
100
AcDbTextStyleTableRecord
  2
Standard
 70
    0
 40
0
 41
1
 50
0
 71
    0
 42
1
  3
txt
  4

  0
ENDTAB
  0
TABLE
  2
VIEW
  5
6
330
0
100
AcDbSymbolTable
 70
    0
  0
ENDTAB
  0
TABLE
  2
UCS
  5
7
330
0
100
AcDbSymbolTable
 70
    0
  0
ENDTAB
  0
TABLE
  2
APPID
  5
9
330
0
100
AcDbSymbolTable
 70
    1
  0
APPID
  5
12
330
9
100
AcDbSymbolTableRecord
100
AcDbRegAppTableRecord
  2
ACAD
 70
    0
  0
APPID
  5
4B
330
9
100
AcDbSymbolTableRecord
100
AcDbRegAppTableRecord
  2
LibreCad
 70
    0
  0
ENDTAB
  0
TABLE
  2
DIMSTYLE
  5
A
330
0
100
AcDbSymbolTable
 70
    1
100
AcDbDimStyleTable
 71
    1
  0
DIMSTYLE
105
4C
330
A
100
AcDbSymbolTableRecord
100
AcDbDimStyleTableRecord
  2
Standard
 70
    0
 40
1
 41
2.5
 42
0.625
 43
0.38
 44
1.25
 45
0
 46
0
 47
0
 48
0
 49
1
140
2.5
141
0.09
142
2.5
143
25.4
144
1
145
0
146
1
147
0.625
148
0
 71
    0
 72
    0
 73
    0
 74
    1
 75
    0
 76
    0
 77
    0
 78
    1
 79
    0
170
    0
171
    2
172
    0
173
    0
174
    0
175
    0
176
    0
177
    0
178
    0
179
    0
271
    2
272
    4
273
    2
274
    2
275
    0
276
    0
277
    2
278
    0
279
    0
280
    0
281
    0
282
    0
283
    1
284
    0
285
    0
286
    0
288
    0
289
    3
340
standard
341

371
   -2
372
   -2
  0
ENDTAB
  0
TABLE
  2
BLOCK_RECORD
  5
1
330
0
100
AcDbSymbolTable
 70
    2
  0
BLOCK_RECORD
  5
1F
330
1
100
AcDbSymbolTableRecord
100
AcDbBlockTableRecord
  2
*Model_Space
 70
    0
280
    1
281
    0
  0
BLOCK_RECORD
  5
1E
330
1
100
AcDbSymbolTableRecord
100
AcDbBlockTableRecord
  2
*Paper_Space
 70
    0
280
    1
281
    0
  0
ENDTAB
  0
ENDSEC
  0
SECTION
  2
BLOCKS
  0
BLOCK
  5
20
330
1F
100
AcDbEntity
  8
0
100
AcDbBlockBegin
  2
*Model_Space
 70
    0
 10
0
 20
0
 30
0
  3
*Model_Space
  1

  0
ENDBLK
  5
21
330
1F
100
AcDbEntity
  8
0
100
AcDbBlockEnd
  0
BLOCK
  5
1C
330
1B
100
AcDbEntity
  8
0
100
AcDbBlockBegin
  2
*Paper_Space
 70
    0
 10
0
 20
0
 30
0
  3
*Paper_Space
  1

  0
ENDBLK
  5
1D
330
1F
100
AcDbEntity
  8
0
100
AcDbBlockEnd
  0
ENDSEC
  0
SECTION
  2
ENTITIES
  0
LWPOLYLINE
  5
4D
100
AcDbEntity
  8
0
  6
ByLayer
 62
  256
370
   -1
100
AcDbPolyline
 90
 1180
 70
    1
 43
0
 10
932
 20
1458.326003
 42
-0.00452500000000013
 10
929.3892129999992
 20
1458.121699
 42
-0.0007720000000000588
 10
924.4156249999983
 20
1457.78546
 42
-0.0008419999999998793
 10
918.5727829999986
 20
1457.409391
 42
-0.0007499999999999138
 10
912.4999999999992
 20
1457.037933999999
 42
0.006454000000000035
 10
906.134
 20
1456.575593
 42
0.005444000000000017
 10
899.409375
 20
1455.926034
 42
0.005495000000000012
 10
893.2868130000001
 20
1455.199124
 42
0.01517699999999998
 10
889
 20
1454.509448
 42
0.008770999999999923
 10
875.9180059999999
 20
1451.756516
 42
0.005816000000000029
 10
861.001839
 20
1448.160227
 42
0.004419000000000031
 10
847.27043
 20
1444.550645
 42
0.03897700000000005
 10
841.3677039999999
 20
1442.437324
 42
-0.01425399999999983
 10
839.1197069999999
 20
1441.504816
 42
-0.01082500000000013
 10
836.606882
 20
1440.607279
 42
-0.01096999999999991
 10
834.211274
 20
1439.867621
 42
-0.02499800000000021
 10
832.367704
 20
1439.440733
 42
0.02278900000000012
 10
830.7769500000001
 20
1439.079779
 42
0.02156400000000008
 10
829.195513
 20
1438.570024
 42
0.02210100000000007
 10
827.836948
 20
1437.997012
 42
0.06735499999999982
 10
827
 20
1437.451249
 42
-0.0518170000000003
 10
826.215244
 20
1436.904163
 42
-0.02164500000000014
 10
825.059375
 20
1436.328635
 42
-0.02113700000000032
 10
823.7585739999998
 20
1435.814453
 42
-0.02567599999999966
 10
822.5
 20
1435.448693
 42
0.06109999999999981
 10
818.481983
 20
1433.965896
 42
0.008168999999999914
 10
810.5094880000001
 20
1429.693798
 42
0.01020900000000002
 10
802.3564879999999
 20
1424.931338
 42
0.02179500000000004
 10
796.306601
 20
1420.857128
 42
-0.007827999999999844
 10
794.239454
 20
1419.37949
 42
-0.01104000000000007
 10
792.3488019999999
 20
1418.133031
 42
-0.007434000000000022
 10
790.741958
 20
1417.156863
 42
-0.1335489999999876
 10
790.1651440000001
 20
1417
 42
0.1201279999999957
 10
789.7204400000002
 20
1416.891593
 42
0.03573899999999836
 10
789.119896
 20
1416.52367
 42
0.03358600000000088
 10
788.4819759999999
 20
1415.999034
 42
0.03067599999999997
 10
787.8991240000001
 20
1415.378451
 42
-0.07292500000000321
 10
786.9859240000001
 20
1414.557125
 42
-0.01104500000000011
 10
784.905679
 20
1413.238966
 42
-0.01217999999999994
 10
782.359926
 20
1411.786931
 42
-0.01026700000000018
 10
779.598472
 20
1410.372164
 42
0.007299999999999912
 10
776.814725
 20
1408.966762
 42
0.008399999999999941
 10
774.20174
 20
1407.542914
 42
0.007665999999999947
 10
772.03007
 20
1406.267397
 42
0.04732800000000001
 10
770.9930529999999
 20
1405.493713
 42
-0.01971099999999963
 10
770.3088139999998
 20
1404.921879
 42
-0.02330799999999968
 10
769.617783
 20
1404.438778
 42
-0.02303800000000022
 10
769.0058810000002
 20
1404.090497
 42
-0.1183940000000129
 10
768.629053
 20
1404
 42
0.1856880000000046
 10
767.3764449999999
 20
1403.518199
 42
0.007208999999999919
 10
763.683817
 20
1400.086386
 42
0.00793799999999991
 10
758.2364930000001
 20
1394.70725
 42
0.001677000000000061
 10
748.9130439999997
 20
1385.139505
 42
0.03737399999999984
 10
747.002458
 20
1382.845225
 42
0.009594999999999999
 10
744.2738899999999
 20
1378.861142
 42
0.01025399999999996
 10
741.579968
 20
1374.571898
 42
0.01952499999999995
 10
739.622839
 20
1371
 42
-0.003972000000000144
 10
738.7631429999999
 20
1369.308188
 42
-0.001697999999999773
 10
737.588137
 20
1367.059375
 42
-0.001679999999999974
 10
736.3192889999999
 20
1364.670416
 42
-0.002209999999999892
 10
735.1447770000001
 20
1362.5
 42
0.02599399999999999
 10
732.5768729999999
 20
1357.163138
 42
0.01288699999999995
 10
729.8539959999999
 20
1350.157849
 42
0.01265799999999999
 10
727.366767
 20
1342.643093
 42
0.01660899999999996
 10
725.5008519999999
 20
1335.659906
 42
-0.01102000000000001
 10
724.6418359999998
 20
1332.29469
 42
-0.003703000000000019
 10
723.2439470000002
 20
1327.421849
 42
-0.003682000000000164
 10
721.617251
 20
1322.051925
 42
-0.00420600000000017
 10
719.9803999999999
 20
1316.940522
 10
716
 20
1304.861713
 10
716
 20
1287.556583
 42
0.004669000000000014
 10
716.0761589999998
 20
1279.401394
 42
0.01156000000000014
 10
716.3258819999999
 20
1273.429982
 42
0.01476399999999998
 10
716.7391270000001
 20
1269.067208
 42
0.05439899999999976
 10
717.376864
 20
1266.375727
 42
0.02306999999999989
 10
719.9806569999997
 20
1259.995613
 42
0.005653000000000023
 10
724.8628639999996
 20
1249.756125000001
 42
0.003387999999999919
 10
730.0334359999997
 20
1239.398247000001
 42
0.0678250000000003
 10
732.038525
 20
1236.5
 42
-0.02001500000000007
 10
732.836502
 20
1235.553834
 42
-0.01144800000000002
 10
733.726229
 20
1234.353125
 42
-0.01142299999999993
 10
734.567142
 20
1233.102555
 42
-0.01858500000000014
 10
735.2160650000001
 20
1232
 42
0.007164999999999954
 10
736.0161750000002
 20
1230.566676
 42
0.001244000000000115
 10
737.5732230000002
 20
1227.884375
 42
0.001351999999999915
 10
739.4167839999997
 20
1224.746148
 42
0.001210999999999846
 10
741.3461910000005
 20
1221.500000000001
 42
-7.599999999996292e-05
 10
743.2637519999998
 20
1218.290393000003
 42
-9.000000000000667e-05
 10
745.0713879999985
 20
1215.262499999999
 42
-7.799999999999971e-05
 10
746.5950790000007
 20
1212.708282999999
 42
-0.0005859999999999694
 10
747.3136930000001
 20
1211.5
 42
0.01071000000000007
 10
747.9755089999998
 20
1210.436815
 42
0.002720000000000006
 10
749.0955879999998
 20
1208.740739
 42
0.002772999999999741
 10
750.3964239999999
 20
1206.817244
 42
0.002803000000000115
 10
751.7138420000002
 20
1204.91528
 42
-0.03191100000000007
 10
757.1413080000001
 20
1196.014801
 42
-0.02201200000000005
 10
762.168929
 20
1185.32919
 42
-0.02120800000000005
 10
765.9363039999998
 20
1175.114669
 42
-0.07789099999999971
 10
766.9999999999999
 20
1168.327997
 42
0.05131999999999967
 10
767.1335370000002
 20
1167.030394
 42
0.008418999999999907
 10
767.6896520000001
 20
1164.56593
 42
0.009187000000000067
 10
768.448912
 20
1161.678688
 42
0.007991000000000182
 10
769.347753
 20
1158.68307
 10
771.695506
 20
1151.289949
 10
767.597753
 20
1152.291386
 42
-0.01022599999999993
 10
765.955585
 20
1152.728485
 42
-0.01180200000000015
 10
764.4099649999998
 20
1153.213714
 42
-0.01092299999999991
 10
763.1243039999999
 20
1153.682495
 42
-0.06521200000000457
 10
762.4999999999998
 20
1154.024954
 42
0.08728799999999434
 10
761.769509
 20
1154.384905
 42
0.005456000000000025
 10
759.44375
 20
1155.03556
 42
0.007924999999999991
 10
756.637244
 20
1155.740306
 42
0.005791999999999967
 10
753.4999999999993
 20
1156.437215
 42
-0.0003859999999999273
 10
749.7901169999957
 20
1157.219345
 42
-0.0002069999999999032
 10
745.2062499999993
 20
1158.191410999999
 42
-0.0002060000000001978
 10
740.5275689999952
 20
1159.187613000002
 42
-0.0003209999999999992
 10
736.4999999999983
 20
1160.049613000001
 42
0.005866000000000025
 10
726.918526
 20
1161.989417
 42
0.01199699999999998
 10
719.353616
 20
1163.241521
 42
0.01150399999999995
 10
711.539118
 20
1164.160227
 42
0.004958000000000005
 10
701.085991
 20
1165.041461
 42
-0.007433000000000037
 10
694.8657049999998
 20
1165.596877
 42
-0.005709000000000012
 10
688.0902129999997
 20
1166.381838
 42
-0.005774999999999973
 10
681.768719
 20
1167.261766
 42
-0.01363899999999986
 10
677.085991
 20
1168.100024
 42
0.03113099999999997
 10
665.924009
 20
1169.697682
 42
0.01077499999999998
 10
649.6668110000001
 20
1170.647795
 42
0.01080100000000003
 10
633.360995
 20
1170.896065
 42
0.03050400000000007
 10
622.0000000000002
 20
1170.129558
 42
0.0005089999999999912
 10
617.9308310000004
 20
1169.600156999999
 42
0.0002329999999999682
 10
612.61875
 20
1168.901038999999
 42
0.0002299999999999743
 10
607.0241479999997
 20
1168.159467
 42
0.0003179999999999805
 10
601.9999999999997
 20
1167.487908
 42
-0.00674800000000004
 10
596.5626229999999
 20
1166.832172
 42
-0.00330399999999997
 10
589.6187499999996
 20
1166.136062
 42
-0.003277000000000113
 10
582.3906169999996
 20
1165.507431
 42
-0.00475100000000018
 10
575.9999999999998
 20
1165.054887
 42
0.01384500000000004
 10
566.6943220000001
 20
1164.225585
 42
0.02045999999999995
 10
558.600446
 20
1162.940274
 42
0.02031000000000004
 10
552.231173
 20
1161.388265
 42
0.127120999999999
 10
549.367199
 20
1159.700532
 42
-0.0885019999999947
 10
548.981134
 20
1159.431362
 42
-0.03631600000000001
 10
548.381302
 20
1159.205781
 42
-0.03448999999999966
 10
547.686191
 20
1159.051685
 42
-0.03731900000000032
 10
546.99468
 20
1159
 42
0.1114679999999969
 10
544.0007390000001
 20
1158.324143
 42
0.005291999999999963
 10
534.686612
 20
1153.771669
 42
0.006819999999999922
 10
525.661159
 20
1149.086123
 42
0.0733579999999996
 10
522.363713
 20
1146.636441
 42
-0.02526599999999998
 10
521.308331
 20
1145.682652
 42
-0.01507800000000002
 10
519.9650310000001
 20
1144.652537
 42
-0.01507600000000006
 10
518.5614570000001
 20
1143.704825
 42
-0.02516700000000008
 10
517.32017
 20
1143.004911
 42
0.01392399999999993
 10
512.572821
 20
1140.46696
 42
0.009022999999999979
 10
507.2215649999999
 20
1137.282221
 42
0.008739999999999946
 10
502.311613
 20
1134.118701
 42
0.02825300000000002
 10
499.215204
 20
1131.782655
 42
-0.01323399999999991
 10
497.8875660000002
 20
1130.717017
 42
-0.01724000000000012
 10
496.615146
 20
1129.817405
 42
-0.01494799999999995
 10
495.521408
 20
1129.145257
 42
-0.1310299999999921
 10
494.976635
 20
1129
 42
0.142169999999998
 10
493.931099
 20
1128.696579
 42
0.02143100000000009
 10
492.121387
 20
1127.43779
 42
0.01485199999999999
 10
489.451252
 20
1125.277201
 42
0.003396999999999964
 10
485.071923
 20
1121.460945
 42
-0.009587999999999932
 10
483.0295759999999
 20
1119.72521
 42
-0.006732999999999943
 10
480.6680019999999
 20
1117.847391
 42
-0.00679599999999991
 10
478.3577309999998
 20
1116.110275
 42
-0.01410599999999995
 10
476.4999999999998
 20
1114.831352
 42
0.04084200000000038
 10
474.0090449999998
 20
1112.912645
 42
0.002789999999999893
 10
467.4396570000002
 20
1106.871104
 42
0.003975000000000035
 10
459.6952369999999
 20
1099.553091
 42
0.00297200000000002
 10
451.2732999999989
 20
1091.370408000001
 42
-0.0004940000000000608
 10
442.9037959999955
 20
1083.157639999997
 42
-0.0006679999999998874
 10
435.3190239999976
 20
1075.749431999996
 42
-0.0004479999999997728
 10
428.9381430000017
 20
1069.544864000001
 42
-0.007338000000000111
 10
426.768578
 20
1067.5
 42
0.01190200000000004
 10
425.230272
 20
1066.023365
 42
0.005363999999999985
 10
423.2798609999999
 20
1064.017245
 42
0.005306999999999988
 10
421.2645149999999
 20
1061.85382
 42
0.007213000000000011
 10
419.4952780000003
 20
1059.856579
 42
-9.100000000012114e-05
 10
417.8479189999953
 20
1057.942676999993
 42
-9.099999999989909e-05
 10
416.2019490000002
 20
1056.031792999998
 42
-8.900000000007222e-05
 10
414.7657419999992
 20
1054.365645999998
 42
-0.0003649999999999549
 10
413.8943359999998
 20
1053.356579
 42
-0.02970599999999996
 10
412.1906820000001
 20
1051.608218
 42
-0.006460000000000098
 10
409.0401380000002
 20
1048.811161
 42
-0.004431000000000259
 10
404.2089399999986
 20
1044.706639999999
 42
-0.001113999999999962
 10
396.2631039999989
 20
1038.106265999999
 42
0.02621700000000005
 10
391.7361339999999
 20
1033.944769
 42
0.017006
 10
386.9352549999999
 20
1028.697551
 42
0.011095
 10
382.740943
 20
1023.561542
 42
0.166722000000001
 10
381.998352
 20
1021.409131
 42
-0.1323710000000029
 10
381.841954
 20
1020.83289
 42
-0.006700999999999951
 10
380.830284
 20
1019.151432
 42
-0.01034099999999999
 10
379.546255
 20
1017.173191
 42
-0.007275999999999914
 10
378.0242660000001
 20
1015
 42
0.005230000000000089
 10
376.355436
 20
1012.637772
 42
0.004326000000000013
 10
374.6258560000001
 20
1010.0875
 42
0.004369000000000033
 10
373.0802150000001
 20
1007.720884
 42
0.01168399999999996
 10
372.033525
 20
1006
 42
-0.005607999999999913
 10
370.963178
 20
1004.191069
 42
-0.001701000000000002
 10
369.3000899999998
 20
1001.471875
 42
-0.001703000000000064
 10
367.4152229999999
 20
998.4366889999998
 42
-0.001856000000000193
 10
365.5624279999999
 20
995.4999999999998
 42
0.01387399999999998
 10
361.8713040000001
 20
989.3255349999999
 42
0.009981000000000016
 10
358.083262
 20
982.242393
 42
0.01002800000000001
 10
354.611305
 20
975.0746779999999
 42
0.01486000000000003
 10
351.8847349999999
 20
968.6491569999999
 42
-0.003813000000000032
 10
350.9081949999999
 20
966.1986219999999
 42
-0.001768000000000158
 10
349.6042319999997
 20
963.0297519999993
 42
-0.001750999999999928
 10
348.2110039999999
 20
959.7105149999996
 42
-0.002438000000000037
 10
346.9390759999999
 20
956.7499999999999
 42
0.0007160000000000061
 10
345.5914819999998
 20
953.642908
 42
0.0003989999999999287
 10
343.9578259999998
 20
949.8531250000008
 42
0.0003980000000000816
 10
342.3108859999995
 20
946.0157219999996
 42
0.0006440000000000559
 10
340.9173529999996
 20
942.7499999999995
 42
-0.0006160000000001118
 10
339.6705239999995
 20
939.8276219999984
 42
-0.0007089999999997862
 10
338.4733850000001
 20
937.0421880000001
 42
-0.0006360000000000298
 10
337.4522519999999
 20
934.6837779999996
 42
-0.004117999999999736
 10
336.9262859999999
 20
933.5
 42
0.0343420000000001
 10
335.5903700000001
 20
929.9258380000002
 42
0.001984000000000016
 10
332.301548
 20
918.7030000000002
 42
0.002828999999999984
 10
329.1882069999999
 20
907.6871280000001
 42
0.01775099999999999
 10
327.830882
 20
902
 42
-0.01106199999999986
 10
327.321111
 20
899.7300319999999
 42
-0.003814999999999909
 10
326.486881
 20
896.4718749999998
 42
-0.003787999999999932
 10
325.5122649999999
 20
892.8928089999998
 42
-0.004384999999999888
 10
324.528522
 20
889.4999999999999
 42
0.005785999999999995
 10
323.4638959999999
 20
885.789413
 42
0.003142000000000038
 10
322.237046
 20
881.20625
 42
0.003130000000000024
 10
321.0472410000001
 20
876.5272909999999
 42
0.004948999999999999
 10
320.0921490000001
 20
872.5
 42
0.009537000000000004
 10
318.800407
 20
866.2522750000001
 42
0.009448999999999935
 10
317.7435170000001
 20
859.940567
 42
0.006159000000000019
 10
316.6155440000002
 20
851.6169030000001
 42
0.001541000000000039
 10
314.9833790000002
 20
837.9999999999998
 42
0.02098000000000004
 10
314.324242
 20
829.1401579999999
 42
0.008206999999999855
 10
314.1293239999999
 20
816.8754810000003
 42
0.00807099999999995
 10
314.3315699999999
 20
804.7404640000002
 42
0.024376
 10
315.0050729999998
 20
796.5000000000005
 42
0.003781000000000193
 10
316.3082069999998
 20
787.1069790000001
 42
0.001927000000000091
 10
318.0801660000002
 20
775.3244259999998
 42
0.001756999999999924
 10
319.853036
 20
764.0988240000009
 42
0.007735999999999893
 10
321.0240089999999
 20
757.5000000000002
 42
0.02200399999999999
 10
322.8130579999998
 20
750.0309040000005
 42
0.004691999999999983
 10
326.6128540000002
 20
737.2266820000004
 42
0.004323999999999923
 10
330.6343670000001
 20
724.5200520000001
 42
0.02800600000000001
 10
333.070424
 20
718.260898
 42
-0.014697
 10
333.8090450000001
 20
716.502953
 42
-0.01526100000000003
 10
334.4331870000001
 20
714.726404
 42
-0.01512100000000009
 10
334.878522
 20
713.160575
 42
-0.06179099999999986
 10
335
 20
712.1813560000001
 42
0.07870200000000002
 10
335.500949
 20
709.0185119999999
 42
0.00635699999999998
 10
338.2127050000001
 20
701.0200879999999
 42
0.008927000000000041
 10
341.5872950000002
 20
691.9846700000001
 42
0.008900999999999892
 10
345.2854520000001
 20
683.066588
 42
0.03521300000000002
 10
347.9691339999998
 20
677.9279940000002
 42
0.007482000000000116
 10
353.390655
 20
669.4071100000001
 42
0.007555000000000025
 10
359.070879
 20
661.045826
 42
0.03398900000000012
 10
362.784484
 20
656.451595
 42
0.02193800000000008
 10
364.134668
 20
655.118092
 42
0.01256599999999991
 10
365.871176
 20
653.624957
 42
0.01253600000000009
 10
367.6960260000001
 20
652.208735
 42
0.02033699999999966
 10
369.322439
 20
651.1097390000001
 42
-0.02945000000000001
 10
371.1968029999999
 20
649.7928439999998
 42
-0.008404999999999897
 10
373.9438289999999
 20
647.534159
 42
-0.00843199999999999
 10
376.9641409999999
 20
644.875387
 42
-0.00885100000000001
 10
379.8438029999999
 20
642.1581440000001
 42
0.002881999999999963
 10
382.7388839999996
 20
639.3602790000004
 42
0.002500000000000191
 10
385.8060459999999
 20
636.4593140000002
 42
0.00251600000000011
 10
388.6099220000001
 20
633.86016
 42
0.007370999999999908
 10
390.577143
 20
632.107606
 42
-0.003211999999999941
 10
392.6338369999999
 20
630.3058060000001
 42
-0.0009110000000000301
 10
395.8096110000002
 20
627.476994
 42
-0.0009179999999999987
 10
399.384641
 20
624.2690159999997
 42
-0.0009710000000000826
 10
402.881109
 20
621.1076059999997
 42
0.003913999999999808
 10
406.1735679999999
 20
618.1656840000002
 42
0.005679999999999848
 10
409.1289409999999
 20
615.6252340000001
 42
0.003031000000000034
 10
411.6603
 20
613.5248350000001
 42
0.09149500000000114
 10
412.381109
 20
613.127232
 42
-0.07150700000000126
 10
412.987989
 20
612.823249
 42
-0.01169400000000002
 10
414.052576
 20
612.0461950000001
 42
-0.01266900000000008
 10
415.2693840000001
 20
611.063731
 42
-0.01086799999999991
 10
416.5
 20
609.970568
 42
0.03243099999999999
 10
419.350189
 20
607.65054
 42
0.01445699999999987
 10
423.3758189999999
 20
604.9582830000002
 42
0.01390599999999997
 10
427.435121
 20
602.5648930000001
 42
0.04720000000000017
 10
430.25
 20
601.33944
 42
-0.03793799999999993
 10
430.919775
 20
601.062469
 42
-0.04796899999999941
 10
431.485937
 20
600.704495
 42
-0.05586400000000075
 10
431.8776789999999
 20
600.32365
 42
-0.1736879999999845
 10
431.9999999999999
 20
599.9821449999999
 42
0.2513779999999971
 10
432.509489
 20
599.032791
 42
0.0148940000000002
 10
435.375124
 20
597.252476
 42
0.02051500000000012
 10
438.954823
 20
595.365588
 42
0.01648199999999992
 10
442.945818
 20
593.625692
 42
-0.02619599999999994
 10
447.5744169999999
 20
591.4999309999998
 42
-0.008832999999999954
 10
454.0898389999999
 20
587.9356299999999
 42
-0.005890999999999956
 10
460.4584689999999
 20
584.203906
 42
-0.08057699999999993
 10
462.5
 20
582.475203
 42
0.06435099999999981
 10
464.074811
 20
581.051927
 42
0.007742000000000058
 10
467.9705370000001
 20
578.438501
 42
0.01000499999999976
 10
472.135819
 20
575.8537130000001
 42
0.02083000000000006
 10
475.5
 20
574.04313
 42
-0.01031900000000014
 10
476.7585560000001
 20
573.3995180000001
 42
-0.008790000000000093
 10
478.059375
 20
572.6702990000001
 42
-0.008886999999999978
 10
479.219703
 20
571.9648079999999
 42
-0.0246769999999999
 10
479.9999999999999
 20
571.415479
 42
0.03704500000000002
 10
480.9998309999999
 20
570.747926
 42
0.003565000000000143
 10
483.5562499999999
 20
569.3263230000001
 42
0.004521000000000112
 10
486.6352649999999
 20
567.678719
 42
0.003555000000000001
 10
490
 20
565.947535
 42
-0.004464999999999887
 10
493.5488369999999
 20
564.1134570000002
 42
-0.004047000000000097
 10
497.1829710000001
 20
562.156203
 42
-0.004053000000000063
 10
500.407296
 20
560.351673
 42
-0.01294899999999988
 10
502.5164969999995
 20
559.0751860000003
 42
0.001057000000000102
 10
507.2780439999999
 20
556.03649
 42
0.008224000000000013
 10
509.5249009999999
 20
554.66061
 42
0.01658400000000005
 10
511.120046
 20
553.789503
 42
0.01499099999999999
 10
512.823439
 20
552.9944410000001
 42
-0.007508000000000081
 10
514.2200729999998
 20
552.3678399999999
 42
-0.0009890000000000987
 10
517.1599830000002
 20
550.9883659999998
 42
-0.001148000000000093
 10
520.6396450000002
 20
549.337448
 42
-0.0009620000000000566
 10
524.323439
 20
547.5706020000002
 42
0.003791000000000016
 10
528.2399159999995
 20
545.7193360000001
 42
0.003178999999999954
 10
532.4200099999997
 20
543.8142890000001
 42
0.003207999999999986
 10
536.2616749999997
 20
542.1224059999998
 42
0.008816999999999945
 10
538.9999999999999
 20
540.9942529999998
 42
-0.00513100000000004
 10
541.5379799999999
 20
539.970455
 42
-0.002754999999999926
 10
544.649444
 20
538.657888
 42
-0.002741999999999943
 10
547.808344
 20
537.284208
 42
-0.004294000000000044
 10
550.508747
 20
536.064439
 42
0.004446999999999908
 10
552.9919219999998
 20
534.9437070000001
 42
0.004504000000000096
 10
555.48423
 20
533.872135
 42
0.004390000000000073
 10
557.669523
 20
532.9782750000001
 42
0.01831499999999992
 10
559.008747
 20
532.500221
 42
-0.02725800000000004
 10
560.361301
 20
531.9899719999999
 42
-0.005949000000000008
 10
562.628529
 20
530.9580089999998
 42
-0.006180000000000005
 10
565.225729
 20
529.6989309999999
 42
-0.005891999999999983
 10
567.8330529999999
 20
528.3562630000001
 42
0.007949000000000062
 10
570.354666
 20
527.0708290000001
 42
0.010518
 10
572.692481
 20
525.9859020000001
 42
0.008113000000000078
 10
574.668039
 20
525.157076
 42
0.09554199999999791
 10
575.482564
 20
525
 42
-0.1110489999999979
 10
576.257328
 20
524.825778
 42
-0.01207599999999986
 10
577.902077
 20
523.9974630000002
 42
-0.01432199999999996
 10
579.832177
 20
522.8940880000001
 42
-0.01109399999999996
 10
581.87056
 20
521.5871069999999
 42
0.01548899999999987
 10
584.08908
 20
520.191987
 42
0.01234500000000007
 10
586.562401
 20
518.822444
 42
0.01253199999999991
 10
588.9179239999999
 20
517.6672650000002
 42
0.03049199999999998
 10
590.721049
 20
516.9680640000001
 42
-0.02312400000000004
 10
592.495059
 20
516.3100350000001
 42
-0.01065099999999999
 10
594.742214
 20
515.2991320000001
 42
-0.01052400000000009
 10
597.064747
 20
514.1336919999999
 42
-0.01434899999999991
 10
599.103509
 20
512.980337
 42
0.03330799999999984
 10
604.6450259999999
 20
510.1169330000001
 42
0.02079500000000006
 10
611.463793
 20
507.481916
 42
0.01876600000000008
 10
619.3152019999999
 20
505.1419670000001
 42
0.0146250000000002
 10
628
 20
503.173669
 42
-0.01128999999999994
 10
632.906206
 20
502.096091
 42
-0.005668000000000017
 10
639.053803
 20
500.525585
 42
-0.005625000000000079
 10
645.377892
 20
498.7569269999999
 42
-0.008290999999999982
 10
650.8852869999999
 20
497.0500660000001
 42
0.004925000000000014
 10
656.0021420000002
 20
495.4264030000001
 42
0.004968999999999849
 10
661.1348429999998
 20
493.9088140000001
 42
0.004851999999999954
 10
665.6309069999999
 20
492.674947
 42
0.01999999999999998
 10
668.3852869999999
 20
492.064391
 42
-0.004837000000000093
 10
670.657091
 20
491.632614
 42
-0.003185999999999989
 10
673.262289
 20
491.094026
 42
-0.00320500000000006
 10
675.790365
 20
490.537598
 42
-0.006184000000000058
 10
677.805482
 20
490.054231
 42
0.04460500000000012
 10
680.50072
 20
489.6230399999999
 42
0.005134999999999997
 10
686.6314940000001
 20
489.2595719999999
 42
0.006155999999999953
 10
693.9490299999999
 20
488.991372
 42
0.004983999999999906
 10
701.805482
 20
488.8785780000001
 42
-0.001147999999999982
 10
711.2409459999996
 20
488.8155049999996
 42
-0.0005230000000000766
 10
723.5743490000007
 20
488.6918269999996
 42
-0.0005179999999999046
 10
736.5727189999993
 20
488.5344169999994
 42
-0.0007120000000000715
 10
748.2561309999995
 20
488.3641789999988
 42
0.002313999999999941
 10
761.3434189999992
 20
488.2154080000001
 42
0.008560000000000047
 10
769.602684
 20
488.301145
 42
0.009337999999999949
 10
775.177458
 20
488.558751
 42
0.1092070000000012
 10
777.256131
 20
489.161897
 42
-0.1054900000000015
 10
779.310741
 20
489.7744660000001
 42
-0.004896999999999926
 10
786.606498
 20
490.284219
 42
-0.006382999999999998
 10
796.6338969999999
 20
490.7578370000001
 42
-0.002259000000000007
 10
810.999999999999
 20
491.1877029999998
 42
0.002472000000000048
 10
823.6104919999991
 20
491.5704139999998
 42
0.002983000000000048
 10
835.45
 20
492.059076
 42
0.00254099999999988
 10
845.4116759999996
 20
492.5805300000001
 42
0.02019399999999997
 10
850
 20
493.0305279999999
 42
-0.006598000000000036
 10
853.737229
 20
493.4999299999999
 42
-0.002497999999999995
 10
858.96875
 20
494.060548
 42
-0.00247399999999994
 10
864.6646480000001
 20
494.613697
 42
-0.003018000000000081
 10
870
 20
495.0727340000001
 42
0.004743999999999901
 10
875.1523429999999
 20
495.5339420000001
 42
0.004737999999999934
 10
880.2968749999999
 20
496.092971
 42
0.004642000000000041
 10
884.779152
 20
496.665304
 42
0.01864199999999987
 10
887.5000000000002
 20
497.1423470000002
 42
-0.0002830000000000275
 10
889.843762
 20
497.6425850000005
 42
-0.000144000000000046
 10
892.7937499999996
 20
498.2695810000005
 42
-0.0001429999999999641
 10
895.8384559999998
 20
498.9148880000002
 42
-0.0002130000000000166
 10
898.4999999999999
 20
499.4770079999999
 42
0.005974000000000091
 10
901.231097
 20
500.0867680000001
 42
0.00345800000000003
 10
904.4999999999999
 20
500.881621
 42
0.003456000000000107
 10
907.7682610000001
 20
501.7243509999999
 42
0.005801000000000054
 10
910.5
 20
502.48294
 42
-0.01118700000000002
 10
913.232064
 20
503.210017
 42
-0.006744999999999936
 10
916.5
 20
503.955338
 42
-0.006754000000000061
 10
919.768993
 20
504.608594
 42
-0.01174500000000002
 10
922.5
 20
505.0499919999999
 42
0.018954
 10
925.132559
 20
505.5145139999999
 42
0.01290900000000005
 10
928.087362
 20
506.232517
 42
0.01302400000000022
 10
930.906121
 20
507.0744050000001
 42
0.02540800000000015
 10
933.095275
 20
507.916177
 42
-0.03844299999999991
 10
935.534861
 20
508.7820199999999
 42
-0.01264800000000002
 10
939.237248
 20
509.683751
 42
-0.01243699999999996
 10
943.438754
 20
510.486272
 42
-0.01320400000000009
 10
947.5921540000001
 20
511.060799
 42
0.005904999999999968
 10
951.458509
 20
511.538215
 42
0.008407999999999751
 10
954.8798289999999
 20
512.060485
 42
0.005170000000000024
 10
957.728073
 20
512.5747699999999
 42
0.1135269999999997
 10
958.496879
 20
512.9135560000001
 42
-0.05901300000000109
 10
959.191678
 20
513.3143860000001
 42
-0.004913000000000005
 10
961.114708
 20
514.1173530000001
 42
-0.006500999999999991
 10
963.437355
 20
515.025494
 42
-0.004971000000000004
 10
966
 20
515.960276
 42
0.01256899999999997
 10
968.542927
 20
516.931889
 42
0.01656200000000005
 10
970.806166
 20
517.951352
 42
0.01403100000000004
 10
972.614991
 20
518.903194
 42
0.1329179999999973
 10
973.2337570000001
 20
519.51135
 42
-0.1427849999999903
 10
973.874608
 20
520.1172669999999
 42
-0.01285600000000003
 10
975.886431
 20
521.084187
 42
-0.01588900000000002
 10
978.397163
 20
522.117809
 42
-0.01174800000000008
 10
981.233757
 20
523.106132
 42
0.01175599999999995
 10
984.0750689999999
 20
524.096148
 42
0.01571099999999994
 10
986.60045
 20
525.134844
 42
0.01289299999999999
 10
988.627431
 20
526.107534
 42
0.1352619999999988
 10
989.2996900000001
 20
526.723948
 42
-0.06688299999999878
 10
989.705363
 20
527.212102
 42
-0.05190099999999897
 10
990.259981
 20
527.6251600000001
 42
-0.05302900000000037
 10
990.871588
 20
527.9060050000001
 42
-0.08130600000000261
 10
991.445798
 20
528
 42
0.08108199999999996
 10
992.3490929999999
 20
528.147451
 42
0.003772999999999983
 10
995.2912859999998
 20
529.159054
 42
0.00616200000000014
 10
998.773186
 20
530.4341279999999
 42
0.00437800000000006
 10
1002.646108
 20
531.9457169999999
 42
-0.004693999999999914
 10
1006.727107
 20
533.5355479999999
 42
-0.004682000000000026
 10
1010.840637
 20
535.049838
 42
-0.004588999999999936
 10
1014.457752
 20
536.305732
 42
-0.01836400000000001
 10
1016.704998
 20
536.9721429999998
 42
0.01977999999999996
 10
1018.412479
 20
537.4837539999999
 42
0.02006299999999987
 10
1020.065971
 20
538.1265880000001
 42
0.02032299999999987
 10
1021.454707
 20
538.8000840000001
 42
0.07343300000000108
 10
1022.241718
 20
539.384575
 42
-0.05714999999999934
 10
1023.000021
 20
539.986854
 42
-0.0174000000000001
 10
1024.273023
 20
540.719534
 42
-0.01717399999999998
 10
1025.767446
 20
541.4471600000001
 42
-0.01794899999999994
 10
1027.286721
 20
542.059038
 42
0.01781000000000005
 10
1028.709368
 20
542.6315419999999
 42
0.02625199999999981
 10
1029.909224
 20
543.2420860000001
 42
0.02434399999999986
 10
1030.802532
 20
543.8170290000003
 42
0.2421339999998972
 10
1031
 20
544.200888
 42
-0.2266549999999628
 10
1031.146231
 20
544.506902
 42
-0.07491900000000057
 10
1031.5875
 20
544.7652610000001
 42
-0.05702300000000135
 10
1032.234113
 20
544.9415739999999
 42
-0.03808699999999923
 10
1033
 20
544.9999999999999
 42
0.04264299999999988
 10
1033.765676
 20
545.06542
 42
0.06230100000000091
 10
1034.4125
 20
545.261905
 42
0.0817929999999997
 10
1034.850821
 20
545.550695
 42
0.2092250000000127
 10
1035
 20
545.8915919999999
 42
-0.2083959999999467
 10
1035.168069
 20
546.2773249999999
 42
-0.05078699999999982
 10
1035.734375
 20
546.705595
 42
-0.0435240000000002
 10
1036.542749
 20
547.1051069999999
 42
-0.03153799999999959
 10
1037.5
 20
547.4106439999999
 42
0.034719
 10
1038.457085
 20
547.7228429999999
 42
0.04677600000000056
 10
1039.265625
 20
548.1419409999999
 42
0.05533000000000138
 10
1039.827615
 20
548.5984889999997
 42
0.1969920000000639
 10
1040
 20
549.019052
 42
-0.2170619999999757
 10
1040.170985
 20
549.3943589999999
 42
-0.07877699999999571
 10
1040.678985
 20
549.7118469999999
 42
-0.05990199999999921
 10
1041.426418
 20
549.928143
 42
-0.04052900000000019
 10
1042.311439
 20
550
 42
0.06347300000000022
 10
1043.337643
 20
550.1307990000001
 42
0.03707099999999957
 10
1044.513344
 20
550.5304320000001
 42
0.03647900000000006
 10
1045.649733
 20
551.114402
 42
0.05062300000000019
 10
1046.561439
 20
551.8057260000002
 42
-0.03253000000000035
 10
1047.534264
 20
552.6003280000001
 42
-0.01527399999999992
 10
1048.885235
 20
553.503545
 42
-0.01506199999999999
 10
1050.363796
 20
554.3671850000001
 42
-0.02046900000000002
 10
1051.75
 20
555.0498370000001
 42
0.01817099999999997
 10
1052.995006
 20
555.6558649999999
 42
0.02613500000000005
 10
1054.045312
 20
556.287739
 42
0.02440400000000005
 10
1054.824573
 20
556.871161
 42
0.2234449999999674
 10
1055
 20
557.244111
 42
-0.1898639999999763
 10
1055.113704
 20
557.532752
 42
-0.08860400000000036
 10
1055.440625
 20
557.777958
 42
-0.06841999999999895
 10
1055.925951
 20
557.9442779999999
 42
-0.04841999999999878
 10
1056.5
 20
558
 42
0.06485300000000101
 10
1057.073457
 20
558.074694
 42
0.082424999999999
 10
1057.559375
 20
558.29375
 42
0.09889400000000208
 10
1057.884432
 20
558.618646
 42
0.1481949999999722
 10
1058
 20
559
 42
-0.1481949999999978
 10
1058.115568
 20
559.381354
 42
-0.09889400000000197
 10
1058.440625
 20
559.70625
 42
-0.082424999999999
 10
1058.926543
 20
559.925306
 42
-0.06485300000000101
 10
1059.5
 20
560
 42
0.05751299999999988
 10
1060.073719
 20
560.0662120000001
 42
0.0767719999999953
 10
1060.559375
 20
560.261905
 42
0.09569300000000752
 10
1060.884851
 20
560.5514789999999
 42
0.1646899999999798
 10
1061
 20
560.8915919999999
 42
-0.2046910000000233
 10
1061.164325
 20
561.276173
 42
-0.05228699999999877
 10
1061.711776
 20
561.6999229999999
 42
-0.04457699999999977
 10
1062.495325
 20
562.0931579999999
 42
-0.03254599999999964
 10
1063.423067
 20
562.3913349999999
 42
0.05592499999999966
 10
1064.65456
 20
562.851554
 42
0.01520899999999997
 10
1066.481374
 20
563.8490420000001
 42
0.01518900000000018
 10
1068.498318
 20
565.1151949999999
 42
0.01525500000000003
 10
1070.43172
 20
566.4997429999999
 42
-0.014429
 10
1072.296737
 20
567.8399820000001
 42
-0.01792200000000009
 10
1074.108373
 20
568.9718000000001
 42
-0.01639700000000006
 10
1075.672111
 20
569.8054529999999
 42
-0.1147489999999957
 10
1076.508653
 20
569.9999999999999
 42
0.06524699999999944
 10
1077.078788
 20
570.074717
 42
0.08270199999999943
 10
1077.561917
 20
570.2937499999999
 42
0.09901500000001019
 10
1077.885089
 20
570.6186489999999
 42
0.1473900000000152
 10
1078
 20
571
 42
-0.1450279999999927
 10
1078.112987
 20
571.381345
 42
-0.09934899999999845
 10
1078.430659
 20
571.70625
 42
-0.08351600000000199
 10
1078.905641
 20
571.925215
 42
-0.06642599999999968
 10
1079.466073
 20
572
 42
0.0931120000000001
 10
1081.409947
 20
572.3651620000001
 42
0.02114699999999985
 10
1084.494389
 20
573.7192230000002
 42
0.0147209999999998
 10
1087.480421
 20
575.294315
 42
0.2702990000000201
 10
1088
 20
576.185212
 42
-0.1782510000000155
 10
1088.114495
 20
576.49617
 42
-0.09215999999999877
 10
1088.440625
 20
576.760656
 42
-0.07222100000000112
 10
1088.926094
 20
576.939744
 42
-0.05235200000000063
 10
1089.5
 20
577
 42
0.06485300000000101
 10
1090.073457
 20
577.074694
 42
0.082424999999999
 10
1090.559375
 20
577.29375
 42
0.09889400000000208
 10
1090.884432
 20
577.618646
 42
0.1481949999999722
 10
1091
 20
578
 42
-0.1481949999999978
 10
1091.115568
 20
578.381354
 42
-0.09889400000000197
 10
1091.440625
 20
578.70625
 42
-0.082424999999999
 10
1091.926543
 20
578.925306
 42
-0.06485300000000101
 10
1092.5
 20
579
 42
0.06485300000000101
 10
1093.073457
 20
579.074694
 42
0.082424999999999
 10
1093.559375
 20
579.29375
 42
0.09889400000000208
 10
1093.884432
 20
579.618646
 42
0.1481949999999722
 10
1094
 20
580
 42
-0.1251380000000246
 10
1094.096967
 20
580.3813760000002
 42
-0.1007799999999923
 10
1094.369964
 20
580.7062499999998
 42
-0.09027700000000248
 10
1094.778323
 20
580.92459
 42
-0.07789200000000265
 10
1095.259453
 20
581.0000000000002
 42
0.1173089999999944
 10
1095.827248
 20
581.1350740000001
 42
0.04855799999999849
 10
1096.498568
 20
581.5598400000001
 42
0.04449800000000038
 10
1097.160561
 20
582.1766949999999
 42
0.04340100000000094
 10
1097.709121
 20
582.905837
 42
-0.07771299999999899
 10
1098.413612
 20
583.7199120000001
 42
-0.03163800000000049
 10
1099.59262
 20
584.5960260000002
 42
-0.03035600000000003
 10
1101.003206
 20
585.394555
 42
-0.03392599999999988
 10
1102.449668
 20
585.983389
 42
0.02318199999999994
 10
1103.809548
 20
586.503231
 42
0.0330719999999999
 10
1104.95709
 20
587.097163
 42
0.0347570000000002
 10
1105.786519
 20
587.680836
 42
0.2257470000000082
 10
1106
 20
588.1295720000001
 42
-0.2064019999999481
 10
1106.191235
 20
588.5730929999999
 42
-0.04101100000000042
 10
1106.88125
 20
589.124995
 42
-0.03722100000000016
 10
1107.85119
 20
589.678104
 42
-0.02711200000000002
 10
1109
 20
590.1498450000001
 42
0.02510099999999972
 10
1110.148936
 20
590.616248
 42
0.03503700000000036
 10
1111.11875
 20
591.1534589999999
 42
0.03774299999999965
 10
1111.813953
 20
591.683439
 42
0.2141869999999758
 10
1112
 20
592.0978249999999
 42
-0.1042709999999984
 10
1112.072577
 20
592.442065
 42
-0.09903000000000238
 10
1112.278615
 20
592.7349859999999
 42
-0.09662999999999118
 10
1112.58643
 20
592.9312979999999
 42
-0.09404100000000243
 10
1112.948478
 20
593
 42
0.1320719999999985
 10
1113.469338
 20
593.140024
 42
0.018953
 10
1114.410744
 20
593.734375
 42
0.02042700000000002
 10
1115.49216
 20
594.542731
 42
0.01616699999999993
 10
1116.594501
 20
595.5000000000001
 42
-0.02109400000000013
 10
1117.718732
 20
596.4570180000001
 42
-0.02454300000000009
 10
1118.865945
 20
597.265625
 42
-0.02461799999999992
 10
1119.889221
 20
597.8456419999999
 42
-0.1171419999999947
 10
1120.539034
 20
598
 42
0.106066999999997
 10
1121.058732
 20
598.1115
 42
0.06657900000000058
 10
1121.588803
 20
598.440625
 42
0.06232999999999883
 10
1122.04848
 20
598.926512
 42
0.06679400000000085
 10
1122.361626
 20
599.5
 42
-0.07742900000000037
 10
1122.690673
 20
600.0734189999999
 42
-0.06504200000000059
 10
1123.196476
 20
600.559375
 42
-0.06676100000000103
 10
1123.794924
 20
600.8879919999999
 42
-0.0924719999999941
 10
1124.395373
 20
600.9999999999998
 42
0.1490890000000122
 10
1125.056764
 20
601.2016949999999
 42
0.04861599999999953
 10
1125.853128
 20
601.857828
 42
0.04342700000000043
 10
1126.645284
 20
602.8027320000001
 42
0.03705399999999925
 10
1127.310336
 20
603.9202650000001
 42
-0.04267900000000006
 10
1129.421731
 20
607.379191
 42
-0.01938499999999999
 10
1132.725816
 20
611.5315900000001
 42
-0.01239900000000004
 10
1136.173361
 20
615.340197
 42
-0.2053970000000044
 10
1137.711762
 20
616
 42
0.1156890000000024
 10
1138.203151
 20
616.115239
 42
0.1004589999999955
 10
1138.62158
 20
616.4406249999998
 42
0.09331300000000474
 10
1138.902431
 20
616.927176
 42
0.08455599999999849
 10
1139
 20
617.5
 42
-0.09903800000001019
 10
1139.114514
 20
618.072457
 42
-0.09794499999999563
 10
1139.440625
 20
618.559375
 42
-0.09794500000000067
 10
1139.927543
 20
618.8854860000001
 42
-0.09903800000000727
 10
1140.5
 20
619
 42
0.06944500000000305
 10
1141.073298
 20
619.0800109999998
 42
0.08549600000000417
 10
1141.559375
 20
619.313562
 42
0.1000259999999934
 10
1141.884373
 20
619.6603880000001
 42
0.1392729999999665
 10
1142
 20
620.067446
 42
-0.1644339999999947
 10
1142.478933
 20
621.4843800000001
 42
-0.004486000000000074
 10
1146.543991
 20
626.7127240000001
 42
-0.005236000000000053
 10
1150.659929
 20
631.7992510000001
 42
-0.1311020000000013
 10
1152.11058
 20
632.833333
 42
0.1205259999999879
 10
1152.450936
 20
633.0654190000001
 42
0.06564800000000019
 10
1152.738733
 20
633.484896
 42
0.05944200000000136
 10
1152.933774
 20
634.016781
 42
0.05824800000000031
 10
1153
 20
634.583333
 42
-0.06885699999999768
 10
1153.074923
 20
635.1248000000001
 42
-0.08512199999999975
 10
1153.29375
 20
635.583854
 42
-0.09991299999999531
 10
1153.618662
 20
635.890798
 42
-0.1403620000000126
 10
1154
 20
636
 42
0.1004809999999979
 10
1154.381617
 20
636.0774730000001
 42
0.0982730000000057
 10
1154.70625
 20
636.2978999999998
 42
0.09759800000001566
 10
1154.92371
 20
636.6270759999999
 42
0.09761399999999384
 10
1155
 20
637.014128
 42
-0.1668000000000091
 10
1155.502307
 20
638.4779500000001
 42
-0.004803999999999978
 10
1159.653823
 20
643.710321
 42
-0.01057700000000005
 10
1164.10926
 20
648.9841309999999
 42
-0.01694199999999991
 10
1168.153773
 20
653.2693059999998
 42
0.02189200000000012
 10
1169.662098
 20
654.8994009999999
 42
0.02137000000000014
 10
1171.034967
 20
656.66793
 42
0.02184199999999988
 10
1172.103721
 20
658.3218410000001
 42
0.07114900000000061
 10
1172.595962
 20
659.5263200000001
 42
-0.03187599999999973
 10
1172.898981
 20
660.473476
 42
-0.04387999999999993
 10
1173.296345
 20
661.273357
 42
-0.05129599999999974
 10
1173.723066
 20
661.8331999999999
 42
-0.2071439999999694
 10
1174.108408
 20
662
 42
0.1646900000000016
 10
1174.448521
 20
662.115149
 42
0.09569300000000125
 10
1174.738095
 20
662.440625
 42
0.0767719999999982
 10
1174.933788
 20
662.926281
 42
0.05751300000000233
 10
1175
 20
663.5
 42
-0.06485299999999945
 10
1175.074694
 20
664.073457
 42
-0.08242500000000973
 10
1175.29375
 20
664.5593750000002
 42
-0.09889400000000197
 10
1175.618646
 20
664.8844319999999
 42
-0.1481949999999931
 10
1176
 20
664.9999999999999
 42
0.1428840000000286
 10
1176.381341
 20
665.1112459999999
 42
0.09962400000000379
 10
1176.70625
 20
665.4239680000001
 42
0.08425499999999403
 10
1176.925152
 20
665.891607
 42
0.06752599999999499
 10
1177
 20
666.443296
 42
-0.1006620000000061
 10
1177.131618
 20
667.090436
 42
-0.04702799999999975
 10
1177.54002
 20
667.846468
 42
-0.04398400000000051
 10
1178.135051
 20
668.586547
 42
-0.04697700000000025
 10
1178.838367
 20
669.1932959999999
 42
0.06445000000000208
 10
1179.591861
 20
669.8905579999998
 42
0.03463100000000049
 10
1180.335259
 20
670.9183669999999
 42
0.03382800000000009
 10
1180.958927
 20
672.0895420000001
 42
0.04479700000000015
 10
1181.352634
 20
673.2309330000001
 42
-0.06037400000000135
 10
1181.83763
 20
674.5069470000001
 42
-0.02416800000000003
 10
1182.787378
 20
676.1199429999999
 42
-0.02349199999999982
 10
1183.990466
 20
677.778874
 42
-0.02737200000000028
 10
1185.287735
 20
679.2309330000002
 42
0.02396300000000002
 10
1186.661476
 20
680.7476589999999
 42
0.01587500000000024
 10
1188.095332
 20
682.609315
 42
0.01599299999999994
 10
1189.37579
 20
684.5110989999999
 42
0.02972900000000012
 10
1190.268759
 20
686.141204
 42
-0.02515799999999997
 10
1191.038517
 20
687.577371
 42
-0.02765800000000022
 10
1191.926804
 20
688.8824190000001
 42
-0.02860000000000046
 10
1192.802503
 20
689.9010050000002
 42
-0.1097109999999981
 10
1193.49529
 20
690.359819
 42
0.101791000000001
 10
1194.070685
 20
690.728054
 42
0.06679200000000068
 10
1194.557991
 20
691.349201
 42
0.06326500000000131
 10
1194.887613
 20
692.1170530000001
 42
0.06989499999999514
 10
1195
 20
692.917093
 42
-0.08994900000000253
 10
1195.17176
 20
693.86413
 42
-0.03301799999999951
 10
1195.734375
 20
695.1077749999997
 42
-0.03143899999999966
 10
1196.543265
 20
696.4161899999999
 42
-0.03272199999999986
 10
1197.5
 20
697.5945009999999
 42
0.03077700000000015
 10
1198.456752
 20
698.7635169999999
 42
0.03052499999999994
 10
1199.265625
 20
700.044248
 42
0.03203299999999974
 10
1199.830169
 20
701.24892
 42
0.09382199999999798
 10
1200
 20
702.146023
 42
-0.05197000000000151
 10
1200.07393
 20
702.855379
 42
-0.07186399999999658
 10
1200.29375
 20
703.455394
 42
-0.09184899999999416
 10
1200.618339
 20
703.858565
 42
-0.1793300000000086
 10
1201
 20
704
 42
0.1500369999999996
 10
1201.381361
 20
704.117072
 42
0.09860500000000084
 10
1201.70625
 20
704.4464619999999
 42
0.0817900000000063
 10
1201.925357
 20
704.938787
 42
0.06396399999999493
 10
1202
 20
705.519872
 42
-0.08982900000000264
 10
1202.149885
 20
706.347415
 42
-0.01741099999999999
 10
1202.734375
 20
707.756607
 42
-0.01800299999999999
 10
1203.542946
 20
709.372347
 42
-0.01577699999999994
 10
1204.5
 20
711.0000000000001
 42
0.01071699999999996
 10
1205.457369
 20
712.5911270000001
 42
0.01374800000000007
 10
1206.265625
 20
714.0965179999999
 42
0.01160799999999974
 10
1206.87198
 20
715.377747
 42
0.1050879999999958
 10
1207
 20
715.980128
 42
-0.09704599999998118
 10
1207.076269
 20
716.3693799999999
 42
-0.09745400000000261
 10
1207.29375
 20
716.700413
 42
-0.09839999999999885
 10
1207.618391
 20
716.9220679999999
 42
-0.101066999999989
 10
1208
 20
716.9999999999998
 42
0.182536000000028
 10
1208.381715
 20
717.144157
 42
0.09089999999998796
 10
1208.70625
 20
717.5560720000001
 42
0.07080700000000047
 10
1208.926137
 20
718.168668
 42
0.05085399999999979
 10
1209
 20
718.893011
 42
-0.06807600000000016
 10
1209.10448
 20
719.656834
 42
-0.06273199999999995
 10
1209.411057
 20
720.387688
 42
-0.06668499999999915
 10
1209.864197
 20
720.976819
 42
-0.1042659999999966
 10
1210.399342
 20
721.323
 42
0.1277100000000047
 10
1211.016698
 20
721.7641589999999
 42
0.03397000000000004
 10
1211.733727
 20
722.750932
 42
0.03215400000000004
 10
1212.422941
 20
724.024063
 42
0.02828700000000041
 10
1212.976894
 20
725.429989
 42
-0.02182199999999998
 10
1213.4954
 20
726.797508
 42
-0.03146300000000037
 10
1214.079974
 20
727.9513090000002
 42
-0.03227499999999984
 10
1214.649848
 20
728.790783
 42
-0.2314760000000113
 10
1215.077552
 20
729
 42
0.2038190000000226
 10
1215.430105
 20
729.1499429999999
 42
0.0837920000000011
 10
1215.729031
 20
729.5874999999999
 42
0.06398200000000474
 10
1215.932233
 20
730.2343969999999
 42
0.04417100000000047
 10
1216
 20
731
 42
-0.04802799999999826
 10
1216.073693
 20
731.765418
 42
-0.06802500000000419
 10
1216.29375
 20
732.4125000000001
 42
-0.08820399999999329
 10
1216.618118
 20
732.8485229999999
 42
-0.191087000000009
 10
1217
 20
732.9999999999999
 42
0.191087000000009
 10
1217.381882
 20
733.1514769999999
 42
0.08820400000000604
 10
1217.70625
 20
733.5875
 42
0.06802500000000063
 10
1217.926307
 20
734.234582
 42
0.04802799999999815
 10
1218
 20
735
 42
-0.04292800000000204
 10
1218.065857
 20
735.765662
 42
-0.06261799999999881
 10
1218.263595
 20
736.4125
 42
-0.08217600000000237
 10
1218.554275
 20
736.8506710000001
 42
-0.2082020000000329
 10
1218.897345
 20
737
 42
0.3118740000000185
 10
1219.300517
 20
737.2785729999999
 42
0.01483899999999999
 10
1219.86472
 20
738.9158189999999
 42
0.01992400000000016
 10
1220.430298
 20
741.022021
 42
0.01252200000000005
 10
1220.930436
 20
743.521937
 42
-0.007504000000000031
 10
1221.44192
 20
746.218959
 42
-0.007260000000000088
 10
1222.039357
 20
748.929423
 42
-0.00720100000000004
 10
1222.63403
 20
751.299127
 42
-0.02634599999999991
 10
1223.11061
 20
752.771937
 42
0.03902400000000013
 10
1225.380616
 20
760.4453949999998
 42
0.01451000000000009
 10
1227.40307
 20
771.5221809999999
 42
0.009939999999999938
 10
1229.491318
 20
787.2868829999992
 42
0.003106999999999853
 10
1232.004848
 20
810.9999999999984
 42
-0.007050999999999948
 10
1232.513713
 20
815.464492
 42
-0.005862999999999985
 10
1233.177323
 20
820.1968920000002
 42
-0.00592399999999993
 10
1233.887309
 20
824.5168640000001
 42
-0.01593199999999999
 10
1234.525943
 20
827.563889
 42
0.0465029999999997
 10
1235.550312
 20
834.553368
 42
0.01045999999999989
 10
1235.93138
 20
846.5842809999999
 42
0.01092799999999972
 10
1235.796564
 20
858.716275
 42
0.03806500000000009
 10
1234.944286
 20
866.5
 42
-0.009880000000000026
 10
1234.516941
 20
869.0602020000001
 42
-0.00329700000000014
 10
1233.990523
 20
872.8218750000003
 42
-0.003280000000000113
 10
1233.462237
 20
876.9962100000005
 42
-0.003734999999999889
 10
1233.012509
 20
881.0000000000001
 42
0.005221999999999963
 10
1232.559182
 20
884.930469
 42
0.005090000000000036
 10
1232.020318
 20
888.884375
 42
0.005024999999999984
 10
1231.476727
 20
892.347797
 42
0.01891600000000008
 10
1231.03247
 20
894.5
 42
-0.02140300000000008
 10
1230.652244
 20
896.389392
 42
-0.01085499999999991
 10
1230.32792
 20
898.79375
 42
-0.01076299999999978
 10
1230.100167
 20
901.293849
 42
-0.01578900000000005
 10
1230.016851
 20
903.5
 42
0.05391099999999993
 10
1229.118401
 20
911.3546379999999
 42
0.01019900000000009
 10
1225.656872999999
 20
925.377863
 42
0.008189999999999944
 10
1221.657087
 20
939.3515319999999
 42
0.09054499999999915
 10
1219.00442
 20
944.4999999999998
 42
-0.08744200000000482
 10
1218.626949
 20
945.2216720000001
 42
-0.006362999999999862
 10
1217.972356
 20
947.377806
 42
-0.008739000000000241
 10
1217.265227
 20
949.988113
 42
-0.00649999999999978
 10
1216.572687
 20
952.8925299999999
 42
0.02605599999999994
 10
1215.558886
 20
956.5109599999998
 42
0.009896999999999986
 10
1213.784858
 20
961.4463959999999
 42
0.009770999999999903
 10
1211.64133
 20
966.7452970000001
 42
0.01178699999999996
 10
1209.415303
 20
971.6310739999999
 42
-0.002949000000000086
 10
1207.211104
 20
976.2507480000004
 42
-0.003249999999999841
 10
1205.132844
 20
980.7491240000004
 42
-0.003025999999999778
 10
1203.405981
 20
984.6135689999999
 42
-0.01652300000000003
 10
1202.554418
 20
986.738544
 42
0.02602099999999999
 10
1200.936843
 20
990.563077
 42
0.008893999999999961
 10
1198.208714
 20
995.9344739999999
 42
0.007309000000000083
 10
1194.480277
 20
1002.72134
 42
0.003698999999999996
 10
1189.59663
 20
1011.165057
 42
-0.001282999999999747
 10
1187.597892
 20
1014.582619
 42
-0.001341999999999862
 10
1185.646976
 20
1017.958964
 42
-0.001287000000000039
 10
1183.977304999999
 20
1020.883966
 42
-0.005955999999999971
 10
1183.036582
 20
1022.588862
 42
0.009571000000000005
 10
1182.314779
 20
1023.874937
 42
0.008501000000000026
 10
1181.516
 20
1025.184892
 42
0.008564000000000037
 10
1180.756959
 20
1026.339136
 42
0.02579199999999999
 10
1180.186532
 20
1027.088862
 42
-0.02007099999999988
 10
1179.518477
 20
1027.946369
 42
-0.003125000000000057
 10
1178.277747
 20
1029.701103
 42
-0.003475999999999994
 10
1176.841168
 20
1031.790806
 42
-0.003020999999999829
 10
1175.364339
 20
1034
 42
0.00486199999999995
 10
1173.67785
 20
1036.502831
 42
0.002764999999999984
 10
1171.591893
 20
1039.498843
 42
0.002760000000000012
 10
1169.457608
 20
1042.493155
 42
0.004557000000000016
 10
1167.61776
 20
1044.996061000001
 42
-0.0003260000000001665
 10
1165.967863999998
 20
1047.201209000002
 42
-0.0003899999999998165
 10
1164.415842000001
 20
1049.281748999999
 42
-0.0003350000000002337
 10
1163.109802999999
 20
1051.037847000001
 42
-0.002556000000000119
 10
1162.5
 20
1051.867765
 42
0.02081899999999978
 10
1161.937719
 20
1052.577186
 42
0.005588000000000007
 10
1160.985938
 20
1053.655792
 42
0.005651000000000025
 10
1159.876171
 20
1054.857859
 42
0.005816000000000029
 10
1158.75
 20
1056.022913
 42
-0.01045300000000009
 10
1157.69653
 20
1057.133174
 42
-0.01470299999999998
 10
1156.807812
 20
1058.169545
 42
-0.01086999999999991
 10
1156.12166
 20
1059.057844
 42
-0.1603450000000206
 10
1156
 20
1059.42746
 42
0.1866680000000115
 10
1155.700148
 20
1060.202643
 42
0.001465999999999934
 10
1151.115696
 20
1065.212288
 42
0.005110000000000077
 10
1145.768637
 20
1070.903152
 42
0.003300999999999991
 10
1139.466572
 20
1077.388297
 42
0.03154499999999997
 10
1131.973941
 20
1084.094179
 42
0.01809600000000006
 10
1122.177361
 20
1091.24881
 42
0.01705599999999994
 10
1111.009196
 20
1098.258276
 42
0.01664800000000006
 10
1099.300043
 20
1104.550279
 42
-0.003653000000000061
 10
1095.35086
 20
1106.541931
 42
-0.004125000000000064
 10
1091.588784
 20
1108.513215
 42
-0.003775000000000129
 10
1088.417319
 20
1110.239434
 42
-0.02245100000000004
 10
1086.810711
 20
1111.226443
 42
0.04120000000000063
 10
1085.288039
 20
1112.085053
 42
0.01025000000000008
 10
1082.663537
 20
1113.227571
 42
0.01040899999999994
 10
1079.595998
 20
1114.414773
 42
0.01028099999999999
 10
1076.469118
 20
1115.478435
 42
-0.006719999999999972
 10
1073.451016
 20
1116.481172
 42
-0.008707000000000058
 10
1070.71283
 20
1117.485717
 42
-0.006842000000000022
 10
1068.456308
 20
1118.394116
 42
-0.07421700000000052
 10
1067.619037
 20
1118.901208
 42
0.06620000000000052
 10
1066.907882
 20
1119.347579
 42
0.01555700000000008
 10
1065.609673
 20
1119.892172
 42
0.01575899999999997
 10
1064.064751
 20
1120.42925
 42
0.0149160000000001
 10
1062.460631
 20
1120.87878
 42
-0.009411999999999986
 10
1060.632906
 20
1121.369341
 42
-0.005024999999999984
 10
1058.39169
 20
1122.040817
 42
-0.005000000000000065
 10
1056.116266
 20
1122.772569
 42
-0.007770999999999998
 10
1054.170654
 20
1123.453558
 42
0.0407619999999999
 10
1051.565929
 20
1124.176538
 42
0.02307800000000008
 10
1048.322543
 20
1124.643935
 42
0.01816500000000002
 10
1044.248681
 20
1124.891311
 42
0.008826999999999986
 10
1039.033661
 20
1124.926083
 42
-0.00875899999999994
 10
1034.109861
 20
1124.958236
 42
-0.00511099999999997
 10
1028.209752
 20
1125.160503
 42
-0.005108999999999969
 10
1022.304681
 20
1125.483882
 42
-0.008622999999999987
 10
1017.363007000001
 20
1125.890859000001
 42
9.499999999997649e-05
 10
1012.457766000001
 20
1126.379183000001
 42
5.800000000009178e-05
 10
1006.669542
 20
1126.95361
 42
5.900000000010118e-05
 10
1000.936115999996
 20
1127.521245000004
 42
0.0001040000000000253
 10
996.2141580000006
 20
1127.987191
 42
0.009163999999999969
 10
991.302397
 20
1128.380091
 42
0.004269000000000009
 10
984.921248
 20
1128.718326
 42
0.004226999999999986
 10
978.216325
 20
1128.959558
 42
0.005893999999999973
 10
972.2141579999999
 20
1129.053918
 42
-0.00585099999999984
 10
966.3771819999999
 20
1129.145178
 42
-0.004878000000000134
 10
960.1785339999999
 20
1129.375205
 42
-0.004925999999999966
 10
954.5095650000001
 20
1129.696988
 42
-0.01334600000000001
 10
950.5
 20
1130.071946
 42
0.005094999999999997
 10
946.5339580000001
 20
1130.508957
 42
0.001973000000000006
 10
941.03125
 20
1131.036677
 42
0.001953000000000033
 10
935.0633099999999
 20
1131.561753
 42
0.00241499999999997
 10
929.4999999999999
 20
1132.002282
 42
-0.003310000000000092
 10
924.1929549999998
 20
1132.432077
 42
-0.003514000000000015
 10
918.9968749999999
 20
1132.924357
 42
-0.003349000000000104
 10
914.5297669999999
 20
1133.409529
 42
-0.01612200000000006
 10
912
 20
1133.784432
 42
-0.02958599999999972
 10
909.94302
 20
1134.284586
 42
-0.7466779999998315
 10
909.946602
 20
1134.656801
 42
-0.04242000000000033
 10
911.808673
 20
1135.021949
 42
-0.001541000000000039
 10
918.9999999999999
 20
1135.785418
 42
-0.01115399999999995
 10
925.086579
 20
1136.275712
 42
-0.003129000000000042
 10
934.6125
 20
1136.769729
 42
-0.003153999999999988
 10
945.3937649999999
 20
1137.193077
 42
-0.003317000000000042
 10
955.9999999999999
 20
1137.472129
 42
0.002569000000000013
 10
966.6602210000002
 20
1137.736649
 42
0.002372999999999835
 10
977.6036689999994
 20
1138.116466
 42
0.002368000000000012
 10
987.347831
 20
1138.547189
 42
0.007902999999999922
 10
993.7358929999998
 20
1138.961178
 42
-0.00481200000000004
 10
1006.59044
 20
1139.874072000001
 42
-0.001847000000000052
 10
1024.472259
 20
1140.904831000001
 42
-0.001872999999999951
 10
1042.943732
 20
1141.831733
 42
-0.003397999999999988
 10
1058.058913
 20
1142.430557
 42
0.006436000000000021
 10
1063.339541
 20
1142.671906
 42
0.005730999999999882
 10
1068.820714
 20
1143.056251
 42
0.005758999999999929
 10
1073.74177
 20
1143.515167
 42
0.01764000000000003
 10
1077.058913
 20
1143.981887
 42
0.005168999999999937
 10
1085.792787
 20
1145.619939
 42
0.01050099999999997
 10
1092.615852
 20
1147.122359
 42
0.01304599999999995
 10
1097.862451
 20
1148.539617
 42
0.03453800000000017
 10
1101.5
 20
1149.90453
 42
-0.007936999999999994
 10
1103.389081
 20
1150.730406
 42
-0.004012000000000038
 10
1105.79375
 20
1151.713934
 42
-0.003983000000000035
 10
1108.294056
 20
1152.690207
 42
-0.005918999999999986
 10
1110.5
 20
1153.501576
 42
0.01153299999999996
 10
1112.524208
 20
1154.272009
 42
0.01221500000000022
 10
1114.471875
 20
1155.121243
 42
0.01189299999999999
 10
1116.110814
 20
1155.932002
 42
0.05324400000000049
 10
1117
 20
1156.526796
 42
-0.04556999999999977
 10
1117.897788
 20
1157.147444
 42
-0.009260999999999941
 10
1119.601562
 20
1158.067785
 42
-0.009692000000000036
 10
1121.63007
 20
1159.066162
 42
-0.008948999999999948
 10
1123.75
 20
1160.01308
 42
0.01322600000000003
 10
1125.76176
 20
1160.932398
 42
0.0199330000000001
 10
1127.457813
 20
1161.84786
 42
0.01542599999999989
 10
1128.763579
 20
1162.676837
 42
0.2485060000000027
 10
1129
 20
1163.123144
 42
-0.1599760000000399
 10
1129.10982
 20
1163.457597
 42
-0.09674100000000482
 10
1129.419643
 20
1163.742424
 42
-0.0783779999999927
 10
1129.88224
 20
1163.93478
 42
-0.05947799999999772
 10
1130.428571
 20
1164
 42
0.07189899999999584
 10
1131.071344
 20
1164.09291
 42
0.03806300000000039
 10
1131.82567
 20
1164.379593
 42
0.03691899999999954
 10
1132.56765
 20
1164.797637
 42
0.04686800000000052
 10
1133.178571
 20
1165.29223
 42
-0.04745700000000111
 10
1133.905418
 20
1165.879264
 42
-0.01597699999999999
 10
1135.066518
 20
1166.595288
 42
-0.0157310000000001
 10
1136.408817
 20
1167.309845
 42
-0.01738299999999994
 10
1137.75
 20
1167.913551
 42
0.02164899999999987
 10
1138.994816
 20
1168.486696
 42
0.03049099999999996
 10
1140.045312
 20
1169.110333
 42
0.03087999999999954
 10
1140.810043
 20
1169.701943
 42
0.215917000000022
 10
1141
 20
1170.12132
 42
-0.1509800000000208
 10
1141.103547
 20
1170.456418
 42
-0.09844900000000682
 10
1141.394935
 20
1170.741888
 42
-0.08146499999999918
 10
1141.830425
 20
1170.934436
 42
-0.06351700000000317
 10
1142.344461
 20
1171
 42
0.109400999999993
 10
1143.045881
 20
1171.155331
 42
0.0239150000000001
 10
1144.147488
 20
1171.734016
 42
0.02381900000000003
 10
1145.383443
 20
1172.542256
 42
0.02087899999999996
 10
1146.594461
 20
1173.498779
 42
-0.01709800000000009
 10
1147.787163
 20
1174.455567
 42
-0.02084100000000008
 10
1148.968158
 20
1175.2639
 42
-0.01988000000000013
 10
1150.000298
 20
1175.853197
 42
-0.1200499999999978
 10
1150.595012
 20
1175.998779
 42
0.1190529999999978
 10
1151.136178
 20
1176.130125
 42
0.03204500000000034
 10
1151.900045
 20
1176.587141
 42
0.03056200000000025
 10
1152.72664
 20
1177.234428
 42
0.02745499999999996
 10
1153.5
 20
1178
 42
-0.01948200000000024
 10
1154.249282
 20
1178.765759
 42
-0.02438500000000031
 10
1155.003921
 20
1179.4125
 42
-0.02375799999999969
 10
1155.673145
 20
1179.882515
 42
-0.1421410000000393
 10
1156.078064
 20
1180
 42
0.1885980000000036
 10
1157.109323
 20
1180.403334
 42
0.008602000000000052
 10
1159.897999
 20
1183.068942
 42
0.008531000000000052
 10
1162.595418
 20
1185.830252
 42
0.1914469999999767
 10
1163
 20
1186.848166
 42
-0.1895150000000384
 10
1163.169665
 20
1187.279719
 42
-0.004995
 10
1164.613187
 20
1188.801039
 42
-0.009820999999999984
 10
1166.387123
 20
1190.562966
 42
-0.006477999999999958
 10
1168.4917
 20
1192.521243
 42
0.01154699999999991
 10
1170.596021
 20
1194.51946
 42
0.01620600000000008
 10
1172.372651
 20
1196.404678
 42
0.01245900000000007
 10
1173.736712
 20
1198.02933
 42
0.1682789999999907
 10
1173.9917
 20
1198.75
 42
-0.07841499999999818
 10
1174.070304
 20
1199.227507
 42
-0.09002100000000306
 10
1174.291312
 20
1199.632812
 42
-0.1000430000000006
 10
1174.617961
 20
1199.903837
 42
-0.1239219999999965
 10
1175
 20
1200
 42
0.1481949999999604
 10
1175.381354
 20
1200.115568
 42
0.09889400000000186
 10
1175.70625
 20
1200.440625
 42
0.08242500000000973
 10
1175.925306
 20
1200.926543
 42
0.06485299999999589
 10
1176
 20
1201.5
 42
-0.05471300000000053
 10
1176.062979
 20
1202.07382
 42
-0.07436299999999807
 10
1176.249682
 20
1202.559375
 42
-0.09392400000000098
 10
1176.525671
 20
1202.885159
 42
-0.1718259999999989
 10
1176.849981
 20
1203
 42
0.2978910000000455
 10
1177.98546
 20
1203.742375
 42
0.007682999999999802
 10
1180.454536
 20
1209.625745
 42
0.01622700000000014
 10
1182.703003
 20
1215.794424
 42
0.02917400000000021
 10
1184.080827
 20
1221
 42
-0.01206799999999998
 10
1184.603661
 20
1223.28906
 42
-0.01105399999999998
 10
1185.250414
 20
1225.61875
 42
-0.011131
 10
1185.919898
 20
1227.672198
 42
-0.03516800000000028
 10
1186.493423
 20
1229
 42
0.04435700000000015
 10
1187.098042
 20
1230.473491
 42
0.008415000000000084
 10
1187.911807
 20
1233.2625
 42
0.008923999999999847
 10
1188.751676
 20
1236.562465
 42
0.008089000000000068
 10
1189.503041
 20
1240
 42
-0.006423999999999945
 10
1190.232891
 20
1243.393211
 42
-0.007754000000000005
 10
1191.008373
 20
1246.5591
 42
-0.006723000000000036
 10
1191.736707
 20
1249.199241
 42
-0.05120199999999924
 10
1192.220228
 20
1250.392682
 42
0.06023500000000059
 10
1192.660777
 20
1251.538955
 42
0.01031699999999997
 10
1193.184527
 20
1253.817164
 42
0.01111400000000006
 10
1193.687425
 20
1256.532841
 42
0.009714999999999965
 10
1194.094674
 20
1259.392682
 42
-0.01199799999999998
 10
1194.537975
 20
1262.407012
 42
-0.009994000000000012
 10
1195.14959
 20
1265.587225
 42
-0.01012299999999998
 10
1195.826822
 20
1268.476596
 42
-0.02684400000000006
 10
1196.46195
 20
1270.5
 42
0.03406799999999969
 10
1197.160006
 20
1272.841655
 42
0.00614400000000003
 10
1198.105106
 20
1277.290625
 42
0.006600000000000124
 10
1199.080795
 20
1282.538196
 42
0.005930000000000066
 10
1199.955338
 20
1288
 42
-0.006827999999999973
 10
1200.875585
 20
1293.681888
 42
-0.00599099999999999
 10
1201.988712
 20
1299.590625
 42
-0.006030999999999944
 10
1203.121952
 20
1304.901007
 42
-0.01791600000000001
 10
1204.072185
 20
1308.5
 42
0.002567999999999892
 10
1204.922977
 20
1311.363288
 42
0.002728000000000064
 10
1205.727027
 20
1314.178125
 42
0.002596999999999951
 10
1206.393326
 20
1316.608422
 42
0.01255699999999997
 10
1206.729863
 20
1318
 42
-0.02569200000000025
 10
1207.014952
 20
1319.056604
 42
-0.02043299999999986
 10
1207.426497
 20
1320.164142
 42
-0.02087499999999999
 10
1207.893788
 20
1321.160917
 42
-0.04772599999999928
 10
1208.345153
 20
1321.856652
 42
0.02227699999999989
 10
1209.333538
 20
1323.222734
 42
0.01330400000000004
 10
1210.390849
 20
1324.927361
 42
0.008305000000000005
 10
1211.772618
 20
1327.386265
 42
0.002120000000000121
 10
1213.927255
 20
1331.414943
 42
-0.01309000000000001
 10
1214.916994
 20
1333.171735
 42
-0.01934999999999977
 10
1215.883186
 20
1334.65314
 42
-0.01501499999999999
 10
1216.742693
 20
1335.791657
 42
-0.227327999999935
 10
1217.177255
 20
1336
 42
0.2220219999999131
 10
1217.492177
 20
1336.147089
 42
0.07680399999999867
 10
1217.758319
 20
1336.5875
 42
0.05840599999999994
 10
1217.939792
 20
1337.234166
 42
0.03924800000000148
 10
1218
 20
1338
 42
-0.04602900000000083
 10
1218.070621
 20
1338.765515
 42
-0.06596499999999836
 10
1218.281958
 20
1339.4125
 42
-0.08602699999999455
 10
1218.593164
 20
1339.849253
 42
-0.1975280000000155
 10
1218.959858
 20
1340
 42
0.2447170000000194
 10
1219.402904
 20
1340.230654
 42
0.02978499999999983
 10
1219.995777
 20
1341.194958
 42
0.02987099999999982
 10
1220.601784
 20
1342.509492
 42
0.02028999999999984
 10
1221.138502
 20
1344.067941
 42
-0.03452100000000005
 10
1221.775258
 20
1345.759061
 42
-0.02788200000000018
 10
1222.679972
 20
1347.476365
 42
-0.02870000000000011
 10
1223.698817
 20
1348.971988
 42
-0.06230199999999964
 10
1224.674575
 20
1349.95866
 42
0.05598399999999914
 10
1225.764385
 20
1351.033254
 42
0.01629600000000004
 10
1227.189493000001
 20
1352.915738
 42
0.01615900000000005
 10
1228.667041
 20
1355.155844
 42
0.01663099999999996
 10
1229.981936
 20
1357.465659
 42
-0.01283299999999996
 10
1232.361412
 20
1361.720406
 42
-0.01921899999999993
 10
1234.672992
 20
1365.295111
 42
-0.01908699999999994
 10
1237.264453
 20
1368.699646
 42
-0.01241899999999997
 10
1240.5
 20
1372.436499
 42
0.003553000000000001
 10
1241.95483
 20
1374.057735
 42
0.001467000000000078
 10
1243.902206
 20
1376.272186
 42
0.001450999999999875
 10
1245.976788
 20
1378.659239
 42
0.001866999999999872
 10
1247.869213
 20
1380.866113
 42
-0.01137899999999997
 10
1249.621751
 20
1382.832884
 42
-0.01619200000000002
 10
1251.272846
 20
1384.491921
 42
-0.01216099999999997
 10
1252.698428
 20
1385.770514
 42
-0.1785559999999631
 10
1253.320558
 20
1386
 42
0.1637920000000206
 10
1253.945086
 20
1386.210226
 42
0.01287199999999985
 10
1255.333495
 20
1387.321875
 42
0.016436
 10
1256.946396
 20
1388.776241
 42
0.01180999999999994
 10
1258.653523
 20
1390.5
 42
-0.00725200000000002
 10
1260.330413
 20
1392.224382
 42
-0.01082199999999988
 10
1261.850134
 20
1393.678125
 42
-0.006092999999999976
 10
1263.157704
 20
1394.84684
 42
-0.1812460000000227
 10
1263.566345
 20
1395
 42
0.1851480000000202
 10
1263.962359
 20
1395.151847
 42
0.008127000000000014
 10
1265.063831
 20
1396.175
 42
0.01284499999999997
 10
1266.343064
 20
1397.467338
 42
0.008726000000000117
 10
1267.73457
 20
1399
 42
-0.01519500000000004
 10
1269.162016
 20
1400.531949
 42
-0.02038100000000012
 10
1270.551259
 20
1401.825
 42
-0.01798400000000006
 10
1271.761986
 20
1402.789795
 42
-0.1605759999999795
 10
1272.399645
 20
1403
 42
0.1236389999999866
 10
1272.944195
 20
1403.136746
 42
0.04091499999999907
 10
1273.641519
 20
1403.5875
 42
0.03782300000000058
 10
1274.362866
 20
1404.234657
 42
0.03486999999999989
 10
1275
 20
1405
 42
-0.03137599999999953
 10
1275.628217
 20
1405.765436
 42
-0.03556199999999995
 10
1276.323189
 20
1406.4125
 42
-0.03824299999999962
 10
1276.983473
 20
1406.866333
 42
-0.1321930000000062
 10
1277.480212
 20
1407
 42
0.137635999999985
 10
1277.965073
 20
1407.136045
 42
0.04284900000000011
 10
1278.58069
 20
1407.5875
 42
0.03916799999999934
 10
1279.21335
 20
1408.234614
 42
0.03440399999999921
 10
1279.767927
 20
1409
 42
-0.04868199999999818
 10
1280.356259
 20
1409.765087
 42
-0.0469189999999995
 10
1281.088184
 20
1410.4125
 42
-0.05064500000000152
 10
1281.846761
 20
1410.856181
 42
-0.1074180000000068
 10
1282.508474
 20
1411
 42
0.06523900000000037
 10
1283.078677
 20
1411.074717
 42
0.08269599999999003
 10
1283.561864
 20
1411.29375
 42
0.09901299999998815
 10
1283.885075
 20
1411.618649
 42
0.1474070000000091
 10
1284
 20
1412
 42
-0.1349309999999995
 10
1284.104818
 20
1412.381342
 42
-0.1004009999999998
 10
1284.399479
 20
1412.70625
 42
-0.08698199999999899
 10
1284.840239
 20
1412.92491
 42
-0.07187199999999958
 10
1285.359927
 20
1413
 42
0.127033999999987
 10
1286.010056
 20
1413.167886
 42
0.03805599999999888
 10
1286.871869
 20
1413.734375
 42
0.0354440000000006
 10
1287.778548
 20
1414.543235
 42
0.03185499999999955
 10
1288.597276
 20
1415.5
 42
-0.02964999999999995
 10
1289.408796
 20
1416.456844
 42
-0.03394199999999976
 10
1290.294109
 20
1417.265625
 42
-0.03620800000000037
 10
1291.126249
 20
1417.834936
 42
-0.1326770000000256
 10
1291.737349
 20
1418
 42
0.07485999999999769
 10
1292.219782
 20
1418.072637
 42
0.08868500000000139
 10
1292.629096
 20
1418.283545
 42
0.1006809999999861
 10
1292.90272
 20
1418.597154
 42
0.1299050000000086
 10
1293
 20
1418.965261
 42
-0.2204489999999545
 10
1293.255068
 20
1419.515664
 42
-0.008384999999999953
 10
1295.048759
 20
1420.984371
 42
-0.01369000000000002
 10
1297.301773
 20
1422.668717
 42
-0.009063999999999984
 10
1299.974499
 20
1424.483353
 42
0.01186799999999994
 10
1302.722589
 20
1426.371759
 42
0.01424599999999994
 10
1305.211815
 20
1428.280976
 42
0.01297700000000006
 10
1307.206214
 20
1429.990822
 42
0.08639300000000222
 10
1308.009683
 20
1431.018093
 42
-0.0334090000000009
 10
1308.483339
 20
1431.776633
 42
-0.04000799999999931
 10
1309.028854
 20
1432.417815
 42
-0.04424700000000038
 10
1309.563975
 20
1432.866197
 42
-0.153437000000014
 10
1309.989729
 20
1433
 42
0.1514629999999873
 10
1310.798164
 20
1433.250646
 42
0.02186199999999989
 10
1312.194951
 20
1434.301513
 42
0.01320500000000011
 10
1314.382045
 20
1436.200964
 42
0.002163000000000118
 10
1318.5
 20
1440.005519
 42
-0.01647099999999996
 10
1322.299524
 20
1443.319513
 42
-0.01843800000000004
 10
1326.172294
 20
1446.247993
 42
-0.01547900000000003
 10
1329.610587
 20
1448.498752
 42
-0.1366869999999939
 10
1331.339707
 20
1448.990294
 42
0.1528600000000025
 10
1333.174119
 20
1449.575173
 42
0.06869200000000011
 10
1335.045504
 20
1451.315718
 42
0.06588999999999975
 10
1336.464847
 20
1453.615998
 42
0.1021819999999992
 10
1336.966731
 20
1455.885924
 42
0.05474699999999953
 10
1336.836476
 20
1457.246527
 42
0.2511730000000071
 10
1336.344431
 20
1457.83428
 42
0.1202049999999956
 10
1335.300931
 20
1457.983861
 42
0.009832999999999942
 10
1332.543508
 20
1457.661018
 42
-0.02080000000000009
 10
1330.759192
 20
1457.491674
 42
-0.0312279999999997
 10
1329.195744
 20
1457.50638
 42
-0.03305800000000035
 10
1327.985652
 20
1457.674358
 42
-0.2061469999999751
 10
1327.484491
 20
1458.025094
 42
0.198850999999993
 10
1326.331105
 20
1458.856613
 42
0.08206099999999705
 10
1324.373685
 20
1458.990521
 42
0.09056799999999933
 10
1322.618623
 20
1458.493261
 42
0.2859469999999895
 10
1322
 20
1457.5
 42
-0.1478000000000015
 10
1321.806691
 20
1456.86033
 42
-0.1243280000000038
 10
1321.28025
 20
1456.38305
 42
-0.08480300000000195
 10
1320.40196
 20
1456.092118
 42
-0.03768599999999959
 10
1319.181501
 20
1456
 42
0.03233800000000005
 10
1317.764079
 20
1455.90823
 42
0.01128499999999992
 10
1315.742308
 20
1455.598786
 42
0.01115300000000011
 10
1313.526266
 20
1455.157063
 42
0.01278399999999997
 10
1311.431501
 20
1454.634165
 42
-0.02458599999999986
 10
1306.811964
 20
1453.596169
 42
-0.007496000000000015
 10
1299.731893
 20
1452.476313
 42
-0.007016999999999932
 10
1291.265704
 20
1451.388026
 42
-0.005403000000000235
 10
1282
 20
1450.430233
 42
0.009058999999999911
 10
1278.973428
 20
1450.094995
 42
0.004696999999999947
 10
1275.20625
 20
1449.572459
 42
0.004668000000000023
 10
1271.344831
 20
1448.962929
 42
0.007078000000000053
 10
1268
 20
1448.354091
 42
-0.02940100000000016
 10
1249.754028
 20
1445.867951
 42
-0.013867
 10
1225.998246
 20
1444.705233
 42
-0.01122000000000009
 10
1196.311701
 20
1444.74281
 42
-0.005851000000000062
 10
1159.328276
 20
1446.05279
 42
0.002298000000000023
 10
1144.439084
 20
1446.686125
 42
0.01012199999999994
 10
1135.653105
 20
1446.841412
 42
0.01685499999999995
 10
1129.400832
 20
1446.614495
 42
0.02333099999999994
 10
1123.828276
 20
1445.961558
 42
-0.03108199999999995
 10
1111.232556
 20
1444.683159
 42
-0.007583999999999909
 10
1090.357773
 20
1444.185475000001
 42
-0.006596000000000104
 10
1069.577375
 20
1444.279488
 42
-0.04757299999999989
 10
1059.639899
 20
1445.405126
 42
-0.001290999999999994
 10
1053.988093999999
 20
1446.612416
 42
-0.0007859999999999221
 10
1047.314967000001
 20
1448.066881999999
 42
-0.0005380000000001746
 10
1038.371861000004
 20
1450.040918999999
 42
-0.0001710000000002134
 10
1025.066986999989
 20
1452.997531000005
 42
0.03264500000000001
 10
1008.023886
 20
1455.638622
 42
0.007821000000000012
 10
979.4489659999999
 20
1457.723518999999
 42
0.00807799999999999
 10
950.638189
 20
1458.906444
 42
0.02801300000000007
  0
ENDSEC
  0
SECTION
  2
OBJECTS
  0
DICTIONARY
  5
C
330
0
100
AcDbDictionary
281
    1
  3
ACAD_GROUP
350
D
  0
DICTIONARY
  5
D
330
C
100
AcDbDictionary
281
    1
  0
ENDSEC
  0
EOF
