solid OpenSCAD_Model
  facet normal -1 -0 -0
    outer loop
      vertex 0 0 0
      vertex 0 0 5.9
      vertex 0 39.2 0
    endloop
  endfacet
  facet normal -1 0 0
    outer loop
      vertex 0 39.2 0
      vertex 0 0 5.9
      vertex 0 39.2 5.9
    endloop
  endfacet
  facet normal 0 -1 0
    outer loop
      vertex 3.8 0 1
      vertex 0 0 0
      vertex 35.3 0 0
    endloop
  endfacet
  facet normal 0 -1 0
    outer loop
      vertex 7.8 0 1
      vertex 3.8 0 1
      vertex 35.3 0 0
    endloop
  endfacet
  facet normal 0 -1 0
    outer loop
      vertex 0 0 5.9
      vertex 0 0 0
      vertex 3.8 0 1
    endloop
  endfacet
  facet normal 0 -1 0
    outer loop
      vertex 13.8 0 1
      vertex 13.8 0 4
      vertex 7.8 0 4
    endloop
  endfacet
  facet normal 0 -1 0
    outer loop
      vertex 0 0 5.9
      vertex 3.8 0 1
      vertex 3.8 0 4
    endloop
  endfacet
  facet normal 0 -1 0
    outer loop
      vertex 17.8 0 4
      vertex 17.8 0 1
      vertex 35.3 0 0
    endloop
  endfacet
  facet normal 0 -1 0
    outer loop
      vertex 0 0 5.9
      vertex 3.8 0 4
      vertex 7.8 0 4
    endloop
  endfacet
  facet normal 0 -1 0
    outer loop
      vertex 13.8 0 1
      vertex 7.8 0 1
      vertex 35.3 0 0
    endloop
  endfacet
  facet normal 0 -1 0
    outer loop
      vertex 17.8 0 1
      vertex 13.8 0 1
      vertex 35.3 0 0
    endloop
  endfacet
  facet normal 0 -1 0
    outer loop
      vertex 35.3 0 5.9
      vertex 0 0 5.9
      vertex 13.8 0 4
    endloop
  endfacet
  facet normal 0 -1 0
    outer loop
      vertex 35.3 0 5.9
      vertex 17.8 0 4
      vertex 35.3 0 0
    endloop
  endfacet
  facet normal 0 -1 0
    outer loop
      vertex 35.3 0 5.9
      vertex 13.8 0 4
      vertex 17.8 0 4
    endloop
  endfacet
  facet normal -0 -1 -0
    outer loop
      vertex 7.8 0 4
      vertex 13.8 0 4
      vertex 0 0 5.9
    endloop
  endfacet
  facet normal 0 -1 0
    outer loop
      vertex 7.8 0 4
      vertex 7.8 0 1
      vertex 13.8 0 1
    endloop
  endfacet
  facet normal -0 -0 -1
    outer loop
      vertex 0 0 0
      vertex 0 39.2 0
      vertex 35.3 0 0
    endloop
  endfacet
  facet normal 0 0 -1
    outer loop
      vertex 35.3 0 0
      vertex 0 39.2 0
      vertex 35.3 39.2 0
    endloop
  endfacet
  facet normal 0 1 0
    outer loop
      vertex 0 39.2 0
      vertex 0 39.2 5.9
      vertex 35.3 39.2 0
    endloop
  endfacet
  facet normal 0 1 0
    outer loop
      vertex 35.3 39.2 0
      vertex 0 39.2 5.9
      vertex 35.3 39.2 5.9
    endloop
  endfacet
  facet normal 0 -0 1
    outer loop
      vertex 2 2 5.9
      vertex 0 0 5.9
      vertex 35.3 0 5.9
    endloop
  endfacet
  facet normal 0 -0 1
    outer loop
      vertex 33.3 2 5.9
      vertex 2 2 5.9
      vertex 35.3 0 5.9
    endloop
  endfacet
  facet normal 0 -0 1
    outer loop
      vertex 0 39.2 5.9
      vertex 0 0 5.9
      vertex 2 2 5.9
    endloop
  endfacet
  facet normal 0 0 1
    outer loop
      vertex 35.3 39.2 5.9
      vertex 0 39.2 5.9
      vertex 2 37.2 5.9
    endloop
  endfacet
  facet normal 0 0 1
    outer loop
      vertex 35.3 39.2 5.9
      vertex 33.3 37.2 5.9
      vertex 35.3 0 5.9
    endloop
  endfacet
  facet normal 0 0 1
    outer loop
      vertex 35.3 39.2 5.9
      vertex 2 37.2 5.9
      vertex 33.3 37.2 5.9
    endloop
  endfacet
  facet normal 0 -0 1
    outer loop
      vertex 33.3 37.2 5.9
      vertex 33.3 2 5.9
      vertex 35.3 0 5.9
    endloop
  endfacet
  facet normal 0 0 1
    outer loop
      vertex 2 2 5.9
      vertex 2 37.2 5.9
      vertex 0 39.2 5.9
    endloop
  endfacet
  facet normal 1 0 -0
    outer loop
      vertex 35.3 0 5.9
      vertex 35.3 0 0
      vertex 35.3 39.2 0
    endloop
  endfacet
  facet normal 1 0 0
    outer loop
      vertex 35.3 39.2 5.9
      vertex 35.3 0 5.9
      vertex 35.3 39.2 0
    endloop
  endfacet
  facet normal 1 0 0
    outer loop
      vertex 3.8 2 1
      vertex 3.8 2 4
      vertex 3.8 0 4
    endloop
  endfacet
  facet normal 1 0 0
    outer loop
      vertex 3.8 0 1
      vertex 3.8 2 1
      vertex 3.8 0 4
    endloop
  endfacet
  facet normal 0 -0 1
    outer loop
      vertex 3.8 2 1
      vertex 3.8 0 1
      vertex 7.8 0 1
    endloop
  endfacet
  facet normal 0 0 1
    outer loop
      vertex 33.3 37.2 1
      vertex 3.8 2 1
      vertex 7.8 2 1
    endloop
  endfacet
  facet normal 0 0 1
    outer loop
      vertex 7.8 2 1
      vertex 3.8 2 1
      vertex 7.8 0 1
    endloop
  endfacet
  facet normal 0 0 1
    outer loop
      vertex 33.3 37.2 1
      vertex 7.8 2 1
      vertex 13.8 2 1
    endloop
  endfacet
  facet normal -0 0 1
    outer loop
      vertex 17.8 0 1
      vertex 13.8 2 1
      vertex 13.8 0 1
    endloop
  endfacet
  facet normal 0 0 1
    outer loop
      vertex 17.8 2 1
      vertex 13.8 2 1
      vertex 17.8 0 1
    endloop
  endfacet
  facet normal 0 0 1
    outer loop
      vertex 33.3 37.2 1
      vertex 13.8 2 1
      vertex 17.8 2 1
    endloop
  endfacet
  facet normal 0 0 1
    outer loop
      vertex 33.3 37.2 1
      vertex 17.8 2 1
      vertex 33.3 2 1
    endloop
  endfacet
  facet normal 0 0 1
    outer loop
      vertex 2 37.2 1
      vertex 3.8 2 1
      vertex 33.3 37.2 1
    endloop
  endfacet
  facet normal 0 0 1
    outer loop
      vertex 2 2 1
      vertex 3.8 2 1
      vertex 2 37.2 1
    endloop
  endfacet
  facet normal -1 0 0
    outer loop
      vertex 7.8 2 4
      vertex 7.8 2 1
      vertex 7.8 0 4
    endloop
  endfacet
  facet normal -1 0 0
    outer loop
      vertex 7.8 0 4
      vertex 7.8 2 1
      vertex 7.8 0 1
    endloop
  endfacet
  facet normal 0 0 -1
    outer loop
      vertex 7.8 2 4
      vertex 7.8 0 4
      vertex 3.8 2 4
    endloop
  endfacet
  facet normal 0 0 -1
    outer loop
      vertex 3.8 2 4
      vertex 7.8 0 4
      vertex 3.8 0 4
    endloop
  endfacet
  facet normal 1 0 0
    outer loop
      vertex 13.8 2 1
      vertex 13.8 2 4
      vertex 13.8 0 4
    endloop
  endfacet
  facet normal 1 0 0
    outer loop
      vertex 13.8 0 1
      vertex 13.8 2 1
      vertex 13.8 0 4
    endloop
  endfacet
  facet normal -1 0 0
    outer loop
      vertex 17.8 2 4
      vertex 17.8 2 1
      vertex 17.8 0 4
    endloop
  endfacet
  facet normal -1 0 0
    outer loop
      vertex 17.8 0 4
      vertex 17.8 2 1
      vertex 17.8 0 1
    endloop
  endfacet
  facet normal 0 0 -1
    outer loop
      vertex 17.8 2 4
      vertex 17.8 0 4
      vertex 13.8 2 4
    endloop
  endfacet
  facet normal 0 0 -1
    outer loop
      vertex 13.8 2 4
      vertex 17.8 0 4
      vertex 13.8 0 4
    endloop
  endfacet
  facet normal 1 0 0
    outer loop
      vertex 2 37.2 1
      vertex 2 37.2 5.9
      vertex 2 2 5.9
    endloop
  endfacet
  facet normal 1 0 0
    outer loop
      vertex 2 2 1
      vertex 2 37.2 1
      vertex 2 2 5.9
    endloop
  endfacet
  facet normal 0 1 0
    outer loop
      vertex 7.8 2 4
      vertex 2 2 5.9
      vertex 13.8 2 4
    endloop
  endfacet
  facet normal 0 1 0
    outer loop
      vertex 33.3 2 5.9
      vertex 33.3 2 1
      vertex 17.8 2 4
    endloop
  endfacet
  facet normal 0 1 0
    outer loop
      vertex 33.3 2 5.9
      vertex 17.8 2 4
      vertex 2 2 5.9
    endloop
  endfacet
  facet normal 0 1 0
    outer loop
      vertex 13.8 2 1
      vertex 7.8 2 4
      vertex 13.8 2 4
    endloop
  endfacet
  facet normal 0 1 -0
    outer loop
      vertex 7.8 2 4
      vertex 13.8 2 1
      vertex 7.8 2 1
    endloop
  endfacet
  facet normal 0 1 0
    outer loop
      vertex 3.8 2 4
      vertex 2 2 5.9
      vertex 7.8 2 4
    endloop
  endfacet
  facet normal 0 1 0
    outer loop
      vertex 2 2 5.9
      vertex 3.8 2 4
      vertex 3.8 2 1
    endloop
  endfacet
  facet normal 0 1 -0
    outer loop
      vertex 2 2 5.9
      vertex 3.8 2 1
      vertex 2 2 1
    endloop
  endfacet
  facet normal 0 1 -0
    outer loop
      vertex 17.8 2 4
      vertex 33.3 2 1
      vertex 17.8 2 1
    endloop
  endfacet
  facet normal 0 1 0
    outer loop
      vertex 13.8 2 4
      vertex 2 2 5.9
      vertex 17.8 2 4
    endloop
  endfacet
  facet normal -1 0 0
    outer loop
      vertex 33.3 37.2 5.9
      vertex 33.3 37.2 1
      vertex 33.3 2 5.9
    endloop
  endfacet
  facet normal -1 0 0
    outer loop
      vertex 33.3 2 5.9
      vertex 33.3 37.2 1
      vertex 33.3 2 1
    endloop
  endfacet
  facet normal 0 -1 0
    outer loop
      vertex 33.3 37.2 1
      vertex 33.3 37.2 5.9
      vertex 2 37.2 5.9
    endloop
  endfacet
  facet normal -0 -1 -0
    outer loop
      vertex 2 37.2 1
      vertex 33.3 37.2 1
      vertex 2 37.2 5.9
    endloop
  endfacet
endsolid OpenSCAD_Model
