999
dxfrw 0.6.3
  0
SECTION
  2
HEADER
  9
$ACADVER
  1
AC1021
  9
$DWGCODEPAGE
  3
ANSI_1252
  9
$INSBASE
 10
0
 20
0
 30
0
  9
$EXTMIN
 10
0
 20
0
 30
0
  9
$EXTMAX
 10
585
 20
295
 30
0
  9
$LIMMIN
 10
0
 20
0
  9
$LIMMAX
 10
420
 20
297
  9
$ORTHOMODE
 70
    0
  9
$REGENMODE
 70
    1
  9
$FILLMODE
 70
    1
  9
$QTEXTMODE
 70
    0
  9
$MIRRTEXT
 70
    0
  9
$LTSCALE
 40
1
  9
$ATTMODE
 70
    0
  9
$TEXTSIZE
 40
2.5
  9
$TRACEWID
 40
15.68
  9
$TEXTSTYLE
  7
STANDARD
  9
$CLAYER
  8
1
  9
$CELTYPE
  6
BYLAYER
  9
$CECOLOR
 62
  256
  9
$CELTSCALE
 40
1
  9
$DISPSILH
 70
    0
  9
$DIMSCALE
 40
2.5
  9
$DIMASZ
 40
2.5
  9
$DIMEXO
 40
0.625
  9
$DIMDLI
 40
3.75
  9
$DIMRND
 40
0
  9
$DIMDLE
 40
0
  9
$DIMEXE
 40
1.25
  9
$DIMTP
 40
0
  9
$DIMTM
 40
0
  9
$DIMTXT
 40
2.5
  9
$DIMCEN
 40
2.5
  9
$DIMTSZ
 40
0
  9
$DIMTOL
 70
    0
  9
$DIMLIM
 70
    0
  9
$DIMTIH
 70
    0
  9
$DIMTOH
 70
    0
  9
$DIMSE1
 70
    0
  9
$DIMSE2
 70
    0
  9
$DIMTAD
 70
    1
  9
$DIMZIN
 70
    8
  9
$DIMBLK
  1

  9
$DIMASO
 70
    1
  9
$DIMSHO
 70
    1
  9
$DIMPOST
  1

  9
$DIMAPOST
  1

  9
$DIMALT
 70
    0
  9
$DIMALTD
 70
    3
  9
$DIMALTF
 40
0.03937
  9
$DIMLFAC
 40
1
  9
$DIMTOFL
 70
    1
  9
$DIMTVP
 40
0
  9
$DIMTIX
 70
    0
  9
$DIMSOXD
 70
    0
  9
$DIMSAH
 70
    0
  9
$DIMBLK1
  1

  9
$DIMBLK2
  1

  9
$DIMSTYLE
  2
STANDARD
  9
$DIMCLRD
 70
    0
  9
$DIMCLRE
 70
    0
  9
$DIMCLRT
 70
    0
  9
$DIMTFAC
 40
1
  9
$DIMGAP
 40
0.625
  9
$DIMJUST
 70
    0
  9
$DIMSD1
 70
    0
  9
$DIMSD2
 70
    0
  9
$DIMTOLJ
 70
    0
  9
$DIMTZIN
 70
    8
  9
$DIMALTZ
 70
    0
  9
$DIMALTTZ
 70
    0
  9
$DIMUPT
 70
    0
  9
$DIMDEC
 70
    2
  9
$DIMTDEC
 70
    2
  9
$DIMALTU
 70
    2
  9
$DIMALTTD
 70
    3
  9
$DIMTXSTY
  7
STANDARD
  9
$DIMAUNIT
 70
    0
  9
$DIMADEC
 70
    0
  9
$DIMALTRND
 40
0
  9
$DIMAZIN
 70
    0
  9
$DIMDSEP
 70
   44
  9
$DIMATFIT
 70
    3
  9
$DIMFRAC
 70
    0
  9
$DIMLDRBLK
  1
STANDARD
  9
$DIMLUNIT
 70
    2
  9
$DIMLWD
 70
   -2
  9
$DIMLWE
 70
   -2
  9
$DIMTMOVE
 70
    0
  9
$DIMFXL
 40
1
  9
$DIMFXLON
 70
    0
  9
$DIMJOGANG
 40
0.7854
  9
$DIMTFILL
 70
    0
  9
$DIMTFILLCLR
 70
    0
  9
$DIMARCSYM
 70
    0
  9
$DIMLTYPE
  6

  9
$DIMLTEX1
  6

  9
$DIMLTEX2
  6

  9
$LUNITS
 70
    2
  9
$LUPREC
 70
    4
  9
$SKETCHINC
 40
1
  9
$FILLETRAD
 40
0
  9
$AUNITS
 70
    0
  9
$AUPREC
 70
    2
  9
$MENU
  1
.
  9
$ELEVATION
 40
0
  9
$PELEVATION
 40
0
  9
$THICKNESS
 40
0
  9
$LIMCHECK
 70
    0
  9
$CHAMFERA
 40
0
  9
$CHAMFERB
 40
0
  9
$CHAMFERC
 40
0
  9
$CHAMFERD
 40
0
  9
$SKPOLY
 70
    0
  9
$USRTIMER
 70
    1
  9
$ANGBASE
 50
0
  9
$ANGDIR
 70
    0
  9
$PDMODE
 70
   34
  9
$PDSIZE
 40
0
  9
$PLINEWID
 40
0
  9
$SPLFRAME
 70
    0
  9
$SPLINETYPE
 70
    2
  9
$SPLINESEGS
 70
    8
  9
$HANDSEED
  5
20000
  9
$SURFTAB1
 70
    6
  9
$SURFTAB2
 70
    6
  9
$SURFTYPE
 70
    6
  9
$SURFU
 70
    6
  9
$SURFV
 70
    6
  9
$UCSBASE
  2

  9
$UCSNAME
  2

  9
$UCSORG
 10
0
 20
0
 30
0
  9
$UCSXDIR
 10
1
 20
0
 30
0
  9
$UCSYDIR
 10
0
 20
1
 30
0
  9
$UCSORTHOREF
  2

  9
$UCSORTHOVIEW
 70
    0
  9
$UCSORGTOP
 10
0
 20
0
 30
0
  9
$UCSORGBOTTOM
 10
0
 20
0
 30
0
  9
$UCSORGLEFT
 10
0
 20
0
 30
0
  9
$UCSORGRIGHT
 10
0
 20
0
 30
0
  9
$UCSORGFRONT
 10
0
 20
0
 30
0
  9
$UCSORGBACK
 10
0
 20
0
 30
0
  9
$PUCSBASE
  2

  9
$PUCSNAME
  2

  9
$PUCSORG
 10
0
 20
0
 30
0
  9
$PUCSXDIR
 10
1
 20
0
 30
0
  9
$PUCSYDIR
 10
0
 20
1
 30
0
  9
$PUCSORTHOREF
  2

  9
$PUCSORTHOVIEW
 70
    0
  9
$PUCSORGTOP
 10
0
 20
0
 30
0
  9
$PUCSORGBOTTOM
 10
0
 20
0
 30
0
  9
$PUCSORGLEFT
 10
0
 20
0
 30
0
  9
$PUCSORGRIGHT
 10
0
 20
0
 30
0
  9
$PUCSORGFRONT
 10
0
 20
0
 30
0
  9
$PUCSORGBACK
 10
0
 20
0
 30
0
  9
$USERI1
 70
    0
  9
$USERI2
 70
    0
  9
$USERI3
 70
    0
  9
$USERI4
 70
    0
  9
$USERI5
 70
    0
  9
$USERR1
 40
0
  9
$USERR2
 40
0
  9
$USERR3
 40
0
  9
$USERR4
 40
0
  9
$USERR5
 40
0
  9
$WORLDVIEW
 70
    1
  9
$SHADEDGE
 70
    3
  9
$SHADEDIF
 70
   70
  9
$TILEMODE
 70
    1
  9
$MAXACTVP
 70
   64
  9
$PINSBASE
 10
0
 20
0
 30
0
  9
$PLIMCHECK
 70
    0
  9
$PEXTMIN
 10
0
 20
0
 30
0
  9
$PEXTMAX
 10
0
 20
0
 30
0
  9
$GRIDMODE
 70
    1
  9
$SNAPSTYLE
 70
    0
  9
$PLIMMIN
 10
0
 20
0
  9
$PLIMMAX
 10
297
 20
210
  9
$UNITMODE
 70
    0
  9
$VISRETAIN
 70
    1
  9
$PLINEGEN
 70
    0
  9
$PSLTSCALE
 70
    1
  9
$TREEDEPTH
 70
 3020
  9
$CMLSTYLE
  2
Standard
  9
$CMLJUST
 70
    0
  9
$CMLSCALE
 40
20
  9
$PROXYGRAPHICS
 70
    1
  9
$MEASUREMENT
 70
    1
  9
$CELWEIGHT
370
   -1
  9
$ENDCAPS
280
    0
  9
$JOINSTYLE
280
    0
  9
$LWDISPLAY
290
    0
  9
$INSUNITS
 70
    4
  9
$HYPERLINKBASE
  1

  9
$STYLESHEET
  1

  9
$XEDIT
290
    1
  9
$CEPSNTYPE
380
    0
  9
$PSTYLEMODE
290
    1
  9
$EXTNAMES
290
    1
  9
$PSVPSCALE
 40
1
  9
$OLESTARTUP
290
    0
  9
$SORTENTS
280
  127
  9
$INDEXCTL
280
    0
  9
$HIDETEXT
280
    1
  9
$XCLIPFRAME
290
    0
  9
$HALOGAP
280
    0
  9
$OBSCOLOR
 70
  257
  9
$OBSLTYPE
280
    0
  9
$INTERSECTIONDISPLAY
280
    0
  9
$INTERSECTIONCOLOR
 70
  257
  9
$DIMASSOC
280
    1
  9
$PROJECTNAME
  1

  9
$CAMERADISPLAY
290
    0
  9
$LENSLENGTH
 40
50
  9
$CAMERAHEIGHT
 40
0
  9
$STEPSPERSEC
 40
2
  9
$STEPSIZE
 40
50
  9
$3DDWFPREC
 40
2
  9
$PSOLWIDTH
 40
5
  9
$PSOLHEIGHT
 40
80
  9
$LOFTANG1
 40
1.570796326794897
  9
$LOFTANG2
 40
1.570796326794897
  9
$LOFTMAG1
 40
0
  9
$LOFTMAG2
 40
0
  9
$LOFTPARAM
 70
    7
  9
$LOFTNORMALS
280
    1
  9
$LATITUDE
 40
1
  9
$LONGITUDE
 40
1
  9
$NORTHDIRECTION
 40
0
  9
$TIMEZONE
 70
-8000
  9
$LIGHTGLYPHDISPLAY
280
    1
  9
$TILEMODELIGHTSYNCH
280
    1
  9
$SOLIDHIST
280
    1
  9
$SHOWHIST
280
    1
  9
$DWFFRAME
280
    2
  9
$DGNFRAME
280
    0
  9
$REALWORLDSCALE
290
    1
  9
$INTERFERECOLOR
 62
    1
  9
$CSHADOW
280
    0
  9
$SHADOWPLANELOCATION
 40
0
  0
ENDSEC
  0
SECTION
  2
CLASSES
  0
ENDSEC
  0
SECTION
  2
TABLES
  0
TABLE
  2
VPORT
  5
8
330
0
100
AcDbSymbolTable
 70
    1
  0
VPORT
  5
31
330
2
100
AcDbSymbolTableRecord
100
AcDbViewportTableRecord
  2
*ACTIVE
 70
    0
 10
0
 20
0
 11
1
 21
1
 12
327.0259876943006
 22
175.7083873056995
 13
0
 23
0
 14
10
 24
10
 15
10
 25
10
 16
0
 26
0
 36
1
 17
0
 27
0
 37
0
 40
430.9828367875648
 41
1.718681318681319
 42
50
 43
0
 44
0
 50
0
 51
0
 71
    0
 72
  100
 73
    1
 74
    3
 75
    0
 76
    1
 77
    0
 78
    0
281
    0
 65
    1
110
0
120
0
130
0
111
1
121
0
131
0
112
0
122
1
132
0
 79
    0
146
0
348
10020
 60
    7
 61
    5
292
1
282
    1
141
0
142
0
 63
  250
421
3358443
  0
ENDTAB
  0
TABLE
  2
LTYPE
  5
5
330
0
100
AcDbSymbolTable
 70
    4
  0
LTYPE
  5
14
330
5
100
AcDbSymbolTableRecord
100
AcDbLinetypeTableRecord
  2
ByBlock
 70
    0
  3

 72
   65
 73
    0
 40
0
  0
LTYPE
  5
15
330
5
100
AcDbSymbolTableRecord
100
AcDbLinetypeTableRecord
  2
ByLayer
 70
    0
  3

 72
   65
 73
    0
 40
0
  0
LTYPE
  5
16
330
5
100
AcDbSymbolTableRecord
100
AcDbLinetypeTableRecord
  2
Continuous
 70
    0
  3
Solid line
 72
   65
 73
    0
 40
0
  0
LTYPE
  5
32
330
5
100
AcDbSymbolTableRecord
100
AcDbLinetypeTableRecord
  2
DOT
 70
    0
  3
Dot . . . . . . . . . . . . . . . . . . . . . .
 72
   65
 73
    2
 40
6.35
 49
0
 74
    0
 49
-6.35
 74
    0
  0
LTYPE
  5
33
330
5
100
AcDbSymbolTableRecord
100
AcDbLinetypeTableRecord
  2
DOTTINY
 70
    0
  3
Dot (.15x) .....................................
 72
   65
 73
    2
 40
0.9525
 49
0
 74
    0
 49
-0.9525
 74
    0
  0
LTYPE
  5
34
330
5
100
AcDbSymbolTableRecord
100
AcDbLinetypeTableRecord
  2
DOT2
 70
    0
  3
Dot (.5x) .....................................
 72
   65
 73
    2
 40
3.175
 49
0
 74
    0
 49
-3.175
 74
    0
  0
LTYPE
  5
35
330
5
100
AcDbSymbolTableRecord
100
AcDbLinetypeTableRecord
  2
DOTX2
 70
    0
  3
Dot (2x) .  .  .  .  .  .  .  .  .  .  .  .  .
 72
   65
 73
    2
 40
12.7
 49
0
 74
    0
 49
-12.7
 74
    0
  0
LTYPE
  5
36
330
5
100
AcDbSymbolTableRecord
100
AcDbLinetypeTableRecord
  2
DASHED
 70
    0
  3
Dashed _ _ _ _ _ _ _ _ _ _ _ _ _ _ _ _ _
 72
   65
 73
    2
 40
19.05
 49
12.7
 74
    0
 49
-6.35
 74
    0
  0
LTYPE
  5
37
330
5
100
AcDbSymbolTableRecord
100
AcDbLinetypeTableRecord
  2
DASHEDTINY
 70
    0
  3
Dashed (.15x) _ _ _ _ _ _ _ _ _ _ _ _ _ _ _ _ _
 72
   65
 73
    2
 40
2.8575
 49
1.905
 74
    0
 49
-0.9525
 74
    0
  0
LTYPE
  5
38
330
5
100
AcDbSymbolTableRecord
100
AcDbLinetypeTableRecord
  2
DASHED2
 70
    0
  3
Dashed (.5x) _ _ _ _ _ _ _ _ _ _ _ _ _ _ _ _ _
 72
   65
 73
    2
 40
9.524999999999999
 49
6.35
 74
    0
 49
-3.175
 74
    0
  0
LTYPE
  5
39
330
5
100
AcDbSymbolTableRecord
100
AcDbLinetypeTableRecord
  2
DASHEDX2
 70
    0
  3
Dashed (2x) ____  ____  ____  ____  ____  ___
 72
   65
 73
    2
 40
38.09999999999999
 49
25.4
 74
    0
 49
-12.7
 74
    0
  0
LTYPE
  5
3A
330
5
100
AcDbSymbolTableRecord
100
AcDbLinetypeTableRecord
  2
DASHDOT
 70
    0
  3
Dash dot __ . __ . __ . __ . __ . __ . __ . __
 72
   65
 73
    4
 40
25.4
 49
12.7
 74
    0
 49
-6.35
 74
    0
 49
0
 74
    0
 49
-6.35
 74
    0
  0
LTYPE
  5
3B
330
5
100
AcDbSymbolTableRecord
100
AcDbLinetypeTableRecord
  2
DASHDOTTINY
 70
    0
  3
Dash dot (.15x) _._._._._._._._._._._._._._._.
 72
   65
 73
    4
 40
3.81
 49
1.905
 74
    0
 49
-0.9525
 74
    0
 49
0
 74
    0
 49
-0.9525
 74
    0
  0
LTYPE
  5
3C
330
5
100
AcDbSymbolTableRecord
100
AcDbLinetypeTableRecord
  2
DASHDOT2
 70
    0
  3
Dash dot (.5x) _._._._._._._._._._._._._._._.
 72
   65
 73
    4
 40
12.7
 49
6.35
 74
    0
 49
-3.175
 74
    0
 49
0
 74
    0
 49
-3.175
 74
    0
  0
LTYPE
  5
3D
330
5
100
AcDbSymbolTableRecord
100
AcDbLinetypeTableRecord
  2
DASHDOTX2
 70
    0
  3
Dash dot (2x) ____  .  ____  .  ____  .  ___
 72
   65
 73
    4
 40
50.8
 49
25.4
 74
    0
 49
-12.7
 74
    0
 49
0
 74
    0
 49
-12.7
 74
    0
  0
LTYPE
  5
3E
330
5
100
AcDbSymbolTableRecord
100
AcDbLinetypeTableRecord
  2
DIVIDE
 70
    0
  3
Divide ____ . . ____ . . ____ . . ____ . . ____
 72
   65
 73
    6
 40
31.75
 49
12.7
 74
    0
 49
-6.35
 74
    0
 49
0
 74
    0
 49
-6.35
 74
    0
 49
0
 74
    0
 49
-6.35
 74
    0
  0
LTYPE
  5
3F
330
5
100
AcDbSymbolTableRecord
100
AcDbLinetypeTableRecord
  2
DIVIDETINY
 70
    0
  3
Divide (.15x) __..__..__..__..__..__..__..__.._
 72
   65
 73
    6
 40
4.7625
 49
1.905
 74
    0
 49
-0.9525
 74
    0
 49
0
 74
    0
 49
-0.9525
 74
    0
 49
0
 74
    0
 49
-0.9525
 74
    0
  0
LTYPE
  5
40
330
5
100
AcDbSymbolTableRecord
100
AcDbLinetypeTableRecord
  2
DIVIDE2
 70
    0
  3
Divide (.5x) __..__..__..__..__..__..__..__.._
 72
   65
 73
    6
 40
15.875
 49
6.35
 74
    0
 49
-3.175
 74
    0
 49
0
 74
    0
 49
-3.175
 74
    0
 49
0
 74
    0
 49
-3.175
 74
    0
  0
LTYPE
  5
41
330
5
100
AcDbSymbolTableRecord
100
AcDbLinetypeTableRecord
  2
DIVIDEX2
 70
    0
  3
Divide (2x) ________  .  .  ________  .  .  _
 72
   65
 73
    6
 40
63.5
 49
25.4
 74
    0
 49
-12.7
 74
    0
 49
0
 74
    0
 49
-12.7
 74
    0
 49
0
 74
    0
 49
-12.7
 74
    0
  0
LTYPE
  5
42
330
5
100
AcDbSymbolTableRecord
100
AcDbLinetypeTableRecord
  2
BORDER
 70
    0
  3
Border __ __ . __ __ . __ __ . __ __ . __ __ .
 72
   65
 73
    6
 40
44.45
 49
12.7
 74
    0
 49
-6.35
 74
    0
 49
12.7
 74
    0
 49
-6.35
 74
    0
 49
0
 74
    0
 49
-6.35
 74
    0
  0
LTYPE
  5
43
330
5
100
AcDbSymbolTableRecord
100
AcDbLinetypeTableRecord
  2
BORDERTINY
 70
    0
  3
Border (.15x) __.__.__.__.__.__.__.__.__.__.__.
 72
   65
 73
    6
 40
6.6675
 49
1.905
 74
    0
 49
-0.9525
 74
    0
 49
1.905
 74
    0
 49
-0.9525
 74
    0
 49
0
 74
    0
 49
-0.9525
 74
    0
  0
LTYPE
  5
44
330
5
100
AcDbSymbolTableRecord
100
AcDbLinetypeTableRecord
  2
BORDER2
 70
    0
  3
Border (.5x) __.__.__.__.__.__.__.__.__.__.__.
 72
   65
 73
    6
 40
22.225
 49
6.35
 74
    0
 49
-3.175
 74
    0
 49
6.35
 74
    0
 49
-3.175
 74
    0
 49
0
 74
    0
 49
-3.175
 74
    0
  0
LTYPE
  5
45
330
5
100
AcDbSymbolTableRecord
100
AcDbLinetypeTableRecord
  2
BORDERX2
 70
    0
  3
Border (2x) ____  ____  .  ____  ____  .  ___
 72
   65
 73
    6
 40
88.89999999999999
 49
25.4
 74
    0
 49
-12.7
 74
    0
 49
25.4
 74
    0
 49
-12.7
 74
    0
 49
0
 74
    0
 49
-12.7
 74
    0
  0
LTYPE
  5
46
330
5
100
AcDbSymbolTableRecord
100
AcDbLinetypeTableRecord
  2
CENTER
 70
    0
  3
Center ____ _ ____ _ ____ _ ____ _ ____ _ ____
 72
   65
 73
    4
 40
50.8
 49
31.75
 74
    0
 49
-6.35
 74
    0
 49
6.35
 74
    0
 49
-6.35
 74
    0
  0
LTYPE
  5
47
330
5
100
AcDbSymbolTableRecord
100
AcDbLinetypeTableRecord
  2
CENTERTINY
 70
    0
  3
Center (.15x) ___ _ ___ _ ___ _ ___ _ ___ _ ___
 72
   65
 73
    4
 40
7.619999999999999
 49
4.7625
 74
    0
 49
-0.9525
 74
    0
 49
0.9525
 74
    0
 49
-0.9525
 74
    0
  0
LTYPE
  5
48
330
5
100
AcDbSymbolTableRecord
100
AcDbLinetypeTableRecord
  2
CENTER2
 70
    0
  3
Center (.5x) ___ _ ___ _ ___ _ ___ _ ___ _ ___
 72
   65
 73
    4
 40
28.575
 49
19.05
 74
    0
 49
-3.175
 74
    0
 49
3.175
 74
    0
 49
-3.175
 74
    0
  0
LTYPE
  5
49
330
5
100
AcDbSymbolTableRecord
100
AcDbLinetypeTableRecord
  2
CENTERX2
 70
    0
  3
Center (2x) ________  __  ________  __  _____
 72
   65
 73
    4
 40
101.6
 49
63.5
 74
    0
 49
-12.7
 74
    0
 49
12.7
 74
    0
 49
-12.7
 74
    0
  0
ENDTAB
  0
TABLE
  2
LAYER
  5
2
330
0
100
AcDbSymbolTable
 70
    1
  0
LAYER
  5
10
330
2
100
AcDbSymbolTableRecord
100
AcDbLayerTableRecord
  2
0
 70
    0
 62
    7
  6
CONTINUOUS
370
    0
390
F
  0
LAYER
  5
4A
330
2
100
AcDbSymbolTableRecord
100
AcDbLayerTableRecord
  2
1
 70
    0
 62
    7
  6
CONTINUOUS
370
    0
390
F
  0
ENDTAB
  0
TABLE
  2
STYLE
  5
3
330
0
100
AcDbSymbolTable
 70
    3
  0
STYLE
  5
4B
330
2
100
AcDbSymbolTableRecord
100
AcDbTextStyleTableRecord
  2
Standard
 70
    0
 40
0
 41
1
 50
0
 71
    0
 42
1
  3
txt
  4

  0
ENDTAB
  0
TABLE
  2
VIEW
  5
6
330
0
100
AcDbSymbolTable
 70
    0
  0
ENDTAB
  0
TABLE
  2
UCS
  5
7
330
0
100
AcDbSymbolTable
 70
    0
  0
ENDTAB
  0
TABLE
  2
APPID
  5
9
330
0
100
AcDbSymbolTable
 70
    1
  0
APPID
  5
12
330
9
100
AcDbSymbolTableRecord
100
AcDbRegAppTableRecord
  2
ACAD
 70
    0
  0
APPID
  5
4C
330
9
100
AcDbSymbolTableRecord
100
AcDbRegAppTableRecord
  2
LibreCad
 70
    0
  0
ENDTAB
  0
TABLE
  2
DIMSTYLE
  5
A
330
0
100
AcDbSymbolTable
 70
    1
100
AcDbDimStyleTable
 71
    1
  0
DIMSTYLE
105
4D
330
A
100
AcDbSymbolTableRecord
100
AcDbDimStyleTableRecord
  2
Standard
 70
    0
 40
2.5
 41
2.5
 42
0.625
 43
0.38
 44
1.25
 45
0
 46
0
 47
0
 48
0
 49
1
140
2.5
141
0.09
142
0
143
25.4
144
1
145
0
146
1
147
0.625
148
0
 71
    0
 72
    0
 73
    0
 74
    1
 75
    0
 76
    0
 77
    0
 78
    8
 79
    0
170
    0
171
    2
172
    0
173
    0
174
    0
175
    0
176
    0
177
    0
178
    0
179
    0
271
    2
272
    4
273
    2
274
    2
275
    0
276
    0
277
    2
278
   44
279
    0
280
    0
281
    0
282
    0
283
    1
284
    0
285
    0
286
    0
288
    0
289
    3
340
STANDARD
341

371
   -2
372
   -2
  0
ENDTAB
  0
TABLE
  2
BLOCK_RECORD
  5
1
330
0
100
AcDbSymbolTable
 70
    2
  0
BLOCK_RECORD
  5
1F
330
1
100
AcDbSymbolTableRecord
100
AcDbBlockTableRecord
  2
*Model_Space
 70
    0
280
    1
281
    0
  0
BLOCK_RECORD
  5
1E
330
1
100
AcDbSymbolTableRecord
100
AcDbBlockTableRecord
  2
*Paper_Space
 70
    0
280
    1
281
    0
  0
ENDTAB
  0
ENDSEC
  0
SECTION
  2
BLOCKS
  0
BLOCK
  5
20
330
1F
100
AcDbEntity
  8
0
100
AcDbBlockBegin
  2
*Model_Space
 70
    0
 10
0
 20
0
 30
0
  3
*Model_Space
  1

  0
ENDBLK
  5
21
330
1F
100
AcDbEntity
  8
0
100
AcDbBlockEnd
  0
BLOCK
  5
1C
330
1B
100
AcDbEntity
  8
0
100
AcDbBlockBegin
  2
*Paper_Space
 70
    0
 10
0
 20
0
 30
0
  3
*Paper_Space
  1

  0
ENDBLK
  5
1D
330
1F
100
AcDbEntity
  8
0
100
AcDbBlockEnd
  0
ENDSEC
  0
SECTION
  2
ENTITIES
  0
LINE
  5
4E
100
AcDbEntity
  8
1
  6
ByLayer
 62
  256
370
   -1
100
AcDbLine
 10
0
 20
0
 11
585
 21
0
  0
LINE
  5
4F
100
AcDbEntity
  8
1
  6
ByLayer
 62
  256
370
   -1
100
AcDbLine
 10
1.806354028742346e-14
 20
295
 11
585
 21
295
  0
LINE
  5
50
100
AcDbEntity
  8
1
  6
ByLayer
 62
  256
370
   -1
100
AcDbLine
 10
585
 20
0
 11
585
 21
295
  0
LINE
  5
51
100
AcDbEntity
  8
1
  6
ByLayer
 62
  256
370
   -1
100
AcDbLine
 10
1.806354028742346e-14
 20
295
 11
0
 21
0
  0
ARC
  5
52
100
AcDbEntity
  8
0
  6
ByLayer
 62
  256
370
   -1
100
AcDbCircle
 10
110.4216587256342
 20
25.07703527564192
 40
3.00000000000001
100
AcDbArc
 50
145.5545049274769
 51
232.8152935467668
  0
LINE
  5
53
100
AcDbEntity
  8
0
  6
ByLayer
 62
  256
370
   -1
100
AcDbLine
 10
108.6084992815115
 20
22.68696146293472
 11
113.6677540079772
 21
18.84890615320214
  0
ARC
  5
54
100
AcDbEntity
  8
0
  6
ByLayer
 62
  256
370
   -1
100
AcDbCircle
 10
117.2940728962225
 20
23.62905377861643
 40
5.999999999999896
100
AcDbArc
 50
232.8152935467668
 51
330.9899428616746
  0
ARC
  5
55
100
AcDbEntity
  8
0
  6
ByLayer
 62
  256
370
   -1
100
AcDbCircle
 10
50.65368563770627
 20
60.58371664099447
 40
82.20097323024837
100
AcDbArc
 50
330.9899428616746
 51
353.9736667856972
  0
ARC
  5
56
100
AcDbEntity
  8
0
  6
ByLayer
 62
  256
370
   -1
100
AcDbCircle
 10
126.4335531569689
 20
52.58371664099389
 40
6.000000000000082
100
AcDbArc
 50
353.9736667856973
 51
90.00000000000028
  0
ARC
  5
57
100
AcDbEntity
  8
0
  6
ByLayer
 62
  256
370
   -1
100
AcDbCircle
 10
126.8183098439968
 20
60.58371664099433
 40
2.000000000000024
100
AcDbArc
 50
226.4262088080247
 51
270.0000000000497
  0
ARC
  5
58
100
AcDbEntity
  8
0
  6
ByLayer
 62
  256
370
   -1
100
AcDbCircle
 10
116.2308176567148
 20
49.45556614683093
 40
13.36003659619676
100
AcDbArc
 50
46.42620880802364
 51
128.6100291934507
  0
ARC
  5
59
100
AcDbEntity
  8
0
  6
ByLayer
 62
  256
370
   -1
100
AcDbCircle
 10
104.1498375792529
 20
64.58371664099408
 40
6.000000000000117
100
AcDbArc
 50
269.9999999999994
 51
308.6100291934495
  0
LINE
  5
5A
100
AcDbEntity
  8
0
  6
ByLayer
 62
  256
370
   -1
100
AcDbLine
 10
104.1498375792528
 20
58.58371664099397
 11
45.00811275491574
 21
58.58371664099398
  0
ARC
  5
5B
100
AcDbEntity
  8
0
  6
ByLayer
 62
  256
370
   -1
100
AcDbCircle
 10
45.00811275491567
 20
38.58371664099397
 40
20
100
AcDbArc
 50
89.99999999999982
 51
118.5947608897379
  0
LINE
  5
5C
100
AcDbEntity
  8
0
  6
ByLayer
 62
  256
370
   -1
100
AcDbLine
 10
35.43588128654389
 20
56.14425150516918
 11
4.655240558704051
 21
39.3657524406126
  0
ARC
  5
5D
100
AcDbEntity
  8
0
  6
ByLayer
 62
  256
370
   -1
100
AcDbCircle
 10
6.951341152894413
 20
33.82247524554494
 40
5.99999999999988
100
AcDbArc
 50
112.4999999999986
 51
211.4813248091297
  0
ARC
  5
5E
100
AcDbEntity
  8
0
  6
ByLayer
 62
  256
370
   -1
100
AcDbCircle
 10
50.65368563770669
 20
60.5837166409944
 40
57.24508712544754
100
AcDbArc
 50
211.4813248091309
 51
219.7332752476107
  0
LINE
  5
5F
100
AcDbEntity
  8
0
  6
ByLayer
 62
  256
370
   -1
100
AcDbLine
 10
6.630584853139034
 20
23.99182413306475
 11
7.422212326374822
 21
25.13483106407831
  0
ARC
  5
60
100
AcDbEntity
  8
0
  6
ByLayer
 62
  256
370
   -1
100
AcDbCircle
 10
8.655341514677058
 20
24.28078631391947
 40
1.500000010105603
100
AcDbArc
 50
328.1372329486762
 51
145.2941709004045
  0
LINE
  5
61
100
AcDbEntity
  8
0
  6
ByLayer
 62
  256
370
   -1
100
AcDbLine
 10
9.929313884388801
 20
23.48895651432371
 11
8.746688557598741
 21
21.58623472577449
  0
LINE
  5
62
100
AcDbEntity
  8
0
  6
ByLayer
 62
  256
370
   -1
100
AcDbLine
 10
8.746688557598741
 20
21.58623472577449
 11
11.50314195056687
 21
18.8196779354114
  0
LINE
  5
63
100
AcDbEntity
  8
0
  6
ByLayer
 62
  256
370
   -1
100
AcDbLine
 10
11.50314195056687
 20
18.8196779354114
 11
12.41098197704671
 21
20.13048065209411
  0
ARC
  5
64
100
AcDbEntity
  8
0
  6
ByLayer
 62
  256
370
   -1
100
AcDbCircle
 10
13.64411116534895
 20
19.27643590193527
 40
1.500000010105608
100
AcDbArc
 50
328.1372329486763
 51
145.2941709004046
  0
LINE
  5
65
100
AcDbEntity
  8
0
  6
ByLayer
 62
  256
370
   -1
100
AcDbLine
 10
14.9180835350607
 20
18.48460610233951
 11
13.83830000213574
 21
16.74734611942555
  0
ARC
  5
66
100
AcDbEntity
  8
0
  6
ByLayer
 62
  256
370
   -1
100
AcDbCircle
 10
50.65368563770744
 20
60.58371664099512
 40
57.24508712544853
100
AcDbArc
 50
229.9752323235319
 51
236.5143717610535
  0
ARC
  5
67
100
AcDbEntity
  8
0
  6
ByLayer
 62
  256
370
   -1
100
AcDbCircle
 10
20.72516302591939
 20
15.3419990396132
 40
3.000000000000017
100
AcDbArc
 50
236.5143717610534
 51
329.684706453233
  0
LINE
  5
68
100
AcDbEntity
  8
0
  6
ByLayer
 62
  256
370
   -1
100
AcDbLine
 10
23.31494557577661
 20
13.82772484236385
 11
24.16470563840699
 21
15.28102424201253
  0
ARC
  5
69
100
AcDbEntity
  8
0
  6
ByLayer
 62
  256
370
   -1
100
AcDbCircle
 10
29.05977758233347
 20
24.0032328576436
 40
9.999999999999996
100
AcDbArc
 50
201.3450009068259
 51
239.4461255581728
  0
LINE
  5
6A
100
AcDbEntity
  8
0
  6
ByLayer
 62
  256
370
   -1
100
AcDbLine
 10
19.74572120585506
 20
20.36340404081969
 11
17.31728306656421
 21
26.57760005784069
  0
ARC
  5
6B
100
AcDbEntity
  8
0
  6
ByLayer
 62
  256
370
   -1
100
AcDbCircle
 10
26.63133944304263
 20
30.2174288746646
 40
9.999999999999998
100
AcDbArc
 50
119.5466093178763
 51
201.3450009068259
  0
LINE
  5
6C
100
AcDbEntity
  8
0
  6
ByLayer
 62
  256
370
   -1
100
AcDbLine
 10
21.70002524986816
 20
38.9169771576616
 11
37.6934654054383
 21
47.98281320698794
  0
ARC
  5
6D
100
AcDbEntity
  8
0
  6
ByLayer
 62
  256
370
   -1
100
AcDbCircle
 10
47.55609379178726
 20
30.58371664099393
 40
20.00000000000001
100
AcDbArc
 50
90.00000000000004
 51
119.5466093178763
  0
LINE
  5
6E
100
AcDbEntity
  8
0
  6
ByLayer
 62
  256
370
   -1
100
AcDbLine
 10
47.55609379178723
 20
50.58371664099394
 11
94.29148112919154
 21
50.58371664099394
  0
ARC
  5
6F
100
AcDbEntity
  8
0
  6
ByLayer
 62
  256
370
   -1
100
AcDbCircle
 10
103.6172908948257
 20
30.23896949211735
 40
3.00000000000002
100
AcDbArc
 50
232.8152935467647
 51
325.9856282389433
  0
LINE
  5
70
100
AcDbEntity
  8
0
  6
ByLayer
 62
  256
370
   -1
100
AcDbLine
 10
94.29148112919154
 20
50.58371664099394
 11
95.92113323421887
 21
50.58371664099393
  0
ARC
  5
71
100
AcDbEntity
  8
0
  6
ByLayer
 62
  256
370
   -1
100
AcDbCircle
 10
95.92113593161712
 20
45.58371664099394
 40
5
100
AcDbArc
 50
345.379135792289
 51
89.99996909009199
  0
LINE
  5
72
100
AcDbEntity
  8
0
  6
ByLayer
 62
  256
370
   -1
100
AcDbLine
 10
100.7592220781475
 20
44.32160632935275
 11
98.18684725739078
 21
34.46083618311845
  0
LINE
  5
73
100
AcDbEntity
  8
0
  6
ByLayer
 62
  256
370
   -1
100
AcDbLine
 10
100.003001212504
 20
29.21527034287133
 11
101.8041314507029
 21
27.84889567941021
  0
ARC
  5
74
100
AcDbEntity
  8
0
  6
ByLayer
 62
  256
370
   -1
100
AcDbCircle
 10
103.024933619375
 20
33.19872669738344
 40
5
100
AcDbArc
 50
165.379139843679
 51
232.8152741478453
  0
ARC
  5
75
100
AcDbEntity
  8
0
  6
ByLayer
 62
  256
370
   -1
100
AcDbCircle
 10
58.6536856377062
 20
60.58371664099398
 40
57.24508712544691
100
AcDbArc
 50
325.9856282389459
 51
341.7510161561383
  0
ARC
  5
76
100
AcDbEntity
  8
0
  6
ByLayer
 62
  256
370
   -1
100
AcDbCircle
 10
58.65368563770633
 20
60.58371664099394
 40
59.77457653551367
100
AcDbArc
 50
325.5545049274755
 51
342.1506469235559
  0
ARC
  5
77
100
AcDbEntity
  8
0
  6
ByLayer
 62
  256
370
   -1
100
AcDbCircle
 10
117.9307203728652
 20
41.49560422293872
 40
2.5
100
AcDbArc
 50
110.5064629959911
 51
162.150646923556
  0
ARC
  5
78
100
AcDbEntity
  8
0
  6
ByLayer
 62
  256
370
   -1
100
AcDbCircle
 10
110.6453510930766
 20
43.44045885405009
 40
2.5
100
AcDbArc
 50
341.7510161561382
 51
39.60015417391266
  0
ARC
  5
79
100
AcDbEntity
  8
0
  6
ByLayer
 62
  256
370
   -1
100
AcDbCircle
 10
115.6536856377061
 20
47.58371664099397
 40
4
100
AcDbArc
 50
290.5064489852651
 51
219.5999380995632
  0
ARC
  5
7A
100
AcDbEntity
  8
0
  6
ByLayer
 62
  256
370
   -1
100
AcDbCircle
 10
50.12465222319646
 20
40.73945928529675
 40
3.00000000000001
100
AcDbArc
 50
320.0265049274769
 51
47.28729354676683
  0
LINE
  5
7B
100
AcDbEntity
  8
0
  6
ByLayer
 62
  256
370
   -1
100
AcDbLine
 10
52.15962012757316
 20
42.94375183125267
 11
47.49362302641718
 21
47.25132632275437
  0
ARC
  5
7C
100
AcDbEntity
  8
0
  6
ByLayer
 62
  256
370
   -1
100
AcDbCircle
 10
43.42368721766392
 20
42.84274123084264
 40
5.999999999999896
100
AcDbArc
 50
47.28729354676683
 51
145.4619428616747
  0
ARC
  5
7D
100
AcDbEntity
  8
0
  6
ByLayer
 62
  256
370
   -1
100
AcDbCircle
 10
106.1942226974097
 20
-0.359668387406856
 40
82.20097323024837
100
AcDbArc
 50
145.4619428616747
 51
168.4456667856972
  0
ARC
  5
7E
100
AcDbEntity
  8
0
  6
ByLayer
 62
  256
370
   -1
100
AcDbCircle
 10
31.5374465888558
 20
14.90316563233749
 40
6.000000000000082
100
AcDbArc
 50
168.4456667856972
 51
264.4720000000003
  0
ARC
  5
7F
100
AcDbEntity
  8
0
  6
ByLayer
 62
  256
370
   -1
100
AcDbCircle
 10
30.38382184543252
 20
6.977436160573944
 40
2.000000000000024
100
AcDbArc
 50
40.89820880802469
 51
84.47200000004968
  0
ARC
  5
80
100
AcDbEntity
  8
0
  6
ByLayer
 62
  256
370
   -1
100
AcDbCircle
 10
41.99407318654435
 20
17.03391606323954
 40
13.36003659619676
100
AcDbArc
 50
220.8982088080236
 51
303.0820291934508
  0
ARC
  5
81
100
AcDbEntity
  8
0
  6
ByLayer
 62
  256
370
   -1
100
AcDbCircle
 10
52.56153976241701
 20
0.8123357711134247
 40
6.000000000000117
100
AcDbArc
 50
84.4719999999994
 51
123.0820291934495
  0
LINE
  5
82
100
AcDbEntity
  8
0
  6
ByLayer
 62
  256
370
   -1
100
AcDbLine
 10
53.13953286284455
 20
6.784431213741541
 11
112.0062037449418
 21
1.087179731100775
  0
ARC
  5
83
100
AcDbEntity
  8
0
  6
ByLayer
 62
  256
370
   -1
100
AcDbCircle
 10
113.9328474130333
 20
20.99416453986083
 40
20
100
AcDbArc
 50
264.4719999999999
 51
293.0667608897379
  0
LINE
  5
84
100
AcDbEntity
  8
0
  6
ByLayer
 62
  256
370
   -1
100
AcDbLine
 10
121.7689160691558
 20
2.593185543716771
 11
154.0227128869465
 21
16.3284855154084
  0
ARC
  5
85
100
AcDbEntity
  8
0
  6
ByLayer
 62
  256
370
   -1
100
AcDbCircle
 10
152.2712868999675
 20
22.06717064461119
 40
5.99999999999988
100
AcDbArc
 50
286.9719999999986
 51
25.95332480912973
  0
ARC
  5
86
100
AcDbEntity
  8
0
  6
ByLayer
 62
  256
370
   -1
100
AcDbCircle
 10
106.1942226974093
 20
-0.3596683874067566
 40
57.24508712544754
100
AcDbArc
 50
25.95332480913095
 51
34.20527524761069
  0
LINE
  5
87
100
AcDbEntity
  8
0
  6
ByLayer
 62
  256
370
   -1
100
AcDbLine
 10
153.5375595252486
 20
31.82120260773313
 11
152.6395053677424
 21
30.75977073007326
  0
ARC
  5
88
100
AcDbEntity
  8
0
  6
ByLayer
 62
  256
370
   -1
100
AcDbCircle
 10
151.4943831623118
 20
31.72863355057299
 40
1.500000010105603
100
AcDbArc
 50
142.6092329486763
 51
319.7661709004045
  0
LINE
  5
89
100
AcDbEntity
  8
0
  6
ByLayer
 62
  256
370
   -1
100
AcDbLine
 10
150.3026144252601
 20
32.63950528012823
 11
151.6630329903057
 21
34.41945308724631
  0
LINE
  5
8A
100
AcDbEntity
  8
0
  6
ByLayer
 62
  256
370
   -1
100
AcDbLine
 10
151.6630329903057
 20
34.41945308724631
 11
149.1859076554406
 21
37.43867846096037
  0
LINE
  5
8B
100
AcDbEntity
  8
0
  6
ByLayer
 62
  256
370
   -1
100
AcDbLine
 10
149.1859076554406
 20
37.43867846096037
 11
148.1560172869339
 21
36.22142618447903
  0
ARC
  5
8C
100
AcDbEntity
  8
0
  6
ByLayer
 62
  256
370
   -1
100
AcDbCircle
 10
147.0108950815034
 20
37.19028900497875
 40
1.500000010105608
100
AcDbArc
 50
142.6092329486763
 51
319.7661709004046
  0
LINE
  5
8D
100
AcDbEntity
  8
0
  6
ByLayer
 62
  256
370
   -1
100
AcDbLine
 10
145.8191263444517
 20
38.101160734534
 11
147.0612421110815
 21
39.72632323363978
  0
ARC
  5
8E
100
AcDbEntity
  8
0
  6
ByLayer
 62
  256
370
   -1
100
AcDbCircle
 10
106.1942226974084
 20
-0.359668387407396
 40
57.24508712544853
100
AcDbArc
 50
44.44723232353191
 51
50.98637176105352
  0
ARC
  5
8F
100
AcDbEntity
  8
0
  6
ByLayer
 62
  256
370
   -1
100
AcDbCircle
 10
140.3417883839974
 20
41.78856093397206
 40
3.000000000000017
100
AcDbArc
 50
50.98637176105341
 51
144.1567064532329
  0
LINE
  5
90
100
AcDbEntity
  8
0
  6
ByLayer
 62
  256
370
   -1
100
AcDbLine
 10
137.9099236297917
 20
43.54527201358987
 11
136.9241160925893
 21
42.18059080222375
  0
ARC
  5
91
100
AcDbEntity
  8
0
  6
ByLayer
 62
  256
370
   -1
100
AcDbCircle
 10
131.2115805512588
 20
33.97050004999446
 40
9.999999999999996
100
AcDbArc
 50
15.81700090682589
 51
53.91812555817284
  0
LINE
  5
92
100
AcDbEntity
  8
0
  6
ByLayer
 62
  256
370
   -1
100
AcDbLine
 10
140.8329521481268
 20
36.69615751104505
 11
142.651469135097
 21
30.27692547734951
  0
ARC
  5
93
100
AcDbEntity
  8
0
  6
ByLayer
 62
  256
370
   -1
100
AcDbCircle
 10
133.0300975382289
 20
27.55126801629893
 40
9.999999999999998
100
AcDbArc
 50
294.0186093178763
 51
15.81700090682589
  0
LINE
  5
94
100
AcDbEntity
  8
0
  6
ByLayer
 62
  256
370
   -1
100
AcDbLine
 10
137.1004308940317
 20
18.41713497738169
 11
120.3080406021748
 21
10.93414496208567
  0
ARC
  5
95
100
AcDbEntity
  8
0
  6
ByLayer
 62
  256
370
   -1
100
AcDbCircle
 10
112.1673738905693
 20
29.20241103992017
 40
20.00000000000001
100
AcDbArc
 50
264.472
 51
294.0186093178763
  0
LINE
  5
96
100
AcDbEntity
  8
0
  6
ByLayer
 62
  256
370
   -1
100
AcDbLine
 10
110.2407302224779
 20
9.295426231160107
 11
63.72269793461671
 21
13.79754813563064
  0
ARC
  5
97
100
AcDbEntity
  8
0
  6
ByLayer
 62
  256
370
   -1
100
AcDbCircle
 10
56.40011418158863
 20
34.94605237390738
 40
3.00000000000002
100
AcDbArc
 50
47.28729354676469
 51
140.4576282389433
  0
LINE
  5
98
100
AcDbEntity
  8
0
  6
ByLayer
 62
  256
370
   -1
100
AcDbLine
 10
63.72269793461671
 20
13.79754813563064
 11
62.10062494969957
 21
13.95453608109779
  0
ARC
  5
99
100
AcDbEntity
  8
0
  6
ByLayer
 62
  256
370
   -1
100
AcDbCircle
 10
62.58228318186912
 20
18.93128254313405
 40
5
100
AcDbArc
 50
159.851135792289
 51
264.471969090092
  0
LINE
  5
9A
100
AcDbEntity
  8
0
  6
ByLayer
 62
  256
370
   -1
100
AcDbLine
 10
57.88827965276428
 20
20.65358648516977
 11
61.39860049496372
 21
30.22069407733937
  0
LINE
  5
9B
100
AcDbEntity
  8
0
  6
ByLayer
 62
  256
370
   -1
100
AcDbLine
 10
60.09620984580674
 20
35.61681812799178
 11
58.43508208596542
 21
37.15034491986323
  0
ARC
  5
9C
100
AcDbEntity
  8
0
  6
ByLayer
 62
  256
370
   -1
100
AcDbCircle
 10
56.70459667184571
 20
31.94299721806513
 40
5
100
AcDbArc
 50
339.8511398436791
 51
47.28727414784528
  0
ARC
  5
9D
100
AcDbEntity
  8
0
  6
ByLayer
 62
  256
370
   -1
100
AcDbCircle
 10
98.23142877390578
 20
0.4109890798302018
 40
57.24508712544691
100
AcDbArc
 50
140.4576282389459
 51
156.2230161561383
  0
ARC
  5
9E
100
AcDbEntity
  8
0
  6
ByLayer
 62
  256
370
   -1
100
AcDbCircle
 10
98.23142877390565
 20
0.4109890798302445
 40
59.77457653551367
100
AcDbArc
 50
140.0265049274755
 51
156.6226469235559
  0
ARC
  5
9F
100
AcDbEntity
  8
0
  6
ByLayer
 62
  256
370
   -1
100
AcDbCircle
 10
41.06887682115134
 20
25.12061345832321
 40
2.5
100
AcDbArc
 50
284.9784629959911
 51
336.622646923556
  0
ARC
  5
A0
100
AcDbEntity
  8
0
  6
ByLayer
 62
  256
370
   -1
100
AcDbCircle
 10
48.13301150707984
 20
22.48298834885354
 40
2.5
100
AcDbArc
 50
156.2230161561381
 51
214.0721541739127
  0
ARC
  5
A1
100
AcDbEntity
  8
0
  6
ByLayer
 62
  256
370
   -1
100
AcDbCircle
 10
42.74884045319915
 20
18.84146365958482
 40
4
100
AcDbArc
 50
104.9784489852651
 51
34.07193809956321
  0
ARC
  5
A2
100
AcDbEntity
  8
0
  6
ByLayer
 62
  256
370
   -1
100
AcDbCircle
 10
265.3860369639762
 20
25.07703527564192
 40
3.00000000000001
100
AcDbArc
 50
145.5545049274769
 51
232.8152935467668
  0
LINE
  5
A3
100
AcDbEntity
  8
0
  6
ByLayer
 62
  256
370
   -1
100
AcDbLine
 10
263.5728775198535
 20
22.68696146293472
 11
268.6321322463192
 21
18.84890615320214
  0
ARC
  5
A4
100
AcDbEntity
  8
0
  6
ByLayer
 62
  256
370
   -1
100
AcDbCircle
 10
272.2584511345645
 20
23.62905377861643
 40
5.999999999999896
100
AcDbArc
 50
232.8152935467668
 51
330.9899428616746
  0
ARC
  5
A5
100
AcDbEntity
  8
0
  6
ByLayer
 62
  256
370
   -1
100
AcDbCircle
 10
205.6180638760482
 20
60.58371664099447
 40
82.20097323024837
100
AcDbArc
 50
330.9899428616746
 51
353.9736667856972
  0
ARC
  5
A6
100
AcDbEntity
  8
0
  6
ByLayer
 62
  256
370
   -1
100
AcDbCircle
 10
281.3979313953109
 20
52.58371664099389
 40
6.000000000000082
100
AcDbArc
 50
353.9736667856973
 51
90.00000000000028
  0
ARC
  5
A7
100
AcDbEntity
  8
0
  6
ByLayer
 62
  256
370
   -1
100
AcDbCircle
 10
281.7826880823388
 20
60.58371664099433
 40
2.000000000000024
100
AcDbArc
 50
226.4262088080247
 51
270.0000000000497
  0
ARC
  5
A8
100
AcDbEntity
  8
0
  6
ByLayer
 62
  256
370
   -1
100
AcDbCircle
 10
271.1951958950568
 20
49.45556614683093
 40
13.36003659619676
100
AcDbArc
 50
46.42620880802364
 51
128.6100291934507
  0
ARC
  5
A9
100
AcDbEntity
  8
0
  6
ByLayer
 62
  256
370
   -1
100
AcDbCircle
 10
259.1142158175949
 20
64.58371664099408
 40
6.000000000000117
100
AcDbArc
 50
269.9999999999994
 51
308.6100291934495
  0
LINE
  5
AA
100
AcDbEntity
  8
0
  6
ByLayer
 62
  256
370
   -1
100
AcDbLine
 10
259.1142158175948
 20
58.58371664099397
 11
199.9724909932577
 21
58.58371664099398
  0
ARC
  5
AB
100
AcDbEntity
  8
0
  6
ByLayer
 62
  256
370
   -1
100
AcDbCircle
 10
199.9724909932576
 20
38.58371664099397
 40
20
100
AcDbArc
 50
89.99999999999982
 51
118.5947608897379
  0
LINE
  5
AC
100
AcDbEntity
  8
0
  6
ByLayer
 62
  256
370
   -1
100
AcDbLine
 10
190.4002595248859
 20
56.14425150516918
 11
159.619618797046
 21
39.3657524406126
  0
ARC
  5
AD
100
AcDbEntity
  8
0
  6
ByLayer
 62
  256
370
   -1
100
AcDbCircle
 10
161.9157193912364
 20
33.82247524554494
 40
5.99999999999988
100
AcDbArc
 50
112.4999999999986
 51
211.4813248091297
  0
ARC
  5
AE
100
AcDbEntity
  8
0
  6
ByLayer
 62
  256
370
   -1
100
AcDbCircle
 10
205.6180638760487
 20
60.5837166409944
 40
57.24508712544754
100
AcDbArc
 50
211.4813248091309
 51
219.7332752476107
  0
LINE
  5
AF
100
AcDbEntity
  8
0
  6
ByLayer
 62
  256
370
   -1
100
AcDbLine
 10
161.594963091481
 20
23.99182413306475
 11
162.3865905647168
 21
25.13483106407831
  0
ARC
  5
B0
100
AcDbEntity
  8
0
  6
ByLayer
 62
  256
370
   -1
100
AcDbCircle
 10
163.619719753019
 20
24.28078631391947
 40
1.500000010105603
100
AcDbArc
 50
328.1372329486762
 51
145.2941709004045
  0
LINE
  5
B1
100
AcDbEntity
  8
0
  6
ByLayer
 62
  256
370
   -1
100
AcDbLine
 10
164.8936921227308
 20
23.48895651432371
 11
163.7110667959407
 21
21.58623472577449
  0
LINE
  5
B2
100
AcDbEntity
  8
0
  6
ByLayer
 62
  256
370
   -1
100
AcDbLine
 10
163.7110667959407
 20
21.58623472577449
 11
166.4675201889088
 21
18.8196779354114
  0
LINE
  5
B3
100
AcDbEntity
  8
0
  6
ByLayer
 62
  256
370
   -1
100
AcDbLine
 10
166.4675201889088
 20
18.8196779354114
 11
167.3753602153887
 21
20.13048065209411
  0
ARC
  5
B4
100
AcDbEntity
  8
0
  6
ByLayer
 62
  256
370
   -1
100
AcDbCircle
 10
168.6084894036909
 20
19.27643590193527
 40
1.500000010105608
100
AcDbArc
 50
328.1372329486763
 51
145.2941709004046
  0
LINE
  5
B5
100
AcDbEntity
  8
0
  6
ByLayer
 62
  256
370
   -1
100
AcDbLine
 10
169.8824617734027
 20
18.48460610233951
 11
168.8026782404777
 21
16.74734611942555
  0
ARC
  5
B6
100
AcDbEntity
  8
0
  6
ByLayer
 62
  256
370
   -1
100
AcDbCircle
 10
205.6180638760494
 20
60.58371664099512
 40
57.24508712544853
100
AcDbArc
 50
229.9752323235319
 51
236.5143717610535
  0
ARC
  5
B7
100
AcDbEntity
  8
0
  6
ByLayer
 62
  256
370
   -1
100
AcDbCircle
 10
175.6895412642614
 20
15.3419990396132
 40
3.000000000000017
100
AcDbArc
 50
236.5143717610534
 51
329.684706453233
  0
LINE
  5
B8
100
AcDbEntity
  8
0
  6
ByLayer
 62
  256
370
   -1
100
AcDbLine
 10
178.2793238141186
 20
13.82772484236385
 11
179.129083876749
 21
15.28102424201253
  0
ARC
  5
B9
100
AcDbEntity
  8
0
  6
ByLayer
 62
  256
370
   -1
100
AcDbCircle
 10
184.0241558206754
 20
24.0032328576436
 40
9.999999999999996
100
AcDbArc
 50
201.3450009068259
 51
239.4461255581728
  0
LINE
  5
BA
100
AcDbEntity
  8
0
  6
ByLayer
 62
  256
370
   -1
100
AcDbLine
 10
174.710099444197
 20
20.36340404081969
 11
172.2816613049062
 21
26.57760005784069
  0
ARC
  5
BB
100
AcDbEntity
  8
0
  6
ByLayer
 62
  256
370
   -1
100
AcDbCircle
 10
181.5957176813846
 20
30.2174288746646
 40
9.999999999999998
100
AcDbArc
 50
119.5466093178763
 51
201.3450009068259
  0
LINE
  5
BC
100
AcDbEntity
  8
0
  6
ByLayer
 62
  256
370
   -1
100
AcDbLine
 10
176.6644034882101
 20
38.9169771576616
 11
192.6578436437803
 21
47.98281320698794
  0
ARC
  5
BD
100
AcDbEntity
  8
0
  6
ByLayer
 62
  256
370
   -1
100
AcDbCircle
 10
202.5204720301292
 20
30.58371664099393
 40
20.00000000000001
100
AcDbArc
 50
90.00000000000004
 51
119.5466093178763
  0
LINE
  5
BE
100
AcDbEntity
  8
0
  6
ByLayer
 62
  256
370
   -1
100
AcDbLine
 10
202.5204720301292
 20
50.58371664099394
 11
249.2558593675335
 21
50.58371664099394
  0
ARC
  5
BF
100
AcDbEntity
  8
0
  6
ByLayer
 62
  256
370
   -1
100
AcDbCircle
 10
258.5816691331677
 20
30.23896949211735
 40
3.00000000000002
100
AcDbArc
 50
232.8152935467647
 51
325.9856282389433
  0
LINE
  5
C0
100
AcDbEntity
  8
0
  6
ByLayer
 62
  256
370
   -1
100
AcDbLine
 10
249.2558593675335
 20
50.58371664099394
 11
250.8855114725608
 21
50.58371664099393
  0
ARC
  5
C1
100
AcDbEntity
  8
0
  6
ByLayer
 62
  256
370
   -1
100
AcDbCircle
 10
250.8855141699591
 20
45.58371664099394
 40
5
100
AcDbArc
 50
345.379135792289
 51
89.99996909009199
  0
LINE
  5
C2
100
AcDbEntity
  8
0
  6
ByLayer
 62
  256
370
   -1
100
AcDbLine
 10
255.7236003164895
 20
44.32160632935275
 11
253.1512254957327
 21
34.46083618311845
  0
LINE
  5
C3
100
AcDbEntity
  8
0
  6
ByLayer
 62
  256
370
   -1
100
AcDbLine
 10
254.967379450846
 20
29.21527034287133
 11
256.7685096890449
 21
27.84889567941021
  0
ARC
  5
C4
100
AcDbEntity
  8
0
  6
ByLayer
 62
  256
370
   -1
100
AcDbCircle
 10
257.989311857717
 20
33.19872669738344
 40
5
100
AcDbArc
 50
165.379139843679
 51
232.8152741478453
  0
ARC
  5
C5
100
AcDbEntity
  8
0
  6
ByLayer
 62
  256
370
   -1
100
AcDbCircle
 10
213.6180638760482
 20
60.58371664099398
 40
57.24508712544691
100
AcDbArc
 50
325.9856282389459
 51
341.7510161561383
  0
ARC
  5
C6
100
AcDbEntity
  8
0
  6
ByLayer
 62
  256
370
   -1
100
AcDbCircle
 10
213.6180638760483
 20
60.58371664099394
 40
59.77457653551367
100
AcDbArc
 50
325.5545049274755
 51
342.1506469235559
  0
ARC
  5
C7
100
AcDbEntity
  8
0
  6
ByLayer
 62
  256
370
   -1
100
AcDbCircle
 10
272.8950986112072
 20
41.49560422293872
 40
2.5
100
AcDbArc
 50
110.5064629959911
 51
162.150646923556
  0
ARC
  5
C8
100
AcDbEntity
  8
0
  6
ByLayer
 62
  256
370
   -1
100
AcDbCircle
 10
265.6097293314186
 20
43.44045885405009
 40
2.5
100
AcDbArc
 50
341.7510161561382
 51
39.60015417391266
  0
ARC
  5
C9
100
AcDbEntity
  8
0
  6
ByLayer
 62
  256
370
   -1
100
AcDbCircle
 10
270.6180638760481
 20
47.58371664099397
 40
4
100
AcDbArc
 50
290.5064489852651
 51
219.5999380995632
  0
ARC
  5
CA
100
AcDbEntity
  8
0
  6
ByLayer
 62
  256
370
   -1
100
AcDbCircle
 10
205.0890304615384
 20
40.73945928529675
 40
3.00000000000001
100
AcDbArc
 50
320.0265049274769
 51
47.28729354676683
  0
LINE
  5
CB
100
AcDbEntity
  8
0
  6
ByLayer
 62
  256
370
   -1
100
AcDbLine
 10
207.1239983659151
 20
42.94375183125267
 11
202.4580012647592
 21
47.25132632275437
  0
ARC
  5
CC
100
AcDbEntity
  8
0
  6
ByLayer
 62
  256
370
   -1
100
AcDbCircle
 10
198.3880654560059
 20
42.84274123084264
 40
5.999999999999896
100
AcDbArc
 50
47.28729354676683
 51
145.4619428616747
  0
ARC
  5
CD
100
AcDbEntity
  8
0
  6
ByLayer
 62
  256
370
   -1
100
AcDbCircle
 10
261.1586009357516
 20
-0.359668387406856
 40
82.20097323024837
100
AcDbArc
 50
145.4619428616747
 51
168.4456667856972
  0
ARC
  5
CE
100
AcDbEntity
  8
0
  6
ByLayer
 62
  256
370
   -1
100
AcDbCircle
 10
186.5018248271978
 20
14.90316563233749
 40
6.000000000000082
100
AcDbArc
 50
168.4456667856972
 51
264.4720000000003
  0
ARC
  5
CF
100
AcDbEntity
  8
0
  6
ByLayer
 62
  256
370
   -1
100
AcDbCircle
 10
185.3482000837745
 20
6.977436160573944
 40
2.000000000000024
100
AcDbArc
 50
40.89820880802469
 51
84.47200000004968
  0
ARC
  5
D0
100
AcDbEntity
  8
0
  6
ByLayer
 62
  256
370
   -1
100
AcDbCircle
 10
196.9584514248863
 20
17.03391606323954
 40
13.36003659619676
100
AcDbArc
 50
220.8982088080236
 51
303.0820291934508
  0
ARC
  5
D1
100
AcDbEntity
  8
0
  6
ByLayer
 62
  256
370
   -1
100
AcDbCircle
 10
207.525918000759
 20
0.8123357711134247
 40
6.000000000000117
100
AcDbArc
 50
84.4719999999994
 51
123.0820291934495
  0
LINE
  5
D2
100
AcDbEntity
  8
0
  6
ByLayer
 62
  256
370
   -1
100
AcDbLine
 10
208.1039111011865
 20
6.784431213741541
 11
266.9705819832838
 21
1.087179731100775
  0
ARC
  5
D3
100
AcDbEntity
  8
0
  6
ByLayer
 62
  256
370
   -1
100
AcDbCircle
 10
268.8972256513753
 20
20.99416453986083
 40
20
100
AcDbArc
 50
264.4719999999999
 51
293.0667608897379
  0
LINE
  5
D4
100
AcDbEntity
  8
0
  6
ByLayer
 62
  256
370
   -1
100
AcDbLine
 10
276.7332943074978
 20
2.593185543716771
 11
308.9870911252885
 21
16.3284855154084
  0
ARC
  5
D5
100
AcDbEntity
  8
0
  6
ByLayer
 62
  256
370
   -1
100
AcDbCircle
 10
307.2356651383095
 20
22.06717064461119
 40
5.99999999999988
100
AcDbArc
 50
286.9719999999986
 51
25.95332480912973
  0
ARC
  5
D6
100
AcDbEntity
  8
0
  6
ByLayer
 62
  256
370
   -1
100
AcDbCircle
 10
261.1586009357512
 20
-0.3596683874067566
 40
57.24508712544754
100
AcDbArc
 50
25.95332480913095
 51
34.20527524761069
  0
LINE
  5
D7
100
AcDbEntity
  8
0
  6
ByLayer
 62
  256
370
   -1
100
AcDbLine
 10
308.5019377635905
 20
31.82120260773313
 11
307.6038836060843
 21
30.75977073007326
  0
ARC
  5
D8
100
AcDbEntity
  8
0
  6
ByLayer
 62
  256
370
   -1
100
AcDbCircle
 10
306.4587614006538
 20
31.72863355057299
 40
1.500000010105603
100
AcDbArc
 50
142.6092329486763
 51
319.7661709004045
  0
LINE
  5
D9
100
AcDbEntity
  8
0
  6
ByLayer
 62
  256
370
   -1
100
AcDbLine
 10
305.2669926636021
 20
32.63950528012823
 11
306.6274112286477
 21
34.41945308724631
  0
LINE
  5
DA
100
AcDbEntity
  8
0
  6
ByLayer
 62
  256
370
   -1
100
AcDbLine
 10
306.6274112286477
 20
34.41945308724631
 11
304.1502858937826
 21
37.43867846096037
  0
LINE
  5
DB
100
AcDbEntity
  8
0
  6
ByLayer
 62
  256
370
   -1
100
AcDbLine
 10
304.1502858937826
 20
37.43867846096037
 11
303.1203955252759
 21
36.22142618447903
  0
ARC
  5
DC
100
AcDbEntity
  8
0
  6
ByLayer
 62
  256
370
   -1
100
AcDbCircle
 10
301.9752733198454
 20
37.19028900497875
 40
1.500000010105608
100
AcDbArc
 50
142.6092329486763
 51
319.7661709004046
  0
LINE
  5
DD
100
AcDbEntity
  8
0
  6
ByLayer
 62
  256
370
   -1
100
AcDbLine
 10
300.7835045827936
 20
38.101160734534
 11
302.0256203494234
 21
39.72632323363978
  0
ARC
  5
DE
100
AcDbEntity
  8
0
  6
ByLayer
 62
  256
370
   -1
100
AcDbCircle
 10
261.1586009357504
 20
-0.359668387407396
 40
57.24508712544853
100
AcDbArc
 50
44.44723232353191
 51
50.98637176105352
  0
ARC
  5
DF
100
AcDbEntity
  8
0
  6
ByLayer
 62
  256
370
   -1
100
AcDbCircle
 10
295.3061666223394
 20
41.78856093397206
 40
3.000000000000017
100
AcDbArc
 50
50.98637176105341
 51
144.1567064532329
  0
LINE
  5
E0
100
AcDbEntity
  8
0
  6
ByLayer
 62
  256
370
   -1
100
AcDbLine
 10
292.8743018681337
 20
43.54527201358987
 11
291.8884943309312
 21
42.18059080222375
  0
ARC
  5
E1
100
AcDbEntity
  8
0
  6
ByLayer
 62
  256
370
   -1
100
AcDbCircle
 10
286.1759587896007
 20
33.97050004999446
 40
9.999999999999996
100
AcDbArc
 50
15.81700090682589
 51
53.91812555817284
  0
LINE
  5
E2
100
AcDbEntity
  8
0
  6
ByLayer
 62
  256
370
   -1
100
AcDbLine
 10
295.7973303864688
 20
36.69615751104505
 11
297.615847373439
 21
30.27692547734951
  0
ARC
  5
E3
100
AcDbEntity
  8
0
  6
ByLayer
 62
  256
370
   -1
100
AcDbCircle
 10
287.9944757765709
 20
27.55126801629893
 40
9.999999999999998
100
AcDbArc
 50
294.0186093178763
 51
15.81700090682589
  0
LINE
  5
E4
100
AcDbEntity
  8
0
  6
ByLayer
 62
  256
370
   -1
100
AcDbLine
 10
292.0648091323737
 20
18.41713497738169
 11
275.2724188405168
 21
10.93414496208567
  0
ARC
  5
E5
100
AcDbEntity
  8
0
  6
ByLayer
 62
  256
370
   -1
100
AcDbCircle
 10
267.1317521289113
 20
29.20241103992017
 40
20.00000000000001
100
AcDbArc
 50
264.472
 51
294.0186093178763
  0
LINE
  5
E6
100
AcDbEntity
  8
0
  6
ByLayer
 62
  256
370
   -1
100
AcDbLine
 10
265.2051084608199
 20
9.295426231160107
 11
218.6870761729587
 21
13.79754813563064
  0
ARC
  5
E7
100
AcDbEntity
  8
0
  6
ByLayer
 62
  256
370
   -1
100
AcDbCircle
 10
211.3644924199306
 20
34.94605237390738
 40
3.00000000000002
100
AcDbArc
 50
47.28729354676469
 51
140.4576282389433
  0
LINE
  5
E8
100
AcDbEntity
  8
0
  6
ByLayer
 62
  256
370
   -1
100
AcDbLine
 10
218.6870761729587
 20
13.79754813563064
 11
217.0650031880415
 21
13.95453608109779
  0
ARC
  5
E9
100
AcDbEntity
  8
0
  6
ByLayer
 62
  256
370
   -1
100
AcDbCircle
 10
217.5466614202111
 20
18.93128254313405
 40
5
100
AcDbArc
 50
159.851135792289
 51
264.471969090092
  0
LINE
  5
EA
100
AcDbEntity
  8
0
  6
ByLayer
 62
  256
370
   -1
100
AcDbLine
 10
212.8526578911062
 20
20.65358648516977
 11
216.3629787333057
 21
30.22069407733937
  0
LINE
  5
EB
100
AcDbEntity
  8
0
  6
ByLayer
 62
  256
370
   -1
100
AcDbLine
 10
215.0605880841487
 20
35.61681812799178
 11
213.3994603243074
 21
37.15034491986323
  0
ARC
  5
EC
100
AcDbEntity
  8
0
  6
ByLayer
 62
  256
370
   -1
100
AcDbCircle
 10
211.6689749101877
 20
31.94299721806513
 40
5
100
AcDbArc
 50
339.8511398436791
 51
47.28727414784528
  0
ARC
  5
ED
100
AcDbEntity
  8
0
  6
ByLayer
 62
  256
370
   -1
100
AcDbCircle
 10
253.1958070122477
 20
0.4109890798302018
 40
57.24508712544691
100
AcDbArc
 50
140.4576282389459
 51
156.2230161561383
  0
ARC
  5
EE
100
AcDbEntity
  8
0
  6
ByLayer
 62
  256
370
   -1
100
AcDbCircle
 10
253.1958070122476
 20
0.4109890798302445
 40
59.77457653551367
100
AcDbArc
 50
140.0265049274755
 51
156.6226469235559
  0
ARC
  5
EF
100
AcDbEntity
  8
0
  6
ByLayer
 62
  256
370
   -1
100
AcDbCircle
 10
196.0332550594933
 20
25.12061345832321
 40
2.5
100
AcDbArc
 50
284.9784629959911
 51
336.622646923556
  0
ARC
  5
F0
100
AcDbEntity
  8
0
  6
ByLayer
 62
  256
370
   -1
100
AcDbCircle
 10
203.0973897454218
 20
22.48298834885354
 40
2.5
100
AcDbArc
 50
156.2230161561381
 51
214.0721541739127
  0
ARC
  5
F1
100
AcDbEntity
  8
0
  6
ByLayer
 62
  256
370
   -1
100
AcDbCircle
 10
197.7132186915411
 20
18.84146365958482
 40
4
100
AcDbArc
 50
104.9784489852651
 51
34.07193809956321
  0
ARC
  5
F2
100
AcDbEntity
  8
0
  6
ByLayer
 62
  256
370
   -1
100
AcDbCircle
 10
420.3504152023182
 20
25.07703527564192
 40
3.00000000000001
100
AcDbArc
 50
145.5545049274769
 51
232.8152935467668
  0
LINE
  5
F3
100
AcDbEntity
  8
0
  6
ByLayer
 62
  256
370
   -1
100
AcDbLine
 10
418.5372557581954
 20
22.68696146293472
 11
423.5965104846612
 21
18.84890615320214
  0
ARC
  5
F4
100
AcDbEntity
  8
0
  6
ByLayer
 62
  256
370
   -1
100
AcDbCircle
 10
427.2228293729065
 20
23.62905377861643
 40
5.999999999999896
100
AcDbArc
 50
232.8152935467668
 51
330.9899428616746
  0
ARC
  5
F5
100
AcDbEntity
  8
0
  6
ByLayer
 62
  256
370
   -1
100
AcDbCircle
 10
360.5824421143902
 20
60.58371664099447
 40
82.20097323024837
100
AcDbArc
 50
330.9899428616746
 51
353.9736667856972
  0
ARC
  5
F6
100
AcDbEntity
  8
0
  6
ByLayer
 62
  256
370
   -1
100
AcDbCircle
 10
436.3623096336528
 20
52.58371664099389
 40
6.000000000000082
100
AcDbArc
 50
353.9736667856973
 51
90.00000000000028
  0
ARC
  5
F7
100
AcDbEntity
  8
0
  6
ByLayer
 62
  256
370
   -1
100
AcDbCircle
 10
436.7470663206807
 20
60.58371664099433
 40
2.000000000000024
100
AcDbArc
 50
226.4262088080247
 51
270.0000000000497
  0
ARC
  5
F8
100
AcDbEntity
  8
0
  6
ByLayer
 62
  256
370
   -1
100
AcDbCircle
 10
426.1595741333988
 20
49.45556614683093
 40
13.36003659619676
100
AcDbArc
 50
46.42620880802364
 51
128.6100291934507
  0
ARC
  5
F9
100
AcDbEntity
  8
0
  6
ByLayer
 62
  256
370
   -1
100
AcDbCircle
 10
414.0785940559368
 20
64.58371664099408
 40
6.000000000000117
100
AcDbArc
 50
269.9999999999994
 51
308.6100291934495
  0
LINE
  5
FA
100
AcDbEntity
  8
0
  6
ByLayer
 62
  256
370
   -1
100
AcDbLine
 10
414.0785940559368
 20
58.58371664099397
 11
354.9368692315996
 21
58.58371664099398
  0
ARC
  5
FB
100
AcDbEntity
  8
0
  6
ByLayer
 62
  256
370
   -1
100
AcDbCircle
 10
354.9368692315996
 20
38.58371664099397
 40
20
100
AcDbArc
 50
89.99999999999982
 51
118.5947608897379
  0
LINE
  5
FC
100
AcDbEntity
  8
0
  6
ByLayer
 62
  256
370
   -1
100
AcDbLine
 10
345.3646377632278
 20
56.14425150516918
 11
314.583997035388
 21
39.3657524406126
  0
ARC
  5
FD
100
AcDbEntity
  8
0
  6
ByLayer
 62
  256
370
   -1
100
AcDbCircle
 10
316.8800976295784
 20
33.82247524554494
 40
5.99999999999988
100
AcDbArc
 50
112.4999999999986
 51
211.4813248091297
  0
ARC
  5
FE
100
AcDbEntity
  8
0
  6
ByLayer
 62
  256
370
   -1
100
AcDbCircle
 10
360.5824421143906
 20
60.5837166409944
 40
57.24508712544754
100
AcDbArc
 50
211.4813248091309
 51
219.7332752476107
  0
LINE
  5
FF
100
AcDbEntity
  8
0
  6
ByLayer
 62
  256
370
   -1
100
AcDbLine
 10
316.559341329823
 20
23.99182413306475
 11
317.3509688030588
 21
25.13483106407831
  0
ARC
  5
100
100
AcDbEntity
  8
0
  6
ByLayer
 62
  256
370
   -1
100
AcDbCircle
 10
318.584097991361
 20
24.28078631391947
 40
1.500000010105603
100
AcDbArc
 50
328.1372329486762
 51
145.2941709004045
  0
LINE
  5
101
100
AcDbEntity
  8
0
  6
ByLayer
 62
  256
370
   -1
100
AcDbLine
 10
319.8580703610727
 20
23.48895651432371
 11
318.6754450342827
 21
21.58623472577449
  0
LINE
  5
102
100
AcDbEntity
  8
0
  6
ByLayer
 62
  256
370
   -1
100
AcDbLine
 10
318.6754450342827
 20
21.58623472577449
 11
321.4318984272508
 21
18.8196779354114
  0
LINE
  5
103
100
AcDbEntity
  8
0
  6
ByLayer
 62
  256
370
   -1
100
AcDbLine
 10
321.4318984272508
 20
18.8196779354114
 11
322.3397384537307
 21
20.13048065209411
  0
ARC
  5
104
100
AcDbEntity
  8
0
  6
ByLayer
 62
  256
370
   -1
100
AcDbCircle
 10
323.5728676420329
 20
19.27643590193527
 40
1.500000010105608
100
AcDbArc
 50
328.1372329486763
 51
145.2941709004046
  0
LINE
  5
105
100
AcDbEntity
  8
0
  6
ByLayer
 62
  256
370
   -1
100
AcDbLine
 10
324.8468400117446
 20
18.48460610233951
 11
323.7670564788197
 21
16.74734611942555
  0
ARC
  5
106
100
AcDbEntity
  8
0
  6
ByLayer
 62
  256
370
   -1
100
AcDbCircle
 10
360.5824421143914
 20
60.58371664099512
 40
57.24508712544853
100
AcDbArc
 50
229.9752323235319
 51
236.5143717610535
  0
ARC
  5
107
100
AcDbEntity
  8
0
  6
ByLayer
 62
  256
370
   -1
100
AcDbCircle
 10
330.6539195026033
 20
15.3419990396132
 40
3.000000000000017
100
AcDbArc
 50
236.5143717610534
 51
329.684706453233
  0
LINE
  5
108
100
AcDbEntity
  8
0
  6
ByLayer
 62
  256
370
   -1
100
AcDbLine
 10
333.2437020524605
 20
13.82772484236385
 11
334.0934621150909
 21
15.28102424201253
  0
ARC
  5
109
100
AcDbEntity
  8
0
  6
ByLayer
 62
  256
370
   -1
100
AcDbCircle
 10
338.9885340590174
 20
24.0032328576436
 40
9.999999999999996
100
AcDbArc
 50
201.3450009068259
 51
239.4461255581728
  0
LINE
  5
10A
100
AcDbEntity
  8
0
  6
ByLayer
 62
  256
370
   -1
100
AcDbLine
 10
329.674477682539
 20
20.36340404081969
 11
327.2460395432481
 21
26.57760005784069
  0
ARC
  5
10B
100
AcDbEntity
  8
0
  6
ByLayer
 62
  256
370
   -1
100
AcDbCircle
 10
336.5600959197266
 20
30.2174288746646
 40
9.999999999999998
100
AcDbArc
 50
119.5466093178763
 51
201.3450009068259
  0
LINE
  5
10C
100
AcDbEntity
  8
0
  6
ByLayer
 62
  256
370
   -1
100
AcDbLine
 10
331.6287817265521
 20
38.9169771576616
 11
347.6222218821222
 21
47.98281320698794
  0
ARC
  5
10D
100
AcDbEntity
  8
0
  6
ByLayer
 62
  256
370
   -1
100
AcDbCircle
 10
357.4848502684712
 20
30.58371664099393
 40
20.00000000000001
100
AcDbArc
 50
90.00000000000004
 51
119.5466093178763
  0
LINE
  5
10E
100
AcDbEntity
  8
0
  6
ByLayer
 62
  256
370
   -1
100
AcDbLine
 10
357.4848502684712
 20
50.58371664099394
 11
404.2202376058755
 21
50.58371664099394
  0
ARC
  5
10F
100
AcDbEntity
  8
0
  6
ByLayer
 62
  256
370
   -1
100
AcDbCircle
 10
413.5460473715096
 20
30.23896949211735
 40
3.00000000000002
100
AcDbArc
 50
232.8152935467647
 51
325.9856282389433
  0
LINE
  5
110
100
AcDbEntity
  8
0
  6
ByLayer
 62
  256
370
   -1
100
AcDbLine
 10
404.2202376058755
 20
50.58371664099394
 11
405.8498897109028
 21
50.58371664099393
  0
ARC
  5
111
100
AcDbEntity
  8
0
  6
ByLayer
 62
  256
370
   -1
100
AcDbCircle
 10
405.8498924083011
 20
45.58371664099394
 40
5
100
AcDbArc
 50
345.379135792289
 51
89.99996909009199
  0
LINE
  5
112
100
AcDbEntity
  8
0
  6
ByLayer
 62
  256
370
   -1
100
AcDbLine
 10
410.6879785548315
 20
44.32160632935275
 11
408.1156037340747
 21
34.46083618311845
  0
LINE
  5
113
100
AcDbEntity
  8
0
  6
ByLayer
 62
  256
370
   -1
100
AcDbLine
 10
409.9317576891879
 20
29.21527034287133
 11
411.7328879273869
 21
27.84889567941021
  0
ARC
  5
114
100
AcDbEntity
  8
0
  6
ByLayer
 62
  256
370
   -1
100
AcDbCircle
 10
412.9536900960589
 20
33.19872669738344
 40
5
100
AcDbArc
 50
165.379139843679
 51
232.8152741478453
  0
ARC
  5
115
100
AcDbEntity
  8
0
  6
ByLayer
 62
  256
370
   -1
100
AcDbCircle
 10
368.5824421143901
 20
60.58371664099398
 40
57.24508712544691
100
AcDbArc
 50
325.9856282389459
 51
341.7510161561383
  0
ARC
  5
116
100
AcDbEntity
  8
0
  6
ByLayer
 62
  256
370
   -1
100
AcDbCircle
 10
368.5824421143902
 20
60.58371664099394
 40
59.77457653551367
100
AcDbArc
 50
325.5545049274755
 51
342.1506469235559
  0
ARC
  5
117
100
AcDbEntity
  8
0
  6
ByLayer
 62
  256
370
   -1
100
AcDbCircle
 10
427.8594768495492
 20
41.49560422293872
 40
2.5
100
AcDbArc
 50
110.5064629959911
 51
162.150646923556
  0
ARC
  5
118
100
AcDbEntity
  8
0
  6
ByLayer
 62
  256
370
   -1
100
AcDbCircle
 10
420.5741075697605
 20
43.44045885405009
 40
2.5
100
AcDbArc
 50
341.7510161561382
 51
39.60015417391266
  0
ARC
  5
119
100
AcDbEntity
  8
0
  6
ByLayer
 62
  256
370
   -1
100
AcDbCircle
 10
425.5824421143901
 20
47.58371664099397
 40
4
100
AcDbArc
 50
290.5064489852651
 51
219.5999380995632
  0
ARC
  5
11A
100
AcDbEntity
  8
0
  6
ByLayer
 62
  256
370
   -1
100
AcDbCircle
 10
360.0534086998804
 20
40.73945928529675
 40
3.00000000000001
100
AcDbArc
 50
320.0265049274769
 51
47.28729354676683
  0
LINE
  5
11B
100
AcDbEntity
  8
0
  6
ByLayer
 62
  256
370
   -1
100
AcDbLine
 10
362.0883766042571
 20
42.94375183125267
 11
357.4223795031011
 21
47.25132632275437
  0
ARC
  5
11C
100
AcDbEntity
  8
0
  6
ByLayer
 62
  256
370
   -1
100
AcDbCircle
 10
353.3524436943479
 20
42.84274123084264
 40
5.999999999999896
100
AcDbArc
 50
47.28729354676683
 51
145.4619428616747
  0
ARC
  5
11D
100
AcDbEntity
  8
0
  6
ByLayer
 62
  256
370
   -1
100
AcDbCircle
 10
416.1229791740936
 20
-0.359668387406856
 40
82.20097323024837
100
AcDbArc
 50
145.4619428616747
 51
168.4456667856972
  0
ARC
  5
11E
100
AcDbEntity
  8
0
  6
ByLayer
 62
  256
370
   -1
100
AcDbCircle
 10
341.4662030655397
 20
14.90316563233749
 40
6.000000000000082
100
AcDbArc
 50
168.4456667856972
 51
264.4720000000003
  0
ARC
  5
11F
100
AcDbEntity
  8
0
  6
ByLayer
 62
  256
370
   -1
100
AcDbCircle
 10
340.3125783221165
 20
6.977436160573944
 40
2.000000000000024
100
AcDbArc
 50
40.89820880802469
 51
84.47200000004968
  0
ARC
  5
120
100
AcDbEntity
  8
0
  6
ByLayer
 62
  256
370
   -1
100
AcDbCircle
 10
351.9228296632283
 20
17.03391606323954
 40
13.36003659619676
100
AcDbArc
 50
220.8982088080236
 51
303.0820291934508
  0
ARC
  5
121
100
AcDbEntity
  8
0
  6
ByLayer
 62
  256
370
   -1
100
AcDbCircle
 10
362.4902962391009
 20
0.8123357711134247
 40
6.000000000000117
100
AcDbArc
 50
84.4719999999994
 51
123.0820291934495
  0
LINE
  5
122
100
AcDbEntity
  8
0
  6
ByLayer
 62
  256
370
   -1
100
AcDbLine
 10
363.0682893395285
 20
6.784431213741541
 11
421.9349602216257
 21
1.087179731100775
  0
ARC
  5
123
100
AcDbEntity
  8
0
  6
ByLayer
 62
  256
370
   -1
100
AcDbCircle
 10
423.8616038897172
 20
20.99416453986083
 40
20
100
AcDbArc
 50
264.4719999999999
 51
293.0667608897379
  0
LINE
  5
124
100
AcDbEntity
  8
0
  6
ByLayer
 62
  256
370
   -1
100
AcDbLine
 10
431.6976725458397
 20
2.593185543716771
 11
463.9514693636305
 21
16.3284855154084
  0
ARC
  5
125
100
AcDbEntity
  8
0
  6
ByLayer
 62
  256
370
   -1
100
AcDbCircle
 10
462.2000433766515
 20
22.06717064461119
 40
5.99999999999988
100
AcDbArc
 50
286.9719999999986
 51
25.95332480912973
  0
ARC
  5
126
100
AcDbEntity
  8
0
  6
ByLayer
 62
  256
370
   -1
100
AcDbCircle
 10
416.1229791740932
 20
-0.3596683874067566
 40
57.24508712544754
100
AcDbArc
 50
25.95332480913095
 51
34.20527524761069
  0
LINE
  5
127
100
AcDbEntity
  8
0
  6
ByLayer
 62
  256
370
   -1
100
AcDbLine
 10
463.4663160019325
 20
31.82120260773313
 11
462.5682618444263
 21
30.75977073007326
  0
ARC
  5
128
100
AcDbEntity
  8
0
  6
ByLayer
 62
  256
370
   -1
100
AcDbCircle
 10
461.4231396389957
 20
31.72863355057299
 40
1.500000010105603
100
AcDbArc
 50
142.6092329486763
 51
319.7661709004045
  0
LINE
  5
129
100
AcDbEntity
  8
0
  6
ByLayer
 62
  256
370
   -1
100
AcDbLine
 10
460.231370901944
 20
32.63950528012823
 11
461.5917894669897
 21
34.41945308724631
  0
LINE
  5
12A
100
AcDbEntity
  8
0
  6
ByLayer
 62
  256
370
   -1
100
AcDbLine
 10
461.5917894669897
 20
34.41945308724631
 11
459.1146641321245
 21
37.43867846096037
  0
LINE
  5
12B
100
AcDbEntity
  8
0
  6
ByLayer
 62
  256
370
   -1
100
AcDbLine
 10
459.1146641321245
 20
37.43867846096037
 11
458.0847737636179
 21
36.22142618447903
  0
ARC
  5
12C
100
AcDbEntity
  8
0
  6
ByLayer
 62
  256
370
   -1
100
AcDbCircle
 10
456.9396515581873
 20
37.19028900497875
 40
1.500000010105608
100
AcDbArc
 50
142.6092329486763
 51
319.7661709004046
  0
LINE
  5
12D
100
AcDbEntity
  8
0
  6
ByLayer
 62
  256
370
   -1
100
AcDbLine
 10
455.7478828211356
 20
38.101160734534
 11
456.9899985877654
 21
39.72632323363978
  0
ARC
  5
12E
100
AcDbEntity
  8
0
  6
ByLayer
 62
  256
370
   -1
100
AcDbCircle
 10
416.1229791740924
 20
-0.359668387407396
 40
57.24508712544853
100
AcDbArc
 50
44.44723232353191
 51
50.98637176105352
  0
ARC
  5
12F
100
AcDbEntity
  8
0
  6
ByLayer
 62
  256
370
   -1
100
AcDbCircle
 10
450.2705448606814
 20
41.78856093397206
 40
3.000000000000017
100
AcDbArc
 50
50.98637176105341
 51
144.1567064532329
  0
LINE
  5
130
100
AcDbEntity
  8
0
  6
ByLayer
 62
  256
370
   -1
100
AcDbLine
 10
447.8386801064756
 20
43.54527201358987
 11
446.8528725692732
 21
42.18059080222375
  0
ARC
  5
131
100
AcDbEntity
  8
0
  6
ByLayer
 62
  256
370
   -1
100
AcDbCircle
 10
441.1403370279427
 20
33.97050004999446
 40
9.999999999999996
100
AcDbArc
 50
15.81700090682589
 51
53.91812555817284
  0
LINE
  5
132
100
AcDbEntity
  8
0
  6
ByLayer
 62
  256
370
   -1
100
AcDbLine
 10
450.7617086248108
 20
36.69615751104505
 11
452.5802256117809
 21
30.27692547734951
  0
ARC
  5
133
100
AcDbEntity
  8
0
  6
ByLayer
 62
  256
370
   -1
100
AcDbCircle
 10
442.9588540149128
 20
27.55126801629893
 40
9.999999999999998
100
AcDbArc
 50
294.0186093178763
 51
15.81700090682589
  0
LINE
  5
134
100
AcDbEntity
  8
0
  6
ByLayer
 62
  256
370
   -1
100
AcDbLine
 10
447.0291873707156
 20
18.41713497738169
 11
430.2367970788588
 21
10.93414496208567
  0
ARC
  5
135
100
AcDbEntity
  8
0
  6
ByLayer
 62
  256
370
   -1
100
AcDbCircle
 10
422.0961303672532
 20
29.20241103992017
 40
20.00000000000001
100
AcDbArc
 50
264.472
 51
294.0186093178763
  0
LINE
  5
136
100
AcDbEntity
  8
0
  6
ByLayer
 62
  256
370
   -1
100
AcDbLine
 10
420.1694866991618
 20
9.295426231160107
 11
373.6514544113006
 21
13.79754813563064
  0
ARC
  5
137
100
AcDbEntity
  8
0
  6
ByLayer
 62
  256
370
   -1
100
AcDbCircle
 10
366.3288706582725
 20
34.94605237390738
 40
3.00000000000002
100
AcDbArc
 50
47.28729354676469
 51
140.4576282389433
  0
LINE
  5
138
100
AcDbEntity
  8
0
  6
ByLayer
 62
  256
370
   -1
100
AcDbLine
 10
373.6514544113006
 20
13.79754813563064
 11
372.0293814263835
 21
13.95453608109779
  0
ARC
  5
139
100
AcDbEntity
  8
0
  6
ByLayer
 62
  256
370
   -1
100
AcDbCircle
 10
372.511039658553
 20
18.93128254313405
 40
5
100
AcDbArc
 50
159.851135792289
 51
264.471969090092
  0
LINE
  5
13A
100
AcDbEntity
  8
0
  6
ByLayer
 62
  256
370
   -1
100
AcDbLine
 10
367.8170361294482
 20
20.65358648516977
 11
371.3273569716476
 21
30.22069407733937
  0
LINE
  5
13B
100
AcDbEntity
  8
0
  6
ByLayer
 62
  256
370
   -1
100
AcDbLine
 10
370.0249663224907
 20
35.61681812799178
 11
368.3638385626493
 21
37.15034491986323
  0
ARC
  5
13C
100
AcDbEntity
  8
0
  6
ByLayer
 62
  256
370
   -1
100
AcDbCircle
 10
366.6333531485296
 20
31.94299721806513
 40
5
100
AcDbArc
 50
339.8511398436791
 51
47.28727414784528
  0
ARC
  5
13D
100
AcDbEntity
  8
0
  6
ByLayer
 62
  256
370
   -1
100
AcDbCircle
 10
408.1601852505897
 20
0.4109890798302018
 40
57.24508712544691
100
AcDbArc
 50
140.4576282389459
 51
156.2230161561383
  0
ARC
  5
13E
100
AcDbEntity
  8
0
  6
ByLayer
 62
  256
370
   -1
100
AcDbCircle
 10
408.1601852505896
 20
0.4109890798302445
 40
59.77457653551367
100
AcDbArc
 50
140.0265049274755
 51
156.6226469235559
  0
ARC
  5
13F
100
AcDbEntity
  8
0
  6
ByLayer
 62
  256
370
   -1
100
AcDbCircle
 10
350.9976332978353
 20
25.12061345832321
 40
2.5
100
AcDbArc
 50
284.9784629959911
 51
336.622646923556
  0
ARC
  5
140
100
AcDbEntity
  8
0
  6
ByLayer
 62
  256
370
   -1
100
AcDbCircle
 10
358.0617679837638
 20
22.48298834885354
 40
2.5
100
AcDbArc
 50
156.2230161561381
 51
214.0721541739127
  0
ARC
  5
141
100
AcDbEntity
  8
0
  6
ByLayer
 62
  256
370
   -1
100
AcDbCircle
 10
352.6775969298831
 20
18.84146365958482
 40
4
100
AcDbArc
 50
104.9784489852651
 51
34.07193809956321
  0
ARC
  5
142
100
AcDbEntity
  8
0
  6
ByLayer
 62
  256
370
   -1
100
AcDbCircle
 10
547.1115855718614
 20
82.4850496673029
 40
3.00000000000001
100
AcDbArc
 50
195.8415049274769
 51
283.1022935467668
  0
LINE
  5
143
100
AcDbEntity
  8
0
  6
ByLayer
 62
  256
370
   -1
100
AcDbLine
 10
547.7916564582334
 20
79.5631489863233
 11
553.9766703904038
 21
81.00270780995325
  0
ARC
  5
144
100
AcDbEntity
  8
0
  6
ByLayer
 62
  256
370
   -1
100
AcDbCircle
 10
552.6165286176597
 20
86.84650917191225
 40
5.999999999999896
100
AcDbArc
 50
283.1022935467668
 51
21.27694286167457
  0
ARC
  5
145
100
AcDbEntity
  8
0
  6
ByLayer
 62
  256
370
   -1
100
AcDbCircle
 10
481.6096169673017
 20
59.19498445598954
 40
82.20097323024837
100
AcDbArc
 50
21.27694286167457
 51
44.26066678569719
  0
ARC
  5
146
100
AcDbEntity
  8
0
  6
ByLayer
 62
  256
370
   -1
100
AcDbCircle
 10
536.1826221195399
 20
112.377457413636
 40
6.000000000000082
100
AcDbArc
 50
44.26066678569724
 51
140.2870000000002
  0
ARC
  5
147
100
AcDbEntity
  8
0
  6
ByLayer
 62
  256
370
   -1
100
AcDbCircle
 10
530.2744226425192
 20
117.7849722446791
 40
2.000000000000024
100
AcDbArc
 50
276.7132088080247
 51
320.2870000000497
  0
ARC
  5
148
100
AcDbEntity
  8
0
  6
ByLayer
 62
  256
370
   -1
100
AcDbCircle
 10
532.0700062629591
 20
102.530248264924
 40
13.36003659619676
100
AcDbArc
 50
96.71320880802364
 51
178.8970291934507
  0
ARC
  5
149
100
AcDbEntity
  8
0
  6
ByLayer
 62
  256
370
   -1
100
AcDbCircle
 10
512.7135567837194
 20
102.9029150916271
 40
6.000000000000117
100
AcDbArc
 50
320.2869999999994
 51
358.8970291934495
  0
LINE
  5
14A
100
AcDbEntity
  8
0
  6
ByLayer
 62
  256
370
   -1
100
AcDbLine
 10
517.3290844042588
 20
99.06926085786542
 11
479.5409304434619
 21
53.57421678235404
  0
ARC
  5
14B
100
AcDbEntity
  8
0
  6
ByLayer
 62
  256
370
   -1
100
AcDbCircle
 10
494.9260225119266
 20
40.79536933648212
 40
20
100
AcDbArc
 50
140.2869999999998
 51
168.8817608897378
  0
LINE
  5
14C
100
AcDbEntity
  8
0
  6
ByLayer
 62
  256
370
   -1
100
AcDbLine
 10
475.3013959465409
 20
44.65205601926483
 11
468.5412779831206
 21
10.2534124472238
  0
ARC
  5
14D
100
AcDbEntity
  8
0
  6
ByLayer
 62
  256
370
   -1
100
AcDbCircle
 10
474.2725454441542
 20
8.477863717930006
 40
5.99999999999988
100
AcDbArc
 50
162.7869999999985
 51
261.7683248091297
  0
ARC
  5
14E
100
AcDbEntity
  8
0
  6
ByLayer
 62
  256
370
   -1
100
AcDbCircle
 10
481.609616967302
 20
59.19498445598974
 40
57.24508712544754
100
AcDbArc
 50
261.7683248091309
 51
270.0202752476106
  0
LINE
  5
14F
100
AcDbEntity
  8
0
  6
ByLayer
 62
  256
370
   -1
100
AcDbLine
 10
481.6298742759834
 20
1.949900914767468
 11
481.2564152682787
 21
3.289179552800242
  0
ARC
  5
150
100
AcDbEntity
  8
0
  6
ByLayer
 62
  256
370
   -1
100
AcDbCircle
 10
482.7012916127861
 20
3.692084478805853
 40
1.500000010105603
100
AcDbArc
 50
18.42423294867622
 51
195.5811709004045
  0
LINE
  5
151
100
AcDbEntity
  8
0
  6
ByLayer
 62
  256
370
   -1
100
AcDbLine
 10
484.1244052593929
 20
4.166159978234205
 11
484.8324533224343
 21
2.040690428085696
  0
LINE
  5
152
100
AcDbEntity
  8
0
  6
ByLayer
 62
  256
370
   -1
100
AcDbLine
 10
484.8324533224343
 20
2.040690428085696
 11
488.7218547390727
 21
2.393434531028468
  0
LINE
  5
153
100
AcDbEntity
  8
0
  6
ByLayer
 62
  256
370
   -1
100
AcDbLine
 10
488.7218547390727
 20
2.393434531028468
 11
488.293571175267
 21
3.929322047976093
  0
ARC
  5
154
100
AcDbEntity
  8
0
  6
ByLayer
 62
  256
370
   -1
100
AcDbCircle
 10
489.7384475197745
 20
4.332226973981705
 40
1.500000010105608
100
AcDbArc
 50
18.42423294867627
 51
195.5811709004046
  0
LINE
  5
155
100
AcDbEntity
  8
0
  6
ByLayer
 62
  256
370
   -1
100
AcDbLine
 10
491.1615611663813
 20
4.806302473410057
 11
491.8080369534902
 21
2.865665005233119
  0
ARC
  5
156
100
AcDbEntity
  8
0
  6
ByLayer
 62
  256
370
   -1
100
AcDbCircle
 10
481.6096169673019
 20
59.19498445599085
 40
57.24508712544853
100
AcDbArc
 50
280.2622323235319
 51
286.8013717610534
  0
ARC
  5
157
100
AcDbEntity
  8
0
  6
ByLayer
 62
  256
370
   -1
100
AcDbCircle
 10
497.2894152621207
 20
7.265480292352777
 40
3.000000000000017
100
AcDbArc
 50
286.8013717610534
 51
19.97170645323297
  0
LINE
  5
158
100
AcDbEntity
  8
0
  6
ByLayer
 62
  256
370
   -1
100
AcDbLine
 10
500.10899946533
 20
8.29014849280216
 11
499.5339899222954
 21
9.872404898850178
  0
ARC
  5
159
100
AcDbEntity
  8
0
  6
ByLayer
 62
  256
370
   -1
100
AcDbCircle
 10
495.9520596731037
 20
19.21095019031441
 40
9.999999999999996
100
AcDbArc
 50
251.6320009068259
 51
289.7331255581727
  0
LINE
  5
15A
100
AcDbEntity
  8
0
  6
ByLayer
 62
  256
370
   -1
100
AcDbLine
 10
492.8008694692546
 20
9.720428587200828
 11
486.4689385509001
 21
11.82285451443558
  0
ARC
  5
15B
100
AcDbEntity
  8
0
  6
ByLayer
 62
  256
370
   -1
100
AcDbCircle
 10
489.6201287547492
 20
21.31337611754923
 40
9.999999999999998
100
AcDbArc
 50
169.8336093178763
 51
251.6320009068259
  0
LINE
  5
15C
100
AcDbEntity
  8
0
  6
ByLayer
 62
  256
370
   -1
100
AcDbLine
 10
479.7771356012391
 20
23.07844999134419
 11
483.0220860805501
 21
41.17402424777183
  0
ARC
  5
15D
100
AcDbEntity
  8
0
  6
ByLayer
 62
  256
370
   -1
100
AcDbCircle
 10
502.7080723875704
 20
37.64387650018188
 40
20.00000000000001
100
AcDbArc
 50
140.287
 51
169.8336093178763
  0
LINE
  5
15E
100
AcDbEntity
  8
0
  6
ByLayer
 62
  256
370
   -1
100
AcDbLine
 10
487.3229803191057
 20
50.42272394605375
 11
517.1841995745267
 21
86.37413579811987
  0
ARC
  5
15F
100
AcDbEntity
  8
0
  6
ByLayer
 62
  256
370
   -1
100
AcDbCircle
 10
538.7931449894947
 20
80.5489368839668
 40
3.00000000000002
100
AcDbArc
 50
283.1022935467647
 51
16.27262823894328
  0
LINE
  5
160
100
AcDbEntity
  8
0
  6
ByLayer
 62
  256
370
   -1
100
AcDbLine
 10
517.1841995745267
 20
86.37413579811987
 11
518.2254533565261
 21
87.62775318189054
  0
ARC
  5
161
100
AcDbEntity
  8
0
  6
ByLayer
 62
  256
370
   -1
100
AcDbCircle
 10
522.0717280971244
 20
84.43304339540852
 40
5
100
AcDbArc
 50
35.66613579228898
 51
140.2869690900919
  0
LINE
  5
162
100
AcDbEntity
  8
0
  6
ByLayer
 62
  256
370
   -1
100
AcDbLine
 10
526.1338705042073
 20
87.34834767876903
 11
532.0757140620937
 21
79.06907263629513
  0
LINE
  5
163
100
AcDbEntity
  8
0
  6
ByLayer
 62
  256
370
   -1
100
AcDbLine
 10
537.2713074487938
 20
77.11454314480159
 11
539.4732158758668
 21
77.62703620298709
  0
ARC
  5
164
100
AcDbEntity
  8
0
  6
ByLayer
 62
  256
370
   -1
100
AcDbCircle
 10
536.137855971507
 20
81.98437761310089
 40
5
100
AcDbArc
 50
215.666139843679
 51
283.1022741478452
  0
ARC
  5
165
100
AcDbEntity
  8
0
  6
ByLayer
 62
  256
370
   -1
100
AcDbCircle
 10
486.7211559456508
 20
65.34902128337502
 40
57.24508712544691
100
AcDbArc
 50
16.27262823894583
 51
32.03801615613825
  0
ARC
  5
166
100
AcDbEntity
  8
0
  6
ByLayer
 62
  256
370
   -1
100
AcDbCircle
 10
486.7211559456509
 20
65.34902128337505
 40
59.77457653551367
100
AcDbArc
 50
15.84150492747547
 51
32.43764692355585
  0
ARC
  5
167
100
AcDbEntity
  8
0
  6
ByLayer
 62
  256
370
   -1
100
AcDbCircle
 10
539.2793834901122
 20
98.75194929967599
 40
2.5
100
AcDbArc
 50
160.7934629959911
 51
212.4376469235561
  0
ARC
  5
168
100
AcDbEntity
  8
0
  6
ByLayer
 62
  256
370
   -1
100
AcDbCircle
 10
533.1283639814778
 20
94.3902954753289
 40
2.5
100
AcDbArc
 50
32.03801615613815
 51
89.88715417391263
  0
ARC
  5
169
100
AcDbEntity
  8
0
  6
ByLayer
 62
  256
370
   -1
100
AcDbCircle
 10
533.1411810108876
 20
100.8902828386826
 40
4
100
AcDbArc
 50
340.7934489852651
 51
269.8869380995631
  0
ARC
  5
16A
100
AcDbEntity
  8
0
  6
ByLayer
 62
  256
370
   -1
100
AcDbCircle
 10
496.536881424798
 20
46.10868619525907
 40
3.00000000000001
100
AcDbArc
 50
10.3135049274769
 51
97.57429354676681
  0
LINE
  5
16B
100
AcDbEntity
  8
0
  6
ByLayer
 62
  256
370
   -1
100
AcDbLine
 10
496.1414464568937
 20
49.08251053206146
 11
489.8465216927898
 21
48.24546264686927
  0
ARC
  5
16C
100
AcDbEntity
  8
0
  6
ByLayer
 62
  256
370
   -1
100
AcDbCircle
 10
490.6373916285986
 20
42.29781397326455
 40
5.999999999999896
100
AcDbArc
 50
97.57429354676681
 51
195.7489428616746
  0
ARC
  5
16D
100
AcDbEntity
  8
0
  6
ByLayer
 62
  256
370
   -1
100
AcDbCircle
 10
563.977798955981
 20
62.98048726011648
 40
82.20097323024837
100
AcDbArc
 50
195.7489428616746
 51
218.7326667856971
  0
ARC
  5
16E
100
AcDbEntity
  8
0
  6
ByLayer
 62
  256
370
   -1
100
AcDbCircle
 10
504.5354159904169
 20
15.30248993837257
 40
6.000000000000082
100
AcDbArc
 50
218.7326667856971
 51
314.7590000000003
  0
ARC
  5
16F
100
AcDbEntity
  8
0
  6
ByLayer
 62
  256
370
   -1
100
AcDbCircle
 10
509.8952201417588
 20
9.35097440302539
 40
2.000000000000024
100
AcDbArc
 50
91.18520880802465
 51
134.7590000000496
  0
ARC
  5
170
100
AcDbEntity
  8
0
  6
ByLayer
 62
  256
370
   -1
100
AcDbCircle
 10
509.5775082172149
 20
24.70772482000845
 40
13.36003659619676
100
AcDbArc
 50
271.1852088080237
 51
353.3690291934507
  0
ARC
  5
171
100
AcDbEntity
  8
0
  6
ByLayer
 62
  256
370
   -1
100
AcDbCircle
 10
528.8080356948539
 20
22.47214213581763
 40
6.000000000000117
100
AcDbArc
 50
134.7589999999994
 51
173.3690291934495
  0
LINE
  5
172
100
AcDbEntity
  8
0
  6
ByLayer
 62
  256
370
   -1
100
AcDbLine
 10
524.5832780662857
 20
26.73259081874492
 11
566.5783253386004
 21
68.37583300512685
  0
ARC
  5
173
100
AcDbEntity
  8
0
  6
ByLayer
 62
  256
370
   -1
100
AcDbCircle
 10
552.4957999100402
 20
82.57732861488414
 40
20
100
AcDbArc
 50
314.7589999999999
 51
343.3537608897378
  0
LINE
  5
174
100
AcDbEntity
  8
0
  6
ByLayer
 62
  256
370
   -1
100
AcDbLine
 10
571.6576340069166
 20
76.84809532902607
 11
581.7000087285286
 21
110.435542157066
  0
ARC
  5
175
100
AcDbEntity
  8
0
  6
ByLayer
 62
  256
370
   -1
100
AcDbCircle
 10
576.1664385002759
 20
112.7549387443261
 40
5.99999999999988
100
AcDbArc
 50
337.2589999999986
 51
76.2403248091297
  0
ARC
  5
176
100
AcDbEntity
  8
0
  6
ByLayer
 62
  256
370
   -1
100
AcDbCircle
 10
563.9777989559808
 20
62.98048726011613
 40
57.24508712544754
100
AcDbArc
 50
76.24032480913093
 51
84.49227524761066
  0
LINE
  5
177
100
AcDbEntity
  8
0
  6
ByLayer
 62
  256
370
   -1
100
AcDbLine
 10
569.4721797458744
 20
119.961289112457
 11
569.7148862501393
 21
118.5922630157319
  0
ARC
  5
178
100
AcDbEntity
  8
0
  6
ByLayer
 62
  256
370
   -1
100
AcDbCircle
 10
568.2379169668804
 20
118.3304199966795
 40
1.500000010105603
100
AcDbArc
 50
192.8962329486762
 51
10.0531709004045
  0
LINE
  5
179
100
AcDbEntity
  8
0
  6
ByLayer
 62
  256
370
   -1
100
AcDbLine
 10
566.7757531517149
 20
117.9956409532238
 11
566.2757491724986
 21
120.1794332714064
  0
LINE
  5
17A
100
AcDbEntity
  8
0
  6
ByLayer
 62
  256
370
   -1
100
AcDbLine
 10
566.2757491724986
 20
120.1794332714064
 11
562.3704558170697
 21
120.2030042270749
  0
LINE
  5
17B
100
AcDbEntity
  8
0
  6
ByLayer
 62
  256
370
   -1
100
AcDbLine
 10
562.3704558170697
 20
120.2030042270749
 11
562.6487921390243
 21
118.6330022628651
  0
ARC
  5
17C
100
AcDbEntity
  8
0
  6
ByLayer
 62
  256
370
   -1
100
AcDbCircle
 10
561.1718228557655
 20
118.3711592438127
 40
1.500000010105608
100
AcDbArc
 50
192.8962329486762
 51
10.0531709004046
  0
LINE
  5
17D
100
AcDbEntity
  8
0
  6
ByLayer
 62
  256
370
   -1
100
AcDbLine
 10
559.7096590405998
 20
118.036380200357
 11
559.2531357014457
 21
120.0302686543627
  0
ARC
  5
17E
100
AcDbEntity
  8
0
  6
ByLayer
 62
  256
370
   -1
100
AcDbCircle
 10
563.9777989559807
 20
62.98048726011517
 40
57.24508712544853
100
AcDbArc
 50
94.73423232353187
 51
101.2733717610535
  0
ARC
  5
17F
100
AcDbEntity
  8
0
  6
ByLayer
 62
  256
370
   -1
100
AcDbCircle
 10
553.3734061522119
 20
116.1789489907975
 40
3.000000000000017
100
AcDbArc
 50
101.2733717610534
 51
194.4437064532329
  0
LINE
  5
180
100
AcDbEntity
  8
0
  6
ByLayer
 62
  256
370
   -1
100
AcDbLine
 10
550.468226632182
 20
115.4306629783675
 11
550.8881397297856
 21
113.8003733416705
  0
ARC
  5
181
100
AcDbEntity
  8
0
  6
ByLayer
 62
  256
370
   -1
100
AcDbCircle
 10
553.5538088248712
 20
104.160204217308
 40
9.999999999999996
100
AcDbArc
 50
66.10400090682586
 51
104.2051255581728
  0
LINE
  5
182
100
AcDbEntity
  8
0
  6
ByLayer
 62
  256
370
   -1
100
AcDbLine
 10
557.6045862684242
 20
113.3030266536677
 11
563.7045376184974
 21
110.6004098733854
  0
ARC
  5
183
100
AcDbEntity
  8
0
  6
ByLayer
 62
  256
370
   -1
100
AcDbCircle
 10
559.6537601749443
 20
101.4575874370257
 40
9.999999999999998
100
AcDbArc
 50
344.3056093178763
 51
66.10400090682586
  0
LINE
  5
184
100
AcDbEntity
  8
0
  6
ByLayer
 62
  256
370
   -1
100
AcDbLine
 10
569.280942513794
 20
98.75252547571316
 11
564.3078973408717
 21
81.05370254900008
  0
ARC
  5
185
100
AcDbEntity
  8
0
  6
ByLayer
 62
  256
370
   -1
100
AcDbCircle
 10
545.0535326631723
 20
86.46382647162541
 40
20.00000000000001
100
AcDbArc
 50
314.7590000000001
 51
344.3056093178763
  0
LINE
  5
186
100
AcDbEntity
  8
0
  6
ByLayer
 62
  256
370
   -1
100
AcDbLine
 10
559.1360580917326
 20
72.26233086186821
 11
525.95043818711
 21
39.35471683223777
  0
ARC
  5
187
100
AcDbEntity
  8
0
  6
ByLayer
 62
  256
370
   -1
100
AcDbCircle
 10
505.0031449118216
 20
47.23446103973437
 40
3.00000000000002
100
AcDbArc
 50
97.57429354676466
 51
190.7446282389433
  0
LINE
  5
188
100
AcDbEntity
  8
0
  6
ByLayer
 62
  256
370
   -1
100
AcDbLine
 10
525.95043818711
 20
39.35471683223777
 11
524.7932633263611
 21
38.20723597180002
  0
ARC
  5
189
100
AcDbEntity
  8
0
  6
ByLayer
 62
  256
370
   -1
100
AcDbCircle
 10
521.2726300538667
 20
41.75760797493034
 40
5
100
AcDbArc
 50
210.1381357922889
 51
314.758969090092
  0
LINE
  5
18A
100
AcDbEntity
  8
0
  6
ByLayer
 62
  256
370
   -1
100
AcDbLine
 10
516.9485420675209
 20
39.24717711821646
 11
511.8318932372257
 21
48.06033800649978
  0
LINE
  5
18B
100
AcDbEntity
  8
0
  6
ByLayer
 62
  256
370
   -1
100
AcDbLine
 10
506.8487473995931
 20
50.50628030629478
 11
504.6077099439174
 21
50.20828537653684
  0
ARC
  5
18C
100
AcDbEntity
  8
0
  6
ByLayer
 62
  256
370
   -1
100
AcDbCircle
 10
507.5078056794339
 20
45.54990641162404
 40
5
100
AcDbArc
 50
30.13813984367903
 51
97.57427414784524
  0
ARC
  5
18D
100
AcDbEntity
  8
0
  6
ByLayer
 62
  256
370
   -1
100
AcDbCircle
 10
558.2972007120779
 20
57.34747708869276
 40
57.24508712544691
100
AcDbArc
 50
190.7446282389458
 51
206.5100161561382
  0
ARC
  5
18E
100
AcDbEntity
  8
0
  6
ByLayer
 62
  256
370
   -1
100
AcDbCircle
 10
558.2972007120778
 20
57.34747708869266
 40
59.77457653551367
100
AcDbArc
 50
190.3135049274755
 51
206.9096469235559
  0
ARC
  5
18F
100
AcDbEntity
  8
0
  6
ByLayer
 62
  256
370
   -1
100
AcDbCircle
 10
502.7656318590145
 20
29.16294687449458
 40
2.5
100
AcDbArc
 50
335.2654629959911
 51
26.90964692355596
  0
ARC
  5
190
100
AcDbEntity
  8
0
  6
ByLayer
 62
  256
370
   -1
100
AcDbCircle
 10
509.3082120910074
 20
32.91177455618108
 40
2.5
100
AcDbArc
 50
206.5100161561381
 51
264.3591541739127
  0
ARC
  5
191
100
AcDbEntity
  8
0
  6
ByLayer
 62
  256
370
   -1
100
AcDbCircle
 10
508.6692966957057
 20
26.4432517636382
 40
4
100
AcDbArc
 50
155.265448985265
 51
84.35893809956319
  0
ENDSEC
  0
SECTION
  2
OBJECTS
  0
DICTIONARY
  5
C
330
0
100
AcDbDictionary
281
    1
  3
ACAD_GROUP
350
D
  0
DICTIONARY
  5
D
330
C
100
AcDbDictionary
281
    1
  0
ENDSEC
  0
EOF
