solid OpenSCAD_Model
  facet normal 1 0 1.22461e-16
    outer loop
      vertex 77 -37.611 1.1
      vertex 77 -39 1.1
      vertex 77 -39 -1.1
    endloop
  endfacet
  facet normal 1 0 1.22461e-16
    outer loop
      vertex 77 -37.611 -1.1
      vertex 77 -37.611 1.1
      vertex 77 -39 -1.1
    endloop
  endfacet
  facet normal 0 -1 0
    outer loop
      vertex 77 -39 -1.1
      vertex 77 -39 1.1
      vertex -77 -39 1.1
    endloop
  endfacet
  facet normal 0 -1 0
    outer loop
      vertex -77 -39 -1.1
      vertex 77 -39 -1.1
      vertex -77 -39 1.1
    endloop
  endfacet
  facet normal -1.22461e-16 0 1
    outer loop
      vertex -77 -39 1.1
      vertex 77 -39 1.1
      vertex 77 -37.611 1.1
    endloop
  endfacet
  facet normal -1.22461e-16 0 1
    outer loop
      vertex -77 39 1.1
      vertex -77 -39 1.1
      vertex 25.926 39 1.1
    endloop
  endfacet
  facet normal -1.22461e-16 0 1
    outer loop
      vertex 25.926 39 1.1
      vertex -77 -39 1.1
      vertex 77 -37.611 1.1
    endloop
  endfacet
  facet normal 0.83205 0.5547 1.01893e-16
    outer loop
      vertex 77 -37.611 -1.1
      vertex 25.926 39 -1.1
      vertex 25.926 39 1.1
    endloop
  endfacet
  facet normal 0.83205 0.5547 1.01893e-16
    outer loop
      vertex 77 -37.611 1.1
      vertex 77 -37.611 -1.1
      vertex 25.926 39 1.1
    endloop
  endfacet
  facet normal 1.22461e-16 0 -1
    outer loop
      vertex 77 -39 -1.1
      vertex -77 -39 -1.1
      vertex 77 -37.611 -1.1
    endloop
  endfacet
  facet normal 1.22461e-16 0 -1
    outer loop
      vertex 77 -37.611 -1.1
      vertex -77 -39 -1.1
      vertex -77 39 -1.1
    endloop
  endfacet
  facet normal 1.22461e-16 0 -1
    outer loop
      vertex 77 -37.611 -1.1
      vertex -77 39 -1.1
      vertex 25.926 39 -1.1
    endloop
  endfacet
  facet normal -1 0 -1.22461e-16
    outer loop
      vertex -77 -39 1.1
      vertex -77 39 1.1
      vertex -77 -39 -1.1
    endloop
  endfacet
  facet normal -1 0 -1.22461e-16
    outer loop
      vertex -77 -39 -1.1
      vertex -77 39 1.1
      vertex -77 39 -1.1
    endloop
  endfacet
  facet normal 0 1 0
    outer loop
      vertex 25.926 39 1.1
      vertex 25.926 39 -1.1
      vertex -77 39 1.1
    endloop
  endfacet
  facet normal 0 1 0
    outer loop
      vertex -77 39 1.1
      vertex 25.926 39 -1.1
      vertex -77 39 -1.1
    endloop
  endfacet
  facet normal -1.22461e-16 0 1
    outer loop
      vertex -34.271 -29.6757 4.8
      vertex -34.2 -29 4.8
      vertex -34.271 -28.3243 4.8
    endloop
  endfacet
  facet normal -1.22461e-16 0 1
    outer loop
      vertex -34.8207 -27.0897 4.8
      vertex -34.271 -29.6757 4.8
      vertex -34.481 -27.6781 4.8
    endloop
  endfacet
  facet normal -1.22461e-16 0 1
    outer loop
      vertex -34.481 -27.6781 4.8
      vertex -34.271 -29.6757 4.8
      vertex -34.271 -28.3243 4.8
    endloop
  endfacet
  facet normal -1.22461e-16 0 1
    outer loop
      vertex -35.2753 -26.5848 4.8
      vertex -34.271 -29.6757 4.8
      vertex -34.8207 -27.0897 4.8
    endloop
  endfacet
  facet normal -1.22461e-16 0 1
    outer loop
      vertex -35.825 -26.1854 4.8
      vertex -34.271 -29.6757 4.8
      vertex -35.2753 -26.5848 4.8
    endloop
  endfacet
  facet normal -1.22461e-16 0 1
    outer loop
      vertex -36.4457 -25.9091 4.8
      vertex -34.271 -29.6757 4.8
      vertex -35.825 -26.1854 4.8
    endloop
  endfacet
  facet normal -1.22461e-16 0 1
    outer loop
      vertex -37.1103 -25.7678 4.8
      vertex -34.271 -29.6757 4.8
      vertex -36.4457 -25.9091 4.8
    endloop
  endfacet
  facet normal -1.22461e-16 0 1
    outer loop
      vertex -37.7897 -25.7678 4.8
      vertex -34.271 -29.6757 4.8
      vertex -37.1103 -25.7678 4.8
    endloop
  endfacet
  facet normal -1.22461e-16 0 1
    outer loop
      vertex -38.4543 -25.9091 4.8
      vertex -34.271 -29.6757 4.8
      vertex -37.7897 -25.7678 4.8
    endloop
  endfacet
  facet normal -1.22461e-16 0 1
    outer loop
      vertex -39.075 -26.1854 4.8
      vertex -34.271 -29.6757 4.8
      vertex -38.4543 -25.9091 4.8
    endloop
  endfacet
  facet normal -1.22461e-16 0 1
    outer loop
      vertex -39.6247 -26.5848 4.8
      vertex -34.271 -29.6757 4.8
      vertex -39.075 -26.1854 4.8
    endloop
  endfacet
  facet normal -1.22461e-16 0 1
    outer loop
      vertex -40.0793 -27.0897 4.8
      vertex -34.271 -29.6757 4.8
      vertex -39.6247 -26.5848 4.8
    endloop
  endfacet
  facet normal -1.22461e-16 0 1
    outer loop
      vertex -40.419 -27.6781 4.8
      vertex -34.271 -29.6757 4.8
      vertex -40.0793 -27.0897 4.8
    endloop
  endfacet
  facet normal -1.22461e-16 0 1
    outer loop
      vertex -40.629 -28.3243 4.8
      vertex -34.271 -29.6757 4.8
      vertex -40.419 -27.6781 4.8
    endloop
  endfacet
  facet normal -1.22461e-16 0 1
    outer loop
      vertex -40.7 -29 4.8
      vertex -34.271 -29.6757 4.8
      vertex -40.629 -28.3243 4.8
    endloop
  endfacet
  facet normal -1.22461e-16 0 1
    outer loop
      vertex -40.629 -29.6757 4.8
      vertex -34.271 -29.6757 4.8
      vertex -40.7 -29 4.8
    endloop
  endfacet
  facet normal -1.22461e-16 0 1
    outer loop
      vertex -40.419 -30.3219 4.8
      vertex -34.271 -29.6757 4.8
      vertex -40.629 -29.6757 4.8
    endloop
  endfacet
  facet normal -1.22461e-16 0 1
    outer loop
      vertex -40.0793 -30.9103 4.8
      vertex -34.271 -29.6757 4.8
      vertex -40.419 -30.3219 4.8
    endloop
  endfacet
  facet normal -1.22461e-16 0 1
    outer loop
      vertex -39.6247 -31.4152 4.8
      vertex -34.271 -29.6757 4.8
      vertex -40.0793 -30.9103 4.8
    endloop
  endfacet
  facet normal -1.22461e-16 0 1
    outer loop
      vertex -39.075 -31.8146 4.8
      vertex -34.271 -29.6757 4.8
      vertex -39.6247 -31.4152 4.8
    endloop
  endfacet
  facet normal -1.22461e-16 0 1
    outer loop
      vertex -38.4543 -32.0909 4.8
      vertex -34.271 -29.6757 4.8
      vertex -39.075 -31.8146 4.8
    endloop
  endfacet
  facet normal -1.22461e-16 0 1
    outer loop
      vertex -37.7897 -32.2322 4.8
      vertex -34.271 -29.6757 4.8
      vertex -38.4543 -32.0909 4.8
    endloop
  endfacet
  facet normal -1.22461e-16 0 1
    outer loop
      vertex -37.1103 -32.2322 4.8
      vertex -34.271 -29.6757 4.8
      vertex -37.7897 -32.2322 4.8
    endloop
  endfacet
  facet normal -1.22461e-16 0 1
    outer loop
      vertex -36.4457 -32.0909 4.8
      vertex -34.271 -29.6757 4.8
      vertex -37.1103 -32.2322 4.8
    endloop
  endfacet
  facet normal -1.22461e-16 0 1
    outer loop
      vertex -35.825 -31.8146 4.8
      vertex -34.271 -29.6757 4.8
      vertex -36.4457 -32.0909 4.8
    endloop
  endfacet
  facet normal -1.22461e-16 0 1
    outer loop
      vertex -35.2753 -31.4152 4.8
      vertex -34.271 -29.6757 4.8
      vertex -35.825 -31.8146 4.8
    endloop
  endfacet
  facet normal -1.22461e-16 0 1
    outer loop
      vertex -34.8207 -30.9103 4.8
      vertex -34.271 -29.6757 4.8
      vertex -35.2753 -31.4152 4.8
    endloop
  endfacet
  facet normal -1.22461e-16 0 1
    outer loop
      vertex -34.481 -30.3219 4.8
      vertex -34.271 -29.6757 4.8
      vertex -34.8207 -30.9103 4.8
    endloop
  endfacet
  facet normal 0.994522 0.104528 1.2179e-16
    outer loop
      vertex -34.271 -28.3243 4.8
      vertex -34.2 -29 4.8
      vertex -34.2 -29 1.1
    endloop
  endfacet
  facet normal 0.994522 0.104528 1.2179e-16
    outer loop
      vertex -34.271 -28.3243 1.1
      vertex -34.271 -28.3243 4.8
      vertex -34.2 -29 1.1
    endloop
  endfacet
  facet normal 0.994522 -0.104528 1.2179e-16
    outer loop
      vertex -34.2 -29 1.1
      vertex -34.2 -29 4.8
      vertex -34.271 -29.6757 4.8
    endloop
  endfacet
  facet normal 0.994522 -0.104528 1.2179e-16
    outer loop
      vertex -34.271 -29.6757 1.1
      vertex -34.2 -29 1.1
      vertex -34.271 -29.6757 4.8
    endloop
  endfacet
  facet normal 0.951056 -0.309017 1.16467e-16
    outer loop
      vertex -34.271 -29.6757 1.1
      vertex -34.271 -29.6757 4.8
      vertex -34.481 -30.3219 4.8
    endloop
  endfacet
  facet normal 0.951056 -0.309017 1.16467e-16
    outer loop
      vertex -34.481 -30.3219 1.1
      vertex -34.271 -29.6757 1.1
      vertex -34.481 -30.3219 4.8
    endloop
  endfacet
  facet normal 0.866025 -0.500001 1.06054e-16
    outer loop
      vertex -34.481 -30.3219 1.1
      vertex -34.481 -30.3219 4.8
      vertex -34.8207 -30.9103 4.8
    endloop
  endfacet
  facet normal 0.866025 -0.500001 1.06054e-16
    outer loop
      vertex -34.8207 -30.9103 1.1
      vertex -34.481 -30.3219 1.1
      vertex -34.8207 -30.9103 4.8
    endloop
  endfacet
  facet normal 0.743145 -0.669131 9.1006e-17
    outer loop
      vertex -34.8207 -30.9103 1.1
      vertex -34.8207 -30.9103 4.8
      vertex -35.2753 -31.4152 4.8
    endloop
  endfacet
  facet normal 0.743145 -0.669131 9.1006e-17
    outer loop
      vertex -35.2753 -31.4152 1.1
      vertex -34.8207 -30.9103 1.1
      vertex -35.2753 -31.4152 4.8
    endloop
  endfacet
  facet normal 0.587786 -0.809017 7.19806e-17
    outer loop
      vertex -35.2753 -31.4152 1.1
      vertex -35.2753 -31.4152 4.8
      vertex -35.825 -31.8146 4.8
    endloop
  endfacet
  facet normal 0.587786 -0.809017 7.19806e-17
    outer loop
      vertex -35.825 -31.8146 1.1
      vertex -35.2753 -31.4152 1.1
      vertex -35.825 -31.8146 4.8
    endloop
  endfacet
  facet normal 0.406736 -0.913546 4.98092e-17
    outer loop
      vertex -35.825 -31.8146 1.1
      vertex -35.825 -31.8146 4.8
      vertex -36.4457 -32.0909 4.8
    endloop
  endfacet
  facet normal 0.406736 -0.913546 4.98092e-17
    outer loop
      vertex -36.4457 -32.0909 1.1
      vertex -35.825 -31.8146 1.1
      vertex -36.4457 -32.0909 4.8
    endloop
  endfacet
  facet normal 0.207911 -0.978148 2.54609e-17
    outer loop
      vertex -36.4457 -32.0909 1.1
      vertex -36.4457 -32.0909 4.8
      vertex -37.1103 -32.2322 4.8
    endloop
  endfacet
  facet normal 0.207911 -0.978148 2.54609e-17
    outer loop
      vertex -37.1103 -32.2322 1.1
      vertex -36.4457 -32.0909 1.1
      vertex -37.1103 -32.2322 4.8
    endloop
  endfacet
  facet normal 0 -1 0
    outer loop
      vertex -37.1103 -32.2322 1.1
      vertex -37.1103 -32.2322 4.8
      vertex -37.7897 -32.2322 4.8
    endloop
  endfacet
  facet normal 0 -1 0
    outer loop
      vertex -37.7897 -32.2322 1.1
      vertex -37.1103 -32.2322 1.1
      vertex -37.7897 -32.2322 4.8
    endloop
  endfacet
  facet normal -0.207911 -0.978148 -2.54609e-17
    outer loop
      vertex -37.7897 -32.2322 1.1
      vertex -37.7897 -32.2322 4.8
      vertex -38.4543 -32.0909 4.8
    endloop
  endfacet
  facet normal -0.207911 -0.978148 -2.54609e-17
    outer loop
      vertex -38.4543 -32.0909 1.1
      vertex -37.7897 -32.2322 1.1
      vertex -38.4543 -32.0909 4.8
    endloop
  endfacet
  facet normal -0.406736 -0.913546 -4.98092e-17
    outer loop
      vertex -38.4543 -32.0909 1.1
      vertex -38.4543 -32.0909 4.8
      vertex -39.075 -31.8146 4.8
    endloop
  endfacet
  facet normal -0.406736 -0.913546 -4.98092e-17
    outer loop
      vertex -39.075 -31.8146 1.1
      vertex -38.4543 -32.0909 1.1
      vertex -39.075 -31.8146 4.8
    endloop
  endfacet
  facet normal -0.587786 -0.809017 -7.19806e-17
    outer loop
      vertex -39.075 -31.8146 1.1
      vertex -39.075 -31.8146 4.8
      vertex -39.6247 -31.4152 4.8
    endloop
  endfacet
  facet normal -0.587786 -0.809017 -7.19806e-17
    outer loop
      vertex -39.6247 -31.4152 1.1
      vertex -39.075 -31.8146 1.1
      vertex -39.6247 -31.4152 4.8
    endloop
  endfacet
  facet normal -0.743145 -0.669131 -9.1006e-17
    outer loop
      vertex -39.6247 -31.4152 4.8
      vertex -40.0793 -30.9103 4.8
      vertex -39.6247 -31.4152 1.1
    endloop
  endfacet
  facet normal -0.743145 -0.669131 -9.1006e-17
    outer loop
      vertex -39.6247 -31.4152 1.1
      vertex -40.0793 -30.9103 4.8
      vertex -40.0793 -30.9103 1.1
    endloop
  endfacet
  facet normal -0.866025 -0.500001 -1.06054e-16
    outer loop
      vertex -40.0793 -30.9103 4.8
      vertex -40.419 -30.3219 4.8
      vertex -40.0793 -30.9103 1.1
    endloop
  endfacet
  facet normal -0.866025 -0.500001 -1.06054e-16
    outer loop
      vertex -40.0793 -30.9103 1.1
      vertex -40.419 -30.3219 4.8
      vertex -40.419 -30.3219 1.1
    endloop
  endfacet
  facet normal -0.951056 -0.309017 -1.16467e-16
    outer loop
      vertex -40.419 -30.3219 4.8
      vertex -40.629 -29.6757 4.8
      vertex -40.419 -30.3219 1.1
    endloop
  endfacet
  facet normal -0.951056 -0.309017 -1.16467e-16
    outer loop
      vertex -40.419 -30.3219 1.1
      vertex -40.629 -29.6757 4.8
      vertex -40.629 -29.6757 1.1
    endloop
  endfacet
  facet normal -0.994522 -0.104528 -1.2179e-16
    outer loop
      vertex -40.629 -29.6757 4.8
      vertex -40.7 -29 4.8
      vertex -40.629 -29.6757 1.1
    endloop
  endfacet
  facet normal -0.994522 -0.104528 -1.2179e-16
    outer loop
      vertex -40.629 -29.6757 1.1
      vertex -40.7 -29 4.8
      vertex -40.7 -29 1.1
    endloop
  endfacet
  facet normal -0.994522 0.104528 -1.2179e-16
    outer loop
      vertex -40.629 -28.3243 4.8
      vertex -40.629 -28.3243 1.1
      vertex -40.7 -29 4.8
    endloop
  endfacet
  facet normal -0.994522 0.104528 -1.2179e-16
    outer loop
      vertex -40.7 -29 4.8
      vertex -40.629 -28.3243 1.1
      vertex -40.7 -29 1.1
    endloop
  endfacet
  facet normal -0.951056 0.309017 -1.16467e-16
    outer loop
      vertex -40.419 -27.6781 4.8
      vertex -40.419 -27.6781 1.1
      vertex -40.629 -28.3243 4.8
    endloop
  endfacet
  facet normal -0.951056 0.309017 -1.16467e-16
    outer loop
      vertex -40.629 -28.3243 4.8
      vertex -40.419 -27.6781 1.1
      vertex -40.629 -28.3243 1.1
    endloop
  endfacet
  facet normal -0.866025 0.500001 -1.06054e-16
    outer loop
      vertex -40.0793 -27.0897 4.8
      vertex -40.0793 -27.0897 1.1
      vertex -40.419 -27.6781 4.8
    endloop
  endfacet
  facet normal -0.866025 0.500001 -1.06054e-16
    outer loop
      vertex -40.419 -27.6781 4.8
      vertex -40.0793 -27.0897 1.1
      vertex -40.419 -27.6781 1.1
    endloop
  endfacet
  facet normal -0.743145 0.669131 -9.1006e-17
    outer loop
      vertex -39.6247 -26.5848 4.8
      vertex -39.6247 -26.5848 1.1
      vertex -40.0793 -27.0897 4.8
    endloop
  endfacet
  facet normal -0.743145 0.669131 -9.1006e-17
    outer loop
      vertex -40.0793 -27.0897 4.8
      vertex -39.6247 -26.5848 1.1
      vertex -40.0793 -27.0897 1.1
    endloop
  endfacet
  facet normal -0.587786 0.809017 -7.19806e-17
    outer loop
      vertex -39.075 -26.1854 4.8
      vertex -39.075 -26.1854 1.1
      vertex -39.6247 -26.5848 4.8
    endloop
  endfacet
  facet normal -0.587786 0.809017 -7.19806e-17
    outer loop
      vertex -39.6247 -26.5848 4.8
      vertex -39.075 -26.1854 1.1
      vertex -39.6247 -26.5848 1.1
    endloop
  endfacet
  facet normal -0.406736 0.913546 -4.98092e-17
    outer loop
      vertex -38.4543 -25.9091 4.8
      vertex -38.4543 -25.9091 1.1
      vertex -39.075 -26.1854 4.8
    endloop
  endfacet
  facet normal -0.406736 0.913546 -4.98092e-17
    outer loop
      vertex -39.075 -26.1854 4.8
      vertex -38.4543 -25.9091 1.1
      vertex -39.075 -26.1854 1.1
    endloop
  endfacet
  facet normal -0.207911 0.978148 -2.54609e-17
    outer loop
      vertex -37.7897 -25.7678 4.8
      vertex -37.7897 -25.7678 1.1
      vertex -38.4543 -25.9091 4.8
    endloop
  endfacet
  facet normal -0.207911 0.978148 -2.54609e-17
    outer loop
      vertex -38.4543 -25.9091 4.8
      vertex -37.7897 -25.7678 1.1
      vertex -38.4543 -25.9091 1.1
    endloop
  endfacet
  facet normal 0 1 0
    outer loop
      vertex -37.1103 -25.7678 4.8
      vertex -37.1103 -25.7678 1.1
      vertex -37.7897 -25.7678 4.8
    endloop
  endfacet
  facet normal 0 1 0
    outer loop
      vertex -37.7897 -25.7678 4.8
      vertex -37.1103 -25.7678 1.1
      vertex -37.7897 -25.7678 1.1
    endloop
  endfacet
  facet normal 0.207911 0.978148 2.54609e-17
    outer loop
      vertex -36.4457 -25.9091 4.8
      vertex -36.4457 -25.9091 1.1
      vertex -37.1103 -25.7678 4.8
    endloop
  endfacet
  facet normal 0.207911 0.978148 2.54609e-17
    outer loop
      vertex -37.1103 -25.7678 4.8
      vertex -36.4457 -25.9091 1.1
      vertex -37.1103 -25.7678 1.1
    endloop
  endfacet
  facet normal 0.406736 0.913546 4.98092e-17
    outer loop
      vertex -35.825 -26.1854 4.8
      vertex -35.825 -26.1854 1.1
      vertex -36.4457 -25.9091 4.8
    endloop
  endfacet
  facet normal 0.406736 0.913546 4.98092e-17
    outer loop
      vertex -36.4457 -25.9091 4.8
      vertex -35.825 -26.1854 1.1
      vertex -36.4457 -25.9091 1.1
    endloop
  endfacet
  facet normal 0.587786 0.809017 7.19806e-17
    outer loop
      vertex -35.2753 -26.5848 4.8
      vertex -35.2753 -26.5848 1.1
      vertex -35.825 -26.1854 4.8
    endloop
  endfacet
  facet normal 0.587786 0.809017 7.19806e-17
    outer loop
      vertex -35.825 -26.1854 4.8
      vertex -35.2753 -26.5848 1.1
      vertex -35.825 -26.1854 1.1
    endloop
  endfacet
  facet normal 0.743145 0.669131 9.1006e-17
    outer loop
      vertex -35.2753 -26.5848 4.8
      vertex -34.8207 -27.0897 4.8
      vertex -34.8207 -27.0897 1.1
    endloop
  endfacet
  facet normal 0.743145 0.669131 9.1006e-17
    outer loop
      vertex -35.2753 -26.5848 1.1
      vertex -35.2753 -26.5848 4.8
      vertex -34.8207 -27.0897 1.1
    endloop
  endfacet
  facet normal 0.866025 0.500001 1.06054e-16
    outer loop
      vertex -34.8207 -27.0897 4.8
      vertex -34.481 -27.6781 4.8
      vertex -34.481 -27.6781 1.1
    endloop
  endfacet
  facet normal 0.866025 0.500001 1.06054e-16
    outer loop
      vertex -34.8207 -27.0897 1.1
      vertex -34.8207 -27.0897 4.8
      vertex -34.481 -27.6781 1.1
    endloop
  endfacet
  facet normal 0.951056 0.309017 1.16467e-16
    outer loop
      vertex -34.481 -27.6781 4.8
      vertex -34.271 -28.3243 4.8
      vertex -34.271 -28.3243 1.1
    endloop
  endfacet
  facet normal 0.951056 0.309017 1.16467e-16
    outer loop
      vertex -34.481 -27.6781 1.1
      vertex -34.481 -27.6781 4.8
      vertex -34.271 -28.3243 1.1
    endloop
  endfacet
  facet normal 1.22461e-16 0 -1
    outer loop
      vertex -34.2 -29 1.1
      vertex -34.271 -29.6757 1.1
      vertex -34.271 -28.3243 1.1
    endloop
  endfacet
  facet normal 1.22461e-16 0 -1
    outer loop
      vertex -34.271 -28.3243 1.1
      vertex -34.271 -29.6757 1.1
      vertex -34.481 -30.3219 1.1
    endloop
  endfacet
  facet normal 1.22461e-16 0 -1
    outer loop
      vertex -34.271 -28.3243 1.1
      vertex -34.481 -30.3219 1.1
      vertex -34.8207 -30.9103 1.1
    endloop
  endfacet
  facet normal 1.22461e-16 0 -1
    outer loop
      vertex -34.271 -28.3243 1.1
      vertex -34.8207 -30.9103 1.1
      vertex -35.2753 -31.4152 1.1
    endloop
  endfacet
  facet normal 1.22461e-16 0 -1
    outer loop
      vertex -34.271 -28.3243 1.1
      vertex -35.2753 -31.4152 1.1
      vertex -35.825 -31.8146 1.1
    endloop
  endfacet
  facet normal 1.22461e-16 0 -1
    outer loop
      vertex -34.271 -28.3243 1.1
      vertex -35.825 -31.8146 1.1
      vertex -36.4457 -32.0909 1.1
    endloop
  endfacet
  facet normal 1.22461e-16 0 -1
    outer loop
      vertex -34.271 -28.3243 1.1
      vertex -36.4457 -32.0909 1.1
      vertex -37.1103 -32.2322 1.1
    endloop
  endfacet
  facet normal 1.22461e-16 0 -1
    outer loop
      vertex -34.271 -28.3243 1.1
      vertex -37.1103 -32.2322 1.1
      vertex -37.7897 -32.2322 1.1
    endloop
  endfacet
  facet normal 1.22461e-16 0 -1
    outer loop
      vertex -34.271 -28.3243 1.1
      vertex -37.7897 -32.2322 1.1
      vertex -38.4543 -32.0909 1.1
    endloop
  endfacet
  facet normal 1.22461e-16 0 -1
    outer loop
      vertex -34.271 -28.3243 1.1
      vertex -38.4543 -32.0909 1.1
      vertex -39.075 -31.8146 1.1
    endloop
  endfacet
  facet normal 1.22461e-16 0 -1
    outer loop
      vertex -34.271 -28.3243 1.1
      vertex -39.075 -31.8146 1.1
      vertex -39.6247 -31.4152 1.1
    endloop
  endfacet
  facet normal 1.22461e-16 0 -1
    outer loop
      vertex -34.271 -28.3243 1.1
      vertex -39.6247 -31.4152 1.1
      vertex -40.0793 -30.9103 1.1
    endloop
  endfacet
  facet normal 1.22461e-16 0 -1
    outer loop
      vertex -34.271 -28.3243 1.1
      vertex -40.0793 -30.9103 1.1
      vertex -40.419 -30.3219 1.1
    endloop
  endfacet
  facet normal 1.22461e-16 0 -1
    outer loop
      vertex -34.271 -28.3243 1.1
      vertex -40.419 -30.3219 1.1
      vertex -40.629 -29.6757 1.1
    endloop
  endfacet
  facet normal 1.22461e-16 0 -1
    outer loop
      vertex -34.271 -28.3243 1.1
      vertex -40.629 -29.6757 1.1
      vertex -40.7 -29 1.1
    endloop
  endfacet
  facet normal 1.22461e-16 0 -1
    outer loop
      vertex -34.271 -28.3243 1.1
      vertex -40.7 -29 1.1
      vertex -40.629 -28.3243 1.1
    endloop
  endfacet
  facet normal 1.22461e-16 0 -1
    outer loop
      vertex -34.271 -28.3243 1.1
      vertex -40.629 -28.3243 1.1
      vertex -40.419 -27.6781 1.1
    endloop
  endfacet
  facet normal 1.22461e-16 0 -1
    outer loop
      vertex -34.271 -28.3243 1.1
      vertex -40.419 -27.6781 1.1
      vertex -40.0793 -27.0897 1.1
    endloop
  endfacet
  facet normal 1.22461e-16 0 -1
    outer loop
      vertex -34.271 -28.3243 1.1
      vertex -40.0793 -27.0897 1.1
      vertex -39.6247 -26.5848 1.1
    endloop
  endfacet
  facet normal 1.22461e-16 0 -1
    outer loop
      vertex -34.271 -28.3243 1.1
      vertex -39.6247 -26.5848 1.1
      vertex -39.075 -26.1854 1.1
    endloop
  endfacet
  facet normal 1.22461e-16 0 -1
    outer loop
      vertex -34.271 -28.3243 1.1
      vertex -39.075 -26.1854 1.1
      vertex -38.4543 -25.9091 1.1
    endloop
  endfacet
  facet normal 1.22461e-16 0 -1
    outer loop
      vertex -34.271 -28.3243 1.1
      vertex -38.4543 -25.9091 1.1
      vertex -37.7897 -25.7678 1.1
    endloop
  endfacet
  facet normal 1.22461e-16 0 -1
    outer loop
      vertex -34.271 -28.3243 1.1
      vertex -37.7897 -25.7678 1.1
      vertex -37.1103 -25.7678 1.1
    endloop
  endfacet
  facet normal 1.22461e-16 0 -1
    outer loop
      vertex -34.271 -28.3243 1.1
      vertex -37.1103 -25.7678 1.1
      vertex -36.4457 -25.9091 1.1
    endloop
  endfacet
  facet normal 1.22461e-16 0 -1
    outer loop
      vertex -34.271 -28.3243 1.1
      vertex -36.4457 -25.9091 1.1
      vertex -35.825 -26.1854 1.1
    endloop
  endfacet
  facet normal 1.22461e-16 0 -1
    outer loop
      vertex -34.271 -28.3243 1.1
      vertex -35.825 -26.1854 1.1
      vertex -35.2753 -26.5848 1.1
    endloop
  endfacet
  facet normal 1.22461e-16 0 -1
    outer loop
      vertex -34.271 -28.3243 1.1
      vertex -35.2753 -26.5848 1.1
      vertex -34.8207 -27.0897 1.1
    endloop
  endfacet
  facet normal 1.22461e-16 0 -1
    outer loop
      vertex -34.271 -28.3243 1.1
      vertex -34.8207 -27.0897 1.1
      vertex -34.481 -27.6781 1.1
    endloop
  endfacet
endsolid OpenSCAD_Model
